<svg viewBox="0 0 330 200" xmlns="http://www.w3.org/2000/svg"><g><g><g><g><g><line x1="50" y1="178" x2="45" y2="178" style="visibility: inherit;" fill="rgb(0, 0, 0)" stroke="rgb(204, 204, 204)" stroke-width="1px"></line><line x1="50" y1="160.2" x2="45" y2="160.2" style="visibility: inherit;" fill="rgb(0, 0, 0)" stroke="rgb(204, 204, 204)" stroke-width="1px"></line><line x1="50" y1="142.4" x2="45" y2="142.4" style="visibility: inherit;" fill="rgb(0, 0, 0)" stroke="rgb(204, 204, 204)" stroke-width="1px"></line><line x1="50" y1="124.6" x2="45" y2="124.6" style="visibility: inherit;" fill="rgb(0, 0, 0)" stroke="rgb(204, 204, 204)" stroke-width="1px"></line><line x1="50" y1="106.8" x2="45" y2="106.8" style="visibility: inherit;" fill="rgb(0, 0, 0)" stroke="rgb(204, 204, 204)" stroke-width="1px"></line><line x1="50" y1="89" x2="45" y2="89" style="visibility: inherit;" fill="rgb(0, 0, 0)" stroke="rgb(204, 204, 204)" stroke-width="1px"></line><line x1="50" y1="71.2" x2="45" y2="71.2" style="visibility: inherit;" fill="rgb(0, 0, 0)" stroke="rgb(204, 204, 204)" stroke-width="1px"></line><line x1="50" y1="53.400000000000006" x2="45" y2="53.400000000000006" style="visibility: inherit;" fill="rgb(0, 0, 0)" stroke="rgb(204, 204, 204)" stroke-width="1px"></line><line x1="50" y1="35.60000000000002" x2="45" y2="35.60000000000002" style="visibility: inherit;" fill="rgb(0, 0, 0)" stroke="rgb(204, 204, 204)" stroke-width="1px"></line><line x1="50" y1="17.799999999999983" x2="45" y2="17.799999999999983" style="visibility: inherit;" fill="rgb(0, 0, 0)" stroke="rgb(204, 204, 204)" stroke-width="1px"></line><line x1="50" y1="0" x2="45" y2="0" style="visibility: inherit;" fill="rgb(0, 0, 0)" stroke="rgb(204, 204, 204)" stroke-width="1px"></line></g><g transform="translate(40, 0)"><text x="0" y="178" dx="0em" dy="0.3em" style="text-anchor: end; visibility: hidden; font-family: &quot;Helvetica Neue&quot;, sans-serif; font-size: 12px; font-weight: 200;" fill="rgb(50, 49, 63)" stroke="none" stroke-width="1px">-0.2</text><text x="0" y="160.2" dx="0em" dy="0.3em" style="text-anchor: end; visibility: inherit; font-family: &quot;Helvetica Neue&quot;, sans-serif; font-size: 12px; font-weight: 200;" fill="rgb(50, 49, 63)" stroke="none" stroke-width="1px">0</text><text x="0" y="142.4" dx="0em" dy="0.3em" style="text-anchor: end; visibility: hidden; font-family: &quot;Helvetica Neue&quot;, sans-serif; font-size: 12px; font-weight: 200;" fill="rgb(50, 49, 63)" stroke="none" stroke-width="1px">0.2</text><text x="0" y="124.6" dx="0em" dy="0.3em" style="text-anchor: end; visibility: inherit; font-family: &quot;Helvetica Neue&quot;, sans-serif; font-size: 12px; font-weight: 200;" fill="rgb(50, 49, 63)" stroke="none" stroke-width="1px">0.4</text><text x="0" y="106.8" dx="0em" dy="0.3em" style="text-anchor: end; visibility: hidden; font-family: &quot;Helvetica Neue&quot;, sans-serif; font-size: 12px; font-weight: 200;" fill="rgb(50, 49, 63)" stroke="none" stroke-width="1px">0.6</text><text x="0" y="89" dx="0em" dy="0.3em" style="text-anchor: end; visibility: inherit; font-family: &quot;Helvetica Neue&quot;, sans-serif; font-size: 12px; font-weight: 200;" fill="rgb(50, 49, 63)" stroke="none" stroke-width="1px">0.8</text><text x="0" y="71.2" dx="0em" dy="0.3em" style="text-anchor: end; visibility: hidden; font-family: &quot;Helvetica Neue&quot;, sans-serif; font-size: 12px; font-weight: 200;" fill="rgb(50, 49, 63)" stroke="none" stroke-width="1px">1</text><text x="0" y="53.400000000000006" dx="0em" dy="0.3em" style="text-anchor: end; visibility: inherit; font-family: &quot;Helvetica Neue&quot;, sans-serif; font-size: 12px; font-weight: 200;" fill="rgb(50, 49, 63)" stroke="none" stroke-width="1px">1.2</text><text x="0" y="35.60000000000002" dx="0em" dy="0.3em" style="text-anchor: end; visibility: hidden; font-family: &quot;Helvetica Neue&quot;, sans-serif; font-size: 12px; font-weight: 200;" fill="rgb(50, 49, 63)" stroke="none" stroke-width="1px">1.4</text><text x="0" y="17.799999999999983" dx="0em" dy="0.3em" style="text-anchor: end; visibility: inherit; font-family: &quot;Helvetica Neue&quot;, sans-serif; font-size: 12px; font-weight: 200;" fill="rgb(50, 49, 63)" stroke="none" stroke-width="1px">1.6</text><text x="0" y="0" dx="0em" dy="0.3em" style="text-anchor: end; visibility: hidden; font-family: &quot;Helvetica Neue&quot;, sans-serif; font-size: 12px; font-weight: 200;" fill="rgb(50, 49, 63)" stroke="none" stroke-width="1px">1.8</text></g><line x1="50" y1="0" x2="50" y2="178" fill="rgb(0, 0, 0)" stroke="rgb(204, 204, 204)" stroke-width="1px"></line></g></g><g transform="translate(50, 0)" clip-path="url(#clip_0)"><clipPath id="clip_0"><rect width="280" height="178"></rect></clipPath><g><g><g><line x1="0" y1="0" x2="0" y2="178" fill="rgb(0, 0, 0)" stroke="rgb(60, 60, 60)" stroke-width="1px" opacity="0.25"></line><line x1="23.333333333333332" y1="0" x2="23.333333333333332" y2="178" fill="rgb(0, 0, 0)" stroke="rgb(60, 60, 60)" stroke-width="1px" opacity="0.25"></line><line x1="46.666666666666664" y1="0" x2="46.666666666666664" y2="178" fill="rgb(0, 0, 0)" stroke="rgb(60, 60, 60)" stroke-width="1px" opacity="0.25"></line><line x1="70" y1="0" x2="70" y2="178" fill="rgb(0, 0, 0)" stroke="rgb(60, 60, 60)" stroke-width="1px" opacity="0.25"></line><line x1="93.33333333333333" y1="0" x2="93.33333333333333" y2="178" fill="rgb(0, 0, 0)" stroke="rgb(60, 60, 60)" stroke-width="1px" opacity="0.25"></line><line x1="116.66666666666667" y1="0" x2="116.66666666666667" y2="178" fill="rgb(0, 0, 0)" stroke="rgb(60, 60, 60)" stroke-width="1px" opacity="0.25"></line><line x1="140" y1="0" x2="140" y2="178" fill="rgb(0, 0, 0)" stroke="rgb(60, 60, 60)" stroke-width="1px" opacity="0.25"></line><line x1="163.33333333333334" y1="0" x2="163.33333333333334" y2="178" fill="rgb(0, 0, 0)" stroke="rgb(60, 60, 60)" stroke-width="1px" opacity="0.25"></line><line x1="186.66666666666666" y1="0" x2="186.66666666666666" y2="178" fill="rgb(0, 0, 0)" stroke="rgb(60, 60, 60)" stroke-width="1px" opacity="0.25"></line><line x1="210" y1="0" x2="210" y2="178" fill="rgb(0, 0, 0)" stroke="rgb(60, 60, 60)" stroke-width="1px" opacity="0.25"></line><line x1="233.33333333333334" y1="0" x2="233.33333333333334" y2="178" fill="rgb(0, 0, 0)" stroke="rgb(60, 60, 60)" stroke-width="1px" opacity="0.25"></line><line x1="256.66666666666663" y1="0" x2="256.66666666666663" y2="178" fill="rgb(0, 0, 0)" stroke="rgb(60, 60, 60)" stroke-width="1px" opacity="0.25"></line><line x1="280" y1="0" x2="280" y2="178" fill="rgb(0, 0, 0)" stroke="rgb(60, 60, 60)" stroke-width="1px" opacity="0.25"></line></g><g><line x1="0" y1="178" x2="280" y2="178" fill="rgb(0, 0, 0)" stroke="rgb(60, 60, 60)" stroke-width="1px" opacity="0.25"></line><line x1="0" y1="160.2" x2="280" y2="160.2" fill="rgb(0, 0, 0)" stroke="rgb(60, 60, 60)" stroke-width="1px" opacity="0.25"></line><line x1="0" y1="142.4" x2="280" y2="142.4" fill="rgb(0, 0, 0)" stroke="rgb(60, 60, 60)" stroke-width="1px" opacity="0.25"></line><line x1="0" y1="124.6" x2="280" y2="124.6" fill="rgb(0, 0, 0)" stroke="rgb(60, 60, 60)" stroke-width="1px" opacity="0.25"></line><line x1="0" y1="106.8" x2="280" y2="106.8" fill="rgb(0, 0, 0)" stroke="rgb(60, 60, 60)" stroke-width="1px" opacity="0.25"></line><line x1="0" y1="89" x2="280" y2="89" fill="rgb(0, 0, 0)" stroke="rgb(60, 60, 60)" stroke-width="1px" opacity="0.25"></line><line x1="0" y1="71.2" x2="280" y2="71.2" fill="rgb(0, 0, 0)" stroke="rgb(60, 60, 60)" stroke-width="1px" opacity="0.25"></line><line x1="0" y1="53.400000000000006" x2="280" y2="53.400000000000006" fill="rgb(0, 0, 0)" stroke="rgb(60, 60, 60)" stroke-width="1px" opacity="0.25"></line><line x1="0" y1="35.60000000000002" x2="280" y2="35.60000000000002" fill="rgb(0, 0, 0)" stroke="rgb(60, 60, 60)" stroke-width="1px" opacity="0.25"></line><line x1="0" y1="17.799999999999983" x2="280" y2="17.799999999999983" fill="rgb(0, 0, 0)" stroke="rgb(60, 60, 60)" stroke-width="1px" opacity="0.25"></line><line x1="0" y1="0" x2="280" y2="0" fill="rgb(0, 0, 0)" stroke="rgb(60, 60, 60)" stroke-width="1px" opacity="0.25"></line></g></g></g><g><g><line x1="0" y1="160.2" x2="280" y2="160.2" fill="rgb(0, 0, 0)" stroke="rgb(153, 153, 153)" stroke-width="1.5px"></line></g></g><g><g><line x1="23.333333333333332" y1="0" x2="23.333333333333332" y2="178" fill="rgb(0, 0, 0)" stroke="rgb(153, 153, 153)" stroke-width="1.5px"></line></g></g><g><g><g><g><g><path stroke="rgb(0, 119, 187)" stroke-width="2px" d="M23.333333333333332,12.601609659194963L24.5,14.586087298393267L25.666666666666664,16.529240441322344L26.833333333333336,18.39071006774904L28,20.17699987888338L29.166666666666668,21.892608356475847L30.333333333333336,23.530936312675493L31.5,25.11076278686525L32.666666666666664,26.624119949340837L33.833333333333336,28.084195566177385L35,29.479552459716814L36.16666666666667,30.827473711967485L37.333333333333336,32.11774225234987L38.5,33.37049515247347L39.666666666666664,34.5733721971512L40.833333333333336,35.7312113761902L42,36.84836263656618L43.16666666666667,37.93487329483034L44.33333333333333,38.9879424095154L45.5,40.00543744564058L46.666666666666664,40.98903472423555L47.833333333333336,41.94792218208315L49,42.87376065254213L50.166666666666664,43.77864511013033L51.33333333333333,44.65900011062624L52.5,45.51269311904909L53.66666666666667,46.341612648963945L54.833333333333336,47.15336580276491L56,47.94492883682253L57.166666666666664,48.71776587963106L58.333333333333336,49.47215278148653L59.5,50.20990378856659L60.66666666666667,50.92658407688141L61.83333333333333,51.628994417190555L63,52.32241840362549L64.16666666666666,53.00046904087067L65.33333333333333,53.66459984779358L66.5,54.31417424678803L67.66666666666667,54.95204622745514L68.83333333333333,55.57665617465973L70,56.19028515815735L71.16666666666666,56.795712900161746L72.33333333333334,57.39628143310547L73.5,57.98189039230347L74.66666666666667,58.55621070861817L75.83333333333333,59.12445170879364L77,59.685085606575015L78.16666666666667,60.23519475460053L79.33333333333333,60.781908822059634L80.5,61.319509220123294L81.66666666666667,61.84991629123688L82.83333333333333,62.37276930809021L84,62.89327759742737L85.16666666666666,63.40397198200226L86.33333333333334,63.9078549861908L87.5,64.40419454574585L88.66666666666666,64.89848644733429L89.83333333333334,65.38582904338837L91,65.86910815238953L92.16666666666667,66.34596843719483L93.33333333333333,66.81660087108612L94.5,67.28333957195282L95.66666666666667,67.74531455039978L96.83333333333333,68.20368225574494L98,68.65790159702301L99.16666666666667,69.10669941902161L100.33333333333333,69.55309946537018L101.5,69.992475938797L102.66666666666666,70.43201155662537L103.83333333333334,70.86854465007782L105,71.29656351804734L106.16666666666666,71.7208849310875L107.33333333333334,72.14630444049835L108.5,72.56441922187805L109.66666666666667,72.97796655893326L110.83333333333333,73.39068104028702L112,73.80032933950424L113.16666666666667,74.20722444057465L114.33333333333333,74.60926033258438L115.5,75.01482392549515L116.66666666666667,75.41063727140427L117.83333333333333,75.7995119214058L119,76.18934674263001L120.16666666666666,76.57796676158905L121.33333333333334,76.96174879074097L122.5,77.34531862735749L123.66666666666666,77.72241659164429L124.83333333333334,78.09670300483704L126,78.4685438990593L127.16666666666667,78.83747245073319L128.33333333333331,79.20549387931824L129.5,79.57061887979508L130.66666666666666,79.92892189025879L131.83333333333334,80.28858293294907L133,80.64005334377289L134.16666666666669,80.9915290594101L135.33333333333334,81.33928610086441L136.5,81.68479920625687L137.66666666666666,82.02815325260163L138.83333333333334,82.36892915964127L140,82.70621980428696L141.16666666666666,83.0412612080574L142.33333333333331,83.37385178804398L143.5,83.70363612174988L144.66666666666669,84.03165925741196L145.83333333333334,84.35471178293228L147,84.67796589136124L148.16666666666666,84.99592579603195L149.33333333333334,85.31296796798706L150.5,85.62531538009644L151.66666666666666,85.93751956224442L152.83333333333331,86.24719334840775L154,86.55993331670761L155.16666666666669,86.86472667455674L156.33333333333334,87.16949350833893L157.5,87.46926320791245L158.66666666666666,87.76775444746018L159.83333333333331,88.06584782600403L161,88.35876370668412L162.16666666666669,88.65198196172715L163.33333333333334,88.94244701862335L164.5,89.22667891979218L165.66666666666666,89.51196647882462L166.83333333333334,89.79829378128052L168,90.08026052713394L169.16666666666666,90.35843963623047L170.33333333333331,90.63171179294586L171.5,90.90211404561997L172.66666666666669,91.17613948583603L173.83333333333334,91.44543833732605L175,91.71421731710434L176.16666666666666,91.98418457508087L177.33333333333331,92.24458194971085L178.5,92.50924439430237L179.66666666666669,92.76701588630677L180.83333333333334,93.02454866170883L182,93.27892507314682L183.16666666666666,93.5356037735939L184.33333333333334,93.78982104063034L185.5,94.04164053201676L186.66666666666666,94.2912213921547L187.83333333333331,94.53896678686142L189,94.782590341568L190.16666666666669,95.02478159666062L191.33333333333334,95.26028878688813L192.5,95.49500025510788L193.66666666666666,95.73137212991715L194.83333333333331,95.96598811149597L196,96.19828588962555L197.16666666666669,96.42861558198929L198.33333333333334,96.65886039733887L199.5,96.8845589876175L200.66666666666666,97.10574318170548L201.83333333333334,97.33195633888245L203,97.55684329271317L204.16666666666666,97.77731133699417L205.33333333333331,97.99672902822495L206.5,98.21552605628968L207.66666666666669,98.43098105192185L208.83333333333334,98.6453114271164L210,98.85724402666092L211.16666666666666,99.06662501096726L212.33333333333331,99.27453125715256L213.5,99.48333932161331L214.66666666666669,99.68727756738663L215.83333333333334,99.88968272209168L217,100.09213562011719L218.16666666666666,100.29202098846436L219.33333333333334,100.49070216417313L220.5,100.68719775676728L221.66666666666666,100.88257403373719L222.83333333333331,101.07694770097733L224,101.26804829835892L225.16666666666669,101.46085704565049L226.33333333333334,101.65098155736924L227.5,101.83918572664261L228.66666666666666,102.02693898677826L229.83333333333331,102.21104784011841L231,102.39362890720368L232.16666666666669,102.57861835956574L233.33333333333334,102.7583348274231L234.5,102.93555272817612L235.66666666666666,103.11669619083405L236.83333333333334,103.29472572803498L238,103.47166777849198L239.16666666666666,103.64829154014588L240.33333333333331,103.82153083086014L241.5,103.99192674160004L242.66666666666669,104.16362233161927L243.83333333333334,104.33196527957917L245,104.50020213127137L246.16666666666666,104.66912860870362L247.33333333333331,104.83339745998383L248.5,104.99728436470032L249.66666666666669,105.1627680182457L250.83333333333334,105.32228375673294L252,105.48217083215714L253.16666666666666,105.64110834598542L254.33333333333334,105.80143041610718L255.5,105.9585112452507" style="fill: none;" fill="none"></path></g><g><path stroke="rgb(255, 112, 67)" stroke-width="2px" d="M23.333333333333332,11.046864342689531L24.5,12.66473693847658L25.666666666666664,13.749231767654436L26.833333333333336,16.10263795852663L28,17.80885691642763L29.166666666666668,20.012105059623735L30.333333333333336,21.830616307258623L31.5,23.25751562118532L32.666666666666664,24.76710636615755L33.833333333333336,26.19071669578554L35,27.78311557769777L36.16666666666667,28.90226144790651L37.333333333333336,30.821479272842424L38.5,31.250956964492815L39.666666666666664,32.73769457340242L40.833333333333336,33.60553021430971L42,35.02260501384737L43.16666666666667,35.917749834060686L44.33333333333333,37.33103699684145L45.5,38.807430219650286L46.666666666666664,39.54719705581667L47.833333333333336,40.030019950866716L49,41.68771047592165L50.166666666666664,41.7993767976761L51.33333333333333,42.52130885124208L52.5,43.80195446014406L53.66666666666667,45.06355578899385L54.833333333333336,46.00808842182161L56,46.74713380336763L57.166666666666664,47.666213941574114L58.333333333333336,48.26087291240694L59.5,49.1589035511017L60.66666666666667,49.340391826629656L61.83333333333333,50.907189679145816L63,50.391370844841006L64.16666666666666,52.026070308685306L65.33333333333333,52.4250771522522L66.5,52.75032587051392L67.66666666666667,53.51611812114716L68.83333333333333,54.7889550447464L70,54.80337352752686L71.16666666666666,55.85414035320282L72.33333333333334,56.62576789855957L73.5,57.02220721244812L74.66666666666667,57.95846433639527L75.83333333333333,58.32862360477448L77,58.544922065734866L78.16666666666667,59.494557929039004L79.33333333333333,59.7869380235672L80.5,60.054799270629886L81.66666666666667,60.46459610462189L82.83333333333333,61.906433773040774L84,61.75327320098877L85.16666666666666,62.19628877639771L86.33333333333334,63.118551802635196L87.5,63.70404405593872L88.66666666666666,63.70259053707123L89.83333333333334,64.65139884948731L91,65.32678647041321L92.16666666666667,65.16161580085755L93.33333333333333,66.00598294734955L94.5,66.13919742107392L95.66666666666667,66.53132922649384L96.83333333333333,67.71905572414398L98,67.49087448120117L99.16666666666667,67.83243019580841L100.33333333333333,68.28407139778137L101.5,69.38105375766754L102.66666666666666,69.5068414926529L103.83333333333334,69.86267776489258L105,70.92278106212616L106.16666666666666,70.45685930252075L107.33333333333334,70.49218935966492L108.5,71.44678522348404L109.66666666666667,72.04529548883438L110.83333333333333,71.9308812737465L112,72.80708260536194L113.16666666666667,73.05907185077668L114.33333333333333,73.79019714593888L115.5,73.7677524805069L116.66666666666667,74.28362966775894L117.83333333333333,75.20388216972351L119,74.60474063158036L120.16666666666666,75.27694536447525L121.33333333333334,76.07782895565033L122.5,76.19070477485657L123.66666666666666,75.99343467950821L124.83333333333334,76.8248899102211L126,77.55996198654175L127.16666666666667,77.39017612934113L128.33333333333331,78.57518656253815L129.5,77.8888816356659L130.66666666666666,79.2375720858574L131.83333333333334,78.62892962694168L133,79.81728209257126L134.16666666666669,79.79379768371582L135.33333333333334,79.66943163871765L136.5,80.95697880983353L137.66666666666666,80.63998438119889L138.83333333333334,80.98988456726075L140,81.34808678627014L141.16666666666666,82.00759179592133L142.33333333333331,81.92995054721833L143.5,82.43170632123947L144.66666666666669,82.67211515903473L145.83333333333334,82.86475945711136L147,83.11187888383866L148.16666666666666,83.54409385919571L149.33333333333334,83.76637614965439L150.5,83.78702248334885L151.66666666666666,84.73188931941986L152.83333333333331,85.34811235666275L154,85.19372637271881L155.16666666666669,85.49879027605057L156.33333333333334,85.28108073472977L157.5,85.97904564142227L158.66666666666666,86.19538123607636L159.83333333333331,86.44924838542939L161,87.30242682695389L162.16666666666669,87.20830352306366L163.33333333333334,88.28161050081253L164.5,87.82262743711472L165.66666666666666,87.89727677106858L166.83333333333334,87.78884638547898L168,88.36249829530716L169.16666666666666,88.90604538917542L170.33333333333331,89.50798786878586L171.5,89.18135459423065L172.66666666666669,89.72543216943741L173.83333333333334,89.88427950143814L175,89.81312073469162L176.16666666666666,90.35570765733719L177.33333333333331,90.37930346727372L178.5,91.40283538103104L179.66666666666669,91.00682575702668L180.83333333333334,91.64574278593064L182,92.09291733503342L183.16666666666666,91.85463042259217L184.33333333333334,91.93366153240204L185.5,92.2835617184639L186.66666666666666,92.80825020074845L187.83333333333331,92.48919750452042L189,93.11656064987183L190.16666666666669,93.36835361719132L191.33333333333334,93.10573352575302L192.5,93.41452140808106L193.66666666666666,94.18198467493058L194.83333333333331,94.23187114000321L196,94.58536268472672L197.16666666666669,94.95068926811219L198.33333333333334,94.87260771989823L199.5,95.13593335151673L200.66666666666666,95.16185266971588L201.83333333333334,95.60996617078781L203,95.72598774433136L204.16666666666666,96.16462154388428L205.33333333333331,96.60625256299973L206.5,96.16252083778382L207.66666666666669,96.15547074079514L208.83333333333334,96.70538891553879L210,96.91932673454285L211.16666666666666,97.25672878026963L212.33333333333331,97.06573958396912L213.5,97.43673701286316L214.66666666666669,97.73509563207627L215.83333333333334,97.84349949359894L217,97.69701768159867L218.16666666666666,98.45160086154938L219.33333333333334,98.49070794582367L220.5,98.24901534318924L221.66666666666666,99.06368083953858L222.83333333333331,99.23561514616013L224,99.08627934455872L225.16666666666669,99.55798335075379L226.33333333333334,99.53248311281205L227.5,99.96248067617417L228.66666666666666,99.86045850515366L229.83333333333331,99.81721366643906L231,100.91889078617096L232.16666666666669,100.45484693050385L233.33333333333334,100.48061240911484L234.5,101.07198239564896L235.66666666666666,100.97566820383072L236.83333333333334,101.10861213207245L238,101.40226007699967L239.16666666666666,101.39384664297104L240.33333333333331,101.65007973909378L241.5,101.5922837972641L242.66666666666669,101.9658805847168L243.83333333333334,102.65015907287598L245,102.24418170452118L246.16666666666666,102.59216154813767L247.33333333333331,102.43059284687043L248.5,102.79491682052613L249.66666666666669,102.70785952806473L250.83333333333334,102.94442768096924L252,103.42514456510544L253.16666666666666,103.25800580978394L254.33333333333334,103.48436750173569L255.5,103.68612016439438" style="fill: none;" fill="none"></path></g></g></g></g></g></g><g transform="translate(50, 178)" clip-path="url(#clip_1)"><clipPath id="clip_1"><rect width="280" height="22"></rect></clipPath><g><g><line x1="0" y1="0" x2="0" y2="5" style="visibility: inherit;" fill="rgb(0, 0, 0)" stroke="rgb(204, 204, 204)" stroke-width="1px"></line><line x1="23.333333333333332" y1="0" x2="23.333333333333332" y2="5" style="visibility: inherit;" fill="rgb(0, 0, 0)" stroke="rgb(204, 204, 204)" stroke-width="1px"></line><line x1="46.666666666666664" y1="0" x2="46.666666666666664" y2="5" style="visibility: inherit;" fill="rgb(0, 0, 0)" stroke="rgb(204, 204, 204)" stroke-width="1px"></line><line x1="70" y1="0" x2="70" y2="5" style="visibility: inherit;" fill="rgb(0, 0, 0)" stroke="rgb(204, 204, 204)" stroke-width="1px"></line><line x1="93.33333333333333" y1="0" x2="93.33333333333333" y2="5" style="visibility: inherit;" fill="rgb(0, 0, 0)" stroke="rgb(204, 204, 204)" stroke-width="1px"></line><line x1="116.66666666666667" y1="0" x2="116.66666666666667" y2="5" style="visibility: inherit;" fill="rgb(0, 0, 0)" stroke="rgb(204, 204, 204)" stroke-width="1px"></line><line x1="140" y1="0" x2="140" y2="5" style="visibility: inherit;" fill="rgb(0, 0, 0)" stroke="rgb(204, 204, 204)" stroke-width="1px"></line><line x1="163.33333333333334" y1="0" x2="163.33333333333334" y2="5" style="visibility: inherit;" fill="rgb(0, 0, 0)" stroke="rgb(204, 204, 204)" stroke-width="1px"></line><line x1="186.66666666666666" y1="0" x2="186.66666666666666" y2="5" style="visibility: inherit;" fill="rgb(0, 0, 0)" stroke="rgb(204, 204, 204)" stroke-width="1px"></line><line x1="210" y1="0" x2="210" y2="5" style="visibility: inherit;" fill="rgb(0, 0, 0)" stroke="rgb(204, 204, 204)" stroke-width="1px"></line><line x1="233.33333333333334" y1="0" x2="233.33333333333334" y2="5" style="visibility: inherit;" fill="rgb(0, 0, 0)" stroke="rgb(204, 204, 204)" stroke-width="1px"></line><line x1="256.66666666666663" y1="0" x2="256.66666666666663" y2="5" style="visibility: inherit;" fill="rgb(0, 0, 0)" stroke="rgb(204, 204, 204)" stroke-width="1px"></line><line x1="280" y1="0" x2="280" y2="5" style="visibility: inherit;" fill="rgb(0, 0, 0)" stroke="rgb(204, 204, 204)" stroke-width="1px"></line></g><g transform="translate(0, 8)"><text x="0" y="0" dx="0em" dy="0.95em" style="text-anchor: middle; visibility: hidden; font-family: &quot;Helvetica Neue&quot;, sans-serif; font-size: 12px; font-weight: 200;" fill="rgb(50, 49, 63)" stroke="none" stroke-width="1px">-20</text><text x="23.333333333333332" y="0" dx="0em" dy="0.95em" style="text-anchor: middle; visibility: inherit; font-family: &quot;Helvetica Neue&quot;, sans-serif; font-size: 12px; font-weight: 200;" fill="rgb(50, 49, 63)" stroke="none" stroke-width="1px">0</text><text x="46.666666666666664" y="0" dx="0em" dy="0.95em" style="text-anchor: middle; visibility: hidden; font-family: &quot;Helvetica Neue&quot;, sans-serif; font-size: 12px; font-weight: 200;" fill="rgb(50, 49, 63)" stroke="none" stroke-width="1px">20</text><text x="70" y="0" dx="0em" dy="0.95em" style="text-anchor: middle; visibility: inherit; font-family: &quot;Helvetica Neue&quot;, sans-serif; font-size: 12px; font-weight: 200;" fill="rgb(50, 49, 63)" stroke="none" stroke-width="1px">40</text><text x="93.33333333333333" y="0" dx="0em" dy="0.95em" style="text-anchor: middle; visibility: hidden; font-family: &quot;Helvetica Neue&quot;, sans-serif; font-size: 12px; font-weight: 200;" fill="rgb(50, 49, 63)" stroke="none" stroke-width="1px">60</text><text x="116.66666666666667" y="0" dx="0em" dy="0.95em" style="text-anchor: middle; visibility: inherit; font-family: &quot;Helvetica Neue&quot;, sans-serif; font-size: 12px; font-weight: 200;" fill="rgb(50, 49, 63)" stroke="none" stroke-width="1px">80</text><text x="140" y="0" dx="0em" dy="0.95em" style="text-anchor: middle; visibility: hidden; font-family: &quot;Helvetica Neue&quot;, sans-serif; font-size: 12px; font-weight: 200;" fill="rgb(50, 49, 63)" stroke="none" stroke-width="1px">100</text><text x="163.33333333333334" y="0" dx="0em" dy="0.95em" style="text-anchor: middle; visibility: inherit; font-family: &quot;Helvetica Neue&quot;, sans-serif; font-size: 12px; font-weight: 200;" fill="rgb(50, 49, 63)" stroke="none" stroke-width="1px">120</text><text x="186.66666666666666" y="0" dx="0em" dy="0.95em" style="text-anchor: middle; visibility: hidden; font-family: &quot;Helvetica Neue&quot;, sans-serif; font-size: 12px; font-weight: 200;" fill="rgb(50, 49, 63)" stroke="none" stroke-width="1px">140</text><text x="210" y="0" dx="0em" dy="0.95em" style="text-anchor: middle; visibility: inherit; font-family: &quot;Helvetica Neue&quot;, sans-serif; font-size: 12px; font-weight: 200;" fill="rgb(50, 49, 63)" stroke="none" stroke-width="1px">160</text><text x="233.33333333333334" y="0" dx="0em" dy="0.95em" style="text-anchor: middle; visibility: hidden; font-family: &quot;Helvetica Neue&quot;, sans-serif; font-size: 12px; font-weight: 200;" fill="rgb(50, 49, 63)" stroke="none" stroke-width="1px">180</text><text x="256.66666666666663" y="0" dx="0em" dy="0.95em" style="text-anchor: middle; visibility: inherit; font-family: &quot;Helvetica Neue&quot;, sans-serif; font-size: 12px; font-weight: 200;" fill="rgb(50, 49, 63)" stroke="none" stroke-width="1px">200</text><text x="280" y="0" dx="0em" dy="0.95em" style="text-anchor: middle; visibility: hidden; font-family: &quot;Helvetica Neue&quot;, sans-serif; font-size: 12px; font-weight: 200;" fill="rgb(50, 49, 63)" stroke="none" stroke-width="1px">220</text></g><line x1="0" y1="0" x2="280" y2="0" fill="rgb(0, 0, 0)" stroke="rgb(204, 204, 204)" stroke-width="1px"></line></g></g></g></g></svg>