<svg viewBox="0 0 330 200" xmlns="http://www.w3.org/2000/svg"><g><g><g><g><g><line x1="50" y1="178" x2="45" y2="178" style="visibility: inherit;" fill="rgb(0, 0, 0)" stroke="rgb(204, 204, 204)" stroke-width="1px"></line><line x1="50" y1="160.2" x2="45" y2="160.2" style="visibility: inherit;" fill="rgb(0, 0, 0)" stroke="rgb(204, 204, 204)" stroke-width="1px"></line><line x1="50" y1="142.4" x2="45" y2="142.4" style="visibility: inherit;" fill="rgb(0, 0, 0)" stroke="rgb(204, 204, 204)" stroke-width="1px"></line><line x1="50" y1="124.6" x2="45" y2="124.6" style="visibility: inherit;" fill="rgb(0, 0, 0)" stroke="rgb(204, 204, 204)" stroke-width="1px"></line><line x1="50" y1="106.8" x2="45" y2="106.8" style="visibility: inherit;" fill="rgb(0, 0, 0)" stroke="rgb(204, 204, 204)" stroke-width="1px"></line><line x1="50" y1="89" x2="45" y2="89" style="visibility: inherit;" fill="rgb(0, 0, 0)" stroke="rgb(204, 204, 204)" stroke-width="1px"></line><line x1="50" y1="71.2" x2="45" y2="71.2" style="visibility: inherit;" fill="rgb(0, 0, 0)" stroke="rgb(204, 204, 204)" stroke-width="1px"></line><line x1="50" y1="53.400000000000006" x2="45" y2="53.400000000000006" style="visibility: inherit;" fill="rgb(0, 0, 0)" stroke="rgb(204, 204, 204)" stroke-width="1px"></line><line x1="50" y1="35.60000000000002" x2="45" y2="35.60000000000002" style="visibility: inherit;" fill="rgb(0, 0, 0)" stroke="rgb(204, 204, 204)" stroke-width="1px"></line><line x1="50" y1="17.799999999999983" x2="45" y2="17.799999999999983" style="visibility: inherit;" fill="rgb(0, 0, 0)" stroke="rgb(204, 204, 204)" stroke-width="1px"></line><line x1="50" y1="0" x2="45" y2="0" style="visibility: inherit;" fill="rgb(0, 0, 0)" stroke="rgb(204, 204, 204)" stroke-width="1px"></line></g><g transform="translate(40, 0)"><text x="0" y="178" dx="0em" dy="0.3em" style="text-anchor: end; visibility: hidden; font-family: &quot;Helvetica Neue&quot;, sans-serif; font-size: 12px; font-weight: 200;" fill="rgb(50, 49, 63)" stroke="none" stroke-width="1px">-0.1</text><text x="0" y="160.2" dx="0em" dy="0.3em" style="text-anchor: end; visibility: inherit; font-family: &quot;Helvetica Neue&quot;, sans-serif; font-size: 12px; font-weight: 200;" fill="rgb(50, 49, 63)" stroke="none" stroke-width="1px">0</text><text x="0" y="142.4" dx="0em" dy="0.3em" style="text-anchor: end; visibility: hidden; font-family: &quot;Helvetica Neue&quot;, sans-serif; font-size: 12px; font-weight: 200;" fill="rgb(50, 49, 63)" stroke="none" stroke-width="1px">0.1</text><text x="0" y="124.6" dx="0em" dy="0.3em" style="text-anchor: end; visibility: inherit; font-family: &quot;Helvetica Neue&quot;, sans-serif; font-size: 12px; font-weight: 200;" fill="rgb(50, 49, 63)" stroke="none" stroke-width="1px">0.2</text><text x="0" y="106.8" dx="0em" dy="0.3em" style="text-anchor: end; visibility: hidden; font-family: &quot;Helvetica Neue&quot;, sans-serif; font-size: 12px; font-weight: 200;" fill="rgb(50, 49, 63)" stroke="none" stroke-width="1px">0.3</text><text x="0" y="89" dx="0em" dy="0.3em" style="text-anchor: end; visibility: inherit; font-family: &quot;Helvetica Neue&quot;, sans-serif; font-size: 12px; font-weight: 200;" fill="rgb(50, 49, 63)" stroke="none" stroke-width="1px">0.4</text><text x="0" y="71.2" dx="0em" dy="0.3em" style="text-anchor: end; visibility: hidden; font-family: &quot;Helvetica Neue&quot;, sans-serif; font-size: 12px; font-weight: 200;" fill="rgb(50, 49, 63)" stroke="none" stroke-width="1px">0.5</text><text x="0" y="53.400000000000006" dx="0em" dy="0.3em" style="text-anchor: end; visibility: inherit; font-family: &quot;Helvetica Neue&quot;, sans-serif; font-size: 12px; font-weight: 200;" fill="rgb(50, 49, 63)" stroke="none" stroke-width="1px">0.6</text><text x="0" y="35.60000000000002" dx="0em" dy="0.3em" style="text-anchor: end; visibility: hidden; font-family: &quot;Helvetica Neue&quot;, sans-serif; font-size: 12px; font-weight: 200;" fill="rgb(50, 49, 63)" stroke="none" stroke-width="1px">0.7</text><text x="0" y="17.799999999999983" dx="0em" dy="0.3em" style="text-anchor: end; visibility: inherit; font-family: &quot;Helvetica Neue&quot;, sans-serif; font-size: 12px; font-weight: 200;" fill="rgb(50, 49, 63)" stroke="none" stroke-width="1px">0.8</text><text x="0" y="0" dx="0em" dy="0.3em" style="text-anchor: end; visibility: hidden; font-family: &quot;Helvetica Neue&quot;, sans-serif; font-size: 12px; font-weight: 200;" fill="rgb(50, 49, 63)" stroke="none" stroke-width="1px">0.9</text></g><line x1="50" y1="0" x2="50" y2="178" fill="rgb(0, 0, 0)" stroke="rgb(204, 204, 204)" stroke-width="1px"></line></g></g><g transform="translate(50, 0)" clip-path="url(#clip_0)"><clipPath id="clip_0"><rect width="280" height="178"></rect></clipPath><g><g><g><line x1="0" y1="0" x2="0" y2="178" fill="rgb(0, 0, 0)" stroke="rgb(60, 60, 60)" stroke-width="1px" opacity="0.25"></line><line x1="31.11111111111111" y1="0" x2="31.11111111111111" y2="178" fill="rgb(0, 0, 0)" stroke="rgb(60, 60, 60)" stroke-width="1px" opacity="0.25"></line><line x1="62.22222222222222" y1="0" x2="62.22222222222222" y2="178" fill="rgb(0, 0, 0)" stroke="rgb(60, 60, 60)" stroke-width="1px" opacity="0.25"></line><line x1="93.33333333333333" y1="0" x2="93.33333333333333" y2="178" fill="rgb(0, 0, 0)" stroke="rgb(60, 60, 60)" stroke-width="1px" opacity="0.25"></line><line x1="124.44444444444444" y1="0" x2="124.44444444444444" y2="178" fill="rgb(0, 0, 0)" stroke="rgb(60, 60, 60)" stroke-width="1px" opacity="0.25"></line><line x1="155.55555555555557" y1="0" x2="155.55555555555557" y2="178" fill="rgb(0, 0, 0)" stroke="rgb(60, 60, 60)" stroke-width="1px" opacity="0.25"></line><line x1="186.66666666666666" y1="0" x2="186.66666666666666" y2="178" fill="rgb(0, 0, 0)" stroke="rgb(60, 60, 60)" stroke-width="1px" opacity="0.25"></line><line x1="217.77777777777777" y1="0" x2="217.77777777777777" y2="178" fill="rgb(0, 0, 0)" stroke="rgb(60, 60, 60)" stroke-width="1px" opacity="0.25"></line><line x1="248.88888888888889" y1="0" x2="248.88888888888889" y2="178" fill="rgb(0, 0, 0)" stroke="rgb(60, 60, 60)" stroke-width="1px" opacity="0.25"></line><line x1="280" y1="0" x2="280" y2="178" fill="rgb(0, 0, 0)" stroke="rgb(60, 60, 60)" stroke-width="1px" opacity="0.25"></line></g><g><line x1="0" y1="178" x2="280" y2="178" fill="rgb(0, 0, 0)" stroke="rgb(60, 60, 60)" stroke-width="1px" opacity="0.25"></line><line x1="0" y1="160.2" x2="280" y2="160.2" fill="rgb(0, 0, 0)" stroke="rgb(60, 60, 60)" stroke-width="1px" opacity="0.25"></line><line x1="0" y1="142.4" x2="280" y2="142.4" fill="rgb(0, 0, 0)" stroke="rgb(60, 60, 60)" stroke-width="1px" opacity="0.25"></line><line x1="0" y1="124.6" x2="280" y2="124.6" fill="rgb(0, 0, 0)" stroke="rgb(60, 60, 60)" stroke-width="1px" opacity="0.25"></line><line x1="0" y1="106.8" x2="280" y2="106.8" fill="rgb(0, 0, 0)" stroke="rgb(60, 60, 60)" stroke-width="1px" opacity="0.25"></line><line x1="0" y1="89" x2="280" y2="89" fill="rgb(0, 0, 0)" stroke="rgb(60, 60, 60)" stroke-width="1px" opacity="0.25"></line><line x1="0" y1="71.2" x2="280" y2="71.2" fill="rgb(0, 0, 0)" stroke="rgb(60, 60, 60)" stroke-width="1px" opacity="0.25"></line><line x1="0" y1="53.400000000000006" x2="280" y2="53.400000000000006" fill="rgb(0, 0, 0)" stroke="rgb(60, 60, 60)" stroke-width="1px" opacity="0.25"></line><line x1="0" y1="35.60000000000002" x2="280" y2="35.60000000000002" fill="rgb(0, 0, 0)" stroke="rgb(60, 60, 60)" stroke-width="1px" opacity="0.25"></line><line x1="0" y1="17.799999999999983" x2="280" y2="17.799999999999983" fill="rgb(0, 0, 0)" stroke="rgb(60, 60, 60)" stroke-width="1px" opacity="0.25"></line><line x1="0" y1="0" x2="280" y2="0" fill="rgb(0, 0, 0)" stroke="rgb(60, 60, 60)" stroke-width="1px" opacity="0.25"></line></g></g></g><g><g><line x1="0" y1="160.2" x2="280" y2="160.2" fill="rgb(0, 0, 0)" stroke="rgb(153, 153, 153)" stroke-width="1.5px"></line></g></g><g><g><line x1="31.11111111111111" y1="0" x2="31.11111111111111" y2="178" fill="rgb(0, 0, 0)" stroke="rgb(153, 153, 153)" stroke-width="1.5px"></line></g></g><g><g><g><g><g><path stroke="rgb(0, 119, 187)" stroke-width="2px" d="M31.11111111111111,130.41466642618178L32.666666666666664,125.54933295845986L34.22222222222222,120.74333382844925L35.77777777777777,115.87800036072731L37.333333333333336,110.35999978780747L38.88888888888889,105.37600029706955L40.44444444444444,100.92599923610688L42,96.71333552598954L43.55555555555556,93.98399842977524L45.111111111111114,90.95800025463105L46.666666666666664,87.81333340406418L48.22222222222222,85.44000233411789L49.77777777777778,82.2360011458397L51.33333333333333,80.33733416795731L52.888888888888886,78.02333213090897L54.44444444444444,76.24333382844925L56,73.45466769933701L57.55555555555555,71.02200229167939L59.111111111111114,69.36066205501557L60.66666666666667,66.75000424385071L62.22222222222222,65.02933497428894L63.77777777777778,63.48666341304779L65.33333333333333,61.35066969394684L66.88888888888889,60.10466451644898L68.44444444444444,58.26533718109131L70,57.01933200359345L71.55555555555554,55.18000466823578L73.11111111111111,54.28999490737915L74.66666666666667,53.04400033950806L76.22222222222221,52.27266986370087L77.77777777777779,51.145333361625674L79.33333333333333,50.13666553497315L80.88888888888889,49.42466409206392L82.44444444444444,48.71266264915468L84,47.88200314044954L85.55555555555556,47.1700016975403L87.11111111111111,46.93266434669496L88.66666666666666,46.33933157920839L90.22222222222223,45.983336162567156L91.77777777777777,45.211995077133196L93.33333333333333,44.08466918468477L94.8888888888889,43.37266774177553L96.44444444444444,43.016661715507524L98,42.71999533176424L99.55555555555556,42.06733353137972L101.11111111111111,41.59266943931581L102.66666666666666,40.93999702930452L104.22222222222223,40.643330645561235L105.77777777777777,40.16866655349733L107.33333333333334,39.872000169754045L108.88888888888889,39.45666511058809L110.44444444444444,38.98200101852419L112,38.447997283935564L113.55555555555556,38.388668251037615L115.1111111111111,38.210670542717L116.66666666666667,38.447997283935564L118.22222222222223,38.03266222476961L119.77777777777777,37.498669099807756L121.33333333333334,37.26133174896242L122.88888888888889,36.727338624000566L124.44444444444444,36.6086699485779L126,36.37133259773256L127.55555555555556,36.31200356483461L129.11111111111111,36.074666213989275L130.66666666666666,35.83732886314394L132.22222222222223,35.4813334465027L133.77777777777777,35.42200441360475L135.33333333333334,35.362664771080034L136.88888888888889,35.06599838733675L138.44444444444446,34.65066332817079L140,34.591334295272844L141.55555555555554,34.35399694442751L143.1111111111111,34.41333658695223L144.66666666666669,34.17599923610689L146.22222222222223,34.05733056068422L147.77777777777777,33.820003819465654L149.33333333333334,33.64199550151827L150.88888888888889,33.4046687602997L152.44444444444443,33.4046687602997L154,33.28600008487703L155.55555555555557,33.22667105197908L157.11111111111111,32.87066502571108L158.66666666666666,32.75199635028841L160.2222222222222,32.81133599281313L161.77777777777777,32.63333828449251L163.33333333333334,32.69266731739046L164.88888888888889,32.63333828449251L166.44444444444446,32.75199635028841L168,32.75199635028841L169.55555555555554,32.51466960906984L171.11111111111111,32.45532996654512L172.66666666666669,32.218003225326555L174.22222222222223,32.158663582801836L175.77777777777777,31.92133684158327L177.33333333333331,31.506001782417314L178.88888888888889,31.328004074096697L180.44444444444446,31.14999575614931L182,30.912669014930742L183.55555555555554,30.912669014930742L185.11111111111111,30.675331664085405L186.66666666666666,30.616002631187456L188.22222222222223,30.43800492286684L189.7777777777778,30.43800492286684L191.33333333333334,30.556662988662737L192.88888888888889,30.31933624744417L194.44444444444443,30.2006675720215L196,30.25999660491945L197.55555555555557,30.2006675720215L199.11111111111111,30.2006675720215L200.66666666666666,30.25999660491945L202.22222222222223,30.081998896598833L203.77777777777777,30.2006675720215L205.33333333333331,29.963330221176165L206.8888888888889,29.963330221176165L208.44444444444446,29.904001188278215L210,29.963330221176165L211.55555555555554,29.963330221176165L213.1111111111111,30.2006675720215L214.66666666666669,29.963330221176165L216.22222222222223,29.844661545753496L217.77777777777777,29.904001188278215L219.33333333333334,29.904001188278215L220.88888888888889,29.844661545753496L222.44444444444443,30.022669863700884L224,30.141338539123552L225.55555555555557,30.081998896598833L227.11111111111111,29.785332512855547L228.66666666666666,30.022669863700884L230.2222222222222,29.726003479957598L231.77777777777777,29.60733480453493L233.33333333333334,29.251328778266924L234.88888888888889,29.42933709621431L236.44444444444446,29.251328778266924L238,29.132670712471025L239.55555555555554,29.132670712471025L241.11111111111111,29.132670712471025L242.66666666666669,29.191999745368975L244.22222222222223,28.89533336162569L245.77777777777777,28.89533336162569L247.33333333333331,29.132670712471025L248.88888888888889,29.014002037048357L250.44444444444446,29.073331069946306L252,29.132670712471025" style="fill: none;" fill="none"></path></g><g><path stroke="rgb(255, 112, 67)" stroke-width="2px" d="M31.11111111111111,135.50731645226477L32.666666666666664,131.5714022040367L34.22222222222222,127.80121032595635L35.77777777777777,122.74666742682457L37.333333333333336,117.7473662018776L38.88888888888889,114.39148290157318L40.44444444444444,109.58552355766297L42,105.69103724956513L43.55555555555556,102.14180941581726L45.111111111111114,98.28875900506974L46.666666666666664,95.76148755550385L48.22222222222222,93.2204023718834L49.77777777777778,90.70694465637207L51.33333333333333,88.48349578380585L52.888888888888886,85.5419184088707L54.44444444444444,82.80749399662018L56,82.06174333095551L57.55555555555555,81.08121753931046L59.111111111111114,77.6977120757103L60.66666666666667,75.86095227003098L62.22222222222222,73.51321161985398L63.77777777777778,71.82836575508118L65.33333333333333,70.18494517803192L66.88888888888889,68.15484614372254L68.44444444444444,68.25152106285095L70,65.62756938934326L71.55555555555554,64.30179042816162L73.11111111111111,63.41793425083161L74.66666666666667,63.19697816371918L76.22222222222221,61.05639047622681L77.77777777777779,60.3382566690445L79.33333333333333,59.799658966064456L80.88888888888889,58.5429274559021L82.44444444444444,57.13428730964661L84,56.07089502811432L85.55555555555556,55.44943614006043L87.11111111111111,55.849938941001895L88.66666666666666,54.56557996273041L90.22222222222223,54.20651836395264L91.77777777777777,54.551776838302615L93.33333333333333,53.32266218662262L94.8888888888889,52.85311193466187L96.44444444444444,53.01883430480957L98,51.900208306312564L99.55555555555556,50.79539604187012L101.11111111111111,51.85877771377564L102.66666666666666,50.6987211227417L104.22222222222223,50.07726223468781L105.77777777777777,50.28441519737244L107.33333333333334,50.24298460483551L108.88888888888889,49.00006682872774L110.44444444444444,49.62152571678163L112,49.4281758785248L113.55555555555556,48.889578175544756L115.1111111111111,49.00006682872774L116.66666666666667,48.47527225017549L118.22222222222223,47.895243954658525L119.77777777777777,47.72952158451082L121.33333333333334,48.06096632480623L122.88888888888889,47.24616820812227L124.44444444444444,47.384263110160845L126,47.867627096176165L127.55555555555556,46.058484148979204L129.11111111111111,46.8456654071808L130.66666666666666,46.83185167312624L132.22222222222223,46.32088143825533L133.77777777777777,46.086101007461565L135.33333333333334,46.04467041492464L136.88888888888889,46.00323982238771L138.44444444444446,46.624698710441606L140,46.34849829673769L141.55555555555554,45.34035034179689L143.1111111111111,46.928526592254656L144.66666666666669,45.934192371368425L146.22222222222223,45.395594668388384L147.77777777777777,45.16081423759462L149.33333333333334,45.22987229824068L150.88888888888889,45.07795305252077L152.44444444444443,45.4922695875168L154,45.31273348331453L155.55555555555557,45.31273348331453L157.11111111111111,45.6717950820923L158.66666666666666,45.22987229824068L160.2222222222222,44.73270518779756L161.77777777777777,44.4979247570038L163.33333333333334,44.73270518779756L164.88888888888889,45.28511662483217L166.44444444444446,45.20224483013155L168,45.80990059375765L169.55555555555554,45.091766786575334L171.11111111111111,44.87080008983614L172.66666666666669,46.12753159999849L174.22222222222223,44.20791060924532L175.77777777777777,44.8846138238907L177.33333333333331,45.18844170570375L178.88888888888889,46.00323982238771L180.44444444444446,44.18029375076296L182,45.727039408683794L183.55555555555554,44.4979247570038L185.11111111111111,45.35416407585146L186.66666666666666,45.423211526870745L188.22222222222223,45.25748915672304L189.7777777777778,45.94800610542299L191.33333333333334,44.53935534954073L192.88888888888889,44.815566372871416L194.44444444444443,45.423211526870745L196,45.64417822360994L197.55555555555557,45.05033619403841L199.11111111111111,45.83751745224001L200.66666666666666,45.575130772590654L202.22222222222223,44.8846138238907L203.77777777777777,45.20224483013155L205.33333333333331,45.3265472173691L206.8888888888889,45.07795305252077L208.44444444444446,44.53935534954073L210,45.76847000122072L211.55555555555554,45.575130772590654L213.1111111111111,45.28511662483217L214.66666666666669,45.934192371368425L216.22222222222223,45.630364489555376L217.77777777777777,46.12753159999849L219.33333333333334,45.64417822360994L220.88888888888889,45.575130772590654L222.44444444444443,45.46464211940767L224,44.4979247570038L225.55555555555557,45.091766786575334L227.11111111111111,45.74085314273836L228.66666666666666,44.77413578033449L230.2222222222222,45.35416407585146L231.77777777777777,45.22987229824068L233.33333333333334,44.56698281764986L234.88888888888889,46.058484148979204L236.44444444444446,45.119383645057695L238,45.18844170570375L239.55555555555554,45.34035034179689L241.11111111111111,45.16081423759462L242.66666666666669,45.58893389701845L244.22222222222223,45.07795305252077L245.77777777777777,45.28511662483217L247.33333333333331,45.18844170570375L248.88888888888889,44.95366127490999L250.44444444444446,45.754656267166155L252,45.51988644599916" style="fill: none;" fill="none"></path></g></g></g></g></g></g><g transform="translate(50, 178)" clip-path="url(#clip_1)"><clipPath id="clip_1"><rect width="280" height="22"></rect></clipPath><g><g><line x1="0" y1="0" x2="0" y2="5" style="visibility: inherit;" fill="rgb(0, 0, 0)" stroke="rgb(204, 204, 204)" stroke-width="1px"></line><line x1="31.11111111111111" y1="0" x2="31.11111111111111" y2="5" style="visibility: inherit;" fill="rgb(0, 0, 0)" stroke="rgb(204, 204, 204)" stroke-width="1px"></line><line x1="62.22222222222222" y1="0" x2="62.22222222222222" y2="5" style="visibility: inherit;" fill="rgb(0, 0, 0)" stroke="rgb(204, 204, 204)" stroke-width="1px"></line><line x1="93.33333333333333" y1="0" x2="93.33333333333333" y2="5" style="visibility: inherit;" fill="rgb(0, 0, 0)" stroke="rgb(204, 204, 204)" stroke-width="1px"></line><line x1="124.44444444444444" y1="0" x2="124.44444444444444" y2="5" style="visibility: inherit;" fill="rgb(0, 0, 0)" stroke="rgb(204, 204, 204)" stroke-width="1px"></line><line x1="155.55555555555557" y1="0" x2="155.55555555555557" y2="5" style="visibility: inherit;" fill="rgb(0, 0, 0)" stroke="rgb(204, 204, 204)" stroke-width="1px"></line><line x1="186.66666666666666" y1="0" x2="186.66666666666666" y2="5" style="visibility: inherit;" fill="rgb(0, 0, 0)" stroke="rgb(204, 204, 204)" stroke-width="1px"></line><line x1="217.77777777777777" y1="0" x2="217.77777777777777" y2="5" style="visibility: inherit;" fill="rgb(0, 0, 0)" stroke="rgb(204, 204, 204)" stroke-width="1px"></line><line x1="248.88888888888889" y1="0" x2="248.88888888888889" y2="5" style="visibility: inherit;" fill="rgb(0, 0, 0)" stroke="rgb(204, 204, 204)" stroke-width="1px"></line><line x1="280" y1="0" x2="280" y2="5" style="visibility: inherit;" fill="rgb(0, 0, 0)" stroke="rgb(204, 204, 204)" stroke-width="1px"></line></g><g transform="translate(0, 8)"><text x="0" y="0" dx="0em" dy="0.95em" style="text-anchor: middle; visibility: hidden; font-family: &quot;Helvetica Neue&quot;, sans-serif; font-size: 12px; font-weight: 200;" fill="rgb(50, 49, 63)" stroke="none" stroke-width="1px">-20</text><text x="31.11111111111111" y="0" dx="0em" dy="0.95em" style="text-anchor: middle; visibility: inherit; font-family: &quot;Helvetica Neue&quot;, sans-serif; font-size: 12px; font-weight: 200;" fill="rgb(50, 49, 63)" stroke="none" stroke-width="1px">0</text><text x="62.22222222222222" y="0" dx="0em" dy="0.95em" style="text-anchor: middle; visibility: inherit; font-family: &quot;Helvetica Neue&quot;, sans-serif; font-size: 12px; font-weight: 200;" fill="rgb(50, 49, 63)" stroke="none" stroke-width="1px">20</text><text x="93.33333333333333" y="0" dx="0em" dy="0.95em" style="text-anchor: middle; visibility: inherit; font-family: &quot;Helvetica Neue&quot;, sans-serif; font-size: 12px; font-weight: 200;" fill="rgb(50, 49, 63)" stroke="none" stroke-width="1px">40</text><text x="124.44444444444444" y="0" dx="0em" dy="0.95em" style="text-anchor: middle; visibility: inherit; font-family: &quot;Helvetica Neue&quot;, sans-serif; font-size: 12px; font-weight: 200;" fill="rgb(50, 49, 63)" stroke="none" stroke-width="1px">60</text><text x="155.55555555555557" y="0" dx="0em" dy="0.95em" style="text-anchor: middle; visibility: inherit; font-family: &quot;Helvetica Neue&quot;, sans-serif; font-size: 12px; font-weight: 200;" fill="rgb(50, 49, 63)" stroke="none" stroke-width="1px">80</text><text x="186.66666666666666" y="0" dx="0em" dy="0.95em" style="text-anchor: middle; visibility: inherit; font-family: &quot;Helvetica Neue&quot;, sans-serif; font-size: 12px; font-weight: 200;" fill="rgb(50, 49, 63)" stroke="none" stroke-width="1px">100</text><text x="217.77777777777777" y="0" dx="0em" dy="0.95em" style="text-anchor: middle; visibility: inherit; font-family: &quot;Helvetica Neue&quot;, sans-serif; font-size: 12px; font-weight: 200;" fill="rgb(50, 49, 63)" stroke="none" stroke-width="1px">120</text><text x="248.88888888888889" y="0" dx="0em" dy="0.95em" style="text-anchor: middle; visibility: inherit; font-family: &quot;Helvetica Neue&quot;, sans-serif; font-size: 12px; font-weight: 200;" fill="rgb(50, 49, 63)" stroke="none" stroke-width="1px">140</text><text x="280" y="0" dx="0em" dy="0.95em" style="text-anchor: middle; visibility: hidden; font-family: &quot;Helvetica Neue&quot;, sans-serif; font-size: 12px; font-weight: 200;" fill="rgb(50, 49, 63)" stroke="none" stroke-width="1px">160</text></g><line x1="0" y1="0" x2="280" y2="0" fill="rgb(0, 0, 0)" stroke="rgb(204, 204, 204)" stroke-width="1px"></line></g></g></g></g></svg>