<svg viewBox="0 0 330 200" xmlns="http://www.w3.org/2000/svg"><g><g><g><g><g><line x1="50" y1="178" x2="45" y2="178" style="visibility: inherit;" fill="rgb(0, 0, 0)" stroke="rgb(204, 204, 204)" stroke-width="1px"></line><line x1="50" y1="155.75" x2="45" y2="155.75" style="visibility: inherit;" fill="rgb(0, 0, 0)" stroke="rgb(204, 204, 204)" stroke-width="1px"></line><line x1="50" y1="133.49999999999997" x2="45" y2="133.49999999999997" style="visibility: inherit;" fill="rgb(0, 0, 0)" stroke="rgb(204, 204, 204)" stroke-width="1px"></line><line x1="50" y1="111.24999999999996" x2="45" y2="111.24999999999996" style="visibility: inherit;" fill="rgb(0, 0, 0)" stroke="rgb(204, 204, 204)" stroke-width="1px"></line><line x1="50" y1="89.00000000000004" x2="45" y2="89.00000000000004" style="visibility: inherit;" fill="rgb(0, 0, 0)" stroke="rgb(204, 204, 204)" stroke-width="1px"></line><line x1="50" y1="66.75000000000004" x2="45" y2="66.75000000000004" style="visibility: inherit;" fill="rgb(0, 0, 0)" stroke="rgb(204, 204, 204)" stroke-width="1px"></line><line x1="50" y1="44.50000000000003" x2="45" y2="44.50000000000003" style="visibility: inherit;" fill="rgb(0, 0, 0)" stroke="rgb(204, 204, 204)" stroke-width="1px"></line><line x1="50" y1="22.25000000000003" x2="45" y2="22.25000000000003" style="visibility: inherit;" fill="rgb(0, 0, 0)" stroke="rgb(204, 204, 204)" stroke-width="1px"></line><line x1="50" y1="0" x2="45" y2="0" style="visibility: inherit;" fill="rgb(0, 0, 0)" stroke="rgb(204, 204, 204)" stroke-width="1px"></line></g><g transform="translate(40, 0)"><text x="0" y="178" dx="0em" dy="0.3em" style="text-anchor: end; visibility: hidden; font-family: &quot;Helvetica Neue&quot;, sans-serif; font-size: 12px; font-weight: 200;" fill="rgb(50, 49, 63)" stroke="none" stroke-width="1px">1.2</text><text x="0" y="155.75" dx="0em" dy="0.3em" style="text-anchor: end; visibility: inherit; font-family: &quot;Helvetica Neue&quot;, sans-serif; font-size: 12px; font-weight: 200;" fill="rgb(50, 49, 63)" stroke="none" stroke-width="1px">1.25</text><text x="0" y="133.49999999999997" dx="0em" dy="0.3em" style="text-anchor: end; visibility: hidden; font-family: &quot;Helvetica Neue&quot;, sans-serif; font-size: 12px; font-weight: 200;" fill="rgb(50, 49, 63)" stroke="none" stroke-width="1px">1.3</text><text x="0" y="111.24999999999996" dx="0em" dy="0.3em" style="text-anchor: end; visibility: inherit; font-family: &quot;Helvetica Neue&quot;, sans-serif; font-size: 12px; font-weight: 200;" fill="rgb(50, 49, 63)" stroke="none" stroke-width="1px">1.35</text><text x="0" y="89.00000000000004" dx="0em" dy="0.3em" style="text-anchor: end; visibility: hidden; font-family: &quot;Helvetica Neue&quot;, sans-serif; font-size: 12px; font-weight: 200;" fill="rgb(50, 49, 63)" stroke="none" stroke-width="1px">1.4</text><text x="0" y="66.75000000000004" dx="0em" dy="0.3em" style="text-anchor: end; visibility: inherit; font-family: &quot;Helvetica Neue&quot;, sans-serif; font-size: 12px; font-weight: 200;" fill="rgb(50, 49, 63)" stroke="none" stroke-width="1px">1.45</text><text x="0" y="44.50000000000003" dx="0em" dy="0.3em" style="text-anchor: end; visibility: hidden; font-family: &quot;Helvetica Neue&quot;, sans-serif; font-size: 12px; font-weight: 200;" fill="rgb(50, 49, 63)" stroke="none" stroke-width="1px">1.5</text><text x="0" y="22.25000000000003" dx="0em" dy="0.3em" style="text-anchor: end; visibility: inherit; font-family: &quot;Helvetica Neue&quot;, sans-serif; font-size: 12px; font-weight: 200;" fill="rgb(50, 49, 63)" stroke="none" stroke-width="1px">1.55</text><text x="0" y="0" dx="0em" dy="0.3em" style="text-anchor: end; visibility: hidden; font-family: &quot;Helvetica Neue&quot;, sans-serif; font-size: 12px; font-weight: 200;" fill="rgb(50, 49, 63)" stroke="none" stroke-width="1px">1.6</text></g><line x1="50" y1="0" x2="50" y2="178" fill="rgb(0, 0, 0)" stroke="rgb(204, 204, 204)" stroke-width="1px"></line></g></g><g transform="translate(50, 0)" clip-path="url(#clip_0)"><clipPath id="clip_0"><rect width="280" height="178"></rect></clipPath><g><g><g><line x1="0" y1="0" x2="0" y2="178" fill="rgb(0, 0, 0)" stroke="rgb(60, 60, 60)" stroke-width="1px" opacity="0.25"></line><line x1="23.333333333333332" y1="0" x2="23.333333333333332" y2="178" fill="rgb(0, 0, 0)" stroke="rgb(60, 60, 60)" stroke-width="1px" opacity="0.25"></line><line x1="46.666666666666664" y1="0" x2="46.666666666666664" y2="178" fill="rgb(0, 0, 0)" stroke="rgb(60, 60, 60)" stroke-width="1px" opacity="0.25"></line><line x1="70" y1="0" x2="70" y2="178" fill="rgb(0, 0, 0)" stroke="rgb(60, 60, 60)" stroke-width="1px" opacity="0.25"></line><line x1="93.33333333333333" y1="0" x2="93.33333333333333" y2="178" fill="rgb(0, 0, 0)" stroke="rgb(60, 60, 60)" stroke-width="1px" opacity="0.25"></line><line x1="116.66666666666667" y1="0" x2="116.66666666666667" y2="178" fill="rgb(0, 0, 0)" stroke="rgb(60, 60, 60)" stroke-width="1px" opacity="0.25"></line><line x1="140" y1="0" x2="140" y2="178" fill="rgb(0, 0, 0)" stroke="rgb(60, 60, 60)" stroke-width="1px" opacity="0.25"></line><line x1="163.33333333333334" y1="0" x2="163.33333333333334" y2="178" fill="rgb(0, 0, 0)" stroke="rgb(60, 60, 60)" stroke-width="1px" opacity="0.25"></line><line x1="186.66666666666666" y1="0" x2="186.66666666666666" y2="178" fill="rgb(0, 0, 0)" stroke="rgb(60, 60, 60)" stroke-width="1px" opacity="0.25"></line><line x1="210" y1="0" x2="210" y2="178" fill="rgb(0, 0, 0)" stroke="rgb(60, 60, 60)" stroke-width="1px" opacity="0.25"></line><line x1="233.33333333333334" y1="0" x2="233.33333333333334" y2="178" fill="rgb(0, 0, 0)" stroke="rgb(60, 60, 60)" stroke-width="1px" opacity="0.25"></line><line x1="256.66666666666663" y1="0" x2="256.66666666666663" y2="178" fill="rgb(0, 0, 0)" stroke="rgb(60, 60, 60)" stroke-width="1px" opacity="0.25"></line><line x1="280" y1="0" x2="280" y2="178" fill="rgb(0, 0, 0)" stroke="rgb(60, 60, 60)" stroke-width="1px" opacity="0.25"></line></g><g><line x1="0" y1="178" x2="280" y2="178" fill="rgb(0, 0, 0)" stroke="rgb(60, 60, 60)" stroke-width="1px" opacity="0.25"></line><line x1="0" y1="155.75" x2="280" y2="155.75" fill="rgb(0, 0, 0)" stroke="rgb(60, 60, 60)" stroke-width="1px" opacity="0.25"></line><line x1="0" y1="133.49999999999997" x2="280" y2="133.49999999999997" fill="rgb(0, 0, 0)" stroke="rgb(60, 60, 60)" stroke-width="1px" opacity="0.25"></line><line x1="0" y1="111.24999999999996" x2="280" y2="111.24999999999996" fill="rgb(0, 0, 0)" stroke="rgb(60, 60, 60)" stroke-width="1px" opacity="0.25"></line><line x1="0" y1="89.00000000000004" x2="280" y2="89.00000000000004" fill="rgb(0, 0, 0)" stroke="rgb(60, 60, 60)" stroke-width="1px" opacity="0.25"></line><line x1="0" y1="66.75000000000004" x2="280" y2="66.75000000000004" fill="rgb(0, 0, 0)" stroke="rgb(60, 60, 60)" stroke-width="1px" opacity="0.25"></line><line x1="0" y1="44.50000000000003" x2="280" y2="44.50000000000003" fill="rgb(0, 0, 0)" stroke="rgb(60, 60, 60)" stroke-width="1px" opacity="0.25"></line><line x1="0" y1="22.25000000000003" x2="280" y2="22.25000000000003" fill="rgb(0, 0, 0)" stroke="rgb(60, 60, 60)" stroke-width="1px" opacity="0.25"></line><line x1="0" y1="0" x2="280" y2="0" fill="rgb(0, 0, 0)" stroke="rgb(60, 60, 60)" stroke-width="1px" opacity="0.25"></line></g></g></g><g><g><line x1="0" y1="711.9999999999999" x2="280" y2="711.9999999999999" fill="rgb(0, 0, 0)" stroke="rgb(153, 153, 153)" stroke-width="1.5px"></line></g></g><g><g><line x1="23.333333333333332" y1="0" x2="23.333333333333332" y2="178" fill="rgb(0, 0, 0)" stroke="rgb(153, 153, 153)" stroke-width="1.5px"></line></g></g><g><g><g><g><g><path stroke="rgb(0, 119, 187)" stroke-width="2px" d="M23.333333333333332,47.371336340904264L24.5,46.845523238182096L25.666666666666664,46.193508625030546L26.833333333333336,45.383198380470304L28,44.38732576370242L29.166666666666668,43.20859622955325L30.333333333333336,41.88382518291476L31.5,40.44945669174197L32.666666666666664,38.97551429271701L33.833333333333336,37.52486002445224L35,36.172397851944L36.16666666666667,34.95101761817935L37.333333333333336,33.85859739780429L38.5,32.92484414577487L39.666666666666664,32.15792727470401L40.833333333333336,31.585060477256803L42,31.335150718688993L43.16666666666667,31.314355850219755L44.33333333333333,31.524691700935392L45.5,31.99623656272891L46.666666666666664,32.76920092105868L47.833333333333336,34.06145346164706L49,35.99829387664798L50.166666666666664,38.3734179735184L51.33333333333333,40.96847963333133L52.5,43.75615906715396L53.66666666666667,46.926368594169645L54.833333333333336,50.5770881175995L56,54.41538584232332L57.166666666666664,57.911841392517104L58.333333333333336,61.05356407165529L59.5,64.09465444087984L60.66666666666667,66.83008146286012L61.83333333333333,69.2911435365677L63,71.28135037422182L64.16666666666666,73.50730311870576L65.33333333333333,76.14379537105562L66.5,78.49138748645784L67.66666666666667,80.5322552919388L68.83333333333333,82.78101873397829L70,85.16696465015413L71.16666666666666,87.11425554752351L72.33333333333334,88.707980632782L73.5,90.13667297363283L74.66666666666667,91.31200742721559L75.83333333333333,92.14725029468538L77,92.82547068595888L78.16666666666667,93.38836443424226L79.33333333333333,93.91566288471223L80.5,94.2531020641327L81.66666666666667,94.55743920803071L82.83333333333333,94.83360779285432L84,95.04638385772706L85.16666666666666,95.2253682613373L86.33333333333334,95.39565277099611L87.5,95.56811225414278L88.66666666666666,95.71097087860109L89.83333333333334,95.87032747268678L91,96.00135636329652L92.16666666666667,96.15896236896516L93.33333333333333,96.32415425777437L94.5,96.52785909175874L95.66666666666667,96.68169867992403L96.83333333333333,96.84275281429292L98,96.95654106140138L99.16666666666667,97.0736713409424L100.33333333333333,97.19382536411287L101.5,97.32671093940736L102.66666666666666,97.45874774456026L103.83333333333334,97.57094454765321L105,97.71820616722108L106.16666666666666,97.82064211368562L107.33333333333334,97.91904640197755L108.5,98.06232941150667L109.66666666666667,98.13675594329835L110.83333333333333,98.2409955263138L112,98.30847275257112L113.16666666666667,98.34772837162019L114.33333333333333,98.37366890907289L115.5,98.45000517368318L116.66666666666667,98.53546571731569L117.83333333333333,98.62044882774354L119,98.7285078763962L120.16666666666666,98.78903579711915L121.33333333333334,98.88287794589998L122.5,98.93746447563173L123.66666666666666,99.00801849365236L124.83333333333334,99.08058834075929L126,99.15872824192049L127.16666666666667,99.2448253631592L128.33333333333331,99.34296441078187L129.5,99.41866409778596L130.66666666666666,99.48895287513734L131.83333333333334,99.53743886947633L133,99.62030005455019L134.16666666666669,99.71594583988191L135.33333333333334,99.79350221157075L136.5,99.91010200977327L137.66666666666666,99.97471463680269L138.83333333333334,100.08850288391115L140,100.1456357240677L141.16666666666666,100.17852556705476L142.33333333333331,100.24213027954103L143.5,100.28016579151155L144.66666666666669,100.32668900489809L145.83333333333334,100.3595257997513L147,100.4732609987259L148.16666666666666,100.53039383888246L149.33333333333334,100.59150528907777L150.5,100.64041566848756L151.66666666666666,100.67272198200227L152.83333333333331,100.73001396656038L154,100.7961119413376L155.16666666666669,100.83817911148073L156.33333333333334,100.9025264978409L157.5,100.92104029655458L158.66666666666666,100.99233698844911L159.83333333333331,101.0401864051819L161,101.04543817043306L162.16666666666669,101.096417427063L163.33333333333334,101.10755753517152L164.5,101.18559134006502L165.66666666666666,101.24272418022157L166.83333333333334,101.30097103118898L168,101.37104761600496L169.16666666666666,101.40139114856721L170.33333333333331,101.46759521961214L171.5,101.530987739563L172.66666666666669,101.58875715732576L173.83333333333334,101.65692400932313L175,101.68689620494844L176.16666666666666,101.71697449684144L177.33333333333331,101.75347161293031L178.5,101.79384124279024L179.66666666666669,101.90418136119844L180.83333333333334,101.96699035167696L182,101.9944692850113L183.16666666666666,102.01749217510225L184.33333333333334,102.0698506832123L185.5,102.06863057613374L186.66666666666666,102.15101432800294L187.83333333333331,102.17117261886598L189,102.2321779727936L190.16666666666669,102.25647401809694L191.33333333333334,102.26315808296205L192.5,102.32771766185762L193.66666666666666,102.38309991359712L194.83333333333331,102.4267054796219L196,102.49487233161928L197.16666666666669,102.46060323715211L198.33333333333334,102.49036324024202L199.5,102.53057372570039L200.66666666666666,102.51232516765596L201.83333333333334,102.5348175764084L203,102.57444453239442L204.16666666666666,102.58256089687349L205.33333333333331,102.59980154037477L206.5,102.63603341579439L207.66666666666669,102.65550208091737L208.83333333333334,102.70287406444551L210,102.73793888092042L211.16666666666666,102.74775278568269L212.33333333333331,102.78414380550386L213.5,102.83676755428316L214.66666666666669,102.82997739315034L215.83333333333334,102.84111750125886L217,102.88164627552034L218.16666666666666,102.9178251028061L219.33333333333334,102.93304991722108L220.5,102.94853997230531L221.66666666666666,102.96137762069704L222.83333333333331,102.98333954811098L224,103.03988885879518L225.16666666666669,103.08349442481996L226.33333333333334,103.10970020294191L227.5,103.10062897205354L228.66666666666666,103.13659560680391L229.83333333333331,103.18232309818269L231,103.19399368762971L232.16666666666669,103.20195090770723L233.33333333333334,103.23542428016664L234.5,103.23664438724519L235.66666666666666,103.26019775867464L236.83333333333334,103.26141786575319L238,103.27616524696352L239.16666666666666,103.2956339120865L240.33333333333331,103.31812632083894L241.5,103.34045958518983L242.66666666666669,103.36358857154848L243.83333333333334,103.3509100675583L245,103.32364332675935L246.16666666666666,103.36109530925752L247.33333333333331,103.40841424465181L248.5,103.43408954143526L249.66666666666669,103.44676804542543L250.83333333333334,103.43387734889986L252,103.44687414169313L253.16666666666666,103.511327624321L254.33333333333334,103.52167201042177L255.5,103.44331991672517" style="fill: none;" fill="none"></path></g><g><path stroke="rgb(255, 112, 67)" stroke-width="2px" d="M23.333333333333332,39.0792764425278L24.5,46.492275714874296L25.666666666666664,53.06902420520784L26.833333333333336,58.907130479812636L28,64.07688331604005L29.166666666666668,68.71127438545228L30.333333333333336,72.87279438972475L31.5,76.5970916748047L32.666666666666664,79.9658603668213L33.833333333333336,83.01543843746187L35,85.79494845867158L36.16666666666667,88.3318693637848L37.333333333333336,90.65166425704957L38.5,92.77746212482454L39.666666666666664,94.7362644672394L40.833333333333336,96.54478144645692L42,98.22264087200166L43.16666666666667,99.79318392276765L44.33333333333333,101.24251198768617L45.5,102.59449672698976L46.666666666666664,103.84547781944275L47.833333333333336,105.02431344985962L49,106.10177409648895L50.166666666666664,107.13451516628265L51.33333333333333,108.11686050891876L52.5,109.02605247497559L53.66666666666667,109.85641491413116L54.833333333333336,110.69452238082886L56,111.48775112628937L57.166666666666664,112.23376703262329L58.333333333333336,112.95994293689728L59.5,113.62617444992065L60.66666666666667,114.26317644119263L61.83333333333333,114.8715854883194L63,115.47458362579346L64.16666666666666,116.03328657150269L65.33333333333333,116.56079721450806L66.5,117.0730299949646L67.66666666666667,117.57226598262787L68.83333333333333,118.00932955741882L70,118.46342158317566L71.16666666666666,118.90287232398987L72.33333333333334,119.31855750083923L73.5,119.71068930625916L74.66666666666667,120.13014090061188L75.83333333333333,120.53903591632843L77,120.92448365688324L78.16666666666667,121.30149674415588L79.33333333333333,121.65087175369263L80.5,122.00528633594513L81.66666666666667,122.33800423145294L82.83333333333333,122.67459464073181L84,122.98423659801483L85.16666666666666,123.27218186855316L86.33333333333334,123.57354831695557L87.5,123.8612813949585L88.66666666666666,124.133948802948L89.83333333333334,124.37240016460419L91,124.61859655380249L92.16666666666667,124.84633219242096L93.33333333333333,125.0578351020813L94.5,125.27114164829254L95.66666666666667,125.47712755203247L96.83333333333333,125.70385527610779L98,125.95647048950195L99.16666666666667,126.18022751808167L100.33333333333333,126.4131088256836L101.5,126.63002264499664L102.66666666666666,126.83643293380737L103.83333333333334,127.02369284629822L105,127.21567404270172L106.16666666666666,127.38118422031403L107.33333333333334,127.55581867694855L108.5,127.72217762470245L109.66666666666667,127.84551453590393L110.83333333333333,128.00953936576843L112,128.1760574579239L113.16666666666667,128.32984399795532L114.33333333333333,128.50405406951904L115.5,128.6781049966812L116.66666666666667,128.84324383735657L117.83333333333333,129.03564941883087L119,129.213254570961L120.16666666666666,129.3800379037857L121.33333333333334,129.54199385643005L122.5,129.7028888463974L123.66666666666666,129.85778939723969L124.83333333333334,130.00621807575226L126,130.1596863269806L127.16666666666667,130.2675862312317L128.33333333333331,130.38370859622955L129.5,130.4902822971344L130.66666666666666,130.60789000988007L131.83333333333334,130.73218178749084L133,130.83074522018433L134.16666666666669,130.94851207733154L135.33333333333334,131.0611332654953L136.5,131.16929841041565L137.66666666666666,131.2982053756714L138.83333333333334,131.3644094467163L140,131.46949779987335L141.16666666666666,131.5802092552185L142.33333333333331,131.67882573604584L143.5,131.80651259422302L144.66666666666669,131.95626747608185L145.83333333333334,132.07138192653656L147,132.1817750930786L148.16666666666666,132.3073400259018L149.33333333333334,132.44611394405365L150.5,132.56276679039001L151.66666666666666,132.68063974380493L152.83333333333331,132.79639077186584L154,132.900736451149L155.16666666666669,133.01325154304504L156.33333333333334,133.10841989517212L157.5,133.19462311267853L158.66666666666666,133.27297520637512L159.83333333333331,133.3154137134552L161,133.40893757343292L162.16666666666669,133.46400153636932L163.33333333333334,133.53105437755585L164.5,133.59725844860077L165.66666666666666,133.70791685581207L166.83333333333334,133.82149291038513L168,133.9060516357422L169.16666666666666,133.98069036006927L170.33333333333331,134.06333935260773L171.5,134.1234428882599L172.66666666666669,134.1804165840149L173.83333333333334,134.22243070602417L175,134.25977659225464L176.16666666666666,134.30126023292542L177.33333333333331,134.4059772491455L178.5,134.49191522598267L179.66666666666669,134.52533555030823L180.83333333333334,134.60639309883118L182,134.68628358840942L183.16666666666666,134.7773141860962L184.33333333333334,134.8419268131256L185.5,134.94383227825165L186.66666666666666,135.02610993385315L187.83333333333331,135.13103914260864L189,135.20392727851868L190.16666666666669,135.26721370220184L191.33333333333334,135.34545969963074L192.5,135.44200730323792L193.66666666666666,135.50327789783478L194.83333333333331,135.56582164764404L196,135.64337801933289L197.16666666666669,135.71806979179382L198.33333333333334,135.81265461444855L199.5,135.90644371509552L200.66666666666666,135.98888051509857L201.83333333333334,136.06908929347992L203,136.1431975364685L204.16666666666666,136.22064781188965L205.33333333333331,136.3022358417511L206.5,136.3809062242508L207.66666666666669,136.43687200546265L208.83333333333334,136.48196291923523L210,136.53522324562073L211.16666666666666,136.54753041267395L212.33333333333331,136.6001011133194L213.5,136.6286940574646L214.66666666666669,136.67198133468628L215.83333333333334,136.7330927848816L217,136.82009172439575L218.16666666666666,136.88359034061432L219.33333333333334,136.96241986751556L220.5,137.02459228038788L221.66666666666666,137.0869768857956L222.83333333333331,137.15631079673767L224,137.21736919879913L225.16666666666669,137.26574909687042L226.33333333333334,137.3276562690735L227.5,137.3671771287918L228.66666666666666,137.38935124874115L229.83333333333331,137.42574226856232L231,137.45173585414886L232.16666666666669,137.51475703716278L233.33333333333334,137.55507361888885L234.5,137.56403875350952L235.66666666666666,137.55422484874725L236.83333333333334,137.59767127037048L238,137.67612946033478L239.16666666666666,137.74291706085205L240.33333333333331,137.79564690589905L241.5,137.8568114042282L242.66666666666669,137.91516435146332L243.83333333333334,137.95712542533875L245,137.9615284204483L246.16666666666666,138.00359559059143L247.33333333333331,137.99691152572632L248.5,138.06163024902344L249.66666666666669,138.07170939445496L250.83333333333334,138.0999310016632L252,138.14793956279755L253.16666666666666,138.14284694194794L254.33333333333334,138.12847089767456L255.5,138.0215789079666" style="fill: none;" fill="none"></path></g></g></g></g></g></g><g transform="translate(50, 178)" clip-path="url(#clip_1)"><clipPath id="clip_1"><rect width="280" height="22"></rect></clipPath><g><g><line x1="0" y1="0" x2="0" y2="5" style="visibility: inherit;" fill="rgb(0, 0, 0)" stroke="rgb(204, 204, 204)" stroke-width="1px"></line><line x1="23.333333333333332" y1="0" x2="23.333333333333332" y2="5" style="visibility: inherit;" fill="rgb(0, 0, 0)" stroke="rgb(204, 204, 204)" stroke-width="1px"></line><line x1="46.666666666666664" y1="0" x2="46.666666666666664" y2="5" style="visibility: inherit;" fill="rgb(0, 0, 0)" stroke="rgb(204, 204, 204)" stroke-width="1px"></line><line x1="70" y1="0" x2="70" y2="5" style="visibility: inherit;" fill="rgb(0, 0, 0)" stroke="rgb(204, 204, 204)" stroke-width="1px"></line><line x1="93.33333333333333" y1="0" x2="93.33333333333333" y2="5" style="visibility: inherit;" fill="rgb(0, 0, 0)" stroke="rgb(204, 204, 204)" stroke-width="1px"></line><line x1="116.66666666666667" y1="0" x2="116.66666666666667" y2="5" style="visibility: inherit;" fill="rgb(0, 0, 0)" stroke="rgb(204, 204, 204)" stroke-width="1px"></line><line x1="140" y1="0" x2="140" y2="5" style="visibility: inherit;" fill="rgb(0, 0, 0)" stroke="rgb(204, 204, 204)" stroke-width="1px"></line><line x1="163.33333333333334" y1="0" x2="163.33333333333334" y2="5" style="visibility: inherit;" fill="rgb(0, 0, 0)" stroke="rgb(204, 204, 204)" stroke-width="1px"></line><line x1="186.66666666666666" y1="0" x2="186.66666666666666" y2="5" style="visibility: inherit;" fill="rgb(0, 0, 0)" stroke="rgb(204, 204, 204)" stroke-width="1px"></line><line x1="210" y1="0" x2="210" y2="5" style="visibility: inherit;" fill="rgb(0, 0, 0)" stroke="rgb(204, 204, 204)" stroke-width="1px"></line><line x1="233.33333333333334" y1="0" x2="233.33333333333334" y2="5" style="visibility: inherit;" fill="rgb(0, 0, 0)" stroke="rgb(204, 204, 204)" stroke-width="1px"></line><line x1="256.66666666666663" y1="0" x2="256.66666666666663" y2="5" style="visibility: inherit;" fill="rgb(0, 0, 0)" stroke="rgb(204, 204, 204)" stroke-width="1px"></line><line x1="280" y1="0" x2="280" y2="5" style="visibility: inherit;" fill="rgb(0, 0, 0)" stroke="rgb(204, 204, 204)" stroke-width="1px"></line></g><g transform="translate(0, 8)"><text x="0" y="0" dx="0em" dy="0.95em" style="text-anchor: middle; visibility: hidden; font-family: &quot;Helvetica Neue&quot;, sans-serif; font-size: 12px; font-weight: 200;" fill="rgb(50, 49, 63)" stroke="none" stroke-width="1px">-20</text><text x="23.333333333333332" y="0" dx="0em" dy="0.95em" style="text-anchor: middle; visibility: inherit; font-family: &quot;Helvetica Neue&quot;, sans-serif; font-size: 12px; font-weight: 200;" fill="rgb(50, 49, 63)" stroke="none" stroke-width="1px">0</text><text x="46.666666666666664" y="0" dx="0em" dy="0.95em" style="text-anchor: middle; visibility: hidden; font-family: &quot;Helvetica Neue&quot;, sans-serif; font-size: 12px; font-weight: 200;" fill="rgb(50, 49, 63)" stroke="none" stroke-width="1px">20</text><text x="70" y="0" dx="0em" dy="0.95em" style="text-anchor: middle; visibility: inherit; font-family: &quot;Helvetica Neue&quot;, sans-serif; font-size: 12px; font-weight: 200;" fill="rgb(50, 49, 63)" stroke="none" stroke-width="1px">40</text><text x="93.33333333333333" y="0" dx="0em" dy="0.95em" style="text-anchor: middle; visibility: hidden; font-family: &quot;Helvetica Neue&quot;, sans-serif; font-size: 12px; font-weight: 200;" fill="rgb(50, 49, 63)" stroke="none" stroke-width="1px">60</text><text x="116.66666666666667" y="0" dx="0em" dy="0.95em" style="text-anchor: middle; visibility: inherit; font-family: &quot;Helvetica Neue&quot;, sans-serif; font-size: 12px; font-weight: 200;" fill="rgb(50, 49, 63)" stroke="none" stroke-width="1px">80</text><text x="140" y="0" dx="0em" dy="0.95em" style="text-anchor: middle; visibility: hidden; font-family: &quot;Helvetica Neue&quot;, sans-serif; font-size: 12px; font-weight: 200;" fill="rgb(50, 49, 63)" stroke="none" stroke-width="1px">100</text><text x="163.33333333333334" y="0" dx="0em" dy="0.95em" style="text-anchor: middle; visibility: inherit; font-family: &quot;Helvetica Neue&quot;, sans-serif; font-size: 12px; font-weight: 200;" fill="rgb(50, 49, 63)" stroke="none" stroke-width="1px">120</text><text x="186.66666666666666" y="0" dx="0em" dy="0.95em" style="text-anchor: middle; visibility: hidden; font-family: &quot;Helvetica Neue&quot;, sans-serif; font-size: 12px; font-weight: 200;" fill="rgb(50, 49, 63)" stroke="none" stroke-width="1px">140</text><text x="210" y="0" dx="0em" dy="0.95em" style="text-anchor: middle; visibility: inherit; font-family: &quot;Helvetica Neue&quot;, sans-serif; font-size: 12px; font-weight: 200;" fill="rgb(50, 49, 63)" stroke="none" stroke-width="1px">160</text><text x="233.33333333333334" y="0" dx="0em" dy="0.95em" style="text-anchor: middle; visibility: hidden; font-family: &quot;Helvetica Neue&quot;, sans-serif; font-size: 12px; font-weight: 200;" fill="rgb(50, 49, 63)" stroke="none" stroke-width="1px">180</text><text x="256.66666666666663" y="0" dx="0em" dy="0.95em" style="text-anchor: middle; visibility: inherit; font-family: &quot;Helvetica Neue&quot;, sans-serif; font-size: 12px; font-weight: 200;" fill="rgb(50, 49, 63)" stroke="none" stroke-width="1px">200</text><text x="280" y="0" dx="0em" dy="0.95em" style="text-anchor: middle; visibility: hidden; font-family: &quot;Helvetica Neue&quot;, sans-serif; font-size: 12px; font-weight: 200;" fill="rgb(50, 49, 63)" stroke="none" stroke-width="1px">220</text></g><line x1="0" y1="0" x2="280" y2="0" fill="rgb(0, 0, 0)" stroke="rgb(204, 204, 204)" stroke-width="1px"></line></g></g></g></g></svg>