<svg viewBox="0 0 330 200" xmlns="http://www.w3.org/2000/svg"><g><g><g><g><g><line x1="50" y1="178" x2="45" y2="178" style="visibility: inherit;" fill="rgb(0, 0, 0)" stroke="rgb(204, 204, 204)" stroke-width="1px"></line><line x1="50" y1="155.75" x2="45" y2="155.75" style="visibility: inherit;" fill="rgb(0, 0, 0)" stroke="rgb(204, 204, 204)" stroke-width="1px"></line><line x1="50" y1="133.5" x2="45" y2="133.5" style="visibility: inherit;" fill="rgb(0, 0, 0)" stroke="rgb(204, 204, 204)" stroke-width="1px"></line><line x1="50" y1="111.24999999999999" x2="45" y2="111.24999999999999" style="visibility: inherit;" fill="rgb(0, 0, 0)" stroke="rgb(204, 204, 204)" stroke-width="1px"></line><line x1="50" y1="88.99999999999999" x2="45" y2="88.99999999999999" style="visibility: inherit;" fill="rgb(0, 0, 0)" stroke="rgb(204, 204, 204)" stroke-width="1px"></line><line x1="50" y1="66.75" x2="45" y2="66.75" style="visibility: inherit;" fill="rgb(0, 0, 0)" stroke="rgb(204, 204, 204)" stroke-width="1px"></line><line x1="50" y1="44.5" x2="45" y2="44.5" style="visibility: inherit;" fill="rgb(0, 0, 0)" stroke="rgb(204, 204, 204)" stroke-width="1px"></line><line x1="50" y1="22.25" x2="45" y2="22.25" style="visibility: inherit;" fill="rgb(0, 0, 0)" stroke="rgb(204, 204, 204)" stroke-width="1px"></line><line x1="50" y1="0" x2="45" y2="0" style="visibility: inherit;" fill="rgb(0, 0, 0)" stroke="rgb(204, 204, 204)" stroke-width="1px"></line></g><g transform="translate(40, 0)"><text x="0" y="178" dx="0em" dy="0.3em" style="text-anchor: end; visibility: hidden; font-family: &quot;Helvetica Neue&quot;, sans-serif; font-size: 12px; font-weight: 200;" fill="rgb(50, 49, 63)" stroke="none" stroke-width="1px">-0.2</text><text x="0" y="155.75" dx="0em" dy="0.3em" style="text-anchor: end; visibility: inherit; font-family: &quot;Helvetica Neue&quot;, sans-serif; font-size: 12px; font-weight: 200;" fill="rgb(50, 49, 63)" stroke="none" stroke-width="1px">0</text><text x="0" y="133.5" dx="0em" dy="0.3em" style="text-anchor: end; visibility: hidden; font-family: &quot;Helvetica Neue&quot;, sans-serif; font-size: 12px; font-weight: 200;" fill="rgb(50, 49, 63)" stroke="none" stroke-width="1px">0.2</text><text x="0" y="111.24999999999999" dx="0em" dy="0.3em" style="text-anchor: end; visibility: inherit; font-family: &quot;Helvetica Neue&quot;, sans-serif; font-size: 12px; font-weight: 200;" fill="rgb(50, 49, 63)" stroke="none" stroke-width="1px">0.4</text><text x="0" y="88.99999999999999" dx="0em" dy="0.3em" style="text-anchor: end; visibility: hidden; font-family: &quot;Helvetica Neue&quot;, sans-serif; font-size: 12px; font-weight: 200;" fill="rgb(50, 49, 63)" stroke="none" stroke-width="1px">0.6</text><text x="0" y="66.75" dx="0em" dy="0.3em" style="text-anchor: end; visibility: inherit; font-family: &quot;Helvetica Neue&quot;, sans-serif; font-size: 12px; font-weight: 200;" fill="rgb(50, 49, 63)" stroke="none" stroke-width="1px">0.8</text><text x="0" y="44.5" dx="0em" dy="0.3em" style="text-anchor: end; visibility: hidden; font-family: &quot;Helvetica Neue&quot;, sans-serif; font-size: 12px; font-weight: 200;" fill="rgb(50, 49, 63)" stroke="none" stroke-width="1px">1</text><text x="0" y="22.25" dx="0em" dy="0.3em" style="text-anchor: end; visibility: inherit; font-family: &quot;Helvetica Neue&quot;, sans-serif; font-size: 12px; font-weight: 200;" fill="rgb(50, 49, 63)" stroke="none" stroke-width="1px">1.2</text><text x="0" y="0" dx="0em" dy="0.3em" style="text-anchor: end; visibility: hidden; font-family: &quot;Helvetica Neue&quot;, sans-serif; font-size: 12px; font-weight: 200;" fill="rgb(50, 49, 63)" stroke="none" stroke-width="1px">1.4</text></g><line x1="50" y1="0" x2="50" y2="178" fill="rgb(0, 0, 0)" stroke="rgb(204, 204, 204)" stroke-width="1px"></line></g></g><g transform="translate(50, 0)" clip-path="url(#clip_0)"><clipPath id="clip_0"><rect width="280" height="178"></rect></clipPath><g><g><g><line x1="0" y1="0" x2="0" y2="178" fill="rgb(0, 0, 0)" stroke="rgb(60, 60, 60)" stroke-width="1px" opacity="0.25"></line><line x1="31.11111111111111" y1="0" x2="31.11111111111111" y2="178" fill="rgb(0, 0, 0)" stroke="rgb(60, 60, 60)" stroke-width="1px" opacity="0.25"></line><line x1="62.22222222222222" y1="0" x2="62.22222222222222" y2="178" fill="rgb(0, 0, 0)" stroke="rgb(60, 60, 60)" stroke-width="1px" opacity="0.25"></line><line x1="93.33333333333333" y1="0" x2="93.33333333333333" y2="178" fill="rgb(0, 0, 0)" stroke="rgb(60, 60, 60)" stroke-width="1px" opacity="0.25"></line><line x1="124.44444444444444" y1="0" x2="124.44444444444444" y2="178" fill="rgb(0, 0, 0)" stroke="rgb(60, 60, 60)" stroke-width="1px" opacity="0.25"></line><line x1="155.55555555555557" y1="0" x2="155.55555555555557" y2="178" fill="rgb(0, 0, 0)" stroke="rgb(60, 60, 60)" stroke-width="1px" opacity="0.25"></line><line x1="186.66666666666666" y1="0" x2="186.66666666666666" y2="178" fill="rgb(0, 0, 0)" stroke="rgb(60, 60, 60)" stroke-width="1px" opacity="0.25"></line><line x1="217.77777777777777" y1="0" x2="217.77777777777777" y2="178" fill="rgb(0, 0, 0)" stroke="rgb(60, 60, 60)" stroke-width="1px" opacity="0.25"></line><line x1="248.88888888888889" y1="0" x2="248.88888888888889" y2="178" fill="rgb(0, 0, 0)" stroke="rgb(60, 60, 60)" stroke-width="1px" opacity="0.25"></line><line x1="280" y1="0" x2="280" y2="178" fill="rgb(0, 0, 0)" stroke="rgb(60, 60, 60)" stroke-width="1px" opacity="0.25"></line></g><g><line x1="0" y1="178" x2="280" y2="178" fill="rgb(0, 0, 0)" stroke="rgb(60, 60, 60)" stroke-width="1px" opacity="0.25"></line><line x1="0" y1="155.75" x2="280" y2="155.75" fill="rgb(0, 0, 0)" stroke="rgb(60, 60, 60)" stroke-width="1px" opacity="0.25"></line><line x1="0" y1="133.5" x2="280" y2="133.5" fill="rgb(0, 0, 0)" stroke="rgb(60, 60, 60)" stroke-width="1px" opacity="0.25"></line><line x1="0" y1="111.24999999999999" x2="280" y2="111.24999999999999" fill="rgb(0, 0, 0)" stroke="rgb(60, 60, 60)" stroke-width="1px" opacity="0.25"></line><line x1="0" y1="88.99999999999999" x2="280" y2="88.99999999999999" fill="rgb(0, 0, 0)" stroke="rgb(60, 60, 60)" stroke-width="1px" opacity="0.25"></line><line x1="0" y1="66.75" x2="280" y2="66.75" fill="rgb(0, 0, 0)" stroke="rgb(60, 60, 60)" stroke-width="1px" opacity="0.25"></line><line x1="0" y1="44.5" x2="280" y2="44.5" fill="rgb(0, 0, 0)" stroke="rgb(60, 60, 60)" stroke-width="1px" opacity="0.25"></line><line x1="0" y1="22.25" x2="280" y2="22.25" fill="rgb(0, 0, 0)" stroke="rgb(60, 60, 60)" stroke-width="1px" opacity="0.25"></line><line x1="0" y1="0" x2="280" y2="0" fill="rgb(0, 0, 0)" stroke="rgb(60, 60, 60)" stroke-width="1px" opacity="0.25"></line></g></g></g><g><g><line x1="0" y1="155.75" x2="280" y2="155.75" fill="rgb(0, 0, 0)" stroke="rgb(153, 153, 153)" stroke-width="1.5px"></line></g></g><g><g><line x1="31.11111111111111" y1="0" x2="31.11111111111111" y2="178" fill="rgb(0, 0, 0)" stroke="rgb(153, 153, 153)" stroke-width="1.5px"></line></g></g><g><g><g><g><g><path stroke="rgb(0, 119, 187)" stroke-width="2px" d="M34.22222222222222,-1.540249913930893L35.77777777777777,6.46690171957016L37.333333333333336,13.77212044596672L38.88888888888889,20.537415266036987L40.44444444444444,26.92364138364792L42,32.93969762325287L43.55555555555556,38.54593050479889L45.111111111111114,43.822588592767715L46.666666666666664,48.712917014956474L48.22222222222222,53.32076412439346L49.77777777777778,57.572644993662834L51.33333333333333,61.5557177066803L52.888888888888886,65.24500322341919L54.44444444444444,68.68487630784512L56,71.85736690461636L57.55555555555555,74.82181598246098L59.111111111111114,77.58773905038834L60.66666666666667,80.1530274450779L62.22222222222222,82.53688459098339L63.77777777777778,84.73653872311115L65.33333333333333,86.79281038045883L66.88888888888889,88.7057791352272L68.44444444444444,90.47699001431465L70,92.1569713652134L71.55555555555554,93.69301323592663L73.11111111111111,95.16062964498997L74.66666666666667,96.54304412007332L76.22222222222221,97.85796810686588L77.77777777777779,99.08143047988415L79.33333333333333,100.21115348488092L80.88888888888889,101.23904065042734L82.44444444444444,102.27102246880531L84,103.21208641678095L85.55555555555556,104.08316661417484L87.11111111111111,104.8923661634326L88.66666666666666,105.6817953363061L90.22222222222223,106.4261833280325L91.77777777777777,107.1412821188569L93.33333333333333,107.81296432763338L94.8888888888889,108.4230079203844L96.44444444444444,109.073590233922L98,109.64776665717363L99.55555555555556,110.17351344972849L101.11111111111111,110.65796890109777L102.66666666666666,111.17070895433426L104.22222222222223,111.59192108362913L105.77777777777777,112.03199514001608L107.33333333333334,112.45230213552713L108.88888888888889,112.90306870639324L110.44444444444444,113.26798018813133L112,113.63659177720547L113.55555555555556,113.99917245656252L115.1111111111111,114.32247099280357L116.66666666666667,114.65253648161888L118.22222222222223,114.98621255904436L119.77777777777777,115.28492991626263L121.33333333333334,115.60953144729137L122.88888888888889,115.8776532933116L124.44444444444444,116.13491353392601L126,116.36643548309803L127.55555555555556,116.61159411817789L129.11111111111111,116.84384216368198L130.66666666666666,117.09760122746229L132.22222222222223,117.28769258409739L133.77777777777777,117.51560394465923L135.33333333333334,117.72976920753717L136.88888888888889,117.91150879859924L138.44444444444446,118.10772389918566L140,118.30633279681206L141.55555555555554,118.46687302738428L143.1111111111111,118.63560587912798L144.66666666666669,118.80599980056286L146.22222222222223,118.95877511054277L147.77777777777777,119.12455715984106L149.33333333333334,119.29573354125023L150.88888888888889,119.4340333417058L152.44444444444443,119.58682522922754L154,119.72806257009506L155.55555555555557,119.86683317273855L157.11111111111111,120.00261318683624L158.66666666666666,120.10770485550165L160.2222222222222,120.23267299681902L161.77777777777777,120.3729786798358L163.33333333333334,120.49067591130733L164.88888888888889,120.61266672611237L166.44444444444446,120.73860631138086L168,120.8381876051426L169.55555555555554,120.93830269575119L171.11111111111111,121.03394185006618L172.66666666666669,121.1162659227848L174.22222222222223,121.21155363321304L175.77777777777777,121.31796487420797L177.33333333333331,121.42103739827871L178.88888888888889,121.50251270085573L180.44444444444446,121.60572116076946L182,121.68413956463337L183.55555555555554,121.78282567113638L185.11111111111111,121.85190097242594L186.66666666666666,121.91643402725458L188.22222222222223,121.99013114720583L189.7777777777778,122.0738775730133L191.33333333333334,122.14129512012005L192.88888888888889,122.20480368286371L194.44444444444443,122.27268540114164L196,122.33463567495346L197.55555555555557,122.41680060327053L199.11111111111111,122.46399023383856L200.66666666666666,122.52817184478045L202.22222222222223,122.60072511434555L203.77777777777777,122.64826287329197L205.33333333333331,122.67084480077028L206.8888888888889,122.7661921903491L208.44444444444446,122.82449208945036L210,122.87255701422691L211.55555555555554,122.92615220695734L213.1111111111111,122.97706846892834L214.66666666666669,123.03877007961273L216.22222222222223,123.10126078128815L217.77777777777777,123.16419907659292L219.33333333333334,123.20184998959303L220.88888888888889,123.23783320188522L222.44444444444443,123.28661096096039L224,123.34019620716572L225.55555555555557,123.37232679873705L227.11111111111111,123.44191600382328L228.66666666666666,123.49835590273142L230.2222222222222,123.54160339385271L231.77777777777777,123.60077195614576L233.33333333333334,123.62624500691891L234.88888888888889,123.67321249842644L236.44444444444446,123.72304458916187L238,123.74974769353867L239.55555555555554,123.75940245389938L241.11111111111111,123.81698951870203L242.66666666666669,123.86770353466272L244.22222222222223,123.91180642694235L245.77777777777777,123.91511861979961L247.33333333333331,123.95198707282543L248.88888888888889,124.0000022649765L250.44444444444446,124.04724825918674L252,124.07644131034613L253.55555555555554,124.08782345056534L255.11111111111111,124.14412078261375L256.66666666666663,124.14945543557405L258.22222222222223,124.189108915627L259.77777777777777,124.21379950642586L261.3333333333333,124.24788624793291L262.8888888888889,124.27531213313341" style="fill: none;" fill="none"></path></g><g><path stroke="rgb(255, 112, 67)" stroke-width="2px" d="M35.77777777777777,-2.783035069704056L37.333333333333336,5.780366033315659L38.88888888888889,14.712159901857376L40.44444444444444,20.33501011133194L42,25.8872267305851L43.55555555555556,32.26443466544151L45.111111111111114,38.0437636077404L46.666666666666664,43.23242810368538L48.22222222222222,47.54770149290562L49.77777777777778,52.2442517131567L51.33333333333333,56.236574694514275L52.888888888888886,60.44948507845402L54.44444444444444,63.56042657792568L56,66.90446157753468L57.55555555555555,69.62424603104591L59.111111111111114,72.70343159139156L60.66666666666667,75.16509045660496L62.22222222222222,78.24280393123627L63.77777777777778,80.20973590016365L65.33333333333333,81.51509796082973L66.88888888888889,84.18961246311665L68.44444444444444,86.1588918119669L70,87.27328722178936L71.55555555555554,89.16955907642841L73.11111111111111,91.11177724599838L74.66666666666667,92.16349628567696L76.22222222222221,93.52575246989727L77.77777777777779,94.96008117496967L79.33333333333333,96.53858807682991L80.88888888888889,97.52749812602997L82.44444444444444,98.35644815862179L84,99.30951093137264L85.55555555555556,100.33430141210556L87.11111111111111,101.04919132590294L88.66666666666666,101.89801451563835L90.22222222222223,102.97576029598713L91.77777777777777,103.71387534588575L93.33333333333333,104.3531849309802L94.8888888888889,105.05318158119917L96.44444444444444,105.41449242085218L98,106.35846738517284L99.55555555555556,106.61432185024023L101.11111111111111,107.47857873141766L102.66666666666666,107.8129145950079L104.22222222222223,108.76128260791302L105.77777777777777,109.10736200213432L107.33333333333334,109.62891136109829L108.88888888888889,109.48473316431046L110.44444444444444,110.00942230969667L112,110.65732900798321L113.55555555555556,111.13684766739607L115.1111111111111,111.26206115633249L116.66666666666667,111.81204099953175L118.22222222222223,111.94828518480062L119.77777777777777,111.81617875397205L121.33333333333334,112.61964247375727L122.88888888888889,113.19665697216988L124.44444444444444,112.89056260883808L126,113.29697430878878L127.55555555555556,113.88132602721453L129.11111111111111,113.56658813357353L130.66666666666666,114.14191503822803L132.22222222222223,114.22782649099827L133.77777777777777,114.87351179867983L135.33333333333334,114.86485500633717L136.88888888888889,115.14969696104527L138.44444444444446,115.29035077244043L140,115.67313284426928L141.55555555555554,115.66476118564606L143.1111111111111,116.08461064100266L144.66666666666669,116.21832840889692L146.22222222222223,116.47039656341076L147.77777777777777,116.28538788110018L149.33333333333334,117.12868080288172L150.88888888888889,116.82663135975599L152.44444444444443,116.91456858813763L154,116.94986549019814L155.55555555555557,117.15524797141552L157.11111111111111,117.24158380925655L158.66666666666666,117.27233183383942L160.2222222222222,117.65779615193605L161.77777777777777,117.46387869864702L163.33333333333334,117.67667797207832L164.88888888888889,117.7138017192483L166.44444444444446,118.48613944649696L168,118.09498240053654L169.55555555555554,118.61374673247337L171.11111111111111,118.71390492469072L172.66666666666669,118.48565869778395L174.22222222222223,119.28046894073486L175.77777777777777,118.65317144244909L177.33333333333331,118.51140693575144L178.88888888888889,119.49062575399876L180.44444444444446,119.2251894697547L182,119.07730121910572L183.55555555555554,119.37061098217964L185.11111111111111,119.56014533340931L186.66666666666666,119.7194919809699L188.22222222222223,119.77172449976206L189.7777777777778,119.73708738386631L191.33333333333334,120.00325971096754L192.88888888888889,120.13763726502657L194.44444444444443,119.8456537052989L196,120.36671236902475L197.55555555555557,120.70003700256348L199.11111111111111,120.30640658736229L200.66666666666666,120.70519924908876L202.22222222222223,120.66202469915152L203.77777777777777,120.61194726079702L205.33333333333331,120.77611465752125L206.8888888888889,120.76093294471502L208.44444444444446,120.96513510495424L210,120.75458043068647L211.55555555555554,121.15998090058565L213.1111111111111,120.91762055456638L214.66666666666669,121.36956081539392L216.22222222222223,120.7526773288846L217.77777777777777,121.12549629807472L219.33333333333334,121.13019105792046L220.88888888888889,121.51291013509035L222.44444444444443,121.10404164344072L224,121.49563965201378L225.55555555555557,121.84149690717459L227.11111111111111,121.62176490575075L228.66666666666666,121.73248299211264L230.2222222222222,121.99587029218674L231.77777777777777,122.16968581825495L233.33333333333334,121.76691786199808L234.88888888888889,121.80340503156185L236.44444444444446,122.31707342714071L238,121.82661359012127L239.55555555555554,122.22319812327623L241.11111111111111,122.11673383414745L242.66666666666669,121.78149615228176L244.22222222222223,122.2967294678092L245.77777777777777,122.25614432990551L247.33333333333331,122.45739900320768L248.88888888888889,122.36178305745125L250.44444444444446,122.17436400055885L252,122.43882220983505L253.55555555555554,122.67379891872406L255.11111111111111,122.45582082122564L256.66666666666663,122.81492353230715L258.22222222222223,122.71796480566263L259.77777777777777,122.26158176362514L261.3333333333333,122.42524188756943L262.8888888888889,123.02231852710247" style="fill: none;" fill="none"></path></g></g></g></g></g></g><g transform="translate(50, 178)" clip-path="url(#clip_1)"><clipPath id="clip_1"><rect width="280" height="22"></rect></clipPath><g><g><line x1="0" y1="0" x2="0" y2="5" style="visibility: inherit;" fill="rgb(0, 0, 0)" stroke="rgb(204, 204, 204)" stroke-width="1px"></line><line x1="31.11111111111111" y1="0" x2="31.11111111111111" y2="5" style="visibility: inherit;" fill="rgb(0, 0, 0)" stroke="rgb(204, 204, 204)" stroke-width="1px"></line><line x1="62.22222222222222" y1="0" x2="62.22222222222222" y2="5" style="visibility: inherit;" fill="rgb(0, 0, 0)" stroke="rgb(204, 204, 204)" stroke-width="1px"></line><line x1="93.33333333333333" y1="0" x2="93.33333333333333" y2="5" style="visibility: inherit;" fill="rgb(0, 0, 0)" stroke="rgb(204, 204, 204)" stroke-width="1px"></line><line x1="124.44444444444444" y1="0" x2="124.44444444444444" y2="5" style="visibility: inherit;" fill="rgb(0, 0, 0)" stroke="rgb(204, 204, 204)" stroke-width="1px"></line><line x1="155.55555555555557" y1="0" x2="155.55555555555557" y2="5" style="visibility: inherit;" fill="rgb(0, 0, 0)" stroke="rgb(204, 204, 204)" stroke-width="1px"></line><line x1="186.66666666666666" y1="0" x2="186.66666666666666" y2="5" style="visibility: inherit;" fill="rgb(0, 0, 0)" stroke="rgb(204, 204, 204)" stroke-width="1px"></line><line x1="217.77777777777777" y1="0" x2="217.77777777777777" y2="5" style="visibility: inherit;" fill="rgb(0, 0, 0)" stroke="rgb(204, 204, 204)" stroke-width="1px"></line><line x1="248.88888888888889" y1="0" x2="248.88888888888889" y2="5" style="visibility: inherit;" fill="rgb(0, 0, 0)" stroke="rgb(204, 204, 204)" stroke-width="1px"></line><line x1="280" y1="0" x2="280" y2="5" style="visibility: inherit;" fill="rgb(0, 0, 0)" stroke="rgb(204, 204, 204)" stroke-width="1px"></line></g><g transform="translate(0, 8)"><text x="0" y="0" dx="0em" dy="0.95em" style="text-anchor: middle; visibility: hidden; font-family: &quot;Helvetica Neue&quot;, sans-serif; font-size: 12px; font-weight: 200;" fill="rgb(50, 49, 63)" stroke="none" stroke-width="1px">-20</text><text x="31.11111111111111" y="0" dx="0em" dy="0.95em" style="text-anchor: middle; visibility: inherit; font-family: &quot;Helvetica Neue&quot;, sans-serif; font-size: 12px; font-weight: 200;" fill="rgb(50, 49, 63)" stroke="none" stroke-width="1px">0</text><text x="62.22222222222222" y="0" dx="0em" dy="0.95em" style="text-anchor: middle; visibility: inherit; font-family: &quot;Helvetica Neue&quot;, sans-serif; font-size: 12px; font-weight: 200;" fill="rgb(50, 49, 63)" stroke="none" stroke-width="1px">20</text><text x="93.33333333333333" y="0" dx="0em" dy="0.95em" style="text-anchor: middle; visibility: inherit; font-family: &quot;Helvetica Neue&quot;, sans-serif; font-size: 12px; font-weight: 200;" fill="rgb(50, 49, 63)" stroke="none" stroke-width="1px">40</text><text x="124.44444444444444" y="0" dx="0em" dy="0.95em" style="text-anchor: middle; visibility: inherit; font-family: &quot;Helvetica Neue&quot;, sans-serif; font-size: 12px; font-weight: 200;" fill="rgb(50, 49, 63)" stroke="none" stroke-width="1px">60</text><text x="155.55555555555557" y="0" dx="0em" dy="0.95em" style="text-anchor: middle; visibility: inherit; font-family: &quot;Helvetica Neue&quot;, sans-serif; font-size: 12px; font-weight: 200;" fill="rgb(50, 49, 63)" stroke="none" stroke-width="1px">80</text><text x="186.66666666666666" y="0" dx="0em" dy="0.95em" style="text-anchor: middle; visibility: inherit; font-family: &quot;Helvetica Neue&quot;, sans-serif; font-size: 12px; font-weight: 200;" fill="rgb(50, 49, 63)" stroke="none" stroke-width="1px">100</text><text x="217.77777777777777" y="0" dx="0em" dy="0.95em" style="text-anchor: middle; visibility: inherit; font-family: &quot;Helvetica Neue&quot;, sans-serif; font-size: 12px; font-weight: 200;" fill="rgb(50, 49, 63)" stroke="none" stroke-width="1px">120</text><text x="248.88888888888889" y="0" dx="0em" dy="0.95em" style="text-anchor: middle; visibility: inherit; font-family: &quot;Helvetica Neue&quot;, sans-serif; font-size: 12px; font-weight: 200;" fill="rgb(50, 49, 63)" stroke="none" stroke-width="1px">140</text><text x="280" y="0" dx="0em" dy="0.95em" style="text-anchor: middle; visibility: hidden; font-family: &quot;Helvetica Neue&quot;, sans-serif; font-size: 12px; font-weight: 200;" fill="rgb(50, 49, 63)" stroke="none" stroke-width="1px">160</text></g><line x1="0" y1="0" x2="280" y2="0" fill="rgb(0, 0, 0)" stroke="rgb(204, 204, 204)" stroke-width="1px"></line></g></g></g></g></svg>