<svg viewBox="0 0 1073 400" xmlns="http://www.w3.org/2000/svg"><g><g><g><g><g><line x1="50" y1="378" x2="45" y2="378" style="visibility: inherit;" fill="rgb(0, 0, 0)" stroke="rgb(204, 204, 204)" stroke-width="1px"></line><line x1="50" y1="343.6363636363636" x2="45" y2="343.6363636363636" style="visibility: inherit;" fill="rgb(0, 0, 0)" stroke="rgb(204, 204, 204)" stroke-width="1px"></line><line x1="50" y1="309.27272727272725" x2="45" y2="309.27272727272725" style="visibility: inherit;" fill="rgb(0, 0, 0)" stroke="rgb(204, 204, 204)" stroke-width="1px"></line><line x1="50" y1="274.9090909090909" x2="45" y2="274.9090909090909" style="visibility: inherit;" fill="rgb(0, 0, 0)" stroke="rgb(204, 204, 204)" stroke-width="1px"></line><line x1="50" y1="240.54545454545456" x2="45" y2="240.54545454545456" style="visibility: inherit;" fill="rgb(0, 0, 0)" stroke="rgb(204, 204, 204)" stroke-width="1px"></line><line x1="50" y1="206.18181818181816" x2="45" y2="206.18181818181816" style="visibility: inherit;" fill="rgb(0, 0, 0)" stroke="rgb(204, 204, 204)" stroke-width="1px"></line><line x1="50" y1="171.81818181818178" x2="45" y2="171.81818181818178" style="visibility: inherit;" fill="rgb(0, 0, 0)" stroke="rgb(204, 204, 204)" stroke-width="1px"></line><line x1="50" y1="137.4545454545455" x2="45" y2="137.4545454545455" style="visibility: inherit;" fill="rgb(0, 0, 0)" stroke="rgb(204, 204, 204)" stroke-width="1px"></line><line x1="50" y1="103.09090909090907" x2="45" y2="103.09090909090907" style="visibility: inherit;" fill="rgb(0, 0, 0)" stroke="rgb(204, 204, 204)" stroke-width="1px"></line><line x1="50" y1="68.72727272727269" x2="45" y2="68.72727272727269" style="visibility: inherit;" fill="rgb(0, 0, 0)" stroke="rgb(204, 204, 204)" stroke-width="1px"></line><line x1="50" y1="34.363636363636374" x2="45" y2="34.363636363636374" style="visibility: inherit;" fill="rgb(0, 0, 0)" stroke="rgb(204, 204, 204)" stroke-width="1px"></line><line x1="50" y1="0" x2="45" y2="0" style="visibility: inherit;" fill="rgb(0, 0, 0)" stroke="rgb(204, 204, 204)" stroke-width="1px"></line></g><g transform="translate(40, 0)"><text x="0" y="378" dx="0em" dy="0.3em" style="text-anchor: end; visibility: hidden; font-family: &quot;Helvetica Neue&quot;, sans-serif; font-size: 12px; font-weight: 200;" fill="rgb(50, 49, 63)" stroke="none" stroke-width="1px">0.11</text><text x="0" y="343.6363636363636" dx="0em" dy="0.3em" style="text-anchor: end; visibility: inherit; font-family: &quot;Helvetica Neue&quot;, sans-serif; font-size: 12px; font-weight: 200;" fill="rgb(50, 49, 63)" stroke="none" stroke-width="1px">0.12</text><text x="0" y="309.27272727272725" dx="0em" dy="0.3em" style="text-anchor: end; visibility: inherit; font-family: &quot;Helvetica Neue&quot;, sans-serif; font-size: 12px; font-weight: 200;" fill="rgb(50, 49, 63)" stroke="none" stroke-width="1px">0.13</text><text x="0" y="274.9090909090909" dx="0em" dy="0.3em" style="text-anchor: end; visibility: inherit; font-family: &quot;Helvetica Neue&quot;, sans-serif; font-size: 12px; font-weight: 200;" fill="rgb(50, 49, 63)" stroke="none" stroke-width="1px">0.14</text><text x="0" y="240.54545454545456" dx="0em" dy="0.3em" style="text-anchor: end; visibility: inherit; font-family: &quot;Helvetica Neue&quot;, sans-serif; font-size: 12px; font-weight: 200;" fill="rgb(50, 49, 63)" stroke="none" stroke-width="1px">0.15</text><text x="0" y="206.18181818181816" dx="0em" dy="0.3em" style="text-anchor: end; visibility: inherit; font-family: &quot;Helvetica Neue&quot;, sans-serif; font-size: 12px; font-weight: 200;" fill="rgb(50, 49, 63)" stroke="none" stroke-width="1px">0.16</text><text x="0" y="171.81818181818178" dx="0em" dy="0.3em" style="text-anchor: end; visibility: inherit; font-family: &quot;Helvetica Neue&quot;, sans-serif; font-size: 12px; font-weight: 200;" fill="rgb(50, 49, 63)" stroke="none" stroke-width="1px">0.17</text><text x="0" y="137.4545454545455" dx="0em" dy="0.3em" style="text-anchor: end; visibility: inherit; font-family: &quot;Helvetica Neue&quot;, sans-serif; font-size: 12px; font-weight: 200;" fill="rgb(50, 49, 63)" stroke="none" stroke-width="1px">0.18</text><text x="0" y="103.09090909090907" dx="0em" dy="0.3em" style="text-anchor: end; visibility: inherit; font-family: &quot;Helvetica Neue&quot;, sans-serif; font-size: 12px; font-weight: 200;" fill="rgb(50, 49, 63)" stroke="none" stroke-width="1px">0.19</text><text x="0" y="68.72727272727269" dx="0em" dy="0.3em" style="text-anchor: end; visibility: inherit; font-family: &quot;Helvetica Neue&quot;, sans-serif; font-size: 12px; font-weight: 200;" fill="rgb(50, 49, 63)" stroke="none" stroke-width="1px">0.2</text><text x="0" y="34.363636363636374" dx="0em" dy="0.3em" style="text-anchor: end; visibility: inherit; font-family: &quot;Helvetica Neue&quot;, sans-serif; font-size: 12px; font-weight: 200;" fill="rgb(50, 49, 63)" stroke="none" stroke-width="1px">0.21</text><text x="0" y="0" dx="0em" dy="0.3em" style="text-anchor: end; visibility: hidden; font-family: &quot;Helvetica Neue&quot;, sans-serif; font-size: 12px; font-weight: 200;" fill="rgb(50, 49, 63)" stroke="none" stroke-width="1px">0.22</text></g><line x1="50" y1="0" x2="50" y2="378" fill="rgb(0, 0, 0)" stroke="rgb(204, 204, 204)" stroke-width="1px"></line></g></g><g transform="translate(50, 0)" clip-path="url(#clip_0)"><clipPath id="clip_0"><rect width="1023" height="378"></rect></clipPath><g><g><g><line x1="0" y1="0" x2="0" y2="378" fill="rgb(0, 0, 0)" stroke="rgb(60, 60, 60)" stroke-width="1px" opacity="0.25"></line><line x1="113.66666666666666" y1="0" x2="113.66666666666666" y2="378" fill="rgb(0, 0, 0)" stroke="rgb(60, 60, 60)" stroke-width="1px" opacity="0.25"></line><line x1="227.33333333333331" y1="0" x2="227.33333333333331" y2="378" fill="rgb(0, 0, 0)" stroke="rgb(60, 60, 60)" stroke-width="1px" opacity="0.25"></line><line x1="341" y1="0" x2="341" y2="378" fill="rgb(0, 0, 0)" stroke="rgb(60, 60, 60)" stroke-width="1px" opacity="0.25"></line><line x1="454.66666666666663" y1="0" x2="454.66666666666663" y2="378" fill="rgb(0, 0, 0)" stroke="rgb(60, 60, 60)" stroke-width="1px" opacity="0.25"></line><line x1="568.3333333333334" y1="0" x2="568.3333333333334" y2="378" fill="rgb(0, 0, 0)" stroke="rgb(60, 60, 60)" stroke-width="1px" opacity="0.25"></line><line x1="682" y1="0" x2="682" y2="378" fill="rgb(0, 0, 0)" stroke="rgb(60, 60, 60)" stroke-width="1px" opacity="0.25"></line><line x1="795.6666666666666" y1="0" x2="795.6666666666666" y2="378" fill="rgb(0, 0, 0)" stroke="rgb(60, 60, 60)" stroke-width="1px" opacity="0.25"></line><line x1="909.3333333333333" y1="0" x2="909.3333333333333" y2="378" fill="rgb(0, 0, 0)" stroke="rgb(60, 60, 60)" stroke-width="1px" opacity="0.25"></line><line x1="1023" y1="0" x2="1023" y2="378" fill="rgb(0, 0, 0)" stroke="rgb(60, 60, 60)" stroke-width="1px" opacity="0.25"></line></g><g><line x1="0" y1="378" x2="1023" y2="378" fill="rgb(0, 0, 0)" stroke="rgb(60, 60, 60)" stroke-width="1px" opacity="0.25"></line><line x1="0" y1="343.6363636363636" x2="1023" y2="343.6363636363636" fill="rgb(0, 0, 0)" stroke="rgb(60, 60, 60)" stroke-width="1px" opacity="0.25"></line><line x1="0" y1="309.27272727272725" x2="1023" y2="309.27272727272725" fill="rgb(0, 0, 0)" stroke="rgb(60, 60, 60)" stroke-width="1px" opacity="0.25"></line><line x1="0" y1="274.9090909090909" x2="1023" y2="274.9090909090909" fill="rgb(0, 0, 0)" stroke="rgb(60, 60, 60)" stroke-width="1px" opacity="0.25"></line><line x1="0" y1="240.54545454545456" x2="1023" y2="240.54545454545456" fill="rgb(0, 0, 0)" stroke="rgb(60, 60, 60)" stroke-width="1px" opacity="0.25"></line><line x1="0" y1="206.18181818181816" x2="1023" y2="206.18181818181816" fill="rgb(0, 0, 0)" stroke="rgb(60, 60, 60)" stroke-width="1px" opacity="0.25"></line><line x1="0" y1="171.81818181818178" x2="1023" y2="171.81818181818178" fill="rgb(0, 0, 0)" stroke="rgb(60, 60, 60)" stroke-width="1px" opacity="0.25"></line><line x1="0" y1="137.4545454545455" x2="1023" y2="137.4545454545455" fill="rgb(0, 0, 0)" stroke="rgb(60, 60, 60)" stroke-width="1px" opacity="0.25"></line><line x1="0" y1="103.09090909090907" x2="1023" y2="103.09090909090907" fill="rgb(0, 0, 0)" stroke="rgb(60, 60, 60)" stroke-width="1px" opacity="0.25"></line><line x1="0" y1="68.72727272727269" x2="1023" y2="68.72727272727269" fill="rgb(0, 0, 0)" stroke="rgb(60, 60, 60)" stroke-width="1px" opacity="0.25"></line><line x1="0" y1="34.363636363636374" x2="1023" y2="34.363636363636374" fill="rgb(0, 0, 0)" stroke="rgb(60, 60, 60)" stroke-width="1px" opacity="0.25"></line><line x1="0" y1="0" x2="1023" y2="0" fill="rgb(0, 0, 0)" stroke="rgb(60, 60, 60)" stroke-width="1px" opacity="0.25"></line></g></g></g><g><g><line x1="0" y1="756" x2="1023" y2="756" fill="rgb(0, 0, 0)" stroke="rgb(153, 153, 153)" stroke-width="1.5px"></line></g></g><g><g><line x1="113.66666666666666" y1="0" x2="113.66666666666666" y2="378" fill="rgb(0, 0, 0)" stroke="rgb(153, 153, 153)" stroke-width="1.5px"></line></g></g><g><g><g><g><g><path stroke="rgb(0, 119, 187)" stroke-width="2px" d="M113.66666666666666,182.12728747454557L119.35000000000001,154.63637387752533L125.03333333333333,154.63637387752533L130.71666666666667,154.63637387752533L136.4,154.63637387752533L142.08333333333334,154.63637387752533L147.76666666666665,154.63637387752533L153.45,154.63637387752533L159.13333333333333,154.63637387752533L164.8166666666667,154.63637387752533L170.5,154.63637387752533L176.18333333333334,154.63637387752533L181.86666666666667,154.63637387752533L187.54999999999998,154.63637387752533L193.23333333333332,154.63637387752533L198.91666666666666,154.63637387752533L204.60000000000002,154.63637387752533L210.28333333333333,154.63637387752533L215.96666666666667,154.63637387752533L221.65,154.63637387752533L227.33333333333331,154.63637387752533L233.01666666666665,154.63637387752533L238.70000000000002,154.63637387752533L244.38333333333335,154.63637387752533L250.06666666666666,154.63637387752533L255.75,154.63637387752533L261.43333333333334,154.63637387752533L267.1166666666667,154.63637387752533L272.8,154.63637387752533L278.4833333333333,154.63637387752533L284.1666666666667,154.63637387752533L289.84999999999997,154.63637387752533L295.5333333333333,154.63637387752533L301.2166666666667,154.63637387752533L306.9,154.63637387752533L312.58333333333337,150.0545293417844L318.26666666666665,142.03636541149834L323.95,106.52728788419205L329.6333333333334,125.99998634511772L335.31666666666666,121.4181930151853L341,117.9818224148317L346.68333333333334,105.38181394880468L352.3666666666667,105.38181394880468L358.04999999999995,147.76363267681816L363.73333333333335,109.96365848454565L369.4166666666667,113.39997787909073L375.09999999999997,121.4181930151853L380.78333333333336,54.98183129050517L386.46666666666664,111.1090812141245L392.15000000000003,108.81818454915827L397.8333333333333,85.90911548787898L403.51666666666665,73.30910702185196L409.20000000000005,87.05453821745783L414.8833333333333,80.18179701675069L420.56666666666666,101.94544334845108L426.25,103.09091728383845L431.93333333333334,107.6727106137709L437.6166666666666,111.1090812141245L443.3,85.90911548787898L448.98333333333335,97.36365001851863L454.66666666666663,91.6363827531988L460.35,99.65454668348485L466.0333333333333,85.90911548787898L471.7166666666667,91.6363827531988L477.40000000000003,103.09091728383845L483.0833333333333,71.01815915107727L488.7666666666667,58.41820189085871L494.45,69.87273642149836L500.1333333333333,79.03637428717178L505.81666666666666,61.85452128540385L511.5,90.49090881781143L517.1833333333333,77.89090035178447L522.8666666666667,72.16363308646464L528.5500000000001,75.60000368681818L534.2333333333333,91.6363827531988L539.9166666666666,83.61816761710429L545.6,79.03637428717178L551.2833333333333,79.03637428717178L556.9666666666666,53.8363573551178L562.6500000000001,52.69093462553889L568.3333333333334,89.34543488242412L574.0166666666667,83.61816761710429L579.6999999999999,77.89090035178447L585.3833333333333,65.29089188575745L591.0666666666666,85.90911548787898L596.75,85.90911548787898L602.4333333333334,57.272727955471396L608.1166666666667,74.45452975143087L613.8,77.89090035178447L619.4833333333332,103.09091728383845L625.1666666666667,99.65454668348485L630.85,73.30910702185196L636.5333333333333,98.50907274809748L642.2166666666667,98.50907274809748L647.9,103.09091728383845L653.5833333333333,87.05453821745783L659.2666666666668,87.05453821745783L664.95,92.78180548277766L670.6333333333333,74.45452975143087L676.3166666666666,77.89090035178447L682,64.14546915617854L687.6833333333334,90.49090881781143L693.3666666666667,89.34543488242412L699.0500000000001,89.34543488242412L704.7333333333333,68.72726248611104L710.4166666666666,96.21817608313125L716.0999999999999,91.6363827531988L721.7833333333334,79.03637428717178L727.4666666666667,84.7636415524916L733.15,67.58183975653213L738.8333333333334,74.45452975143087L744.5166666666667,57.272727955471396L750.1999999999999,90.49090881781143L755.8833333333333,73.30910702185196L761.5666666666667,67.58183975653213L767.25,77.89090035178447L772.9333333333333,65.29089188575745L778.6166666666667,77.89090035178447L784.3000000000001,74.45452975143087L789.9833333333333,68.72726248611104L795.6666666666666,87.05453821745783L801.35,54.98183129050517L807.0333333333333,61.85452128540385L812.7166666666666,65.29089188575745L818.4000000000001,88.2000121528452L824.0833333333334,42.38182282447815L829.7666666666667,68.72726248611104L835.4499999999999,85.90911548787898L841.1333333333333,68.72726248611104L846.8166666666666,52.69093462553889L852.5,43.52729675986552L858.1833333333334,58.41820189085871L863.8666666666667,51.54546069015157L869.55,51.54546069015157L875.2333333333332,59.56362462043762L880.9166666666667,59.56362462043762L886.6,53.8363573551178L892.2833333333333,66.43636582114482L897.9666666666667,95.07270214774394L903.65,81.32727095213801L909.3333333333333,50.3999867547642L915.0166666666668,22.90907315774399L920.7,64.14546915617854L926.3833333333333,89.34543488242412" style="fill: none;" fill="none"></path></g><g><path stroke="rgb(255, 112, 67)" stroke-width="2px" d="M113.66666666666666,160.65515581044284L119.35000000000001,343.55103837360036L125.03333333333333,336.08589717474854L130.71666666666667,303.8258281946182L136.4,318.48953315344727L142.08333333333334,305.6921262957833L147.76666666666665,318.2229045087641L153.45,319.5559453205629L159.13333333333333,312.090804121711L164.8166666666667,328.08754989233887L170.5,319.822573965246L176.18333333333334,324.08837625113404L181.86666666666667,326.48788043585694L187.54999999999998,318.75611059232193L193.23333333333332,310.75776330991226L198.91666666666666,325.95462314649063L204.60000000000002,313.15726749463516L210.28333333333333,326.7544834776358L215.96666666666667,302.7594160275026L221.65,311.82422668283635L227.33333333333331,317.15644113584L233.01666666666665,312.3574327663942L238.70000000000002,301.95958129926163L244.38333333333335,323.55511896176773L250.06666666666666,324.3549536900087L255.75,304.09245683930135L261.43333333333334,323.0219128782099L267.1166666666667,320.0892026099292L272.8,313.69047357819295L278.4833333333333,321.68887206641114L284.1666666666667,318.75611059232193L289.84999999999997,311.0243919545954L295.5333333333333,315.55677167935806L301.2166666666667,304.35908548398453L306.9,304.35908548398453L312.58333333333337,303.2926221110604L318.26666666666665,304.6256629228592L323.95,313.69047357819295L329.6333333333334,303.55925075574356L335.31666666666666,311.55759803815323L341,314.7569369511171L346.68333333333334,312.6240614110773L352.3666666666667,301.95958129926163L358.04999999999995,306.75858966870743L363.73333333333335,307.0251671075821L369.4166666666667,307.5584243969484L375.09999999999997,311.29096939347005L380.78333333333336,306.75858966870743L386.46666666666664,320.88903733817017L392.15000000000003,318.48953315344727L397.8333333333333,312.3574327663942L403.51666666666665,307.5584243969484L409.20000000000005,314.7569369511171L414.8833333333333,309.424671292305L420.56666666666666,309.9579285816713L426.25,298.4936137416146L431.93333333333334,307.5584243969484L437.6166666666666,312.090804121711L443.3,303.55925075574356L448.98333333333335,298.7601911804893L454.66666666666663,308.89146520874715L460.35,297.4271503686905L466.0333333333333,302.4927873828194L471.7166666666667,294.76101753928447L477.40000000000003,307.0251671075821L483.0833333333333,304.35908548398453L488.7666666666667,303.02599346637726L494.45,310.2245572263544L500.1333333333333,299.0268198251724L505.81666666666666,297.96035645224833L511.5,306.2253323793411L517.1833333333333,304.09245683930135L522.8666666666667,307.2917957522652L528.5500000000001,300.8931179263375L534.2333333333333,300.8931179263375L539.9166666666666,311.0243919545954L545.6,303.55925075574356L551.2833333333333,308.0916304805062L556.9666666666666,309.9579285816713L562.6500000000001,303.55925075574356L568.3333333333334,299.56002590873027L574.0166666666667,292.6281419992447L579.6999999999999,309.6912999369881L585.3833333333333,303.02599346637726L591.0666666666666,302.4927873828194L596.75,304.6256629228592L602.4333333333334,303.55925075574356L608.1166666666667,305.95875494046646L613.8,301.1596953652122L619.4833333333332,305.42549765110016L625.1666666666667,309.424671292305L630.85,304.09245683930135L636.5333333333333,307.2917957522652L642.2166666666667,299.29344846985555L647.9,294.49444010040975L653.5833333333333,308.0916304805062L659.2666666666668,300.62648928165436L664.95,297.4271503686905L670.6333333333333,297.16052172400737L676.3166666666666,299.0268198251724L682,303.8258281946182L687.6833333333334,294.2278114557266L693.3666666666667,297.6937790133736L699.0500000000001,302.2261587381363L704.7333333333333,300.35986063697123L710.4166666666666,297.16052172400737L716.0999999999999,305.6921262957833L721.7833333333334,300.62648928165436L727.4666666666667,304.6256629228592L733.15,299.29344846985555L738.8333333333334,296.6273156404495L744.5166666666667,304.6256629228592L750.1999999999999,301.69295265457845L755.8833333333333,298.7601911804893L761.5666666666667,304.09245683930135L767.25,304.09245683930135L772.9333333333333,304.6256629228592L778.6166666666667,303.2926221110604L784.3000000000001,300.35986063697123L789.9833333333333,301.69295265457845L795.6666666666666,307.82500183582306L801.35,292.0948847098784L807.0333333333333,301.69295265457845L812.7166666666666,304.09245683930135L818.4000000000001,308.35825912518936L824.0833333333334,304.35908548398453L829.7666666666667,310.75776330991226L835.4499999999999,305.42549765110016L841.1333333333333,310.4911346652291L846.8166666666666,301.1596953652122L852.5,301.95958129926163L858.1833333333334,312.090804121711L863.8666666666667,302.4927873828194L869.55,310.75776330991226L875.2333333333332,301.1596953652122L880.9166666666667,305.95875494046646L886.6,297.4271503686905L892.2833333333333,313.69047357819295L897.9666666666667,295.2942748286507L903.65,310.4911346652291L909.3333333333333,290.49521525339645L915.0166666666668,305.6921262957833L920.7,292.36151335456157L926.3833333333333,287.56250498511577" style="fill: none;" fill="none"></path></g></g></g></g></g></g><g transform="translate(50, 378)" clip-path="url(#clip_1)"><clipPath id="clip_1"><rect width="1023" height="22"></rect></clipPath><g><g><line x1="0" y1="0" x2="0" y2="5" style="visibility: inherit;" fill="rgb(0, 0, 0)" stroke="rgb(204, 204, 204)" stroke-width="1px"></line><line x1="113.66666666666666" y1="0" x2="113.66666666666666" y2="5" style="visibility: inherit;" fill="rgb(0, 0, 0)" stroke="rgb(204, 204, 204)" stroke-width="1px"></line><line x1="227.33333333333331" y1="0" x2="227.33333333333331" y2="5" style="visibility: inherit;" fill="rgb(0, 0, 0)" stroke="rgb(204, 204, 204)" stroke-width="1px"></line><line x1="341" y1="0" x2="341" y2="5" style="visibility: inherit;" fill="rgb(0, 0, 0)" stroke="rgb(204, 204, 204)" stroke-width="1px"></line><line x1="454.66666666666663" y1="0" x2="454.66666666666663" y2="5" style="visibility: inherit;" fill="rgb(0, 0, 0)" stroke="rgb(204, 204, 204)" stroke-width="1px"></line><line x1="568.3333333333334" y1="0" x2="568.3333333333334" y2="5" style="visibility: inherit;" fill="rgb(0, 0, 0)" stroke="rgb(204, 204, 204)" stroke-width="1px"></line><line x1="682" y1="0" x2="682" y2="5" style="visibility: inherit;" fill="rgb(0, 0, 0)" stroke="rgb(204, 204, 204)" stroke-width="1px"></line><line x1="795.6666666666666" y1="0" x2="795.6666666666666" y2="5" style="visibility: inherit;" fill="rgb(0, 0, 0)" stroke="rgb(204, 204, 204)" stroke-width="1px"></line><line x1="909.3333333333333" y1="0" x2="909.3333333333333" y2="5" style="visibility: inherit;" fill="rgb(0, 0, 0)" stroke="rgb(204, 204, 204)" stroke-width="1px"></line><line x1="1023" y1="0" x2="1023" y2="5" style="visibility: inherit;" fill="rgb(0, 0, 0)" stroke="rgb(204, 204, 204)" stroke-width="1px"></line></g><g transform="translate(0, 8)"><text x="0" y="0" dx="0em" dy="0.95em" style="text-anchor: middle; visibility: hidden; font-family: &quot;Helvetica Neue&quot;, sans-serif; font-size: 12px; font-weight: 200;" fill="rgb(50, 49, 63)" stroke="none" stroke-width="1px">-20</text><text x="113.66666666666666" y="0" dx="0em" dy="0.95em" style="text-anchor: middle; visibility: inherit; font-family: &quot;Helvetica Neue&quot;, sans-serif; font-size: 12px; font-weight: 200;" fill="rgb(50, 49, 63)" stroke="none" stroke-width="1px">0</text><text x="227.33333333333331" y="0" dx="0em" dy="0.95em" style="text-anchor: middle; visibility: inherit; font-family: &quot;Helvetica Neue&quot;, sans-serif; font-size: 12px; font-weight: 200;" fill="rgb(50, 49, 63)" stroke="none" stroke-width="1px">20</text><text x="341" y="0" dx="0em" dy="0.95em" style="text-anchor: middle; visibility: inherit; font-family: &quot;Helvetica Neue&quot;, sans-serif; font-size: 12px; font-weight: 200;" fill="rgb(50, 49, 63)" stroke="none" stroke-width="1px">40</text><text x="454.66666666666663" y="0" dx="0em" dy="0.95em" style="text-anchor: middle; visibility: inherit; font-family: &quot;Helvetica Neue&quot;, sans-serif; font-size: 12px; font-weight: 200;" fill="rgb(50, 49, 63)" stroke="none" stroke-width="1px">60</text><text x="568.3333333333334" y="0" dx="0em" dy="0.95em" style="text-anchor: middle; visibility: inherit; font-family: &quot;Helvetica Neue&quot;, sans-serif; font-size: 12px; font-weight: 200;" fill="rgb(50, 49, 63)" stroke="none" stroke-width="1px">80</text><text x="682" y="0" dx="0em" dy="0.95em" style="text-anchor: middle; visibility: inherit; font-family: &quot;Helvetica Neue&quot;, sans-serif; font-size: 12px; font-weight: 200;" fill="rgb(50, 49, 63)" stroke="none" stroke-width="1px">100</text><text x="795.6666666666666" y="0" dx="0em" dy="0.95em" style="text-anchor: middle; visibility: inherit; font-family: &quot;Helvetica Neue&quot;, sans-serif; font-size: 12px; font-weight: 200;" fill="rgb(50, 49, 63)" stroke="none" stroke-width="1px">120</text><text x="909.3333333333333" y="0" dx="0em" dy="0.95em" style="text-anchor: middle; visibility: inherit; font-family: &quot;Helvetica Neue&quot;, sans-serif; font-size: 12px; font-weight: 200;" fill="rgb(50, 49, 63)" stroke="none" stroke-width="1px">140</text><text x="1023" y="0" dx="0em" dy="0.95em" style="text-anchor: middle; visibility: hidden; font-family: &quot;Helvetica Neue&quot;, sans-serif; font-size: 12px; font-weight: 200;" fill="rgb(50, 49, 63)" stroke="none" stroke-width="1px">160</text></g><line x1="0" y1="0" x2="1023" y2="0" fill="rgb(0, 0, 0)" stroke="rgb(204, 204, 204)" stroke-width="1px"></line></g></g></g></g></svg>