<svg viewBox="0 0 330 200" xmlns="http://www.w3.org/2000/svg"><g><g><g><g><g><line x1="50" y1="178" x2="45" y2="178" style="visibility: inherit;" fill="rgb(0, 0, 0)" stroke="rgb(204, 204, 204)" stroke-width="1px"></line><line x1="50" y1="164.30769230769232" x2="45" y2="164.30769230769232" style="visibility: inherit;" fill="rgb(0, 0, 0)" stroke="rgb(204, 204, 204)" stroke-width="1px"></line><line x1="50" y1="150.6153846153846" x2="45" y2="150.6153846153846" style="visibility: inherit;" fill="rgb(0, 0, 0)" stroke="rgb(204, 204, 204)" stroke-width="1px"></line><line x1="50" y1="136.9230769230769" x2="45" y2="136.9230769230769" style="visibility: inherit;" fill="rgb(0, 0, 0)" stroke="rgb(204, 204, 204)" stroke-width="1px"></line><line x1="50" y1="123.23076923076923" x2="45" y2="123.23076923076923" style="visibility: inherit;" fill="rgb(0, 0, 0)" stroke="rgb(204, 204, 204)" stroke-width="1px"></line><line x1="50" y1="109.53846153846155" x2="45" y2="109.53846153846155" style="visibility: inherit;" fill="rgb(0, 0, 0)" stroke="rgb(204, 204, 204)" stroke-width="1px"></line><line x1="50" y1="95.84615384615385" x2="45" y2="95.84615384615385" style="visibility: inherit;" fill="rgb(0, 0, 0)" stroke="rgb(204, 204, 204)" stroke-width="1px"></line><line x1="50" y1="82.15384615384616" x2="45" y2="82.15384615384616" style="visibility: inherit;" fill="rgb(0, 0, 0)" stroke="rgb(204, 204, 204)" stroke-width="1px"></line><line x1="50" y1="68.46153846153848" x2="45" y2="68.46153846153848" style="visibility: inherit;" fill="rgb(0, 0, 0)" stroke="rgb(204, 204, 204)" stroke-width="1px"></line><line x1="50" y1="54.769230769230774" x2="45" y2="54.769230769230774" style="visibility: inherit;" fill="rgb(0, 0, 0)" stroke="rgb(204, 204, 204)" stroke-width="1px"></line><line x1="50" y1="41.076923076923094" x2="45" y2="41.076923076923094" style="visibility: inherit;" fill="rgb(0, 0, 0)" stroke="rgb(204, 204, 204)" stroke-width="1px"></line><line x1="50" y1="27.384615384615387" x2="45" y2="27.384615384615387" style="visibility: inherit;" fill="rgb(0, 0, 0)" stroke="rgb(204, 204, 204)" stroke-width="1px"></line><line x1="50" y1="13.69230769230768" x2="45" y2="13.69230769230768" style="visibility: inherit;" fill="rgb(0, 0, 0)" stroke="rgb(204, 204, 204)" stroke-width="1px"></line><line x1="50" y1="0" x2="45" y2="0" style="visibility: inherit;" fill="rgb(0, 0, 0)" stroke="rgb(204, 204, 204)" stroke-width="1px"></line></g><g transform="translate(40, 0)"><text x="0" y="178" dx="0em" dy="0.3em" style="text-anchor: end; visibility: hidden; font-family: &quot;Helvetica Neue&quot;, sans-serif; font-size: 12px; font-weight: 200;" fill="rgb(50, 49, 63)" stroke="none" stroke-width="1px">-0.1</text><text x="0" y="164.30769230769232" dx="0em" dy="0.3em" style="text-anchor: end; visibility: inherit; font-family: &quot;Helvetica Neue&quot;, sans-serif; font-size: 12px; font-weight: 200;" fill="rgb(50, 49, 63)" stroke="none" stroke-width="1px">0</text><text x="0" y="150.6153846153846" dx="0em" dy="0.3em" style="text-anchor: end; visibility: hidden; font-family: &quot;Helvetica Neue&quot;, sans-serif; font-size: 12px; font-weight: 200;" fill="rgb(50, 49, 63)" stroke="none" stroke-width="1px">0.1</text><text x="0" y="136.9230769230769" dx="0em" dy="0.3em" style="text-anchor: end; visibility: inherit; font-family: &quot;Helvetica Neue&quot;, sans-serif; font-size: 12px; font-weight: 200;" fill="rgb(50, 49, 63)" stroke="none" stroke-width="1px">0.2</text><text x="0" y="123.23076923076923" dx="0em" dy="0.3em" style="text-anchor: end; visibility: hidden; font-family: &quot;Helvetica Neue&quot;, sans-serif; font-size: 12px; font-weight: 200;" fill="rgb(50, 49, 63)" stroke="none" stroke-width="1px">0.3</text><text x="0" y="109.53846153846155" dx="0em" dy="0.3em" style="text-anchor: end; visibility: inherit; font-family: &quot;Helvetica Neue&quot;, sans-serif; font-size: 12px; font-weight: 200;" fill="rgb(50, 49, 63)" stroke="none" stroke-width="1px">0.4</text><text x="0" y="95.84615384615385" dx="0em" dy="0.3em" style="text-anchor: end; visibility: hidden; font-family: &quot;Helvetica Neue&quot;, sans-serif; font-size: 12px; font-weight: 200;" fill="rgb(50, 49, 63)" stroke="none" stroke-width="1px">0.5</text><text x="0" y="82.15384615384616" dx="0em" dy="0.3em" style="text-anchor: end; visibility: inherit; font-family: &quot;Helvetica Neue&quot;, sans-serif; font-size: 12px; font-weight: 200;" fill="rgb(50, 49, 63)" stroke="none" stroke-width="1px">0.6</text><text x="0" y="68.46153846153848" dx="0em" dy="0.3em" style="text-anchor: end; visibility: hidden; font-family: &quot;Helvetica Neue&quot;, sans-serif; font-size: 12px; font-weight: 200;" fill="rgb(50, 49, 63)" stroke="none" stroke-width="1px">0.7</text><text x="0" y="54.769230769230774" dx="0em" dy="0.3em" style="text-anchor: end; visibility: inherit; font-family: &quot;Helvetica Neue&quot;, sans-serif; font-size: 12px; font-weight: 200;" fill="rgb(50, 49, 63)" stroke="none" stroke-width="1px">0.8</text><text x="0" y="41.076923076923094" dx="0em" dy="0.3em" style="text-anchor: end; visibility: hidden; font-family: &quot;Helvetica Neue&quot;, sans-serif; font-size: 12px; font-weight: 200;" fill="rgb(50, 49, 63)" stroke="none" stroke-width="1px">0.9</text><text x="0" y="27.384615384615387" dx="0em" dy="0.3em" style="text-anchor: end; visibility: inherit; font-family: &quot;Helvetica Neue&quot;, sans-serif; font-size: 12px; font-weight: 200;" fill="rgb(50, 49, 63)" stroke="none" stroke-width="1px">1</text><text x="0" y="13.69230769230768" dx="0em" dy="0.3em" style="text-anchor: end; visibility: hidden; font-family: &quot;Helvetica Neue&quot;, sans-serif; font-size: 12px; font-weight: 200;" fill="rgb(50, 49, 63)" stroke="none" stroke-width="1px">1.1</text><text x="0" y="0" dx="0em" dy="0.3em" style="text-anchor: end; visibility: hidden; font-family: &quot;Helvetica Neue&quot;, sans-serif; font-size: 12px; font-weight: 200;" fill="rgb(50, 49, 63)" stroke="none" stroke-width="1px">1.2</text></g><line x1="50" y1="0" x2="50" y2="178" fill="rgb(0, 0, 0)" stroke="rgb(204, 204, 204)" stroke-width="1px"></line></g></g><g transform="translate(50, 0)" clip-path="url(#clip_0)"><clipPath id="clip_0"><rect width="280" height="178"></rect></clipPath><g><g><g><line x1="0" y1="0" x2="0" y2="178" fill="rgb(0, 0, 0)" stroke="rgb(60, 60, 60)" stroke-width="1px" opacity="0.25"></line><line x1="23.333333333333332" y1="0" x2="23.333333333333332" y2="178" fill="rgb(0, 0, 0)" stroke="rgb(60, 60, 60)" stroke-width="1px" opacity="0.25"></line><line x1="46.666666666666664" y1="0" x2="46.666666666666664" y2="178" fill="rgb(0, 0, 0)" stroke="rgb(60, 60, 60)" stroke-width="1px" opacity="0.25"></line><line x1="70" y1="0" x2="70" y2="178" fill="rgb(0, 0, 0)" stroke="rgb(60, 60, 60)" stroke-width="1px" opacity="0.25"></line><line x1="93.33333333333333" y1="0" x2="93.33333333333333" y2="178" fill="rgb(0, 0, 0)" stroke="rgb(60, 60, 60)" stroke-width="1px" opacity="0.25"></line><line x1="116.66666666666667" y1="0" x2="116.66666666666667" y2="178" fill="rgb(0, 0, 0)" stroke="rgb(60, 60, 60)" stroke-width="1px" opacity="0.25"></line><line x1="140" y1="0" x2="140" y2="178" fill="rgb(0, 0, 0)" stroke="rgb(60, 60, 60)" stroke-width="1px" opacity="0.25"></line><line x1="163.33333333333334" y1="0" x2="163.33333333333334" y2="178" fill="rgb(0, 0, 0)" stroke="rgb(60, 60, 60)" stroke-width="1px" opacity="0.25"></line><line x1="186.66666666666666" y1="0" x2="186.66666666666666" y2="178" fill="rgb(0, 0, 0)" stroke="rgb(60, 60, 60)" stroke-width="1px" opacity="0.25"></line><line x1="210" y1="0" x2="210" y2="178" fill="rgb(0, 0, 0)" stroke="rgb(60, 60, 60)" stroke-width="1px" opacity="0.25"></line><line x1="233.33333333333334" y1="0" x2="233.33333333333334" y2="178" fill="rgb(0, 0, 0)" stroke="rgb(60, 60, 60)" stroke-width="1px" opacity="0.25"></line><line x1="256.66666666666663" y1="0" x2="256.66666666666663" y2="178" fill="rgb(0, 0, 0)" stroke="rgb(60, 60, 60)" stroke-width="1px" opacity="0.25"></line><line x1="280" y1="0" x2="280" y2="178" fill="rgb(0, 0, 0)" stroke="rgb(60, 60, 60)" stroke-width="1px" opacity="0.25"></line></g><g><line x1="0" y1="178" x2="280" y2="178" fill="rgb(0, 0, 0)" stroke="rgb(60, 60, 60)" stroke-width="1px" opacity="0.25"></line><line x1="0" y1="164.30769230769232" x2="280" y2="164.30769230769232" fill="rgb(0, 0, 0)" stroke="rgb(60, 60, 60)" stroke-width="1px" opacity="0.25"></line><line x1="0" y1="150.6153846153846" x2="280" y2="150.6153846153846" fill="rgb(0, 0, 0)" stroke="rgb(60, 60, 60)" stroke-width="1px" opacity="0.25"></line><line x1="0" y1="136.9230769230769" x2="280" y2="136.9230769230769" fill="rgb(0, 0, 0)" stroke="rgb(60, 60, 60)" stroke-width="1px" opacity="0.25"></line><line x1="0" y1="123.23076923076923" x2="280" y2="123.23076923076923" fill="rgb(0, 0, 0)" stroke="rgb(60, 60, 60)" stroke-width="1px" opacity="0.25"></line><line x1="0" y1="109.53846153846155" x2="280" y2="109.53846153846155" fill="rgb(0, 0, 0)" stroke="rgb(60, 60, 60)" stroke-width="1px" opacity="0.25"></line><line x1="0" y1="95.84615384615385" x2="280" y2="95.84615384615385" fill="rgb(0, 0, 0)" stroke="rgb(60, 60, 60)" stroke-width="1px" opacity="0.25"></line><line x1="0" y1="82.15384615384616" x2="280" y2="82.15384615384616" fill="rgb(0, 0, 0)" stroke="rgb(60, 60, 60)" stroke-width="1px" opacity="0.25"></line><line x1="0" y1="68.46153846153848" x2="280" y2="68.46153846153848" fill="rgb(0, 0, 0)" stroke="rgb(60, 60, 60)" stroke-width="1px" opacity="0.25"></line><line x1="0" y1="54.769230769230774" x2="280" y2="54.769230769230774" fill="rgb(0, 0, 0)" stroke="rgb(60, 60, 60)" stroke-width="1px" opacity="0.25"></line><line x1="0" y1="41.076923076923094" x2="280" y2="41.076923076923094" fill="rgb(0, 0, 0)" stroke="rgb(60, 60, 60)" stroke-width="1px" opacity="0.25"></line><line x1="0" y1="27.384615384615387" x2="280" y2="27.384615384615387" fill="rgb(0, 0, 0)" stroke="rgb(60, 60, 60)" stroke-width="1px" opacity="0.25"></line><line x1="0" y1="13.69230769230768" x2="280" y2="13.69230769230768" fill="rgb(0, 0, 0)" stroke="rgb(60, 60, 60)" stroke-width="1px" opacity="0.25"></line><line x1="0" y1="0" x2="280" y2="0" fill="rgb(0, 0, 0)" stroke="rgb(60, 60, 60)" stroke-width="1px" opacity="0.25"></line></g></g></g><g><g><line x1="0" y1="164.30769230769232" x2="280" y2="164.30769230769232" fill="rgb(0, 0, 0)" stroke="rgb(153, 153, 153)" stroke-width="1.5px"></line></g></g><g><g><line x1="23.333333333333332" y1="0" x2="23.333333333333332" y2="178" fill="rgb(0, 0, 0)" stroke="rgb(153, 153, 153)" stroke-width="1.5px"></line></g></g><g><g><g><g><g><path stroke="rgb(0, 119, 187)" stroke-width="2px" d="M25.666666666666664,-5.1043469355656725L26.833333333333336,3.174328510577851L28,10.50775150152353L29.166666666666668,17.20043464807364L30.333333333333336,23.43381889049823L31.5,29.28390996272745L32.666666666666664,34.75837127978983L33.833333333333336,39.91256060967078L35,44.65517803338858L36.16666666666667,49.11578341630789L37.333333333333336,53.28976565140945L38.5,57.211271414389984L39.666666666666664,60.86730799308191L40.833333333333336,64.23364463219278L42,67.37669759530289L43.16666666666667,70.35938196915848L44.33333333333333,73.1349419447092L45.5,75.76173863044153L46.666666666666664,78.24493809846732L47.833333333333336,80.55596780776978L49,82.78028422135574L50.166666666666664,84.84262427916894L51.33333333333333,86.71310147872339L52.5,88.5090338083414L53.66666666666667,90.24258969380307L54.833333333333336,91.85863988216107L56,93.33899294413054L57.166666666666664,94.7303802050077L58.333333333333336,96.10884004372818L59.5,97.40743795725017L60.66666666666667,98.5925006224559L61.83333333333333,99.78834838133592L63,100.86460116276375L64.16666666666666,101.89742792569675L65.33333333333333,102.84641823401819L66.5,103.7637632901852L67.66666666666667,104.66004823721373L68.83333333333333,105.48503649234773L70,106.28634487665617L71.16666666666666,107.03246279863211L72.33333333333334,107.74370361291446L73.5,108.45199821545528L74.66666666666667,109.09130984086258L75.83333333333333,109.70969193715317L77,110.29040169715883L78.16666666666667,110.86552916123317L79.33333333333333,111.41070891343631L80.5,111.90730065565843L81.66666666666667,112.41077641340404L82.83333333333333,112.83889117607704L84,113.32826429146988L85.16666666666666,113.78323365174808L86.33333333333334,114.17625095294073L87.5,114.58950407688435L88.66666666666666,114.99933763650748L89.83333333333334,115.32987239727608L91,115.71012142071358L92.16666666666667,116.0401624257748L93.33333333333333,116.352460870376L94.5,116.67318580700801L95.66666666666667,116.98272982927469L96.83333333333333,117.25412000142612L98,117.50497646515187L99.16666666666667,117.78125522686885L100.33333333333333,118.04615720418784L101.5,118.31482151838449L102.66666666666666,118.55288113997534L103.83333333333334,118.79691479756282L105,119.07075742574838L106.16666666666666,119.3009863266578L107.33333333333334,119.51638215321762L108.5,119.68819281688104L109.66666666666667,119.89132636327011L110.83333333333333,120.08470721428212L112,120.27226909307333L113.16666666666667,120.46160196341002L114.33333333333333,120.60939814494208L115.5,120.76716329501227L116.66666666666667,120.92858468569243L117.83333333333333,121.09960778859946L119,121.25424309877249L120.16666666666666,121.40354095055507L121.33333333333334,121.55897606336154L122.5,121.68814010803517L123.66666666666666,121.78580988370456L124.83333333333334,121.92555499076843L126,122.07877840445593L127.16666666666667,122.19320730979626L128.33333333333331,122.31215346776523L129.5,122.4435373728092L130.66666666666666,122.56104306991284L131.83333333333334,122.66661293690022L133,122.7747903236976L134.16666666666669,122.90727599767538L135.33333333333334,122.99565826929533L136.5,123.09161010155312L137.66666666666666,123.20674495513623L138.83333333333334,123.29931802933034L140,123.41581173126515L141.16666666666666,123.51178804727701L142.33333333333331,123.60166382789612L143.5,123.65145562245296L144.66666666666669,123.7534222969642L145.83333333333334,123.82389062184555L147,123.91618213286768L148.16666666666666,124.00466642012964L149.33333333333334,124.1006019298847L150.5,124.15628614792458L151.66666666666666,124.2423138985267L152.83333333333331,124.32121687669022L154,124.38305875888238L155.16666666666669,124.45208254227272L156.33333333333334,124.49673274847177L157.5,124.6016537959759L158.66666666666666,124.63335617688986L159.83333333333331,124.69649569804852L161,124.76616013967075L162.16666666666669,124.84128037782816L163.33333333333334,124.90547678103815L164.5,124.9608059846438L165.66666666666666,125.03894588580499L166.83333333333334,125.07753228224242L168,125.13884368309608L169.16666666666666,125.19630705393278L170.33333333333331,125.25519456313208L171.5,125.30358262245473L172.66666666666669,125.33202050282405L173.83333333333334,125.39996700103467L175,125.46467348245474L176.16666666666666,125.49493948312906L177.33333333333331,125.52531566069678L178.5,125.5731773193066L179.66666666666669,125.62369138460893L180.83333333333334,125.6605271926293L182,125.68305632701288L183.16666666666666,125.71781509656174L184.33333333333334,125.7667948466081L185.5,125.80985360879166L186.66666666666666,125.84912555034344L187.83333333333331,125.91424825558296L189,125.97617175028876L190.16666666666669,125.99095177650452L191.33333333333334,126.04337149399979L192.5,126.0850999722114L193.66666666666666,126.12437599438888L194.83333333333331,126.15116938260886L196,126.19314269836133L197.16666666666669,126.21937296023737L198.33333333333334,126.2676141170355L199.5,126.30424997439752L200.66666666666666,126.32570182360136L201.83333333333334,126.36438207442944L203,126.37242090702057L204.16666666666666,126.41800557650053L205.33333333333331,126.44247300808247L206.5,126.46612431452826L207.66666666666669,126.47966791116275L208.83333333333334,126.49828780614413L210,126.52405287669256L211.16666666666666,126.5375679089473L212.33333333333331,126.57001296373514L213.5,126.62153902420631L214.66666666666669,126.65817488156833L215.83333333333334,126.67508499438947L217,126.69867509145004L218.16666666666666,126.71587900932019L219.33333333333334,126.71911086485937L220.5,126.74459029161014L221.66666666666666,126.77841867850378L222.83333333333331,126.7775005377256L224,126.82374626856584L225.16666666666669,126.83293991822464L226.33333333333334,126.86528295737047L227.5,126.89612840689146L228.66666666666666,126.9118265738854L229.83333333333331,126.93193589724028L231,126.9424190246142L232.16666666666669,126.98121353296133L233.33333333333334,126.99756051943854L234.5,127.02723482938913L235.66666666666666,127.03812193870544L236.83333333333334,127.04474887481103L238,127.09405915553754L239.16666666666666,127.11415623701537L240.33333333333331,127.12053425495442L241.5,127.12600229336665L242.66666666666669,127.16277689200182L243.83333333333334,127.1580678499662L245,127.1642255141185L246.16666666666666,127.17702643687909L247.33333333333331,127.19284702264346L248.5,127.20625595863049L249.66666666666669,127.22885446365063L250.83333333333334,127.24083926127508L252,127.2661799467527L253.16666666666666,127.28595465880174L254.33333333333334,127.2907412327253L255.5,127.29769053825966" style="fill: none;" fill="none"></path></g><g><path stroke="rgb(255, 112, 67)" stroke-width="2px" d="M26.833333333333336,-7.759659033555238L28,0.16312056321362434L29.166666666666668,7.066967927492584L30.333333333333336,14.193748033963715L31.5,19.715356900141785L32.666666666666664,26.71679650820218L33.833333333333336,31.379498958587646L35,36.26679088519168L36.16666666666667,41.93995418915384L37.333333333333336,45.108502901517426L38.5,50.556603376682006L39.666666666666664,54.28015798788806L40.833333333333336,56.94576142384457L42,61.3051509673779L43.16666666666667,64.30087702090924L44.33333333333333,67.12500460331256L45.5,69.3339778643388L46.666666666666664,72.35451412200928L47.833333333333336,75.33520715053265L49,76.46139454841614L50.166666666666664,78.79097478206342L51.33333333333333,80.9406483906966L52.5,83.22724331342258L53.66666666666667,85.08782091507547L54.833333333333336,86.26218417974619L56,87.92463108209463L57.166666666666664,89.68165872647214L58.333333333333336,90.65181115957408L59.5,91.9054201749655L60.66666666666667,94.03585771413951L61.83333333333333,94.21114507088295L63,96.1184744009605L64.16666666666666,96.99580076107613L65.33333333333333,97.745077087329L66.5,98.43165051937105L67.66666666666667,99.34142601490022L68.83333333333333,100.82607189508586L70,101.64610627064339L71.16666666666666,101.42416103986594L72.33333333333334,102.03782185224387L73.5,104.36179530620576L74.66666666666667,104.38639331780948L75.83333333333333,104.61217025610118L77,104.98186270090251L78.16666666666667,106.03199539734767L79.33333333333333,106.82313486245963L80.5,107.34897652956157L81.66666666666667,107.30712563257951L82.83333333333333,108.11636267258571L84,108.16093942752252L85.16666666666666,108.91998885228084L86.33333333333334,109.67742234926958L87.5,110.01842799553505L88.66666666666666,110.50885391235353L89.83333333333334,110.61634167341086L91,111.00511104326982L92.16666666666667,111.58367031354172L93.33333333333333,111.59146022796632L94.5,112.57161019398616L95.66666666666667,112.32339797570155L96.83333333333333,113.47901076536913L98,113.18101083315337L99.16666666666667,113.86559291986319L100.33333333333333,113.6858576811277L101.5,114.08111932644478L102.66666666666666,114.05117569519923L103.83333333333334,114.69854247570038L105,114.88617372512817L106.16666666666666,115.30438480927394L107.33333333333334,115.28521402982565L108.5,115.90169455454901L109.66666666666667,115.47497536585882L110.83333333333333,115.88073238042685L112,116.02444793627814L113.16666666666667,116.7343258215831L114.33333333333333,116.69211582954114L115.5,116.22155439853668L116.66666666666667,117.113726074879L117.83333333333333,117.16686398249406L119,117.40625796868251L120.16666666666666,117.76479806349829L121.33333333333334,117.68554415152624L122.5,117.82721531391144L123.66666666666666,117.9298593722857L124.83333333333334,118.41723706172064L126,118.42387623970326L127.16666666666667,118.2124386200538L128.33333333333331,118.76838306280283L129.5,118.82563424110413L130.66666666666666,118.01526278715868L131.83333333333334,119.09193587303162L133,119.19899516839249L134.16666666666669,119.58139060093806L135.33333333333334,119.39434288098262L136.5,119.68849478318141L137.66666666666666,119.70553547602434L138.83333333333334,120.14472505679498L140,119.33712842831245L141.16666666666666,120.17899007063646L142.33333333333331,119.88318143441127L143.5,120.11524661687704L144.66666666666669,120.40780299443466L145.83333333333334,120.50576249452737L147,120.60779445904953L148.16666666666666,121.0151959657669L149.33333333333334,120.97498139968286L150.5,120.39058275406178L151.66666666666666,120.7822697712825L152.83333333333331,121.03883094970998L154,121.3124491434831L155.16666666666669,120.9654000905844L156.33333333333334,121.15511653973506L157.5,121.19594319967123L158.66666666666666,121.38141171748822L159.83333333333331,121.917520238803L161,121.68514084815979L162.16666666666669,121.73805432136243L163.33333333333334,122.05192788747641L164.5,122.14552519871638L165.66666666666666,121.71017548671136L166.83333333333334,122.09896117907304L168,121.6111387014389L169.16666666666666,122.16716475670155L170.33333333333331,122.08476468232962L171.5,122.05710212083963L172.66666666666669,122.48480882094458L173.83333333333334,121.79497088835791L175,122.31698492857126L176.16666666666666,122.52866738576157L177.33333333333331,122.69455706156218L178.5,122.52659442791573L179.66666666666669,122.5449613241049L180.83333333333334,122.54068482839145L182,123.0575654414984L183.16666666666666,122.8391132263037L184.33333333333334,122.88717891619757L185.5,123.32076579790849L186.66666666666666,122.72586770241078L187.83333333333331,123.326409303225L189,123.26503669298613L190.16666666666669,122.87365980331715L191.33333333333334,123.38461126730994L192.5,123.47867376987752L193.66666666666666,123.05829179286957L194.83333333333331,123.44119322299957L196,123.2451314009153L197.16666666666669,123.81140798788805L198.33333333333334,123.03069860201616L199.5,124.05032454087184L200.66666666666666,123.74109880740826L201.83333333333334,123.89575044008402L203,123.479971408844L204.16666666666666,123.80679688086877L205.33333333333331,123.90353219325726L206.5,124.24166507904347L207.66666666666669,123.81600685303029L208.83333333333334,124.45094404770778L210,124.15491913832152L211.16666666666666,124.52456669624036L212.33333333333331,123.74777063039633L213.5,124.2864907521468L214.66666666666669,124.39891198965219L215.83333333333334,124.16760580356305L217,123.94707246927115L218.16666666666666,124.34788784613977L219.33333333333334,124.23982879748712L220.5,123.91093852886787L221.66666666666666,124.17975382621472L222.83333333333331,124.55231087024396L224,124.54813230954684L225.16666666666669,124.85040465685037L226.33333333333334,124.29703508890593L227.5,124.63026714324951L228.66666666666666,124.61153707137476L229.83333333333331,124.82261151533861L231,124.9068233875128L232.16666666666669,124.70379185676575L233.33333333333334,124.61177782828992L234.5,124.70196373646077L235.66666666666666,124.80170646997598L236.83333333333334,124.73754679239714L238,124.71036574473749L239.16666666666666,124.51156174219572L240.33333333333331,124.86278527516586L241.5,124.67011037239662L242.66666666666669,125.45843012516316L243.83333333333334,125.49993824958801L245,124.98917041375087L246.16666666666666,125.1943075473492L247.33333333333331,124.68851399421692L248.5,124.87907513288351L249.66666666666669,125.11147900728079L250.83333333333334,125.20919366983267L252,125.41387785398044L253.16666666666666,124.86381359283742L254.33333333333334,124.72935697665582L255.5,125.06194021151617" style="fill: none;" fill="none"></path></g></g></g></g></g></g><g transform="translate(50, 178)" clip-path="url(#clip_1)"><clipPath id="clip_1"><rect width="280" height="22"></rect></clipPath><g><g><line x1="0" y1="0" x2="0" y2="5" style="visibility: inherit;" fill="rgb(0, 0, 0)" stroke="rgb(204, 204, 204)" stroke-width="1px"></line><line x1="23.333333333333332" y1="0" x2="23.333333333333332" y2="5" style="visibility: inherit;" fill="rgb(0, 0, 0)" stroke="rgb(204, 204, 204)" stroke-width="1px"></line><line x1="46.666666666666664" y1="0" x2="46.666666666666664" y2="5" style="visibility: inherit;" fill="rgb(0, 0, 0)" stroke="rgb(204, 204, 204)" stroke-width="1px"></line><line x1="70" y1="0" x2="70" y2="5" style="visibility: inherit;" fill="rgb(0, 0, 0)" stroke="rgb(204, 204, 204)" stroke-width="1px"></line><line x1="93.33333333333333" y1="0" x2="93.33333333333333" y2="5" style="visibility: inherit;" fill="rgb(0, 0, 0)" stroke="rgb(204, 204, 204)" stroke-width="1px"></line><line x1="116.66666666666667" y1="0" x2="116.66666666666667" y2="5" style="visibility: inherit;" fill="rgb(0, 0, 0)" stroke="rgb(204, 204, 204)" stroke-width="1px"></line><line x1="140" y1="0" x2="140" y2="5" style="visibility: inherit;" fill="rgb(0, 0, 0)" stroke="rgb(204, 204, 204)" stroke-width="1px"></line><line x1="163.33333333333334" y1="0" x2="163.33333333333334" y2="5" style="visibility: inherit;" fill="rgb(0, 0, 0)" stroke="rgb(204, 204, 204)" stroke-width="1px"></line><line x1="186.66666666666666" y1="0" x2="186.66666666666666" y2="5" style="visibility: inherit;" fill="rgb(0, 0, 0)" stroke="rgb(204, 204, 204)" stroke-width="1px"></line><line x1="210" y1="0" x2="210" y2="5" style="visibility: inherit;" fill="rgb(0, 0, 0)" stroke="rgb(204, 204, 204)" stroke-width="1px"></line><line x1="233.33333333333334" y1="0" x2="233.33333333333334" y2="5" style="visibility: inherit;" fill="rgb(0, 0, 0)" stroke="rgb(204, 204, 204)" stroke-width="1px"></line><line x1="256.66666666666663" y1="0" x2="256.66666666666663" y2="5" style="visibility: inherit;" fill="rgb(0, 0, 0)" stroke="rgb(204, 204, 204)" stroke-width="1px"></line><line x1="280" y1="0" x2="280" y2="5" style="visibility: inherit;" fill="rgb(0, 0, 0)" stroke="rgb(204, 204, 204)" stroke-width="1px"></line></g><g transform="translate(0, 8)"><text x="0" y="0" dx="0em" dy="0.95em" style="text-anchor: middle; visibility: hidden; font-family: &quot;Helvetica Neue&quot;, sans-serif; font-size: 12px; font-weight: 200;" fill="rgb(50, 49, 63)" stroke="none" stroke-width="1px">-20</text><text x="23.333333333333332" y="0" dx="0em" dy="0.95em" style="text-anchor: middle; visibility: inherit; font-family: &quot;Helvetica Neue&quot;, sans-serif; font-size: 12px; font-weight: 200;" fill="rgb(50, 49, 63)" stroke="none" stroke-width="1px">0</text><text x="46.666666666666664" y="0" dx="0em" dy="0.95em" style="text-anchor: middle; visibility: hidden; font-family: &quot;Helvetica Neue&quot;, sans-serif; font-size: 12px; font-weight: 200;" fill="rgb(50, 49, 63)" stroke="none" stroke-width="1px">20</text><text x="70" y="0" dx="0em" dy="0.95em" style="text-anchor: middle; visibility: inherit; font-family: &quot;Helvetica Neue&quot;, sans-serif; font-size: 12px; font-weight: 200;" fill="rgb(50, 49, 63)" stroke="none" stroke-width="1px">40</text><text x="93.33333333333333" y="0" dx="0em" dy="0.95em" style="text-anchor: middle; visibility: hidden; font-family: &quot;Helvetica Neue&quot;, sans-serif; font-size: 12px; font-weight: 200;" fill="rgb(50, 49, 63)" stroke="none" stroke-width="1px">60</text><text x="116.66666666666667" y="0" dx="0em" dy="0.95em" style="text-anchor: middle; visibility: inherit; font-family: &quot;Helvetica Neue&quot;, sans-serif; font-size: 12px; font-weight: 200;" fill="rgb(50, 49, 63)" stroke="none" stroke-width="1px">80</text><text x="140" y="0" dx="0em" dy="0.95em" style="text-anchor: middle; visibility: hidden; font-family: &quot;Helvetica Neue&quot;, sans-serif; font-size: 12px; font-weight: 200;" fill="rgb(50, 49, 63)" stroke="none" stroke-width="1px">100</text><text x="163.33333333333334" y="0" dx="0em" dy="0.95em" style="text-anchor: middle; visibility: inherit; font-family: &quot;Helvetica Neue&quot;, sans-serif; font-size: 12px; font-weight: 200;" fill="rgb(50, 49, 63)" stroke="none" stroke-width="1px">120</text><text x="186.66666666666666" y="0" dx="0em" dy="0.95em" style="text-anchor: middle; visibility: hidden; font-family: &quot;Helvetica Neue&quot;, sans-serif; font-size: 12px; font-weight: 200;" fill="rgb(50, 49, 63)" stroke="none" stroke-width="1px">140</text><text x="210" y="0" dx="0em" dy="0.95em" style="text-anchor: middle; visibility: inherit; font-family: &quot;Helvetica Neue&quot;, sans-serif; font-size: 12px; font-weight: 200;" fill="rgb(50, 49, 63)" stroke="none" stroke-width="1px">160</text><text x="233.33333333333334" y="0" dx="0em" dy="0.95em" style="text-anchor: middle; visibility: hidden; font-family: &quot;Helvetica Neue&quot;, sans-serif; font-size: 12px; font-weight: 200;" fill="rgb(50, 49, 63)" stroke="none" stroke-width="1px">180</text><text x="256.66666666666663" y="0" dx="0em" dy="0.95em" style="text-anchor: middle; visibility: inherit; font-family: &quot;Helvetica Neue&quot;, sans-serif; font-size: 12px; font-weight: 200;" fill="rgb(50, 49, 63)" stroke="none" stroke-width="1px">200</text><text x="280" y="0" dx="0em" dy="0.95em" style="text-anchor: middle; visibility: hidden; font-family: &quot;Helvetica Neue&quot;, sans-serif; font-size: 12px; font-weight: 200;" fill="rgb(50, 49, 63)" stroke="none" stroke-width="1px">220</text></g><line x1="0" y1="0" x2="280" y2="0" fill="rgb(0, 0, 0)" stroke="rgb(204, 204, 204)" stroke-width="1px"></line></g></g></g></g></svg>