<svg viewBox="0 0 330 200" xmlns="http://www.w3.org/2000/svg"><g><g><g><g><g><line x1="50" y1="178" x2="45" y2="178" style="visibility: inherit;" fill="rgb(0, 0, 0)" stroke="rgb(204, 204, 204)" stroke-width="1px"></line><line x1="50" y1="164.3076923076923" x2="45" y2="164.3076923076923" style="visibility: inherit;" fill="rgb(0, 0, 0)" stroke="rgb(204, 204, 204)" stroke-width="1px"></line><line x1="50" y1="150.61538461538458" x2="45" y2="150.61538461538458" style="visibility: inherit;" fill="rgb(0, 0, 0)" stroke="rgb(204, 204, 204)" stroke-width="1px"></line><line x1="50" y1="136.92307692307705" x2="45" y2="136.92307692307705" style="visibility: inherit;" fill="rgb(0, 0, 0)" stroke="rgb(204, 204, 204)" stroke-width="1px"></line><line x1="50" y1="123.23076923076934" x2="45" y2="123.23076923076934" style="visibility: inherit;" fill="rgb(0, 0, 0)" stroke="rgb(204, 204, 204)" stroke-width="1px"></line><line x1="50" y1="109.53846153846163" x2="45" y2="109.53846153846163" style="visibility: inherit;" fill="rgb(0, 0, 0)" stroke="rgb(204, 204, 204)" stroke-width="1px"></line><line x1="50" y1="95.84615384615392" x2="45" y2="95.84615384615392" style="visibility: inherit;" fill="rgb(0, 0, 0)" stroke="rgb(204, 204, 204)" stroke-width="1px"></line><line x1="50" y1="82.15384615384622" x2="45" y2="82.15384615384622" style="visibility: inherit;" fill="rgb(0, 0, 0)" stroke="rgb(204, 204, 204)" stroke-width="1px"></line><line x1="50" y1="68.46153846153851" x2="45" y2="68.46153846153851" style="visibility: inherit;" fill="rgb(0, 0, 0)" stroke="rgb(204, 204, 204)" stroke-width="1px"></line><line x1="50" y1="54.769230769230816" x2="45" y2="54.769230769230816" style="visibility: inherit;" fill="rgb(0, 0, 0)" stroke="rgb(204, 204, 204)" stroke-width="1px"></line><line x1="50" y1="41.07692307692312" x2="45" y2="41.07692307692312" style="visibility: inherit;" fill="rgb(0, 0, 0)" stroke="rgb(204, 204, 204)" stroke-width="1px"></line><line x1="50" y1="27.384615384615415" x2="45" y2="27.384615384615415" style="visibility: inherit;" fill="rgb(0, 0, 0)" stroke="rgb(204, 204, 204)" stroke-width="1px"></line><line x1="50" y1="13.692307692307708" x2="45" y2="13.692307692307708" style="visibility: inherit;" fill="rgb(0, 0, 0)" stroke="rgb(204, 204, 204)" stroke-width="1px"></line><line x1="50" y1="0" x2="45" y2="0" style="visibility: inherit;" fill="rgb(0, 0, 0)" stroke="rgb(204, 204, 204)" stroke-width="1px"></line></g><g transform="translate(40, 0)"><text x="0" y="178" dx="0em" dy="0.3em" style="text-anchor: end; visibility: hidden; font-family: &quot;Helvetica Neue&quot;, sans-serif; font-size: 12px; font-weight: 200;" fill="rgb(50, 49, 63)" stroke="none" stroke-width="1px">1.32</text><text x="0" y="164.3076923076923" dx="0em" dy="0.3em" style="text-anchor: end; visibility: inherit; font-family: &quot;Helvetica Neue&quot;, sans-serif; font-size: 12px; font-weight: 200;" fill="rgb(50, 49, 63)" stroke="none" stroke-width="1px">1.34</text><text x="0" y="150.61538461538458" dx="0em" dy="0.3em" style="text-anchor: end; visibility: hidden; font-family: &quot;Helvetica Neue&quot;, sans-serif; font-size: 12px; font-weight: 200;" fill="rgb(50, 49, 63)" stroke="none" stroke-width="1px">1.36</text><text x="0" y="136.92307692307705" dx="0em" dy="0.3em" style="text-anchor: end; visibility: inherit; font-family: &quot;Helvetica Neue&quot;, sans-serif; font-size: 12px; font-weight: 200;" fill="rgb(50, 49, 63)" stroke="none" stroke-width="1px">1.38</text><text x="0" y="123.23076923076934" dx="0em" dy="0.3em" style="text-anchor: end; visibility: hidden; font-family: &quot;Helvetica Neue&quot;, sans-serif; font-size: 12px; font-weight: 200;" fill="rgb(50, 49, 63)" stroke="none" stroke-width="1px">1.4</text><text x="0" y="109.53846153846163" dx="0em" dy="0.3em" style="text-anchor: end; visibility: inherit; font-family: &quot;Helvetica Neue&quot;, sans-serif; font-size: 12px; font-weight: 200;" fill="rgb(50, 49, 63)" stroke="none" stroke-width="1px">1.42</text><text x="0" y="95.84615384615392" dx="0em" dy="0.3em" style="text-anchor: end; visibility: hidden; font-family: &quot;Helvetica Neue&quot;, sans-serif; font-size: 12px; font-weight: 200;" fill="rgb(50, 49, 63)" stroke="none" stroke-width="1px">1.44</text><text x="0" y="82.15384615384622" dx="0em" dy="0.3em" style="text-anchor: end; visibility: inherit; font-family: &quot;Helvetica Neue&quot;, sans-serif; font-size: 12px; font-weight: 200;" fill="rgb(50, 49, 63)" stroke="none" stroke-width="1px">1.46</text><text x="0" y="68.46153846153851" dx="0em" dy="0.3em" style="text-anchor: end; visibility: hidden; font-family: &quot;Helvetica Neue&quot;, sans-serif; font-size: 12px; font-weight: 200;" fill="rgb(50, 49, 63)" stroke="none" stroke-width="1px">1.48</text><text x="0" y="54.769230769230816" dx="0em" dy="0.3em" style="text-anchor: end; visibility: inherit; font-family: &quot;Helvetica Neue&quot;, sans-serif; font-size: 12px; font-weight: 200;" fill="rgb(50, 49, 63)" stroke="none" stroke-width="1px">1.5</text><text x="0" y="41.07692307692312" dx="0em" dy="0.3em" style="text-anchor: end; visibility: hidden; font-family: &quot;Helvetica Neue&quot;, sans-serif; font-size: 12px; font-weight: 200;" fill="rgb(50, 49, 63)" stroke="none" stroke-width="1px">1.52</text><text x="0" y="27.384615384615415" dx="0em" dy="0.3em" style="text-anchor: end; visibility: inherit; font-family: &quot;Helvetica Neue&quot;, sans-serif; font-size: 12px; font-weight: 200;" fill="rgb(50, 49, 63)" stroke="none" stroke-width="1px">1.54</text><text x="0" y="13.692307692307708" dx="0em" dy="0.3em" style="text-anchor: end; visibility: hidden; font-family: &quot;Helvetica Neue&quot;, sans-serif; font-size: 12px; font-weight: 200;" fill="rgb(50, 49, 63)" stroke="none" stroke-width="1px">1.56</text><text x="0" y="0" dx="0em" dy="0.3em" style="text-anchor: end; visibility: hidden; font-family: &quot;Helvetica Neue&quot;, sans-serif; font-size: 12px; font-weight: 200;" fill="rgb(50, 49, 63)" stroke="none" stroke-width="1px">1.58</text></g><line x1="50" y1="0" x2="50" y2="178" fill="rgb(0, 0, 0)" stroke="rgb(204, 204, 204)" stroke-width="1px"></line></g></g><g transform="translate(50, 0)" clip-path="url(#clip_0)"><clipPath id="clip_0"><rect width="280" height="178"></rect></clipPath><g><g><g><line x1="0" y1="0" x2="0" y2="178" fill="rgb(0, 0, 0)" stroke="rgb(60, 60, 60)" stroke-width="1px" opacity="0.25"></line><line x1="31.11111111111111" y1="0" x2="31.11111111111111" y2="178" fill="rgb(0, 0, 0)" stroke="rgb(60, 60, 60)" stroke-width="1px" opacity="0.25"></line><line x1="62.22222222222222" y1="0" x2="62.22222222222222" y2="178" fill="rgb(0, 0, 0)" stroke="rgb(60, 60, 60)" stroke-width="1px" opacity="0.25"></line><line x1="93.33333333333333" y1="0" x2="93.33333333333333" y2="178" fill="rgb(0, 0, 0)" stroke="rgb(60, 60, 60)" stroke-width="1px" opacity="0.25"></line><line x1="124.44444444444444" y1="0" x2="124.44444444444444" y2="178" fill="rgb(0, 0, 0)" stroke="rgb(60, 60, 60)" stroke-width="1px" opacity="0.25"></line><line x1="155.55555555555557" y1="0" x2="155.55555555555557" y2="178" fill="rgb(0, 0, 0)" stroke="rgb(60, 60, 60)" stroke-width="1px" opacity="0.25"></line><line x1="186.66666666666666" y1="0" x2="186.66666666666666" y2="178" fill="rgb(0, 0, 0)" stroke="rgb(60, 60, 60)" stroke-width="1px" opacity="0.25"></line><line x1="217.77777777777777" y1="0" x2="217.77777777777777" y2="178" fill="rgb(0, 0, 0)" stroke="rgb(60, 60, 60)" stroke-width="1px" opacity="0.25"></line><line x1="248.88888888888889" y1="0" x2="248.88888888888889" y2="178" fill="rgb(0, 0, 0)" stroke="rgb(60, 60, 60)" stroke-width="1px" opacity="0.25"></line><line x1="280" y1="0" x2="280" y2="178" fill="rgb(0, 0, 0)" stroke="rgb(60, 60, 60)" stroke-width="1px" opacity="0.25"></line></g><g><line x1="0" y1="178" x2="280" y2="178" fill="rgb(0, 0, 0)" stroke="rgb(60, 60, 60)" stroke-width="1px" opacity="0.25"></line><line x1="0" y1="164.3076923076923" x2="280" y2="164.3076923076923" fill="rgb(0, 0, 0)" stroke="rgb(60, 60, 60)" stroke-width="1px" opacity="0.25"></line><line x1="0" y1="150.61538461538458" x2="280" y2="150.61538461538458" fill="rgb(0, 0, 0)" stroke="rgb(60, 60, 60)" stroke-width="1px" opacity="0.25"></line><line x1="0" y1="136.92307692307705" x2="280" y2="136.92307692307705" fill="rgb(0, 0, 0)" stroke="rgb(60, 60, 60)" stroke-width="1px" opacity="0.25"></line><line x1="0" y1="123.23076923076934" x2="280" y2="123.23076923076934" fill="rgb(0, 0, 0)" stroke="rgb(60, 60, 60)" stroke-width="1px" opacity="0.25"></line><line x1="0" y1="109.53846153846163" x2="280" y2="109.53846153846163" fill="rgb(0, 0, 0)" stroke="rgb(60, 60, 60)" stroke-width="1px" opacity="0.25"></line><line x1="0" y1="95.84615384615392" x2="280" y2="95.84615384615392" fill="rgb(0, 0, 0)" stroke="rgb(60, 60, 60)" stroke-width="1px" opacity="0.25"></line><line x1="0" y1="82.15384615384622" x2="280" y2="82.15384615384622" fill="rgb(0, 0, 0)" stroke="rgb(60, 60, 60)" stroke-width="1px" opacity="0.25"></line><line x1="0" y1="68.46153846153851" x2="280" y2="68.46153846153851" fill="rgb(0, 0, 0)" stroke="rgb(60, 60, 60)" stroke-width="1px" opacity="0.25"></line><line x1="0" y1="54.769230769230816" x2="280" y2="54.769230769230816" fill="rgb(0, 0, 0)" stroke="rgb(60, 60, 60)" stroke-width="1px" opacity="0.25"></line><line x1="0" y1="41.07692307692312" x2="280" y2="41.07692307692312" fill="rgb(0, 0, 0)" stroke="rgb(60, 60, 60)" stroke-width="1px" opacity="0.25"></line><line x1="0" y1="27.384615384615415" x2="280" y2="27.384615384615415" fill="rgb(0, 0, 0)" stroke="rgb(60, 60, 60)" stroke-width="1px" opacity="0.25"></line><line x1="0" y1="13.692307692307708" x2="280" y2="13.692307692307708" fill="rgb(0, 0, 0)" stroke="rgb(60, 60, 60)" stroke-width="1px" opacity="0.25"></line><line x1="0" y1="0" x2="280" y2="0" fill="rgb(0, 0, 0)" stroke="rgb(60, 60, 60)" stroke-width="1px" opacity="0.25"></line></g></g></g><g><g><line x1="0" y1="1081.6923076923076" x2="280" y2="1081.6923076923076" fill="rgb(0, 0, 0)" stroke="rgb(153, 153, 153)" stroke-width="1.5px"></line></g></g><g><g><line x1="31.11111111111111" y1="0" x2="31.11111111111111" y2="178" fill="rgb(0, 0, 0)" stroke="rgb(153, 153, 153)" stroke-width="1.5px"></line></g></g><g><g><g><g><g><path stroke="rgb(0, 119, 187)" stroke-width="2px" d="M31.11111111111111,52.30967444639944L32.666666666666664,48.88937561328598L34.22222222222222,46.71497341302728L35.77777777777777,45.06338097498971L37.333333333333336,43.59223380455609L38.88888888888889,42.1197808339046L40.44444444444444,40.54237417074353L42,38.79545831680301L43.55555555555556,36.98953661551846L45.111111111111114,35.08266023489148L46.666666666666664,33.13807887297415L48.22222222222222,31.236344080704953L49.77777777777778,29.395002548511258L51.33333333333333,27.768709989694486L52.888888888888886,26.4837209628179L54.44444444444444,25.549828969515318L56,25.08863665507394L57.55555555555555,25.0475039482117L59.111111111111114,25.34139060974124L60.66666666666667,26.501186040731625L62.22222222222222,28.597403452946622L63.77777777777778,31.734670088841398L65.33333333333333,35.536017748025785L66.88888888888889,40.11864200005169L68.44444444444444,45.90097020222595L70,52.75552360828111L71.55555555555554,59.45860418906584L73.11111111111111,65.7347697111277L74.66666666666667,71.88949581292964L76.22222222222221,78.3857702842126L77.77777777777779,85.03841433158293L79.33333333333333,92.47788462272062L80.88888888888889,101.3998462236845L82.44444444444444,108.70277877954341L84,115.26597551199112L85.55555555555556,120.00505095261798L87.11111111111111,123.28448658723102L88.66666666666666,124.7164597511292L90.22222222222223,125.73588165870083L91.77777777777777,128.0651027972882L93.33333333333333,128.3210396399865L94.8888888888889,128.45365997461175L96.44444444444444,129.84825460727401L98,129.71196170953607L99.55555555555556,131.71554891879745L101.11111111111111,131.86881721936743L102.66666666666666,132.45259152925937L104.22222222222223,132.751130104065L105.77777777777777,133.49690525348373L107.33333333333334,134.35530567169195L108.88888888888889,135.23574146857632L110.44444444444444,133.802952179542L112,134.91892169072082L113.55555555555556,135.39349845739514L115.1111111111111,135.75087965451758L116.66666666666667,135.2381898439848L118.22222222222223,133.57068296579217L119.77777777777777,134.77438592910772L121.33333333333334,135.60063101695138L122.88888888888889,135.3974974705623L124.44444444444444,135.55264285894543L126,135.0396265983582L127.55555555555556,135.7787095216605L129.11111111111111,134.12646418351397L130.66666666666666,133.04852610368L132.22222222222223,135.94707613724933L133.77777777777777,137.12466309620788L135.33333333333334,137.98624640244708L136.88888888888889,137.2320651641259L138.44444444444446,137.6248661921575L140,135.84514210774353L141.55555555555554,135.42826538819537L143.1111111111111,136.83795833587652L144.66666666666669,137.54007079051095L146.22222222222223,137.18334249349743L147.77777777777777,136.23459702271686L149.33333333333334,136.94201429073632L150.88888888888889,137.38549668972314L152.44444444444443,137.7762574049143L154,139.31563263673053L155.55555555555557,135.80131618793197L157.11111111111111,136.08859223585867L158.66666666666666,135.10499822176425L160.2222222222222,137.2986609752362L161.77777777777777,137.44278867428125L163.33333333333334,136.85150601313669L164.88888888888889,138.30510649314297L166.44444444444446,137.26348598186792L168,137.23957351537854L169.55555555555554,135.655474626101L171.11111111111111,135.26022522266098L172.66666666666669,136.88855809431814L174.22222222222223,137.89932907544653L175.77777777777777,137.05480278455298L177.33333333333331,137.48947103206933L178.88888888888889,136.89810675841116L180.44444444444446,137.33204049330496L182,137.10515770545376L183.55555555555554,137.94209403258108L185.11111111111111,136.98175958486706L186.66666666666666,137.86709213256842L188.22222222222223,136.37162443307733L189.7777777777778,137.63833225690405L191.33333333333334,138.76678848266607L192.88888888888889,137.73234987258917L194.44444444444443,137.97473903802728L196,138.01750399516183L197.55555555555557,139.11731422864477L199.11111111111111,137.9604568481446L200.66666666666666,137.48579846895663L202.22222222222223,138.6571012643668L203.77777777777777,140.03667919452377L205.33333333333331,137.1856276438787L206.8888888888889,137.84881092951852L208.44444444444446,138.6162133950454L210,138.39626767085153L211.55555555555554,139.2051292932951L213.1111111111111,137.2592421311599L214.66666666666669,136.6908925863413L216.22222222222223,137.91303997773394L217.77777777777777,138.51729902854336L219.33333333333334,139.39765321291415L220.88888888888889,139.51378781978906L222.44444444444443,138.50301683866064L224,139.71031075257525L225.55555555555557,139.31351071137652L227.11111111111111,139.5709165793199L228.66666666666666,138.6036450679486L230.2222222222222,139.40181545110852L231.77777777777777,139.5707533542927L233.33333333333334,141.01692709555996L234.88888888888889,140.26380681991583L236.44444444444446,141.28526904032785L238,142.51663864575903L239.55555555555554,140.93539619445806L241.11111111111111,141.36214802815368L242.66666666666669,140.02019346677343L244.22222222222223,140.36329247401315L245.77777777777777,138.27613405080945L247.33333333333331,139.5598988899818L248.88888888888889,140.37912530165457L250.44444444444446,141.50537798954895L252,140.04949235916143L253.55555555555554,139.7861287777241" style="fill: none;" fill="none"></path></g><g><path stroke="rgb(255, 112, 67)" stroke-width="2px" d="M31.11111111111111,-333.73718357086176L32.666666666666664,0.5439996352562844L34.22222222222222,77.62383585709797L35.77777777777777,106.78839404766381L37.333333333333336,120.65533946110656L38.88888888888889,128.8892259597779L40.44444444444444,133.8885637063247L42,137.55108847984906L43.55555555555556,140.04075982020456L45.111111111111114,142.2531118392945L46.666666666666664,143.83721072857202L48.22222222222222,145.15027446013235L49.77777777777778,146.33773653323837L51.33333333333333,146.8489573185261L52.888888888888886,147.43509839131286L54.44444444444444,148.0467841808613L56,148.61652113841134L57.55555555555555,148.96688365936285L59.111111111111114,149.03739687112665L60.66666666666667,149.82046893926773L62.22222222222222,150.06391906738287L63.77777777777778,150.29765730637774L65.33333333333333,150.55808283732492L66.88888888888889,150.34972609006445L68.44444444444444,150.69445734757647L70,151.03518959192132L71.55555555555554,151.4610436879672L73.11111111111111,151.48634356718802L74.66666666666667,151.85751727911148L76.22222222222221,151.58003473281866L77.77777777777779,151.6423050807073L79.33333333333333,151.5277211115911L80.88888888888889,151.82528033623333L82.44444444444444,151.7506048862751L84,151.99617693974426L85.55555555555556,152.13859077600335L87.11111111111111,152.14618073976962L88.66666666666666,152.12487987371597L90.22222222222223,152.8826520626362L91.77777777777777,152.72750667425308L93.33333333333333,152.54722463167636L94.8888888888889,152.66858243942266L96.44444444444444,152.96932455209588L98,153.2120401675885L99.55555555555556,152.92982409550598L101.11111111111111,152.78471704629754L102.66666666666666,152.94704433587884L104.22222222222223,152.68115076651944L105.77777777777777,152.26370275937597L107.33333333333334,152.53726790501526L108.88888888888889,152.75150075325604L110.44444444444444,152.71901897283706L112,152.49009587214547L113.55555555555556,152.75598944150488L115.1111111111111,152.50772417508642L116.66666666666667,152.8165459266076L118.22222222222223,152.59782439011798L119.77777777777777,152.4503505780147L121.33333333333334,152.66760308925927L122.88888888888889,152.90427937874432L124.44444444444444,152.93553697145907L126,152.9268860450158L127.55555555555556,152.99894989453833L129.11111111111111,152.86592149734503L130.66666666666666,152.54477625626788L132.22222222222223,152.4409651389489L133.77777777777777,152.56020102134121L135.33333333333334,152.80316147437466L136.88888888888889,152.78471704629754L138.44444444444446,152.82103461485647L140,152.7156728597788L141.55555555555554,152.77002679384677L143.1111111111111,152.90558517896216L144.66666666666669,152.56648518488961L146.22222222222223,152.4072591708257L147.77777777777777,152.75909071702227L149.33333333333334,152.63544775889474L150.88888888888889,152.47573206974914L152.44444444444443,152.50005259880658L154,152.3338079085717L155.55555555555557,152.5112335131719L157.11111111111111,152.51661993907052L158.66666666666666,152.3042641786429L160.2222222222222,152.21155236317566L161.77777777777777,152.59668181492736L163.33333333333334,152.44325028933017L164.88888888888889,152.54183820577774L166.44444444444446,152.64703673582815L168,152.53261599173916L169.55555555555554,152.84870125697213L171.11111111111111,152.85506703303415L172.66666666666669,152.65666701243478L174.22222222222223,152.82944070375888L175.77777777777777,152.82495201551L177.33333333333331,152.935128908891L178.88888888888889,152.60761789175186L180.44444444444446,152.73330116271978L182,152.59145861405597L183.55555555555554,152.64924027369577L185.11111111111111,152.6142285053547L186.66666666666666,152.61610559316787L188.22222222222223,152.82193235250625L189.7777777777778,152.9440246728751L191.33333333333334,153.11598223906302L192.88888888888889,153.12789766605087L194.44444444444443,152.83237875424902L196,153.09051913481497L197.55555555555557,152.97152808996353L199.11111111111111,153.5919464184688L200.66666666666666,153.20485826639032L202.22222222222223,153.1632358844464L203.77777777777777,152.48022075799798L205.33333333333331,152.57146354822015L206.8888888888889,153.02016914807837L208.44444444444446,152.69592263148385L210,152.60190501579876L211.55555555555554,152.95536881226764L213.1111111111111,152.74970527795648L214.66666666666669,152.74742012757525L216.22222222222223,152.96907971455505L217.77777777777777,152.99217605590826L219.33333333333334,153.1693568229676L220.88888888888889,152.5280456909767L222.44444444444443,152.7308527873113L224,152.8001418113709L225.55555555555557,152.77092453149652L227.11111111111111,152.35004879878122L228.66666666666666,152.86126958406894L230.2222222222222,152.72277314846338L231.77777777777777,152.82576814064618L233.33333333333334,152.8411112932059L234.88888888888889,152.81883107698886L236.44444444444446,152.78789993432855L238,152.9887483303364L239.55555555555554,152.99013574306787L241.11111111111111,153.26492507641137L242.66666666666669,153.09729297344506L244.22222222222223,153.16552103482763L245.77777777777777,153.23636069664593L247.33333333333331,153.03257425014795L248.88888888888889,153.47303698613098L250.44444444444446,153.49752074021563L252,153.69828752370987L253.55555555555554,153.96360980547396" style="fill: none;" fill="none"></path></g></g></g></g></g></g><g transform="translate(50, 178)" clip-path="url(#clip_1)"><clipPath id="clip_1"><rect width="280" height="22"></rect></clipPath><g><g><line x1="0" y1="0" x2="0" y2="5" style="visibility: inherit;" fill="rgb(0, 0, 0)" stroke="rgb(204, 204, 204)" stroke-width="1px"></line><line x1="31.11111111111111" y1="0" x2="31.11111111111111" y2="5" style="visibility: inherit;" fill="rgb(0, 0, 0)" stroke="rgb(204, 204, 204)" stroke-width="1px"></line><line x1="62.22222222222222" y1="0" x2="62.22222222222222" y2="5" style="visibility: inherit;" fill="rgb(0, 0, 0)" stroke="rgb(204, 204, 204)" stroke-width="1px"></line><line x1="93.33333333333333" y1="0" x2="93.33333333333333" y2="5" style="visibility: inherit;" fill="rgb(0, 0, 0)" stroke="rgb(204, 204, 204)" stroke-width="1px"></line><line x1="124.44444444444444" y1="0" x2="124.44444444444444" y2="5" style="visibility: inherit;" fill="rgb(0, 0, 0)" stroke="rgb(204, 204, 204)" stroke-width="1px"></line><line x1="155.55555555555557" y1="0" x2="155.55555555555557" y2="5" style="visibility: inherit;" fill="rgb(0, 0, 0)" stroke="rgb(204, 204, 204)" stroke-width="1px"></line><line x1="186.66666666666666" y1="0" x2="186.66666666666666" y2="5" style="visibility: inherit;" fill="rgb(0, 0, 0)" stroke="rgb(204, 204, 204)" stroke-width="1px"></line><line x1="217.77777777777777" y1="0" x2="217.77777777777777" y2="5" style="visibility: inherit;" fill="rgb(0, 0, 0)" stroke="rgb(204, 204, 204)" stroke-width="1px"></line><line x1="248.88888888888889" y1="0" x2="248.88888888888889" y2="5" style="visibility: inherit;" fill="rgb(0, 0, 0)" stroke="rgb(204, 204, 204)" stroke-width="1px"></line><line x1="280" y1="0" x2="280" y2="5" style="visibility: inherit;" fill="rgb(0, 0, 0)" stroke="rgb(204, 204, 204)" stroke-width="1px"></line></g><g transform="translate(0, 8)"><text x="0" y="0" dx="0em" dy="0.95em" style="text-anchor: middle; visibility: hidden; font-family: &quot;Helvetica Neue&quot;, sans-serif; font-size: 12px; font-weight: 200;" fill="rgb(50, 49, 63)" stroke="none" stroke-width="1px">-20</text><text x="31.11111111111111" y="0" dx="0em" dy="0.95em" style="text-anchor: middle; visibility: inherit; font-family: &quot;Helvetica Neue&quot;, sans-serif; font-size: 12px; font-weight: 200;" fill="rgb(50, 49, 63)" stroke="none" stroke-width="1px">0</text><text x="62.22222222222222" y="0" dx="0em" dy="0.95em" style="text-anchor: middle; visibility: inherit; font-family: &quot;Helvetica Neue&quot;, sans-serif; font-size: 12px; font-weight: 200;" fill="rgb(50, 49, 63)" stroke="none" stroke-width="1px">20</text><text x="93.33333333333333" y="0" dx="0em" dy="0.95em" style="text-anchor: middle; visibility: inherit; font-family: &quot;Helvetica Neue&quot;, sans-serif; font-size: 12px; font-weight: 200;" fill="rgb(50, 49, 63)" stroke="none" stroke-width="1px">40</text><text x="124.44444444444444" y="0" dx="0em" dy="0.95em" style="text-anchor: middle; visibility: inherit; font-family: &quot;Helvetica Neue&quot;, sans-serif; font-size: 12px; font-weight: 200;" fill="rgb(50, 49, 63)" stroke="none" stroke-width="1px">60</text><text x="155.55555555555557" y="0" dx="0em" dy="0.95em" style="text-anchor: middle; visibility: inherit; font-family: &quot;Helvetica Neue&quot;, sans-serif; font-size: 12px; font-weight: 200;" fill="rgb(50, 49, 63)" stroke="none" stroke-width="1px">80</text><text x="186.66666666666666" y="0" dx="0em" dy="0.95em" style="text-anchor: middle; visibility: inherit; font-family: &quot;Helvetica Neue&quot;, sans-serif; font-size: 12px; font-weight: 200;" fill="rgb(50, 49, 63)" stroke="none" stroke-width="1px">100</text><text x="217.77777777777777" y="0" dx="0em" dy="0.95em" style="text-anchor: middle; visibility: inherit; font-family: &quot;Helvetica Neue&quot;, sans-serif; font-size: 12px; font-weight: 200;" fill="rgb(50, 49, 63)" stroke="none" stroke-width="1px">120</text><text x="248.88888888888889" y="0" dx="0em" dy="0.95em" style="text-anchor: middle; visibility: inherit; font-family: &quot;Helvetica Neue&quot;, sans-serif; font-size: 12px; font-weight: 200;" fill="rgb(50, 49, 63)" stroke="none" stroke-width="1px">140</text><text x="280" y="0" dx="0em" dy="0.95em" style="text-anchor: middle; visibility: hidden; font-family: &quot;Helvetica Neue&quot;, sans-serif; font-size: 12px; font-weight: 200;" fill="rgb(50, 49, 63)" stroke="none" stroke-width="1px">160</text></g><line x1="0" y1="0" x2="280" y2="0" fill="rgb(0, 0, 0)" stroke="rgb(204, 204, 204)" stroke-width="1px"></line></g></g></g></g></svg>