<svg viewBox="0 0 330 200" xmlns="http://www.w3.org/2000/svg"><g><g><g><g><g><line x1="50" y1="178" x2="45" y2="178" style="visibility: inherit;" fill="rgb(0, 0, 0)" stroke="rgb(204, 204, 204)" stroke-width="1px"></line><line x1="50" y1="158.22222222222223" x2="45" y2="158.22222222222223" style="visibility: inherit;" fill="rgb(0, 0, 0)" stroke="rgb(204, 204, 204)" stroke-width="1px"></line><line x1="50" y1="138.44444444444446" x2="45" y2="138.44444444444446" style="visibility: inherit;" fill="rgb(0, 0, 0)" stroke="rgb(204, 204, 204)" stroke-width="1px"></line><line x1="50" y1="118.66666666666666" x2="45" y2="118.66666666666666" style="visibility: inherit;" fill="rgb(0, 0, 0)" stroke="rgb(204, 204, 204)" stroke-width="1px"></line><line x1="50" y1="98.88888888888889" x2="45" y2="98.88888888888889" style="visibility: inherit;" fill="rgb(0, 0, 0)" stroke="rgb(204, 204, 204)" stroke-width="1px"></line><line x1="50" y1="79.1111111111111" x2="45" y2="79.1111111111111" style="visibility: inherit;" fill="rgb(0, 0, 0)" stroke="rgb(204, 204, 204)" stroke-width="1px"></line><line x1="50" y1="59.33333333333334" x2="45" y2="59.33333333333334" style="visibility: inherit;" fill="rgb(0, 0, 0)" stroke="rgb(204, 204, 204)" stroke-width="1px"></line><line x1="50" y1="39.55555555555557" x2="45" y2="39.55555555555557" style="visibility: inherit;" fill="rgb(0, 0, 0)" stroke="rgb(204, 204, 204)" stroke-width="1px"></line><line x1="50" y1="19.7777777777778" x2="45" y2="19.7777777777778" style="visibility: inherit;" fill="rgb(0, 0, 0)" stroke="rgb(204, 204, 204)" stroke-width="1px"></line><line x1="50" y1="0" x2="45" y2="0" style="visibility: inherit;" fill="rgb(0, 0, 0)" stroke="rgb(204, 204, 204)" stroke-width="1px"></line></g><g transform="translate(40, 0)"><text x="0" y="178" dx="0em" dy="0.3em" style="text-anchor: end; visibility: hidden; font-family: &quot;Helvetica Neue&quot;, sans-serif; font-size: 12px; font-weight: 200;" fill="rgb(50, 49, 63)" stroke="none" stroke-width="1px">-0.2</text><text x="0" y="158.22222222222223" dx="0em" dy="0.3em" style="text-anchor: end; visibility: inherit; font-family: &quot;Helvetica Neue&quot;, sans-serif; font-size: 12px; font-weight: 200;" fill="rgb(50, 49, 63)" stroke="none" stroke-width="1px">0</text><text x="0" y="138.44444444444446" dx="0em" dy="0.3em" style="text-anchor: end; visibility: hidden; font-family: &quot;Helvetica Neue&quot;, sans-serif; font-size: 12px; font-weight: 200;" fill="rgb(50, 49, 63)" stroke="none" stroke-width="1px">0.2</text><text x="0" y="118.66666666666666" dx="0em" dy="0.3em" style="text-anchor: end; visibility: inherit; font-family: &quot;Helvetica Neue&quot;, sans-serif; font-size: 12px; font-weight: 200;" fill="rgb(50, 49, 63)" stroke="none" stroke-width="1px">0.4</text><text x="0" y="98.88888888888889" dx="0em" dy="0.3em" style="text-anchor: end; visibility: hidden; font-family: &quot;Helvetica Neue&quot;, sans-serif; font-size: 12px; font-weight: 200;" fill="rgb(50, 49, 63)" stroke="none" stroke-width="1px">0.6</text><text x="0" y="79.1111111111111" dx="0em" dy="0.3em" style="text-anchor: end; visibility: inherit; font-family: &quot;Helvetica Neue&quot;, sans-serif; font-size: 12px; font-weight: 200;" fill="rgb(50, 49, 63)" stroke="none" stroke-width="1px">0.8</text><text x="0" y="59.33333333333334" dx="0em" dy="0.3em" style="text-anchor: end; visibility: hidden; font-family: &quot;Helvetica Neue&quot;, sans-serif; font-size: 12px; font-weight: 200;" fill="rgb(50, 49, 63)" stroke="none" stroke-width="1px">1</text><text x="0" y="39.55555555555557" dx="0em" dy="0.3em" style="text-anchor: end; visibility: inherit; font-family: &quot;Helvetica Neue&quot;, sans-serif; font-size: 12px; font-weight: 200;" fill="rgb(50, 49, 63)" stroke="none" stroke-width="1px">1.2</text><text x="0" y="19.7777777777778" dx="0em" dy="0.3em" style="text-anchor: end; visibility: hidden; font-family: &quot;Helvetica Neue&quot;, sans-serif; font-size: 12px; font-weight: 200;" fill="rgb(50, 49, 63)" stroke="none" stroke-width="1px">1.4</text><text x="0" y="0" dx="0em" dy="0.3em" style="text-anchor: end; visibility: hidden; font-family: &quot;Helvetica Neue&quot;, sans-serif; font-size: 12px; font-weight: 200;" fill="rgb(50, 49, 63)" stroke="none" stroke-width="1px">1.6</text></g><line x1="50" y1="0" x2="50" y2="178" fill="rgb(0, 0, 0)" stroke="rgb(204, 204, 204)" stroke-width="1px"></line></g></g><g transform="translate(50, 0)" clip-path="url(#clip_0)"><clipPath id="clip_0"><rect width="280" height="178"></rect></clipPath><g><g><g><line x1="0" y1="0" x2="0" y2="178" fill="rgb(0, 0, 0)" stroke="rgb(60, 60, 60)" stroke-width="1px" opacity="0.25"></line><line x1="31.11111111111111" y1="0" x2="31.11111111111111" y2="178" fill="rgb(0, 0, 0)" stroke="rgb(60, 60, 60)" stroke-width="1px" opacity="0.25"></line><line x1="62.22222222222222" y1="0" x2="62.22222222222222" y2="178" fill="rgb(0, 0, 0)" stroke="rgb(60, 60, 60)" stroke-width="1px" opacity="0.25"></line><line x1="93.33333333333333" y1="0" x2="93.33333333333333" y2="178" fill="rgb(0, 0, 0)" stroke="rgb(60, 60, 60)" stroke-width="1px" opacity="0.25"></line><line x1="124.44444444444444" y1="0" x2="124.44444444444444" y2="178" fill="rgb(0, 0, 0)" stroke="rgb(60, 60, 60)" stroke-width="1px" opacity="0.25"></line><line x1="155.55555555555557" y1="0" x2="155.55555555555557" y2="178" fill="rgb(0, 0, 0)" stroke="rgb(60, 60, 60)" stroke-width="1px" opacity="0.25"></line><line x1="186.66666666666666" y1="0" x2="186.66666666666666" y2="178" fill="rgb(0, 0, 0)" stroke="rgb(60, 60, 60)" stroke-width="1px" opacity="0.25"></line><line x1="217.77777777777777" y1="0" x2="217.77777777777777" y2="178" fill="rgb(0, 0, 0)" stroke="rgb(60, 60, 60)" stroke-width="1px" opacity="0.25"></line><line x1="248.88888888888889" y1="0" x2="248.88888888888889" y2="178" fill="rgb(0, 0, 0)" stroke="rgb(60, 60, 60)" stroke-width="1px" opacity="0.25"></line><line x1="280" y1="0" x2="280" y2="178" fill="rgb(0, 0, 0)" stroke="rgb(60, 60, 60)" stroke-width="1px" opacity="0.25"></line></g><g><line x1="0" y1="178" x2="280" y2="178" fill="rgb(0, 0, 0)" stroke="rgb(60, 60, 60)" stroke-width="1px" opacity="0.25"></line><line x1="0" y1="158.22222222222223" x2="280" y2="158.22222222222223" fill="rgb(0, 0, 0)" stroke="rgb(60, 60, 60)" stroke-width="1px" opacity="0.25"></line><line x1="0" y1="138.44444444444446" x2="280" y2="138.44444444444446" fill="rgb(0, 0, 0)" stroke="rgb(60, 60, 60)" stroke-width="1px" opacity="0.25"></line><line x1="0" y1="118.66666666666666" x2="280" y2="118.66666666666666" fill="rgb(0, 0, 0)" stroke="rgb(60, 60, 60)" stroke-width="1px" opacity="0.25"></line><line x1="0" y1="98.88888888888889" x2="280" y2="98.88888888888889" fill="rgb(0, 0, 0)" stroke="rgb(60, 60, 60)" stroke-width="1px" opacity="0.25"></line><line x1="0" y1="79.1111111111111" x2="280" y2="79.1111111111111" fill="rgb(0, 0, 0)" stroke="rgb(60, 60, 60)" stroke-width="1px" opacity="0.25"></line><line x1="0" y1="59.33333333333334" x2="280" y2="59.33333333333334" fill="rgb(0, 0, 0)" stroke="rgb(60, 60, 60)" stroke-width="1px" opacity="0.25"></line><line x1="0" y1="39.55555555555557" x2="280" y2="39.55555555555557" fill="rgb(0, 0, 0)" stroke="rgb(60, 60, 60)" stroke-width="1px" opacity="0.25"></line><line x1="0" y1="19.7777777777778" x2="280" y2="19.7777777777778" fill="rgb(0, 0, 0)" stroke="rgb(60, 60, 60)" stroke-width="1px" opacity="0.25"></line><line x1="0" y1="0" x2="280" y2="0" fill="rgb(0, 0, 0)" stroke="rgb(60, 60, 60)" stroke-width="1px" opacity="0.25"></line></g></g></g><g><g><line x1="0" y1="158.22222222222223" x2="280" y2="158.22222222222223" fill="rgb(0, 0, 0)" stroke="rgb(153, 153, 153)" stroke-width="1.5px"></line></g></g><g><g><line x1="31.11111111111111" y1="0" x2="31.11111111111111" y2="178" fill="rgb(0, 0, 0)" stroke="rgb(153, 153, 153)" stroke-width="1.5px"></line></g></g><g><g><g><g><g><path stroke="rgb(0, 119, 187)" stroke-width="2px" d="M32.666666666666664,-4.389770799212982L34.22222222222222,4.934782610999235L35.77777777777777,12.731891632080078L37.333333333333336,19.40150382783679L38.88888888888889,25.225917789671172L40.44444444444444,30.406527810626557L42,35.06941162215341L43.55555555555556,39.3380299144321L45.111111111111114,43.28079120318097L46.666666666666664,46.94806763860913L48.22222222222222,50.413065645429825L49.77777777777778,53.69219477971396L51.33333333333333,56.817142460081314L52.888888888888886,59.80805518892076L54.44444444444444,62.62510560618507L56,65.36605552832287L57.55555555555555,67.99268672201369L59.111111111111114,70.5028301080068L60.66666666666667,72.93804595205519L62.22222222222222,75.27242318789166L63.77777777777778,77.51252799563939L65.33333333333333,79.6682391166687L66.88888888888889,81.75139217906529L68.44444444444444,83.72414028644562L70,85.64553780025908L71.55555555555554,87.48258288701376L73.11111111111111,89.21966760688359L74.66666666666667,90.91798003514609L76.22222222222221,92.49784187475841L77.77777777777779,94.01106936401791L79.33333333333333,95.43026608890958L80.88888888888889,96.7718003458447L82.44444444444444,98.06509616639879L84,99.30016281869676L85.55555555555556,100.4904273748398L87.11111111111111,101.58245857556662L88.66666666666666,102.649126874076L90.22222222222223,103.6592222849528L91.77777777777777,104.62659037113191L93.33333333333333,105.50825624995763L94.8888888888889,106.38477645979988L96.44444444444444,107.21113081773123L98,107.95470061567094L99.55555555555556,108.76690291033852L101.11111111111111,109.4477992852529L102.66666666666666,110.07842665910722L104.22222222222223,110.67569559812547L105.77777777777777,111.2963705526458L107.33333333333334,111.93630197975371L108.88888888888889,112.48025165001552L110.44444444444444,113.02672405375375L112,113.52800828880734L113.55555555555556,113.93517039881813L115.1111111111111,114.40359131495158L116.66666666666667,114.82438090112475L118.22222222222223,115.20630094077853L119.77777777777777,115.61079296138553L121.33333333333334,116.0137112206883L122.88888888888889,116.39521571662692L124.44444444444444,116.77196061611176L126,117.10265678829617L127.55555555555556,117.44723683595657L129.11111111111111,117.79448402590222L130.66666666666666,118.052191860146L132.22222222222223,118.40381552113428L133.77777777777777,118.69225885470709L135.33333333333334,118.94251932038202L136.88888888888889,119.23034081194137L138.44444444444446,119.53530863920848L140,119.76286745071411L141.55555555555554,119.97256967094211L143.1111111111111,120.21279519796371L144.66666666666669,120.41254205173917L146.22222222222223,120.5782850517167L147.77777777777777,120.80762686994342L149.33333333333334,121.02174387375514L150.88888888888889,121.1947957277298L152.44444444444443,121.44641481505501L154,121.6870883040958L155.55555555555557,121.89330408308243L157.11111111111111,122.07543895641963L158.66666666666666,122.27281043264603L160.2222222222222,122.47144622272916L161.77777777777777,122.69923785660004L163.33333333333334,122.89081529776256L164.88888888888889,122.97155750460095L166.44444444444446,123.09579033984079L168,123.2203709350692L169.55555555555554,123.36601753367319L171.11111111111111,123.57964826292462L172.66666666666669,123.6361150542895L174.22222222222223,123.76426461007861L175.77777777777777,123.97444426351123L177.33333333333331,124.1092749370469L178.88888888888889,124.27065914869308L180.44444444444446,124.40082158644995L182,124.51288576920828L183.55555555555554,124.64479584826364L185.11111111111111,124.74244567420749L186.66666666666666,124.90843917926153L188.22222222222223,125.02546925677194L189.7777777777778,125.1666273938285L191.33333333333334,125.26876568131976L192.88888888888889,125.40967920753693L194.44444444444443,125.54063147306442L196,125.71976323260202L197.55555555555557,125.89025698767769L199.11111111111111,125.97722940312492L200.66666666666666,126.08603407277002L202.22222222222223,126.25299423270755L203.77777777777777,126.1319118671947L205.33333333333331,126.2230249842008L206.8888888888889,126.37818193435669L208.44444444444446,126.46785980463028L210,126.44568568468094L211.55555555555554,126.6051395336787L213.1111111111111,126.55740210745071L214.66666666666669,126.64921074443393L216.22222222222223,126.67549314763812L217.77777777777777,126.67825754483542L219.33333333333334,126.82117216454613L220.88888888888889,126.92503746350607L222.44444444444443,127.1097186472681L224,127.20641655392117L225.55555555555557,127.20423568619623L227.11111111111111,127.29079255792831L228.66666666666666,127.31326433685092L230.2222222222222,127.39649096462463L231.77777777777777,127.40837669372559L233.33333333333334,127.54900434944366L234.88888888888889,127.66464928123688L236.44444444444446,127.72511531247034L238,127.81414481666354L239.55555555555554,127.840757297145L241.11111111111111,127.89065201414957L242.66666666666669,127.91411697202258L244.22222222222223,127.83817562129764L245.77777777777777,127.92155844635434L247.33333333333331,128.05681645207935L248.88888888888889,128.06770900222992L250.44444444444446,128.03371988402472L252,128.03009492821164" style="fill: none;" fill="none"></path></g><g><path stroke="rgb(255, 112, 67)" stroke-width="2px" d="M34.22222222222222,-7.003039757410647L35.77777777777777,2.8996204270256953L37.333333333333336,10.717984067069182L38.88888888888889,17.04819430245294L40.44444444444444,23.869677411185393L42,29.08382564120822L43.55555555555556,33.548957798216094L45.111111111111114,39.482073280546416L46.666666666666664,42.54421197043527L48.22222222222222,46.00577953126697L49.77777777777778,49.77691242429944L51.33333333333333,52.97374622027081L52.888888888888886,56.68494651052687L54.44444444444444,59.382432328330154L56,61.89903579817879L57.55555555555555,64.15460118982527L59.111111111111114,66.92255850632986L60.66666666666667,70.03641323248547L62.22222222222222,72.1343903011746L63.77777777777778,74.4649009174771L65.33333333333333,76.26033269034492L66.88888888888889,78.73449765311348L68.44444444444444,80.20408421092564L70,82.08770555920073L71.55555555555554,83.94895238346525L73.11111111111111,85.59376282162138L74.66666666666667,86.7030110889011L76.22222222222221,88.55160888036093L77.77777777777779,89.93121990892622L79.33333333333333,91.04589087433285L80.88888888888889,92.90207454893324L82.44444444444444,94.0244846476449L84,94.78899077574413L85.55555555555556,96.15742633077834L87.11111111111111,96.64673052893745L88.66666666666666,97.72673748599159L90.22222222222223,98.45433979564244L91.77777777777777,99.05338290002611L93.33333333333333,99.80090773105623L94.8888888888889,100.55969055493674L96.44444444444444,101.03313336107466L98,102.01610349284279L99.55555555555556,102.660172674391L101.11111111111111,102.73304902182686L102.66666666666666,103.40433779027727L104.22222222222223,103.62742877006532L105.77777777777777,104.24604074160258L107.33333333333334,104.93291387293074L108.88888888888889,105.18427950806088L110.44444444444444,105.04520498381721L112,104.93882579273648L113.55555555555556,105.90962432490456L115.1111111111111,106.1561979452769L116.66666666666667,106.09690781434378L118.22222222222223,106.80965664651659L119.77777777777777,106.25582823488448L121.33333333333334,106.12020773357816L122.88888888888889,107.15614347987706L124.44444444444444,106.7901879813936L126,106.53237405088213L127.55555555555556,107.61186820930905L129.11111111111111,107.54051257504358L130.66666666666666,107.5766383541955L132.22222222222223,108.08600653542413L133.77777777777777,107.56863987445833L135.33333333333334,107.30990054872301L136.88888888888889,108.16654539108278L138.44444444444446,107.29709826575386L140,107.59407350752089L141.55555555555554,107.59509910477533L143.1111111111111,106.97246726353964L144.66666666666669,107.55602620707619L146.22222222222223,108.29473915365007L147.77777777777777,108.0502167277866L149.33333333333334,107.95339209503598L150.88888888888889,107.76413403617012L152.44444444444443,107.85426870981853L154,107.96605291631487L155.55555555555557,107.68727318445842L157.11111111111111,107.18635733922324L158.66666666666666,107.63239783710904L160.2222222222222,107.48339741759831L161.77777777777777,107.90942698054845L163.33333333333334,107.9540109899309L164.88888888888889,107.52529365486569L166.44444444444446,107.84049977196588L168,106.92507170306313L169.55555555555554,106.5081723133723L171.11111111111111,107.43283665180208L172.66666666666669,106.24408102035524L174.22222222222223,107.54779195785524L175.77777777777777,107.64756960339017L177.33333333333331,106.84807528389825L178.88888888888889,106.7117415799035L180.44444444444446,107.2029849820667L182,106.94471130106184L183.55555555555554,107.68519251876408L185.11111111111111,106.36135865582361L186.66666666666666,106.56997928354475L188.22222222222223,106.68756341934206L189.7777777777778,106.15230185455746L191.33333333333334,107.19270543257396L192.88888888888889,107.41754110654196L194.44444444444443,105.77780560652415L196,106.8686402771208L197.55555555555557,106.30248112148709L199.11111111111111,106.68596608108945L200.66666666666666,106.08269091447195L202.22222222222223,106.93889368904962L203.77777777777777,106.17762349711525L205.33333333333331,106.37192112869687L206.8888888888889,105.86657281716666L208.44444444444446,106.53061756822798L210,105.35802393489415L211.55555555555554,105.8552499877082L213.1111111111111,106.28703822029962L214.66666666666669,105.43469027678172L216.22222222222223,105.82994602786171L217.77777777777777,105.32732674810622L219.33333333333334,105.45221973790063L220.88888888888889,105.30613696575166L222.44444444444443,106.02423187096915L224,106.8748233318329L225.55555555555557,105.63693923420377L227.11111111111111,104.2911964919832L228.66666666666666,106.33296022150252L230.2222222222222,105.38171876801385L231.77777777777777,105.40778897868263L233.33333333333334,106.46207348505656L234.88888888888889,104.51023813088736L236.44444444444446,105.8558924595515L238,104.95999199814267L239.55555555555554,105.77915538681879L241.11111111111111,104.37672187222375L242.66666666666669,105.18845852216086L244.22222222222223,105.63173462284936L245.77777777777777,105.79577713542515L247.33333333333331,104.9129795630773L248.88888888888889,105.92313391632504L250.44444444444446,104.07167152563731L252,105.1532168785731" style="fill: none;" fill="none"></path></g></g></g></g></g></g><g transform="translate(50, 178)" clip-path="url(#clip_1)"><clipPath id="clip_1"><rect width="280" height="22"></rect></clipPath><g><g><line x1="0" y1="0" x2="0" y2="5" style="visibility: inherit;" fill="rgb(0, 0, 0)" stroke="rgb(204, 204, 204)" stroke-width="1px"></line><line x1="31.11111111111111" y1="0" x2="31.11111111111111" y2="5" style="visibility: inherit;" fill="rgb(0, 0, 0)" stroke="rgb(204, 204, 204)" stroke-width="1px"></line><line x1="62.22222222222222" y1="0" x2="62.22222222222222" y2="5" style="visibility: inherit;" fill="rgb(0, 0, 0)" stroke="rgb(204, 204, 204)" stroke-width="1px"></line><line x1="93.33333333333333" y1="0" x2="93.33333333333333" y2="5" style="visibility: inherit;" fill="rgb(0, 0, 0)" stroke="rgb(204, 204, 204)" stroke-width="1px"></line><line x1="124.44444444444444" y1="0" x2="124.44444444444444" y2="5" style="visibility: inherit;" fill="rgb(0, 0, 0)" stroke="rgb(204, 204, 204)" stroke-width="1px"></line><line x1="155.55555555555557" y1="0" x2="155.55555555555557" y2="5" style="visibility: inherit;" fill="rgb(0, 0, 0)" stroke="rgb(204, 204, 204)" stroke-width="1px"></line><line x1="186.66666666666666" y1="0" x2="186.66666666666666" y2="5" style="visibility: inherit;" fill="rgb(0, 0, 0)" stroke="rgb(204, 204, 204)" stroke-width="1px"></line><line x1="217.77777777777777" y1="0" x2="217.77777777777777" y2="5" style="visibility: inherit;" fill="rgb(0, 0, 0)" stroke="rgb(204, 204, 204)" stroke-width="1px"></line><line x1="248.88888888888889" y1="0" x2="248.88888888888889" y2="5" style="visibility: inherit;" fill="rgb(0, 0, 0)" stroke="rgb(204, 204, 204)" stroke-width="1px"></line><line x1="280" y1="0" x2="280" y2="5" style="visibility: inherit;" fill="rgb(0, 0, 0)" stroke="rgb(204, 204, 204)" stroke-width="1px"></line></g><g transform="translate(0, 8)"><text x="0" y="0" dx="0em" dy="0.95em" style="text-anchor: middle; visibility: hidden; font-family: &quot;Helvetica Neue&quot;, sans-serif; font-size: 12px; font-weight: 200;" fill="rgb(50, 49, 63)" stroke="none" stroke-width="1px">-20</text><text x="31.11111111111111" y="0" dx="0em" dy="0.95em" style="text-anchor: middle; visibility: inherit; font-family: &quot;Helvetica Neue&quot;, sans-serif; font-size: 12px; font-weight: 200;" fill="rgb(50, 49, 63)" stroke="none" stroke-width="1px">0</text><text x="62.22222222222222" y="0" dx="0em" dy="0.95em" style="text-anchor: middle; visibility: inherit; font-family: &quot;Helvetica Neue&quot;, sans-serif; font-size: 12px; font-weight: 200;" fill="rgb(50, 49, 63)" stroke="none" stroke-width="1px">20</text><text x="93.33333333333333" y="0" dx="0em" dy="0.95em" style="text-anchor: middle; visibility: inherit; font-family: &quot;Helvetica Neue&quot;, sans-serif; font-size: 12px; font-weight: 200;" fill="rgb(50, 49, 63)" stroke="none" stroke-width="1px">40</text><text x="124.44444444444444" y="0" dx="0em" dy="0.95em" style="text-anchor: middle; visibility: inherit; font-family: &quot;Helvetica Neue&quot;, sans-serif; font-size: 12px; font-weight: 200;" fill="rgb(50, 49, 63)" stroke="none" stroke-width="1px">60</text><text x="155.55555555555557" y="0" dx="0em" dy="0.95em" style="text-anchor: middle; visibility: inherit; font-family: &quot;Helvetica Neue&quot;, sans-serif; font-size: 12px; font-weight: 200;" fill="rgb(50, 49, 63)" stroke="none" stroke-width="1px">80</text><text x="186.66666666666666" y="0" dx="0em" dy="0.95em" style="text-anchor: middle; visibility: inherit; font-family: &quot;Helvetica Neue&quot;, sans-serif; font-size: 12px; font-weight: 200;" fill="rgb(50, 49, 63)" stroke="none" stroke-width="1px">100</text><text x="217.77777777777777" y="0" dx="0em" dy="0.95em" style="text-anchor: middle; visibility: inherit; font-family: &quot;Helvetica Neue&quot;, sans-serif; font-size: 12px; font-weight: 200;" fill="rgb(50, 49, 63)" stroke="none" stroke-width="1px">120</text><text x="248.88888888888889" y="0" dx="0em" dy="0.95em" style="text-anchor: middle; visibility: inherit; font-family: &quot;Helvetica Neue&quot;, sans-serif; font-size: 12px; font-weight: 200;" fill="rgb(50, 49, 63)" stroke="none" stroke-width="1px">140</text><text x="280" y="0" dx="0em" dy="0.95em" style="text-anchor: middle; visibility: hidden; font-family: &quot;Helvetica Neue&quot;, sans-serif; font-size: 12px; font-weight: 200;" fill="rgb(50, 49, 63)" stroke="none" stroke-width="1px">160</text></g><line x1="0" y1="0" x2="280" y2="0" fill="rgb(0, 0, 0)" stroke="rgb(204, 204, 204)" stroke-width="1px"></line></g></g></g></g></svg>