<svg viewBox="0 0 330 200" xmlns="http://www.w3.org/2000/svg"><g><g><g><g><g><line x1="50" y1="178" x2="45" y2="178" style="visibility: inherit;" fill="rgb(0, 0, 0)" stroke="rgb(204, 204, 204)" stroke-width="1px"></line><line x1="50" y1="161.8181818181818" x2="45" y2="161.8181818181818" style="visibility: inherit;" fill="rgb(0, 0, 0)" stroke="rgb(204, 204, 204)" stroke-width="1px"></line><line x1="50" y1="145.6363636363636" x2="45" y2="145.6363636363636" style="visibility: inherit;" fill="rgb(0, 0, 0)" stroke="rgb(204, 204, 204)" stroke-width="1px"></line><line x1="50" y1="129.4545454545454" x2="45" y2="129.4545454545454" style="visibility: inherit;" fill="rgb(0, 0, 0)" stroke="rgb(204, 204, 204)" stroke-width="1px"></line><line x1="50" y1="113.2727272727274" x2="45" y2="113.2727272727274" style="visibility: inherit;" fill="rgb(0, 0, 0)" stroke="rgb(204, 204, 204)" stroke-width="1px"></line><line x1="50" y1="97.0909090909092" x2="45" y2="97.0909090909092" style="visibility: inherit;" fill="rgb(0, 0, 0)" stroke="rgb(204, 204, 204)" stroke-width="1px"></line><line x1="50" y1="80.90909090909099" x2="45" y2="80.90909090909099" style="visibility: inherit;" fill="rgb(0, 0, 0)" stroke="rgb(204, 204, 204)" stroke-width="1px"></line><line x1="50" y1="64.72727272727279" x2="45" y2="64.72727272727279" style="visibility: inherit;" fill="rgb(0, 0, 0)" stroke="rgb(204, 204, 204)" stroke-width="1px"></line><line x1="50" y1="48.54545454545459" x2="45" y2="48.54545454545459" style="visibility: inherit;" fill="rgb(0, 0, 0)" stroke="rgb(204, 204, 204)" stroke-width="1px"></line><line x1="50" y1="32.3636363636364" x2="45" y2="32.3636363636364" style="visibility: inherit;" fill="rgb(0, 0, 0)" stroke="rgb(204, 204, 204)" stroke-width="1px"></line><line x1="50" y1="16.181818181818215" x2="45" y2="16.181818181818215" style="visibility: inherit;" fill="rgb(0, 0, 0)" stroke="rgb(204, 204, 204)" stroke-width="1px"></line><line x1="50" y1="0" x2="45" y2="0" style="visibility: inherit;" fill="rgb(0, 0, 0)" stroke="rgb(204, 204, 204)" stroke-width="1px"></line></g><g transform="translate(40, 0)"><text x="0" y="178" dx="0em" dy="0.3em" style="text-anchor: end; visibility: hidden; font-family: &quot;Helvetica Neue&quot;, sans-serif; font-size: 12px; font-weight: 200;" fill="rgb(50, 49, 63)" stroke="none" stroke-width="1px">1.3</text><text x="0" y="161.8181818181818" dx="0em" dy="0.3em" style="text-anchor: end; visibility: inherit; font-family: &quot;Helvetica Neue&quot;, sans-serif; font-size: 12px; font-weight: 200;" fill="rgb(50, 49, 63)" stroke="none" stroke-width="1px">1.32</text><text x="0" y="145.6363636363636" dx="0em" dy="0.3em" style="text-anchor: end; visibility: hidden; font-family: &quot;Helvetica Neue&quot;, sans-serif; font-size: 12px; font-weight: 200;" fill="rgb(50, 49, 63)" stroke="none" stroke-width="1px">1.34</text><text x="0" y="129.4545454545454" dx="0em" dy="0.3em" style="text-anchor: end; visibility: inherit; font-family: &quot;Helvetica Neue&quot;, sans-serif; font-size: 12px; font-weight: 200;" fill="rgb(50, 49, 63)" stroke="none" stroke-width="1px">1.36</text><text x="0" y="113.2727272727274" dx="0em" dy="0.3em" style="text-anchor: end; visibility: hidden; font-family: &quot;Helvetica Neue&quot;, sans-serif; font-size: 12px; font-weight: 200;" fill="rgb(50, 49, 63)" stroke="none" stroke-width="1px">1.38</text><text x="0" y="97.0909090909092" dx="0em" dy="0.3em" style="text-anchor: end; visibility: inherit; font-family: &quot;Helvetica Neue&quot;, sans-serif; font-size: 12px; font-weight: 200;" fill="rgb(50, 49, 63)" stroke="none" stroke-width="1px">1.4</text><text x="0" y="80.90909090909099" dx="0em" dy="0.3em" style="text-anchor: end; visibility: hidden; font-family: &quot;Helvetica Neue&quot;, sans-serif; font-size: 12px; font-weight: 200;" fill="rgb(50, 49, 63)" stroke="none" stroke-width="1px">1.42</text><text x="0" y="64.72727272727279" dx="0em" dy="0.3em" style="text-anchor: end; visibility: inherit; font-family: &quot;Helvetica Neue&quot;, sans-serif; font-size: 12px; font-weight: 200;" fill="rgb(50, 49, 63)" stroke="none" stroke-width="1px">1.44</text><text x="0" y="48.54545454545459" dx="0em" dy="0.3em" style="text-anchor: end; visibility: hidden; font-family: &quot;Helvetica Neue&quot;, sans-serif; font-size: 12px; font-weight: 200;" fill="rgb(50, 49, 63)" stroke="none" stroke-width="1px">1.46</text><text x="0" y="32.3636363636364" dx="0em" dy="0.3em" style="text-anchor: end; visibility: inherit; font-family: &quot;Helvetica Neue&quot;, sans-serif; font-size: 12px; font-weight: 200;" fill="rgb(50, 49, 63)" stroke="none" stroke-width="1px">1.48</text><text x="0" y="16.181818181818215" dx="0em" dy="0.3em" style="text-anchor: end; visibility: hidden; font-family: &quot;Helvetica Neue&quot;, sans-serif; font-size: 12px; font-weight: 200;" fill="rgb(50, 49, 63)" stroke="none" stroke-width="1px">1.5</text><text x="0" y="0" dx="0em" dy="0.3em" style="text-anchor: end; visibility: hidden; font-family: &quot;Helvetica Neue&quot;, sans-serif; font-size: 12px; font-weight: 200;" fill="rgb(50, 49, 63)" stroke="none" stroke-width="1px">1.52</text></g><line x1="50" y1="0" x2="50" y2="178" fill="rgb(0, 0, 0)" stroke="rgb(204, 204, 204)" stroke-width="1px"></line></g></g><g transform="translate(50, 0)" clip-path="url(#clip_0)"><clipPath id="clip_0"><rect width="280" height="178"></rect></clipPath><g><g><g><line x1="0" y1="0" x2="0" y2="178" fill="rgb(0, 0, 0)" stroke="rgb(60, 60, 60)" stroke-width="1px" opacity="0.25"></line><line x1="23.333333333333332" y1="0" x2="23.333333333333332" y2="178" fill="rgb(0, 0, 0)" stroke="rgb(60, 60, 60)" stroke-width="1px" opacity="0.25"></line><line x1="46.666666666666664" y1="0" x2="46.666666666666664" y2="178" fill="rgb(0, 0, 0)" stroke="rgb(60, 60, 60)" stroke-width="1px" opacity="0.25"></line><line x1="70" y1="0" x2="70" y2="178" fill="rgb(0, 0, 0)" stroke="rgb(60, 60, 60)" stroke-width="1px" opacity="0.25"></line><line x1="93.33333333333333" y1="0" x2="93.33333333333333" y2="178" fill="rgb(0, 0, 0)" stroke="rgb(60, 60, 60)" stroke-width="1px" opacity="0.25"></line><line x1="116.66666666666667" y1="0" x2="116.66666666666667" y2="178" fill="rgb(0, 0, 0)" stroke="rgb(60, 60, 60)" stroke-width="1px" opacity="0.25"></line><line x1="140" y1="0" x2="140" y2="178" fill="rgb(0, 0, 0)" stroke="rgb(60, 60, 60)" stroke-width="1px" opacity="0.25"></line><line x1="163.33333333333334" y1="0" x2="163.33333333333334" y2="178" fill="rgb(0, 0, 0)" stroke="rgb(60, 60, 60)" stroke-width="1px" opacity="0.25"></line><line x1="186.66666666666666" y1="0" x2="186.66666666666666" y2="178" fill="rgb(0, 0, 0)" stroke="rgb(60, 60, 60)" stroke-width="1px" opacity="0.25"></line><line x1="210" y1="0" x2="210" y2="178" fill="rgb(0, 0, 0)" stroke="rgb(60, 60, 60)" stroke-width="1px" opacity="0.25"></line><line x1="233.33333333333334" y1="0" x2="233.33333333333334" y2="178" fill="rgb(0, 0, 0)" stroke="rgb(60, 60, 60)" stroke-width="1px" opacity="0.25"></line><line x1="256.66666666666663" y1="0" x2="256.66666666666663" y2="178" fill="rgb(0, 0, 0)" stroke="rgb(60, 60, 60)" stroke-width="1px" opacity="0.25"></line><line x1="280" y1="0" x2="280" y2="178" fill="rgb(0, 0, 0)" stroke="rgb(60, 60, 60)" stroke-width="1px" opacity="0.25"></line></g><g><line x1="0" y1="178" x2="280" y2="178" fill="rgb(0, 0, 0)" stroke="rgb(60, 60, 60)" stroke-width="1px" opacity="0.25"></line><line x1="0" y1="161.8181818181818" x2="280" y2="161.8181818181818" fill="rgb(0, 0, 0)" stroke="rgb(60, 60, 60)" stroke-width="1px" opacity="0.25"></line><line x1="0" y1="145.6363636363636" x2="280" y2="145.6363636363636" fill="rgb(0, 0, 0)" stroke="rgb(60, 60, 60)" stroke-width="1px" opacity="0.25"></line><line x1="0" y1="129.4545454545454" x2="280" y2="129.4545454545454" fill="rgb(0, 0, 0)" stroke="rgb(60, 60, 60)" stroke-width="1px" opacity="0.25"></line><line x1="0" y1="113.2727272727274" x2="280" y2="113.2727272727274" fill="rgb(0, 0, 0)" stroke="rgb(60, 60, 60)" stroke-width="1px" opacity="0.25"></line><line x1="0" y1="97.0909090909092" x2="280" y2="97.0909090909092" fill="rgb(0, 0, 0)" stroke="rgb(60, 60, 60)" stroke-width="1px" opacity="0.25"></line><line x1="0" y1="80.90909090909099" x2="280" y2="80.90909090909099" fill="rgb(0, 0, 0)" stroke="rgb(60, 60, 60)" stroke-width="1px" opacity="0.25"></line><line x1="0" y1="64.72727272727279" x2="280" y2="64.72727272727279" fill="rgb(0, 0, 0)" stroke="rgb(60, 60, 60)" stroke-width="1px" opacity="0.25"></line><line x1="0" y1="48.54545454545459" x2="280" y2="48.54545454545459" fill="rgb(0, 0, 0)" stroke="rgb(60, 60, 60)" stroke-width="1px" opacity="0.25"></line><line x1="0" y1="32.3636363636364" x2="280" y2="32.3636363636364" fill="rgb(0, 0, 0)" stroke="rgb(60, 60, 60)" stroke-width="1px" opacity="0.25"></line><line x1="0" y1="16.181818181818215" x2="280" y2="16.181818181818215" fill="rgb(0, 0, 0)" stroke="rgb(60, 60, 60)" stroke-width="1px" opacity="0.25"></line><line x1="0" y1="0" x2="280" y2="0" fill="rgb(0, 0, 0)" stroke="rgb(60, 60, 60)" stroke-width="1px" opacity="0.25"></line></g></g></g><g><g><line x1="0" y1="1229.818181818182" x2="280" y2="1229.818181818182" fill="rgb(0, 0, 0)" stroke="rgb(153, 153, 153)" stroke-width="1.5px"></line></g></g><g><g><line x1="23.333333333333332" y1="0" x2="23.333333333333332" y2="178" fill="rgb(0, 0, 0)" stroke="rgb(153, 153, 153)" stroke-width="1.5px"></line></g></g><g><g><g><g><g><path stroke="rgb(0, 119, 187)" stroke-width="2px" d="M23.333333333333332,21.01893992857501L24.5,20.50202203338779L25.666666666666664,20.14522043274144L26.833333333333336,20.030980490586415L28,20.22090871557748L29.166666666666668,20.753634509624675L30.333333333333336,21.677998459518733L31.5,23.00181945848655L32.666666666666664,24.67983562826609L33.833333333333336,26.68766800568062L35,28.997021748941023L36.16666666666667,31.516204078243277L37.333333333333336,34.14430270960551L38.5,36.81149225395106L39.666666666666664,39.496207959739166L40.833333333333336,42.10196323665693L42,44.45632647993054L43.16666666666667,46.40501222693473L44.33333333333333,47.80929782835378L45.5,48.53977266632032L46.666666666666664,48.62378691206354L47.833333333333336,48.1217533878424L49,46.94193772585939L50.166666666666664,44.67261847627131L51.33333333333333,41.394814024477455L52.5,37.58854063894839L53.66666666666667,33.874485869156814L54.833333333333336,31.162487645211712L56,30.15936754350423L57.166666666666664,31.453532893146814L58.333333333333336,35.0181650438937L59.5,40.34774131118368L60.66666666666667,46.96981151944209L61.83333333333333,54.37378245266633L63,62.17116040195667L64.16666666666666,69.66106104787599L65.33333333333333,76.50474437662851L66.5,82.5920610255503L67.66666666666667,87.53685786574887L68.83333333333333,91.42133364803733L70,94.43319573372963L71.16666666666666,96.80636550739763L72.33333333333334,98.80033226250048L73.5,100.48699281343669L74.66666666666667,101.98282670503549L75.83333333333333,103.25548344250663L77,104.28327648175237L78.16666666666667,105.20774722299558L79.33333333333333,106.04576457318304L80.5,106.79537419219139L81.66666666666667,107.5234594091172L82.83333333333333,108.15946287885969L84,108.80113584818315L85.16666666666666,109.40535380907586L86.33333333333334,109.96923601147579L87.5,110.48063728088015L88.66666666666666,110.96109011694136L89.83333333333334,111.40318211651278L91,111.83120828113807L92.16666666666667,112.25098784710079L93.33333333333333,112.66786421829806L94.5,113.06837667792372L95.66666666666667,113.42504282402047L96.83333333333333,113.78144299316295L98,114.07356284998059L99.16666666666667,114.39169821108706L100.33333333333333,114.73535805323937L101.5,115.09140046898403L102.66666666666666,115.45846041175591L103.83333333333334,115.8572081703822L105,116.22427389279096L106.16666666666666,116.55963742180623L107.33333333333334,116.85545482954294L108.5,117.18977484807667L109.66666666666667,117.51382433433876L110.83333333333333,117.85840918023746L112,118.16716682661288L113.16666666666667,118.46476771681733L114.33333333333333,118.6772018956822L115.5,118.86450069798398L116.66666666666667,119.04647913097642L117.83333333333333,119.27322085538363L119,119.50390376081646L120.16666666666666,119.72842509298783L121.33333333333334,119.9085856753274L122.5,120.09608061343161L123.66666666666666,120.26625536546207L124.83333333333334,120.51593047993615L126,120.76484875288305L127.16666666666667,120.99240231106154L128.33333333333331,121.19972959187038L129.5,121.43662658457907L130.66666666666666,121.66811712783817L131.83333333333334,121.8905381518193L133,122.0616067156653L134.16666666666669,122.25182550040196L135.33333333333334,122.44388930242731L136.5,122.63995364939962L137.66666666666666,122.86893546797671L138.83333333333334,123.0449436005658L140,123.21385901659059L141.16666666666666,123.37134283693409L142.33333333333331,123.53547086121264L143.5,123.72291421880384L144.66666666666669,123.88210117160767L145.83333333333334,124.06353202989663L147,124.22482139134452L148.16666666666666,124.35971250366327L149.33333333333334,124.47637267792373L150.5,124.58282731810786L151.66666666666666,124.69411548876519L152.83333333333331,124.81139021458485L154,124.95309032243205L155.16666666666669,125.09517088893273L156.33333333333334,125.19280355680823L157.5,125.3416228557702L158.66666666666666,125.4791400113748L159.83333333333331,125.59957489788276L161,125.71458298055526L162.16666666666669,125.87328740194178L163.33333333333334,125.97344835377946L164.5,126.08431681153417L165.66666666666666,126.23062227949765L166.83333333333334,126.34031926211341L168,126.44093702748849L169.16666666666666,126.55956418279618L170.33333333333331,126.69702170794761L171.5,126.7897972061208L172.66666666666669,126.87123425296055L173.83333333333334,126.96430968934952L175,127.04473070482851L176.16666666666666,127.15085400558871L177.33333333333331,127.25827822879825L178.5,127.35826536728828L179.66666666666669,127.45085813991186L180.83333333333334,127.51563453366082L182,127.59589720454376L183.16666666666666,127.69328347528645L184.33333333333334,127.78088206623445L185.5,127.85840277905857L186.66666666666666,127.93859594919014L187.83333333333331,128.00986012785825L189,128.10524238383834L190.16666666666669,128.18569717493745L191.33333333333334,128.26495015976545L192.5,128.33171502023123L193.66666666666666,128.39719846029766L194.83333333333331,128.4554701111406L196,128.54155221244744L197.16666666666669,128.61916612347244L198.33333333333334,128.71708506365428L199.5,128.8008365664797L200.66666666666666,128.86902738253158L201.83333333333334,128.96461038537382L203,129.04584149242697L204.16666666666666,129.08998908180212L205.33333333333331,129.1779363097714L206.5,129.30007231539832L207.66666666666669,129.39835405749082L208.83333333333334,129.45103448760602L210,129.48800542975184L211.16666666666666,129.5523178584315L212.33333333333331,129.6295243570823L213.5,129.69571719367823L214.66666666666669,129.75410583875117L215.83333333333334,129.8063073309317L217,129.93419512007782L218.16666666666666,130.0592691111757L219.33333333333334,130.18628138677707L220.5,130.2513775793751L221.66666666666666,130.33198645141138L222.83333333333331,130.44192619036033L224,130.5401818795716L225.16666666666669,130.6440815301423L226.33333333333334,130.7045694583575L227.5,130.75394099155963L228.66666666666666,130.80810108466517L229.83333333333331,130.8980820273915L231,130.99366032996582L232.16666666666669,131.01142375854292L233.33333333333334,131.08249881758695L234.5,131.1589017563726L235.66666666666666,131.26840128026396L236.83333333333334,131.38259663405307L238,131.42430042594407L239.16666666666666,131.3961974063066L240.33333333333331,131.40013046299327L241.5,131.44936555709833L242.66666666666669,131.45903767615576L243.83333333333334,131.48393827577627L245,131.54517518872674L246.16666666666666,131.61305176850942L247.33333333333331,131.6700972513743L248.5,131.7153585529342L249.66666666666669,131.76709108751558L250.83333333333334,131.84843952938473L252,131.89991064631408L253.16666666666666,131.93496000625774L254.33333333333334,131.99067345664668L255.5,132.0342096076572" style="fill: none;" fill="none"></path></g><g><path stroke="rgb(255, 112, 67)" stroke-width="2px" d="M30.333333333333336,-9.682266357632216L31.5,0.24538847042316547L32.666666666666664,9.464893163306641L33.833333333333336,17.917581287353613L35,25.65560123260525L36.16666666666667,32.71670380147657L37.333333333333336,39.1013996853745L38.5,44.93270295985704L39.666666666666664,50.19019950762642L40.833333333333336,55.01925293122676L42,59.40615835738619L43.16666666666667,63.457114148193L44.33333333333333,67.09251985307813L45.5,70.38300462943178L46.666666666666664,73.36052539546753L47.833333333333336,75.94998175464427L49,78.48038300130679L50.166666666666664,80.82589570472913L51.33333333333333,83.13069602928402L52.5,85.23371614345957L53.66666666666667,87.21354761026889L54.833333333333336,89.1121748821607L56,90.93588387051881L57.166666666666664,92.60734981830488L58.333333333333336,94.18453796884035L59.5,95.62734271716046L60.66666666666667,96.92342913592913L61.83333333333333,98.1037066499233L63,99.28128161351313L64.16666666666666,100.34546745570229L65.33333333333333,101.39613402121111L66.5,102.29443667840803L67.66666666666667,103.04607377199744L68.83333333333333,103.93587019087387L70,104.79177914951269L71.16666666666666,105.68811985830311L72.33333333333334,106.53800163227378L73.5,107.4476628528019L74.66666666666667,108.28871585294296L75.83333333333333,109.09585704754959L77,109.65332889876659L78.16666666666667,110.22099231566314L79.33333333333333,110.8369776962853L80.5,111.46783580642483L81.66666666666667,111.93740056042307L82.83333333333333,112.57855498732904L84,113.07756154936075L85.16666666666666,113.62658106913248L86.33333333333334,114.08678054372373L87.5,114.61016240291116L88.66666666666666,115.138390237795L89.83333333333334,115.65174006558406L91,116.11835423735405L92.16666666666667,116.55719707873956L93.33333333333333,117.04318920435819L94.5,117.45149037419961L95.66666666666667,117.90550001370443L96.83333333333333,118.38292236706504L98,118.83091216921252L99.16666666666667,119.20514645036442L100.33333333333333,119.57201033961786L101.5,119.88703660718537L102.66666666666666,120.1481978297619L103.83333333333334,120.54316749033211L105,120.92289699230714L106.16666666666666,121.01682191342397L107.33333333333334,121.25608683160922L108.5,121.4683575835293L109.66666666666667,121.83190961681234L110.83333333333333,122.17666190972483L112,122.56638467052645L113.16666666666667,122.97275014851827L114.33333333333333,123.38898551544162L115.5,123.79875848774846L116.66666666666667,124.13439900383734L117.83333333333333,124.5433847740342L119,124.96586055205931L120.16666666666666,125.35781129333817L121.33333333333334,125.58514990452616L122.5,125.6193534300981L123.66666666666666,125.61429669981037L124.83333333333334,125.78884852353721L126,126.04169000748274L127.16666666666667,126.38436817971049L128.33333333333331,126.73584780601968L129.5,126.88357936717782L130.66666666666666,127.11986572805044L131.83333333333334,127.45920808526223L133,127.79830807855784L134.16666666666669,128.15200038959847L135.33333333333334,128.47166236005745L136.5,128.81029677683003L137.66666666666666,129.11984375782063L138.83333333333334,129.36475437356114L140,129.67968007012072L141.16666666666666,129.99058832522005L142.33333333333331,130.2586152118734L143.5,130.3307734445292L144.66666666666669,130.54216345262057L145.83333333333334,130.78246259322333L147,131.01769196550202L148.16666666666666,131.1844855954223L149.33333333333334,131.32692311953252L150.5,131.56288801228908L151.66666666666666,131.77630376629128L152.83333333333331,132.03228602730846L154,132.29004262857L155.16666666666669,132.48655638949234L156.33333333333334,132.67352367120324L157.5,132.88983270441977L158.66666666666666,133.08138544238193L159.83333333333331,133.27799192105772L161,133.41354849847085L162.16666666666669,133.581997125816L163.33333333333334,133.76011148280398L164.5,133.97330784746268L165.66666666666666,134.18471378382282L166.83333333333334,134.29234427606974L168,134.4706963508536L169.16666666666666,134.65286233371663L170.33333333333331,134.8236591782395L171.5,135.00291240230723L172.66666666666669,134.65367167872236L173.83333333333334,134.75898238664453L175,134.64682061623526L176.16666666666666,134.6791383042448L177.33333333333331,134.77291204582363L178.5,134.89927698837516L179.66666666666669,135.11873101014154L180.83333333333334,135.2698865559973L182,135.27493126013093L183.16666666666666,135.43069812763838L184.33333333333334,135.56270012866383L185.5,135.5948331668812L186.66666666666666,135.6864127736916L187.83333333333331,135.91165469255185L189,136.1184823403725L190.16666666666669,136.24385208427722L191.33333333333334,136.50526323531872L192.5,136.70423978933576L193.66666666666666,137.01120392303997L194.83333333333331,137.20884698414508L196,137.49433189501593L197.16666666666669,137.75559247654812L198.33333333333334,137.93599864804932L199.5,138.11071648522181L200.66666666666666,138.32079468508408L201.83333333333334,138.50486661831795L203,138.6709813834552L204.16666666666666,138.6664444174255L205.33333333333331,138.73717943551725L206.5,138.69115544934084L207.66666666666669,138.72642720903553L208.83333333333334,138.67610067065283L210,138.7076720656552L211.16666666666666,138.76604413378004L212.33333333333331,138.8727884516204L213.5,138.97016856061308L214.66666666666669,139.01729255094085L215.83333333333334,139.12731894195812L217,139.21999387510692L218.16666666666666,139.2530292653218L219.33333333333334,139.3081130407882L220.5,139.3919737731813L221.66666666666666,139.45895697176138L222.83333333333331,139.59015819836566L224,139.735044424912L225.16666666666669,139.8352478394177L226.33333333333334,139.9417050217604L227.5,139.99404377333244L228.66666666666666,140.10110330826092L229.83333333333331,140.17251499496086L231,140.03222055869972L232.16666666666669,139.96872302402917L233.33333333333334,139.84528452353507L234.5,139.83676962644674L235.66666666666666,139.95577403117272L236.83333333333334,140.14534862599584L238,140.34404755797166L239.16666666666666,140.42345188142386L240.33333333333331,140.27468134863634L241.5,140.20158424211525L242.66666666666669,140.27562786696333L243.83333333333334,140.37344939987108L245,140.576356082766L246.16666666666666,140.7428148467809L247.33333333333331,140.90831546932017L248.5,141.02451408475378L249.66666666666669,141.07015904636117L250.83333333333334,141.13678235214437L252,141.2581225278249L253.16666666666666,141.33841124266385L254.33333333333334,141.41166177120527L255.5,141.4769856637141" style="fill: none;" fill="none"></path></g></g></g></g><g opacity="0.2"><g><g><g><path stroke="rgb(0, 119, 187)" stroke-width="2px" d="M23.333333333333332,21.01893992857501L24.5,20.191871296275764L25.666666666666664,19.802690896120936L26.833333333333336,19.89663431861186L28,20.468879006125718L29.166666666666668,21.4905860640786L30.333333333333336,22.9998536976901L31.5,24.93196318366313L32.666666666666664,27.154583540829748L33.833333333333336,29.669065085324377L35,32.44010669534859L36.16666666666667,35.281268293207376L37.333333333333336,38.07786945863205L38.5,40.80705126849088L39.666666666666664,43.52012573588979L40.833333333333336,46.00875837152657L42,47.98687505722049L43.16666666666667,49.32754607634112L44.33333333333333,49.91551230170512L45.5,49.635418154976605L46.666666666666664,48.749803673137336L47.833333333333336,47.368719621138155L49,45.17223752628675L50.166666666666664,41.2686664841392L51.33333333333333,36.47813064401802L52.5,31.879146792671918L53.66666666666667,28.303413217717974L54.833333333333336,27.09449447285047L56,28.654688314958065L57.166666666666664,33.39478020234543L58.333333333333336,40.365112087943345L59.5,48.342104651711225L60.66666666666667,56.902916041287526L61.83333333333333,65.47973832217131L63,73.86722699078649L64.16666666666666,80.89591182361953L65.33333333333333,86.77026926387443L66.5,91.72303594242446L67.66666666666667,94.95405309850521L68.83333333333333,97.24804730848835L70,98.95098885622893L71.16666666666666,100.36612016504463L72.33333333333334,101.79128239371563L73.5,103.01698363911025L74.66666666666667,104.22657754204492L75.83333333333333,105.16446854851465L77,105.82496604052459L78.16666666666667,106.59445333480838L79.33333333333333,107.30279059843586L80.5,107.91978862068872L81.66666666666667,108.6155872344971L82.83333333333333,109.11346808346838L84,109.76364530216567L85.16666666666666,110.3116807504134L86.33333333333334,110.8150593150746L87.5,111.24773918498649L88.66666666666666,111.68176937103274L89.83333333333334,112.06632011586971L91,112.4732475280762L92.16666666666667,112.88065719604495L93.33333333333333,113.2931787750938L94.5,113.6691453673623L95.66666666666667,113.96004204316576L96.83333333333333,114.31604324687615L98,114.51174263520676L99.16666666666667,114.86890125274661L100.33333333333333,115.25084781646731L101.5,115.62546409260146L102.66666666666666,116.0090503259139L103.83333333333334,116.45532980832189L105,116.7748724764044L106.16666666666666,117.06268271532929L107.33333333333334,117.29918094114828L108.5,117.69125487587672L109.66666666666667,117.99989856373183L110.83333333333333,118.37528644908562L112,118.6303032961759L113.16666666666667,118.91116905212405L114.33333333333333,118.9958531639793L115.5,119.14544890143658L116.66666666666667,119.3194467804649L117.83333333333333,119.61333344199444L119,119.84992811896588L120.16666666666666,120.06520709124482L121.33333333333334,120.17882654883648L122.5,120.3773230205883L123.66666666666666,120.52151749350811L124.83333333333334,120.89044315164742L126,121.13822616230361L127.16666666666667,121.33373264832932L128.33333333333331,121.51072051308375L129.5,121.79197207364172L130.66666666666666,122.01535294272686L131.83333333333334,122.22416968779135L133,122.31820956143468L134.16666666666669,122.53715367750692L135.33333333333334,122.73198500546545L136.5,122.9340501698581L137.66666666666666,123.21240819584243L138.83333333333334,123.3089557994496L140,123.4672321406278L141.16666666666666,123.60756856744943L142.33333333333331,123.78166289763021L143.5,124.00407925519079L144.66666666666669,124.12088160081345L145.83333333333334,124.33567831733014L147,124.46675543351608L148.16666666666666,124.56204917214137L149.33333333333334,124.65136293931442L150.5,124.74250927838415L151.66666666666666,124.861047744751L152.83333333333331,124.98730230331424L154,125.16564048420302L155.16666666666669,125.30829173868356L156.33333333333334,125.33925255862152L157.5,125.5648518042131L158.66666666666666,125.68541574478152L159.83333333333331,125.7802272276445L161,125.88709510456435L162.16666666666669,126.11134403402158L163.33333333333334,126.12368978153579L164.5,126.2506194981662L165.66666666666666,126.45008048144257L166.83333333333334,126.50486473603684L168,126.591863675551L169.16666666666666,126.73750491575765L170.33333333333331,126.90320799567486L171.5,126.92896045338027L172.66666666666669,126.99338982322003L173.83333333333334,127.10392284393313L175,127.1653622280468L176.16666666666666,127.31003895672887L177.33333333333331,127.41941456361252L178.5,127.50824607502334L179.66666666666669,127.58974729884758L180.83333333333334,127.61279912428427L182,127.71629121086818L183.16666666666666,127.8393628814004L184.33333333333334,127.91227995265618L185.5,127.97468384829438L186.66666666666666,128.05888570438736L187.83333333333331,128.1167563958602L189,128.24831576780844L190.16666666666669,128.30637936158615L191.33333333333334,128.3838296370073L192.5,128.43186231092977L193.66666666666666,128.49542362039745L194.83333333333331,128.54287758740514L196,128.67067536440766L197.16666666666669,128.7355869900097L198.33333333333334,128.86396347392693L199.5,128.92646382071757L200.66666666666666,128.97131360660904L201.83333333333334,129.10798488963738L203,129.16768815300685L204.16666666666666,129.15621046586472L205.33333333333331,129.3098571517251L206.5,129.4832763238387L207.66666666666669,129.54577667062938L208.83333333333334,129.53005513277924L210,129.54346184297043L211.16666666666666,129.648786501451L212.33333333333331,129.7453341050582L213.5,129.79500644857237L214.66666666666669,129.84168880636045L215.83333333333334,129.8846095692028L217,130.12602680379698L218.16666666666666,130.24688009782273L219.33333333333334,130.37679980017924L220.5,130.3490218682723L221.66666666666666,130.45289975946605L222.83333333333331,130.60683579878378L224,130.68756541338837L225.16666666666669,130.79993100599813L226.33333333333334,130.7953013506803L227.5,130.82799829136246L228.66666666666666,130.88934122432366L229.83333333333331,131.03305344148117L231,131.13702778382736L232.16666666666669,131.03806890140885L233.33333333333334,131.18911140615293L234.5,131.2735061645508L235.66666666666666,131.4326505661011L236.83333333333334,131.5538896647367L238,131.48685611378068L239.16666666666666,131.3540428768505L240.33333333333331,131.4060300480236L241.5,131.52321819825607L242.66666666666669,131.47354585474193L243.83333333333334,131.52128917520702L245,131.63703055815267L246.16666666666666,131.71486663818362L247.33333333333331,131.75566547567198L248.5,131.78325050527403L249.66666666666669,131.84468988938767L250.83333333333334,131.97046219218865L252,131.97711732170802L253.16666666666666,131.98753404617312L254.33333333333334,132.07424363222992L255.5,132.09951383417308" style="fill: none;" fill="none"></path></g><g><path stroke="rgb(255, 112, 67)" stroke-width="2px" d="M29.166666666666668,-4.856685898520709L30.333333333333336,5.465516437183737L31.5,14.720004515214413L32.666666666666664,23.06187178871849L33.833333333333336,30.46883804147896L35,37.1924478790977L36.16666666666667,43.26993144642225L37.333333333333336,48.65759637139061L38.5,53.66823374141349L39.666666666666664,58.070264339447036L40.833333333333336,62.259427244013025L42,65.9846601052718L43.16666666666667,69.53251929716633L44.33333333333333,72.54507459293715L45.5,75.31843103062026L46.666666666666664,77.82664325020532L47.833333333333336,79.83408108624548L49,82.2759349129417L50.166666666666664,84.34413697502832L51.33333333333333,86.58788013458253L52.5,88.3882373463024L53.66666666666667,90.18328974463725L54.833333333333336,91.96011287515816L56,93.67144567316231L57.166666666666664,95.11454781618987L58.333333333333336,96.55031967163089L59.5,97.79154955257071L60.66666666666667,98.86755860935561L61.83333333333333,99.87412283637309L63,101.04764400828971L64.16666666666666,101.941746191545L65.33333333333333,102.9721338532188L66.5,103.6418906558644L67.66666666666667,104.17352940819482L68.83333333333333,105.27056481621484L70,106.07564258575442L71.16666666666666,107.03263092041018L72.33333333333334,107.81282429261644L73.5,108.81215468319982L74.66666666666667,109.55029535293582L75.83333333333333,110.30656883933331L77,110.48953667553991L78.16666666666667,111.07248744097626L79.33333333333333,111.76095576719807L80.5,112.41412297162145L81.66666666666667,112.64174769141461L82.83333333333333,113.5402866276828L84,113.82607139240615L85.16666666666666,114.4501103487882L86.33333333333334,114.77707975560972L87.5,115.39523519169204L88.66666666666666,115.93073199012066L89.83333333333334,116.42176480726766L91,116.818275495009L92.16666666666667,117.21546134081757L93.33333333333333,117.77217739278623L94.5,118.06394212896177L95.66666666666667,118.58651447296145L96.83333333333333,119.09905589710586L98,119.50289687243378L99.16666666666667,119.76649787209254L100.33333333333333,120.122306173498L101.5,120.35957600853664L102.66666666666666,120.53993966362697L103.83333333333334,121.13562198118734L105,121.4924912452698L106.16666666666666,121.15770929509947L107.33333333333334,121.61498420888731L108.5,121.78676371140915L109.66666666666667,122.37723766673699L110.83333333333333,122.69379034909338L112,123.15096881172877L113.16666666666667,123.58229836550629L114.33333333333333,124.01333856582644L115.5,124.41341794620864L116.66666666666667,124.63785977797079L117.83333333333333,125.15686342932965L119,125.59957421909682L120.16666666666666,125.9457374052568L121.33333333333334,125.92615782130852L122.5,125.67065871845595L123.66666666666666,125.60671160437848L124.83333333333334,126.05067625912756L126,126.42095223340124L127.16666666666667,126.89838543805212L128.33333333333331,127.26306724548343L129.5,127.10517670891505L130.66666666666666,127.47429526935927L131.83333333333334,127.96822162107992L133,128.3069580685009L134.16666666666669,128.6825388561596L135.33333333333334,128.951155315746L136.5,129.31824840198868L137.66666666666666,129.58416422930634L138.83333333333334,129.7321202971719L140,130.15206861495975L141.16666666666666,130.4569507078691L142.33333333333331,130.6606555418535L143.5,130.43901079351255L144.66666666666669,130.8592484647578L145.83333333333334,131.14291130412713L147,131.37053602392027L148.16666666666666,131.43467604030266L149.33333333333334,131.54057940569794L150.5,131.9168353514238L151.66666666666666,132.09642739729452L152.83333333333331,132.4162594188344L154,132.67667753046214L155.16666666666669,132.7813270308755L156.33333333333334,132.95397459376946L157.5,133.21429625424474L158.66666666666666,133.36871454932475L159.83333333333331,133.5729016390714L161,133.61688336459076L162.16666666666669,133.83467006683352L163.33333333333334,134.0272830182856L164.5,134.29310239445084L165.66666666666666,134.50182268836284L166.83333333333334,134.4537900144404L168,134.73822446302938L169.16666666666666,134.92611130801117L170.33333333333331,135.079854445024L171.5,135.2717922384089L172.66666666666669,134.12981059334498L173.83333333333334,134.916948448528L175,134.47857796062127L176.16666666666666,134.72761483625936L177.33333333333331,134.91357265819207L178.5,135.0888244022023L179.66666666666669,135.44791204279122L180.83333333333334,135.49661987478086L182,135.28249831633138L183.16666666666666,135.66434842889961L184.33333333333334,135.76070313020188L185.5,135.64303272420713L186.66666666666666,135.82378218390727L187.83333333333331,136.24951757084244L189,136.4287238121033L190.16666666666669,136.4319067001343L191.33333333333334,136.8973799618808L192.5,137.00270462036136L193.66666666666666,137.47165012359622L194.83333333333331,137.50531157580292L196,137.92255926132205L197.16666666666669,138.14748334884646L198.33333333333334,138.2066079053012L199.5,138.37279324098068L200.66666666666666,138.63591198487717L201.83333333333334,138.7809745181691L203,138.92015353116125L204.16666666666666,138.65963896838105L205.33333333333331,138.84328196265483L206.5,138.62211947007614L207.66666666666669,138.77933484857735L208.83333333333334,138.60061086307877L210,138.75502915815878L211.16666666666666,138.8536022359675L212.33333333333331,139.03290492838082L213.5,139.11623872410172L214.66666666666669,139.08797853643247L215.83333333333334,139.29235852848404L217,139.35900627483025L218.16666666666666,139.30258235064423L219.33333333333334,139.39073870398784L220.5,139.5177648717707L221.66666666666666,139.55943176963115L222.83333333333331,139.78696003827184L224,139.9523737647317L225.16666666666669,139.98555296117613L226.33333333333334,140.10139079527426L227.5,140.07255190069029L228.66666666666666,140.261692610654L229.83333333333331,140.27963252501058L231,139.82177890430802L232.16666666666669,139.87347672202372L233.33333333333334,139.6601267727939L234.5,139.82399728081447L235.66666666666666,140.13428063826132L236.83333333333334,140.42971051823014L238,140.64209595593542L239.16666666666666,140.54255836660215L240.33333333333331,140.05152554945516L241.5,140.09193858233368L242.66666666666669,140.3866933042353L243.83333333333334,140.52018169923264L245,140.8807161071084L246.16666666666666,140.99250299280342L247.33333333333331,141.15656640312892L248.5,141.19881200790408L249.66666666666669,141.13862648877233L250.83333333333334,141.2367173108188L252,141.4401327913458L253.16666666666666,141.45884431492203L254.33333333333334,141.5215375640176L255.5,141.5749715024775" style="fill: none;" fill="none"></path></g></g></g></g></g></g><g transform="translate(50, 178)" clip-path="url(#clip_1)"><clipPath id="clip_1"><rect width="280" height="22"></rect></clipPath><g><g><line x1="0" y1="0" x2="0" y2="5" style="visibility: inherit;" fill="rgb(0, 0, 0)" stroke="rgb(204, 204, 204)" stroke-width="1px"></line><line x1="23.333333333333332" y1="0" x2="23.333333333333332" y2="5" style="visibility: inherit;" fill="rgb(0, 0, 0)" stroke="rgb(204, 204, 204)" stroke-width="1px"></line><line x1="46.666666666666664" y1="0" x2="46.666666666666664" y2="5" style="visibility: inherit;" fill="rgb(0, 0, 0)" stroke="rgb(204, 204, 204)" stroke-width="1px"></line><line x1="70" y1="0" x2="70" y2="5" style="visibility: inherit;" fill="rgb(0, 0, 0)" stroke="rgb(204, 204, 204)" stroke-width="1px"></line><line x1="93.33333333333333" y1="0" x2="93.33333333333333" y2="5" style="visibility: inherit;" fill="rgb(0, 0, 0)" stroke="rgb(204, 204, 204)" stroke-width="1px"></line><line x1="116.66666666666667" y1="0" x2="116.66666666666667" y2="5" style="visibility: inherit;" fill="rgb(0, 0, 0)" stroke="rgb(204, 204, 204)" stroke-width="1px"></line><line x1="140" y1="0" x2="140" y2="5" style="visibility: inherit;" fill="rgb(0, 0, 0)" stroke="rgb(204, 204, 204)" stroke-width="1px"></line><line x1="163.33333333333334" y1="0" x2="163.33333333333334" y2="5" style="visibility: inherit;" fill="rgb(0, 0, 0)" stroke="rgb(204, 204, 204)" stroke-width="1px"></line><line x1="186.66666666666666" y1="0" x2="186.66666666666666" y2="5" style="visibility: inherit;" fill="rgb(0, 0, 0)" stroke="rgb(204, 204, 204)" stroke-width="1px"></line><line x1="210" y1="0" x2="210" y2="5" style="visibility: inherit;" fill="rgb(0, 0, 0)" stroke="rgb(204, 204, 204)" stroke-width="1px"></line><line x1="233.33333333333334" y1="0" x2="233.33333333333334" y2="5" style="visibility: inherit;" fill="rgb(0, 0, 0)" stroke="rgb(204, 204, 204)" stroke-width="1px"></line><line x1="256.66666666666663" y1="0" x2="256.66666666666663" y2="5" style="visibility: inherit;" fill="rgb(0, 0, 0)" stroke="rgb(204, 204, 204)" stroke-width="1px"></line><line x1="280" y1="0" x2="280" y2="5" style="visibility: inherit;" fill="rgb(0, 0, 0)" stroke="rgb(204, 204, 204)" stroke-width="1px"></line></g><g transform="translate(0, 8)"><text x="0" y="0" dx="0em" dy="0.95em" style="text-anchor: middle; visibility: hidden; font-family: &quot;Helvetica Neue&quot;, sans-serif; font-size: 12px; font-weight: 200;" fill="rgb(50, 49, 63)" stroke="none" stroke-width="1px">-20</text><text x="23.333333333333332" y="0" dx="0em" dy="0.95em" style="text-anchor: middle; visibility: inherit; font-family: &quot;Helvetica Neue&quot;, sans-serif; font-size: 12px; font-weight: 200;" fill="rgb(50, 49, 63)" stroke="none" stroke-width="1px">0</text><text x="46.666666666666664" y="0" dx="0em" dy="0.95em" style="text-anchor: middle; visibility: hidden; font-family: &quot;Helvetica Neue&quot;, sans-serif; font-size: 12px; font-weight: 200;" fill="rgb(50, 49, 63)" stroke="none" stroke-width="1px">20</text><text x="70" y="0" dx="0em" dy="0.95em" style="text-anchor: middle; visibility: inherit; font-family: &quot;Helvetica Neue&quot;, sans-serif; font-size: 12px; font-weight: 200;" fill="rgb(50, 49, 63)" stroke="none" stroke-width="1px">40</text><text x="93.33333333333333" y="0" dx="0em" dy="0.95em" style="text-anchor: middle; visibility: hidden; font-family: &quot;Helvetica Neue&quot;, sans-serif; font-size: 12px; font-weight: 200;" fill="rgb(50, 49, 63)" stroke="none" stroke-width="1px">60</text><text x="116.66666666666667" y="0" dx="0em" dy="0.95em" style="text-anchor: middle; visibility: inherit; font-family: &quot;Helvetica Neue&quot;, sans-serif; font-size: 12px; font-weight: 200;" fill="rgb(50, 49, 63)" stroke="none" stroke-width="1px">80</text><text x="140" y="0" dx="0em" dy="0.95em" style="text-anchor: middle; visibility: hidden; font-family: &quot;Helvetica Neue&quot;, sans-serif; font-size: 12px; font-weight: 200;" fill="rgb(50, 49, 63)" stroke="none" stroke-width="1px">100</text><text x="163.33333333333334" y="0" dx="0em" dy="0.95em" style="text-anchor: middle; visibility: inherit; font-family: &quot;Helvetica Neue&quot;, sans-serif; font-size: 12px; font-weight: 200;" fill="rgb(50, 49, 63)" stroke="none" stroke-width="1px">120</text><text x="186.66666666666666" y="0" dx="0em" dy="0.95em" style="text-anchor: middle; visibility: hidden; font-family: &quot;Helvetica Neue&quot;, sans-serif; font-size: 12px; font-weight: 200;" fill="rgb(50, 49, 63)" stroke="none" stroke-width="1px">140</text><text x="210" y="0" dx="0em" dy="0.95em" style="text-anchor: middle; visibility: inherit; font-family: &quot;Helvetica Neue&quot;, sans-serif; font-size: 12px; font-weight: 200;" fill="rgb(50, 49, 63)" stroke="none" stroke-width="1px">160</text><text x="233.33333333333334" y="0" dx="0em" dy="0.95em" style="text-anchor: middle; visibility: hidden; font-family: &quot;Helvetica Neue&quot;, sans-serif; font-size: 12px; font-weight: 200;" fill="rgb(50, 49, 63)" stroke="none" stroke-width="1px">180</text><text x="256.66666666666663" y="0" dx="0em" dy="0.95em" style="text-anchor: middle; visibility: inherit; font-family: &quot;Helvetica Neue&quot;, sans-serif; font-size: 12px; font-weight: 200;" fill="rgb(50, 49, 63)" stroke="none" stroke-width="1px">200</text><text x="280" y="0" dx="0em" dy="0.95em" style="text-anchor: middle; visibility: hidden; font-family: &quot;Helvetica Neue&quot;, sans-serif; font-size: 12px; font-weight: 200;" fill="rgb(50, 49, 63)" stroke="none" stroke-width="1px">220</text></g><line x1="0" y1="0" x2="280" y2="0" fill="rgb(0, 0, 0)" stroke="rgb(204, 204, 204)" stroke-width="1px"></line></g></g></g></g></svg>