<svg viewBox="0 0 330 200" xmlns="http://www.w3.org/2000/svg"><g><g><g><g><g><line x1="50" y1="178" x2="45" y2="178" style="visibility: inherit;" fill="rgb(0, 0, 0)" stroke="rgb(204, 204, 204)" stroke-width="1px"></line><line x1="50" y1="158.2222222222222" x2="45" y2="158.2222222222222" style="visibility: inherit;" fill="rgb(0, 0, 0)" stroke="rgb(204, 204, 204)" stroke-width="1px"></line><line x1="50" y1="138.44444444444443" x2="45" y2="138.44444444444443" style="visibility: inherit;" fill="rgb(0, 0, 0)" stroke="rgb(204, 204, 204)" stroke-width="1px"></line><line x1="50" y1="118.66666666666667" x2="45" y2="118.66666666666667" style="visibility: inherit;" fill="rgb(0, 0, 0)" stroke="rgb(204, 204, 204)" stroke-width="1px"></line><line x1="50" y1="98.88888888888887" x2="45" y2="98.88888888888887" style="visibility: inherit;" fill="rgb(0, 0, 0)" stroke="rgb(204, 204, 204)" stroke-width="1px"></line><line x1="50" y1="79.11111111111113" x2="45" y2="79.11111111111113" style="visibility: inherit;" fill="rgb(0, 0, 0)" stroke="rgb(204, 204, 204)" stroke-width="1px"></line><line x1="50" y1="59.33333333333334" x2="45" y2="59.33333333333334" style="visibility: inherit;" fill="rgb(0, 0, 0)" stroke="rgb(204, 204, 204)" stroke-width="1px"></line><line x1="50" y1="39.5555555555556" x2="45" y2="39.5555555555556" style="visibility: inherit;" fill="rgb(0, 0, 0)" stroke="rgb(204, 204, 204)" stroke-width="1px"></line><line x1="50" y1="19.7777777777778" x2="45" y2="19.7777777777778" style="visibility: inherit;" fill="rgb(0, 0, 0)" stroke="rgb(204, 204, 204)" stroke-width="1px"></line><line x1="50" y1="0" x2="45" y2="0" style="visibility: inherit;" fill="rgb(0, 0, 0)" stroke="rgb(204, 204, 204)" stroke-width="1px"></line></g><g transform="translate(40, 0)"><text x="0" y="178" dx="0em" dy="0.3em" style="text-anchor: end; visibility: hidden; font-family: &quot;Helvetica Neue&quot;, sans-serif; font-size: 12px; font-weight: 200;" fill="rgb(50, 49, 63)" stroke="none" stroke-width="1px">0.35</text><text x="0" y="158.2222222222222" dx="0em" dy="0.3em" style="text-anchor: end; visibility: inherit; font-family: &quot;Helvetica Neue&quot;, sans-serif; font-size: 12px; font-weight: 200;" fill="rgb(50, 49, 63)" stroke="none" stroke-width="1px">0.4</text><text x="0" y="138.44444444444443" dx="0em" dy="0.3em" style="text-anchor: end; visibility: hidden; font-family: &quot;Helvetica Neue&quot;, sans-serif; font-size: 12px; font-weight: 200;" fill="rgb(50, 49, 63)" stroke="none" stroke-width="1px">0.45</text><text x="0" y="118.66666666666667" dx="0em" dy="0.3em" style="text-anchor: end; visibility: inherit; font-family: &quot;Helvetica Neue&quot;, sans-serif; font-size: 12px; font-weight: 200;" fill="rgb(50, 49, 63)" stroke="none" stroke-width="1px">0.5</text><text x="0" y="98.88888888888887" dx="0em" dy="0.3em" style="text-anchor: end; visibility: hidden; font-family: &quot;Helvetica Neue&quot;, sans-serif; font-size: 12px; font-weight: 200;" fill="rgb(50, 49, 63)" stroke="none" stroke-width="1px">0.55</text><text x="0" y="79.11111111111113" dx="0em" dy="0.3em" style="text-anchor: end; visibility: inherit; font-family: &quot;Helvetica Neue&quot;, sans-serif; font-size: 12px; font-weight: 200;" fill="rgb(50, 49, 63)" stroke="none" stroke-width="1px">0.6</text><text x="0" y="59.33333333333334" dx="0em" dy="0.3em" style="text-anchor: end; visibility: hidden; font-family: &quot;Helvetica Neue&quot;, sans-serif; font-size: 12px; font-weight: 200;" fill="rgb(50, 49, 63)" stroke="none" stroke-width="1px">0.65</text><text x="0" y="39.5555555555556" dx="0em" dy="0.3em" style="text-anchor: end; visibility: inherit; font-family: &quot;Helvetica Neue&quot;, sans-serif; font-size: 12px; font-weight: 200;" fill="rgb(50, 49, 63)" stroke="none" stroke-width="1px">0.7</text><text x="0" y="19.7777777777778" dx="0em" dy="0.3em" style="text-anchor: end; visibility: hidden; font-family: &quot;Helvetica Neue&quot;, sans-serif; font-size: 12px; font-weight: 200;" fill="rgb(50, 49, 63)" stroke="none" stroke-width="1px">0.75</text><text x="0" y="0" dx="0em" dy="0.3em" style="text-anchor: end; visibility: hidden; font-family: &quot;Helvetica Neue&quot;, sans-serif; font-size: 12px; font-weight: 200;" fill="rgb(50, 49, 63)" stroke="none" stroke-width="1px">0.8</text></g><line x1="50" y1="0" x2="50" y2="178" fill="rgb(0, 0, 0)" stroke="rgb(204, 204, 204)" stroke-width="1px"></line></g></g><g transform="translate(50, 0)" clip-path="url(#clip_0)"><clipPath id="clip_0"><rect width="280" height="178"></rect></clipPath><g><g><g><line x1="0" y1="0" x2="0" y2="178" fill="rgb(0, 0, 0)" stroke="rgb(60, 60, 60)" stroke-width="1px" opacity="0.25"></line><line x1="23.333333333333332" y1="0" x2="23.333333333333332" y2="178" fill="rgb(0, 0, 0)" stroke="rgb(60, 60, 60)" stroke-width="1px" opacity="0.25"></line><line x1="46.666666666666664" y1="0" x2="46.666666666666664" y2="178" fill="rgb(0, 0, 0)" stroke="rgb(60, 60, 60)" stroke-width="1px" opacity="0.25"></line><line x1="70" y1="0" x2="70" y2="178" fill="rgb(0, 0, 0)" stroke="rgb(60, 60, 60)" stroke-width="1px" opacity="0.25"></line><line x1="93.33333333333333" y1="0" x2="93.33333333333333" y2="178" fill="rgb(0, 0, 0)" stroke="rgb(60, 60, 60)" stroke-width="1px" opacity="0.25"></line><line x1="116.66666666666667" y1="0" x2="116.66666666666667" y2="178" fill="rgb(0, 0, 0)" stroke="rgb(60, 60, 60)" stroke-width="1px" opacity="0.25"></line><line x1="140" y1="0" x2="140" y2="178" fill="rgb(0, 0, 0)" stroke="rgb(60, 60, 60)" stroke-width="1px" opacity="0.25"></line><line x1="163.33333333333334" y1="0" x2="163.33333333333334" y2="178" fill="rgb(0, 0, 0)" stroke="rgb(60, 60, 60)" stroke-width="1px" opacity="0.25"></line><line x1="186.66666666666666" y1="0" x2="186.66666666666666" y2="178" fill="rgb(0, 0, 0)" stroke="rgb(60, 60, 60)" stroke-width="1px" opacity="0.25"></line><line x1="210" y1="0" x2="210" y2="178" fill="rgb(0, 0, 0)" stroke="rgb(60, 60, 60)" stroke-width="1px" opacity="0.25"></line><line x1="233.33333333333334" y1="0" x2="233.33333333333334" y2="178" fill="rgb(0, 0, 0)" stroke="rgb(60, 60, 60)" stroke-width="1px" opacity="0.25"></line><line x1="256.66666666666663" y1="0" x2="256.66666666666663" y2="178" fill="rgb(0, 0, 0)" stroke="rgb(60, 60, 60)" stroke-width="1px" opacity="0.25"></line><line x1="280" y1="0" x2="280" y2="178" fill="rgb(0, 0, 0)" stroke="rgb(60, 60, 60)" stroke-width="1px" opacity="0.25"></line></g><g><line x1="0" y1="178" x2="280" y2="178" fill="rgb(0, 0, 0)" stroke="rgb(60, 60, 60)" stroke-width="1px" opacity="0.25"></line><line x1="0" y1="158.2222222222222" x2="280" y2="158.2222222222222" fill="rgb(0, 0, 0)" stroke="rgb(60, 60, 60)" stroke-width="1px" opacity="0.25"></line><line x1="0" y1="138.44444444444443" x2="280" y2="138.44444444444443" fill="rgb(0, 0, 0)" stroke="rgb(60, 60, 60)" stroke-width="1px" opacity="0.25"></line><line x1="0" y1="118.66666666666667" x2="280" y2="118.66666666666667" fill="rgb(0, 0, 0)" stroke="rgb(60, 60, 60)" stroke-width="1px" opacity="0.25"></line><line x1="0" y1="98.88888888888887" x2="280" y2="98.88888888888887" fill="rgb(0, 0, 0)" stroke="rgb(60, 60, 60)" stroke-width="1px" opacity="0.25"></line><line x1="0" y1="79.11111111111113" x2="280" y2="79.11111111111113" fill="rgb(0, 0, 0)" stroke="rgb(60, 60, 60)" stroke-width="1px" opacity="0.25"></line><line x1="0" y1="59.33333333333334" x2="280" y2="59.33333333333334" fill="rgb(0, 0, 0)" stroke="rgb(60, 60, 60)" stroke-width="1px" opacity="0.25"></line><line x1="0" y1="39.5555555555556" x2="280" y2="39.5555555555556" fill="rgb(0, 0, 0)" stroke="rgb(60, 60, 60)" stroke-width="1px" opacity="0.25"></line><line x1="0" y1="19.7777777777778" x2="280" y2="19.7777777777778" fill="rgb(0, 0, 0)" stroke="rgb(60, 60, 60)" stroke-width="1px" opacity="0.25"></line><line x1="0" y1="0" x2="280" y2="0" fill="rgb(0, 0, 0)" stroke="rgb(60, 60, 60)" stroke-width="1px" opacity="0.25"></line></g></g></g><g><g><line x1="0" y1="316.4444444444444" x2="280" y2="316.4444444444444" fill="rgb(0, 0, 0)" stroke="rgb(153, 153, 153)" stroke-width="1.5px"></line></g></g><g><g><line x1="23.333333333333332" y1="0" x2="23.333333333333332" y2="178" fill="rgb(0, 0, 0)" stroke="rgb(153, 153, 153)" stroke-width="1.5px"></line></g></g><g><g><g><g><g><path stroke="rgb(0, 119, 187)" stroke-width="2px" d="M26.833333333333336,184.72444274690415L28,173.64888832304212L29.166666666666668,164.551109790802L30.333333333333336,154.1348139974806L31.5,144.9051813814375L32.666666666666664,136.73036964734393L33.833333333333336,130.1377833419376L35,122.35852207077875L36.16666666666667,116.42518260743884L37.333333333333336,110.88740539550781L38.5,105.08592001597087L39.666666666666664,99.15259234110515L40.833333333333336,94.14223146438599L42,88.86813884311253L43.16666666666667,85.04445293214586L44.33333333333333,81.35258573955961L45.5,77.52889982859296L46.666666666666664,73.04593171013727L47.833333333333336,69.74963855743408L49,66.84889586766562L50.166666666666664,65.13480456670126L51.33333333333333,62.76147821214464L52.5,60.124443689982115L53.66666666666667,58.1466677983602L54.833333333333336,56.300734202067076L56,54.71850877337987L57.166666666666664,52.87259875403511L58.333333333333336,51.55408149295384L59.5,50.49924882253012L60.66666666666667,49.18073156144885L61.83333333333333,48.52147293090823L63,47.46666383743289L64.16666666666666,46.543697039286315L65.33333333333333,45.225179778205046L66.5,44.829629315270324L67.66666666666667,44.69778701994156L68.83333333333333,43.64295434951785L70,43.11556159125436L71.16666666666666,42.456302960713714L72.33333333333334,41.797044330173065L73.5,41.26962799496121L74.66666666666667,40.21481890148587L75.83333333333333,39.95111073387994L77,39.16000980801053L78.16666666666667,38.36888530519275L79.33333333333333,37.70962667465213L80.5,36.654817581176786L81.66666666666667,35.99555895063614L82.83333333333333,35.73185078303021L84,35.33630032009549L85.16666666666666,35.07259215248956L86.33333333333334,34.940749857160796L87.5,34.28149122662015L88.66666666666666,33.88591718673709L89.83333333333334,33.754074891408294L91,33.49036672380237L92.16666666666667,32.96297396553888L93.33333333333333,32.69926579793295L94.5,32.435557630327025L95.66666666666667,32.30371533499826L96.83333333333333,31.776298999786405L98,31.776298999786405L99.16666666666667,31.248882664574523L100.33333333333333,30.85333220163983L101.5,30.32591586642795L102.66666666666666,30.45778173870511L103.83333333333334,30.19407357109918L105,30.062231275770415L106.16666666666666,29.53481494055856L107.33333333333334,29.271106772952606L108.5,29.13926447762384L109.66666666666667,28.743714014689147L110.83333333333333,28.875556310017913L112,28.875556310017913L113.16666666666667,28.48000584708322L114.33333333333333,28.34813997480606L115.5,28.34813997480606L116.66666666666667,28.34813997480606L117.83333333333333,28.216297679477265L119,27.952589511871366L120.16666666666666,27.952589511871366L121.33333333333334,27.82074721654257L122.5,27.82074721654257L123.66666666666666,27.68888134426541L124.83333333333334,27.82074721654257L126,27.68888134426541L127.16666666666667,27.68888134426541L128.33333333333331,27.68888134426541L129.5,27.557039048936645L130.66666666666666,27.557039048936645L131.83333333333334,27.557039048936645L133,27.425196753607878L134.16666666666669,27.161488586001923L135.33333333333334,27.161488586001923L136.5,27.293330881330718L137.66666666666666,27.293330881330718L138.83333333333334,27.293330881330718L140,27.02962271372479L141.16666666666666,27.161488586001923L142.33333333333331,27.02962271372479L143.5,27.02962271372479L144.66666666666669,26.897780418396025L145.83333333333334,26.765914546118864L147,27.161488586001923L148.16666666666666,26.765914546118864L149.33333333333334,26.765914546118864L150.5,26.897780418396025L151.66666666666666,26.63407225079007L152.83333333333331,26.765914546118864L154,26.63407225079007L155.16666666666669,26.897780418396025L156.33333333333334,26.63407225079007L157.5,27.02962271372479L158.66666666666666,27.02962271372479L159.83333333333331,27.02962271372479L161,27.02962271372479L162.16666666666669,26.765914546118864L163.33333333333334,26.897780418396025L164.5,26.63407225079007L165.66666666666666,26.63407225079007L166.83333333333334,26.502229955461303L168,26.370364083184143L169.16666666666666,26.370364083184143L170.33333333333331,26.238521787855376L171.5,26.106655915578216L172.66666666666669,26.106655915578216L173.83333333333334,26.106655915578216L175,25.842971324920683L176.16666666666666,25.97481362024945L177.33333333333331,25.97481362024945L178.5,25.97481362024945L179.66666666666669,25.97481362024945L180.83333333333334,25.97481362024945L182,25.842971324920683L183.16666666666666,25.97481362024945L184.33333333333334,25.97481362024945L185.5,26.106655915578216L186.66666666666666,26.106655915578216L187.83333333333331,26.238521787855376L189,25.97481362024945L190.16666666666669,25.842971324920683L191.33333333333334,26.238521787855376L192.5,25.97481362024945L193.66666666666666,25.842971324920683L194.83333333333331,25.842971324920683L196,25.711105452643523L197.16666666666669,25.711105452643523L198.33333333333334,25.842971324920683L199.5,25.97481362024945L200.66666666666666,25.842971324920683L201.83333333333334,25.842971324920683L203,25.711105452643523L204.16666666666666,25.842971324920683L205.33333333333331,25.842971324920683L206.5,25.97481362024945L207.66666666666669,25.842971324920683L208.83333333333334,25.97481362024945L210,25.97481362024945L211.16666666666666,25.97481362024945L212.33333333333331,25.97481362024945L213.5,25.97481362024945L214.66666666666669,25.97481362024945L215.83333333333334,25.97481362024945L217,25.97481362024945L218.16666666666666,25.97481362024945L219.33333333333334,26.238521787855376L220.5,26.238521787855376L221.66666666666666,26.106655915578216L222.83333333333331,26.106655915578216L224,26.106655915578216L225.16666666666669,26.106655915578216L226.33333333333334,26.106655915578216L227.5,26.106655915578216L228.66666666666666,26.106655915578216L229.83333333333331,26.106655915578216L231,26.106655915578216L232.16666666666669,26.106655915578216L233.33333333333334,25.97481362024945L234.5,25.842971324920683L235.66666666666666,25.842971324920683L236.83333333333334,25.97481362024945L238,25.842971324920683L239.16666666666666,25.579263157314728L240.33333333333331,25.579263157314728L241.5,25.579263157314728L242.66666666666669,25.579263157314728L243.83333333333334,25.447397285037567L245,25.579263157314728L246.16666666666666,25.447397285037567L247.33333333333331,25.447397285037567L248.5,25.579263157314728L249.66666666666669,25.579263157314728L250.83333333333334,25.579263157314728L252,25.579263157314728L253.16666666666666,25.579263157314728L254.33333333333334,25.579263157314728L255.5,25.579263157314728" style="fill: none;" fill="none"></path></g><g><path stroke="rgb(255, 112, 67)" stroke-width="2px" d="M29.166666666666668,185.61556887626648L30.333333333333336,174.4753193060557L31.5,167.87710989846124L32.666666666666664,157.93374411265054L33.833333333333336,153.8827410538991L35,146.2103894551595L36.16666666666667,139.30527891053094L37.333333333333336,134.70186795128717L38.5,127.82745459344653L39.666666666666664,120.7688934803009L40.833333333333336,118.22167534298367L42,111.10174343321059L43.16666666666667,107.66453086005316L44.33333333333333,104.10455311669244L45.5,102.01766310797797L46.666666666666664,96.6163492732578L47.833333333333336,92.96430354648167L49,92.01292652553983L50.166666666666664,88.9746830728319L51.33333333333333,85.10782776938545L52.5,83.41990688112047L53.66666666666667,80.35096624162462L54.833333333333336,78.93924930360582L56,78.26407623291016L57.166666666666664,74.36652374267578L58.333333333333336,75.10306760999892L59.5,72.7706944147746L60.66666666666667,70.62243360943266L61.83333333333333,70.77587238947552L63,68.59691439734566L64.16666666666666,65.37453497780695L65.33333333333333,65.55867094463774L66.5,65.77350409825644L67.66666666666667,65.98833725187515L68.83333333333333,62.55112467871773L70,61.63044484456381L71.16666666666666,61.93732240464952L72.33333333333334,61.968019591437454L73.5,57.51805920071074L74.66666666666667,58.43873903486465L75.83333333333333,58.22390588124594L77,57.61012718412613L78.16666666666667,57.702195167541504L79.33333333333333,54.90945847829184L80.5,55.30842759874132L81.66666666666667,56.842886130015074L82.83333333333333,55.18566242853802L84,55.67669953240289L85.16666666666666,53.49774154027304L86.33333333333334,53.221537590026855L87.5,52.9760308265686L88.66666666666666,52.63843250274658L89.83333333333334,51.96328300899931L91,51.22673914167618L92.16666666666667,51.87121502558392L93.33333333333333,51.71775266859268L94.5,49.99915817048816L95.66666666666667,50.67433124118382L96.83333333333333,48.58744123246936L98,49.569515440199126L99.16666666666667,48.80227438608807L100.33333333333333,49.1398491329617L101.5,49.600189050038665L102.66666666666666,48.89434236950345L103.83333333333334,48.24986648559573L105,47.20642148123849L106.16666666666666,47.54399622811212L107.33333333333334,47.636064211527525L108.5,46.347112443712035L109.66666666666667,46.96091471778024L110.83333333333333,47.48262543148465L112,46.83814954757693L113.16666666666667,46.68471076753406L114.33333333333333,45.917469713423L115.5,46.25504446029666L116.66666666666667,45.242296642727325L117.83333333333333,44.567123572031676L119,45.27299382951526L120.16666666666666,43.61577012803821L121.33333333333334,44.10678365495471L122.5,43.73851172129315L123.66666666666666,44.9047218958537L124.83333333333334,43.30886899100412L126,43.400936974419494L127.16666666666667,44.47505558861627L128.33333333333331,42.57232512368097L129.5,44.96609269248117L130.66666666666666,43.61577012803821L131.83333333333334,42.23475037680734L133,42.87922626071506L134.16666666666669,43.37023978763156L135.33333333333334,43.15543021096124L136.5,42.97129424413046L137.66666666666666,42.75646109051175L138.83333333333334,41.958546426561156L140,42.75646109051175L141.16666666666666,42.57232512368097L142.33333333333331,42.26542398664688L143.5,42.63369592030844L144.66666666666669,42.23475037680734L145.83333333333334,41.46750932269626L147,40.73096545537314L148.16666666666666,42.173356003231476L149.33333333333334,41.03784301545886L150.5,42.357491970062284L151.66666666666666,41.252676169077574L152.83333333333331,40.63889747195773L154,40.48543511496652L155.16666666666669,42.05061440997653L156.33333333333334,41.252676169077574L157.5,40.70026826858523L158.66666666666666,40.48543511496652L159.83333333333331,39.53408167097305L161,40.70026826858523L162.16666666666669,40.11716318130496L163.33333333333334,40.393367131551116L164.5,39.38061931398181L165.66666666666666,40.85370704862808L166.83333333333334,40.331996334923645L168,40.025095197889556L169.16666666666666,40.05579238467746L170.33333333333331,39.840959231058775L171.5,39.93302721447415L172.66666666666669,39.44201368755765L173.83333333333334,40.5775030983819L175,40.5775030983819L176.16666666666666,39.34994570414227L177.33333333333331,39.34994570414227L178.5,39.07374175389609L179.66666666666669,39.81028562121921L180.83333333333334,39.07374175389609L182,38.705469820234526L183.16666666666666,38.49063666661581L184.33333333333334,38.98167377048068L185.5,37.84616078270807L186.66666666666666,39.04304456710818L187.83333333333331,38.58270465003122L189,38.2758035129971L190.16666666666669,39.04304456710818L191.33333333333334,38.337197886572966L192.5,38.552007463243285L193.66666666666666,39.04304456710818L194.83333333333331,38.24512990315756L196,37.631327629089384L197.16666666666669,38.09166754616632L198.33333333333334,39.19648334715103L199.5,37.66202481587729L200.66666666666666,37.815463595920136L201.83333333333334,37.50856245888605L203,38.521333853403746L204.16666666666666,38.06099393632678L205.33333333333331,38.337197886572966L206.5,37.96890237596301L207.66666666666669,38.183735529581725L208.83333333333334,36.67995060814752L210,37.29375288221573L211.16666666666666,37.38582086563113L212.33333333333331,38.30650069978503L213.5,37.17098771201242L214.66666666666669,36.31167867448596L215.83333333333334,37.17098771201242L217,37.72339561250476L218.16666666666666,36.25030787785849L219.33333333333334,36.55720901489261L220.5,37.140290525224486L221.66666666666666,36.772018591562926L222.83333333333331,37.78476640913223L224,36.43444384468927L225.16666666666669,35.483066823747436L226.33333333333334,36.710647794935454L227.5,36.772018591562926L228.66666666666666,36.98685174518161L229.83333333333331,36.55720901489261L231,35.421696027119964L232.16666666666669,36.035474724239776L233.33333333333334,37.47788884904651L234.5,37.23235850863986L235.66666666666666,37.17098771201242L236.83333333333334,37.447191662258575L238,36.40374665790134L239.16666666666666,37.69269842571683L240.33333333333331,36.64927699830798L241.5,36.219610691070585L242.66666666666669,35.0534240934584L243.83333333333334,34.99205329683093L245,36.342375861273894L246.16666666666666,36.92548094855417L247.33333333333331,37.078919728597015L248.5,35.54446119732327L249.66666666666669,36.00480111440024L250.83333333333334,35.69789997736615L252,35.39099884033206L253.16666666666666,37.01754893196954L254.33333333333334,37.32442649205527L255.5,36.8640865749783" style="fill: none;" fill="none"></path></g></g></g></g></g></g><g transform="translate(50, 178)" clip-path="url(#clip_1)"><clipPath id="clip_1"><rect width="280" height="22"></rect></clipPath><g><g><line x1="0" y1="0" x2="0" y2="5" style="visibility: inherit;" fill="rgb(0, 0, 0)" stroke="rgb(204, 204, 204)" stroke-width="1px"></line><line x1="23.333333333333332" y1="0" x2="23.333333333333332" y2="5" style="visibility: inherit;" fill="rgb(0, 0, 0)" stroke="rgb(204, 204, 204)" stroke-width="1px"></line><line x1="46.666666666666664" y1="0" x2="46.666666666666664" y2="5" style="visibility: inherit;" fill="rgb(0, 0, 0)" stroke="rgb(204, 204, 204)" stroke-width="1px"></line><line x1="70" y1="0" x2="70" y2="5" style="visibility: inherit;" fill="rgb(0, 0, 0)" stroke="rgb(204, 204, 204)" stroke-width="1px"></line><line x1="93.33333333333333" y1="0" x2="93.33333333333333" y2="5" style="visibility: inherit;" fill="rgb(0, 0, 0)" stroke="rgb(204, 204, 204)" stroke-width="1px"></line><line x1="116.66666666666667" y1="0" x2="116.66666666666667" y2="5" style="visibility: inherit;" fill="rgb(0, 0, 0)" stroke="rgb(204, 204, 204)" stroke-width="1px"></line><line x1="140" y1="0" x2="140" y2="5" style="visibility: inherit;" fill="rgb(0, 0, 0)" stroke="rgb(204, 204, 204)" stroke-width="1px"></line><line x1="163.33333333333334" y1="0" x2="163.33333333333334" y2="5" style="visibility: inherit;" fill="rgb(0, 0, 0)" stroke="rgb(204, 204, 204)" stroke-width="1px"></line><line x1="186.66666666666666" y1="0" x2="186.66666666666666" y2="5" style="visibility: inherit;" fill="rgb(0, 0, 0)" stroke="rgb(204, 204, 204)" stroke-width="1px"></line><line x1="210" y1="0" x2="210" y2="5" style="visibility: inherit;" fill="rgb(0, 0, 0)" stroke="rgb(204, 204, 204)" stroke-width="1px"></line><line x1="233.33333333333334" y1="0" x2="233.33333333333334" y2="5" style="visibility: inherit;" fill="rgb(0, 0, 0)" stroke="rgb(204, 204, 204)" stroke-width="1px"></line><line x1="256.66666666666663" y1="0" x2="256.66666666666663" y2="5" style="visibility: inherit;" fill="rgb(0, 0, 0)" stroke="rgb(204, 204, 204)" stroke-width="1px"></line><line x1="280" y1="0" x2="280" y2="5" style="visibility: inherit;" fill="rgb(0, 0, 0)" stroke="rgb(204, 204, 204)" stroke-width="1px"></line></g><g transform="translate(0, 8)"><text x="0" y="0" dx="0em" dy="0.95em" style="text-anchor: middle; visibility: hidden; font-family: &quot;Helvetica Neue&quot;, sans-serif; font-size: 12px; font-weight: 200;" fill="rgb(50, 49, 63)" stroke="none" stroke-width="1px">-20</text><text x="23.333333333333332" y="0" dx="0em" dy="0.95em" style="text-anchor: middle; visibility: inherit; font-family: &quot;Helvetica Neue&quot;, sans-serif; font-size: 12px; font-weight: 200;" fill="rgb(50, 49, 63)" stroke="none" stroke-width="1px">0</text><text x="46.666666666666664" y="0" dx="0em" dy="0.95em" style="text-anchor: middle; visibility: hidden; font-family: &quot;Helvetica Neue&quot;, sans-serif; font-size: 12px; font-weight: 200;" fill="rgb(50, 49, 63)" stroke="none" stroke-width="1px">20</text><text x="70" y="0" dx="0em" dy="0.95em" style="text-anchor: middle; visibility: inherit; font-family: &quot;Helvetica Neue&quot;, sans-serif; font-size: 12px; font-weight: 200;" fill="rgb(50, 49, 63)" stroke="none" stroke-width="1px">40</text><text x="93.33333333333333" y="0" dx="0em" dy="0.95em" style="text-anchor: middle; visibility: hidden; font-family: &quot;Helvetica Neue&quot;, sans-serif; font-size: 12px; font-weight: 200;" fill="rgb(50, 49, 63)" stroke="none" stroke-width="1px">60</text><text x="116.66666666666667" y="0" dx="0em" dy="0.95em" style="text-anchor: middle; visibility: inherit; font-family: &quot;Helvetica Neue&quot;, sans-serif; font-size: 12px; font-weight: 200;" fill="rgb(50, 49, 63)" stroke="none" stroke-width="1px">80</text><text x="140" y="0" dx="0em" dy="0.95em" style="text-anchor: middle; visibility: hidden; font-family: &quot;Helvetica Neue&quot;, sans-serif; font-size: 12px; font-weight: 200;" fill="rgb(50, 49, 63)" stroke="none" stroke-width="1px">100</text><text x="163.33333333333334" y="0" dx="0em" dy="0.95em" style="text-anchor: middle; visibility: inherit; font-family: &quot;Helvetica Neue&quot;, sans-serif; font-size: 12px; font-weight: 200;" fill="rgb(50, 49, 63)" stroke="none" stroke-width="1px">120</text><text x="186.66666666666666" y="0" dx="0em" dy="0.95em" style="text-anchor: middle; visibility: hidden; font-family: &quot;Helvetica Neue&quot;, sans-serif; font-size: 12px; font-weight: 200;" fill="rgb(50, 49, 63)" stroke="none" stroke-width="1px">140</text><text x="210" y="0" dx="0em" dy="0.95em" style="text-anchor: middle; visibility: inherit; font-family: &quot;Helvetica Neue&quot;, sans-serif; font-size: 12px; font-weight: 200;" fill="rgb(50, 49, 63)" stroke="none" stroke-width="1px">160</text><text x="233.33333333333334" y="0" dx="0em" dy="0.95em" style="text-anchor: middle; visibility: hidden; font-family: &quot;Helvetica Neue&quot;, sans-serif; font-size: 12px; font-weight: 200;" fill="rgb(50, 49, 63)" stroke="none" stroke-width="1px">180</text><text x="256.66666666666663" y="0" dx="0em" dy="0.95em" style="text-anchor: middle; visibility: inherit; font-family: &quot;Helvetica Neue&quot;, sans-serif; font-size: 12px; font-weight: 200;" fill="rgb(50, 49, 63)" stroke="none" stroke-width="1px">200</text><text x="280" y="0" dx="0em" dy="0.95em" style="text-anchor: middle; visibility: hidden; font-family: &quot;Helvetica Neue&quot;, sans-serif; font-size: 12px; font-weight: 200;" fill="rgb(50, 49, 63)" stroke="none" stroke-width="1px">220</text></g><line x1="0" y1="0" x2="280" y2="0" fill="rgb(0, 0, 0)" stroke="rgb(204, 204, 204)" stroke-width="1px"></line></g></g></g></g></svg>