<svg viewBox="0 0 330 200" xmlns="http://www.w3.org/2000/svg"><g><g><g><g><g><line x1="50" y1="178" x2="45" y2="178" style="visibility: inherit;" fill="rgb(0, 0, 0)" stroke="rgb(204, 204, 204)" stroke-width="1px"></line><line x1="50" y1="155.75" x2="45" y2="155.75" style="visibility: inherit;" fill="rgb(0, 0, 0)" stroke="rgb(204, 204, 204)" stroke-width="1px"></line><line x1="50" y1="133.5" x2="45" y2="133.5" style="visibility: inherit;" fill="rgb(0, 0, 0)" stroke="rgb(204, 204, 204)" stroke-width="1px"></line><line x1="50" y1="111.24999999999999" x2="45" y2="111.24999999999999" style="visibility: inherit;" fill="rgb(0, 0, 0)" stroke="rgb(204, 204, 204)" stroke-width="1px"></line><line x1="50" y1="88.99999999999999" x2="45" y2="88.99999999999999" style="visibility: inherit;" fill="rgb(0, 0, 0)" stroke="rgb(204, 204, 204)" stroke-width="1px"></line><line x1="50" y1="66.75" x2="45" y2="66.75" style="visibility: inherit;" fill="rgb(0, 0, 0)" stroke="rgb(204, 204, 204)" stroke-width="1px"></line><line x1="50" y1="44.5" x2="45" y2="44.5" style="visibility: inherit;" fill="rgb(0, 0, 0)" stroke="rgb(204, 204, 204)" stroke-width="1px"></line><line x1="50" y1="22.25" x2="45" y2="22.25" style="visibility: inherit;" fill="rgb(0, 0, 0)" stroke="rgb(204, 204, 204)" stroke-width="1px"></line><line x1="50" y1="0" x2="45" y2="0" style="visibility: inherit;" fill="rgb(0, 0, 0)" stroke="rgb(204, 204, 204)" stroke-width="1px"></line></g><g transform="translate(40, 0)"><text x="0" y="178" dx="0em" dy="0.3em" style="text-anchor: end; visibility: hidden; font-family: &quot;Helvetica Neue&quot;, sans-serif; font-size: 12px; font-weight: 200;" fill="rgb(50, 49, 63)" stroke="none" stroke-width="1px">-0.1</text><text x="0" y="155.75" dx="0em" dy="0.3em" style="text-anchor: end; visibility: inherit; font-family: &quot;Helvetica Neue&quot;, sans-serif; font-size: 12px; font-weight: 200;" fill="rgb(50, 49, 63)" stroke="none" stroke-width="1px">0</text><text x="0" y="133.5" dx="0em" dy="0.3em" style="text-anchor: end; visibility: hidden; font-family: &quot;Helvetica Neue&quot;, sans-serif; font-size: 12px; font-weight: 200;" fill="rgb(50, 49, 63)" stroke="none" stroke-width="1px">0.1</text><text x="0" y="111.24999999999999" dx="0em" dy="0.3em" style="text-anchor: end; visibility: inherit; font-family: &quot;Helvetica Neue&quot;, sans-serif; font-size: 12px; font-weight: 200;" fill="rgb(50, 49, 63)" stroke="none" stroke-width="1px">0.2</text><text x="0" y="88.99999999999999" dx="0em" dy="0.3em" style="text-anchor: end; visibility: hidden; font-family: &quot;Helvetica Neue&quot;, sans-serif; font-size: 12px; font-weight: 200;" fill="rgb(50, 49, 63)" stroke="none" stroke-width="1px">0.3</text><text x="0" y="66.75" dx="0em" dy="0.3em" style="text-anchor: end; visibility: inherit; font-family: &quot;Helvetica Neue&quot;, sans-serif; font-size: 12px; font-weight: 200;" fill="rgb(50, 49, 63)" stroke="none" stroke-width="1px">0.4</text><text x="0" y="44.5" dx="0em" dy="0.3em" style="text-anchor: end; visibility: hidden; font-family: &quot;Helvetica Neue&quot;, sans-serif; font-size: 12px; font-weight: 200;" fill="rgb(50, 49, 63)" stroke="none" stroke-width="1px">0.5</text><text x="0" y="22.25" dx="0em" dy="0.3em" style="text-anchor: end; visibility: inherit; font-family: &quot;Helvetica Neue&quot;, sans-serif; font-size: 12px; font-weight: 200;" fill="rgb(50, 49, 63)" stroke="none" stroke-width="1px">0.6</text><text x="0" y="0" dx="0em" dy="0.3em" style="text-anchor: end; visibility: hidden; font-family: &quot;Helvetica Neue&quot;, sans-serif; font-size: 12px; font-weight: 200;" fill="rgb(50, 49, 63)" stroke="none" stroke-width="1px">0.7</text></g><line x1="50" y1="0" x2="50" y2="178" fill="rgb(0, 0, 0)" stroke="rgb(204, 204, 204)" stroke-width="1px"></line></g></g><g transform="translate(50, 0)" clip-path="url(#clip_0)"><clipPath id="clip_0"><rect width="280" height="178"></rect></clipPath><g><g><g><line x1="0" y1="0" x2="0" y2="178" fill="rgb(0, 0, 0)" stroke="rgb(60, 60, 60)" stroke-width="1px" opacity="0.25"></line><line x1="23.333333333333332" y1="0" x2="23.333333333333332" y2="178" fill="rgb(0, 0, 0)" stroke="rgb(60, 60, 60)" stroke-width="1px" opacity="0.25"></line><line x1="46.666666666666664" y1="0" x2="46.666666666666664" y2="178" fill="rgb(0, 0, 0)" stroke="rgb(60, 60, 60)" stroke-width="1px" opacity="0.25"></line><line x1="70" y1="0" x2="70" y2="178" fill="rgb(0, 0, 0)" stroke="rgb(60, 60, 60)" stroke-width="1px" opacity="0.25"></line><line x1="93.33333333333333" y1="0" x2="93.33333333333333" y2="178" fill="rgb(0, 0, 0)" stroke="rgb(60, 60, 60)" stroke-width="1px" opacity="0.25"></line><line x1="116.66666666666667" y1="0" x2="116.66666666666667" y2="178" fill="rgb(0, 0, 0)" stroke="rgb(60, 60, 60)" stroke-width="1px" opacity="0.25"></line><line x1="140" y1="0" x2="140" y2="178" fill="rgb(0, 0, 0)" stroke="rgb(60, 60, 60)" stroke-width="1px" opacity="0.25"></line><line x1="163.33333333333334" y1="0" x2="163.33333333333334" y2="178" fill="rgb(0, 0, 0)" stroke="rgb(60, 60, 60)" stroke-width="1px" opacity="0.25"></line><line x1="186.66666666666666" y1="0" x2="186.66666666666666" y2="178" fill="rgb(0, 0, 0)" stroke="rgb(60, 60, 60)" stroke-width="1px" opacity="0.25"></line><line x1="210" y1="0" x2="210" y2="178" fill="rgb(0, 0, 0)" stroke="rgb(60, 60, 60)" stroke-width="1px" opacity="0.25"></line><line x1="233.33333333333334" y1="0" x2="233.33333333333334" y2="178" fill="rgb(0, 0, 0)" stroke="rgb(60, 60, 60)" stroke-width="1px" opacity="0.25"></line><line x1="256.66666666666663" y1="0" x2="256.66666666666663" y2="178" fill="rgb(0, 0, 0)" stroke="rgb(60, 60, 60)" stroke-width="1px" opacity="0.25"></line><line x1="280" y1="0" x2="280" y2="178" fill="rgb(0, 0, 0)" stroke="rgb(60, 60, 60)" stroke-width="1px" opacity="0.25"></line></g><g><line x1="0" y1="178" x2="280" y2="178" fill="rgb(0, 0, 0)" stroke="rgb(60, 60, 60)" stroke-width="1px" opacity="0.25"></line><line x1="0" y1="155.75" x2="280" y2="155.75" fill="rgb(0, 0, 0)" stroke="rgb(60, 60, 60)" stroke-width="1px" opacity="0.25"></line><line x1="0" y1="133.5" x2="280" y2="133.5" fill="rgb(0, 0, 0)" stroke="rgb(60, 60, 60)" stroke-width="1px" opacity="0.25"></line><line x1="0" y1="111.24999999999999" x2="280" y2="111.24999999999999" fill="rgb(0, 0, 0)" stroke="rgb(60, 60, 60)" stroke-width="1px" opacity="0.25"></line><line x1="0" y1="88.99999999999999" x2="280" y2="88.99999999999999" fill="rgb(0, 0, 0)" stroke="rgb(60, 60, 60)" stroke-width="1px" opacity="0.25"></line><line x1="0" y1="66.75" x2="280" y2="66.75" fill="rgb(0, 0, 0)" stroke="rgb(60, 60, 60)" stroke-width="1px" opacity="0.25"></line><line x1="0" y1="44.5" x2="280" y2="44.5" fill="rgb(0, 0, 0)" stroke="rgb(60, 60, 60)" stroke-width="1px" opacity="0.25"></line><line x1="0" y1="22.25" x2="280" y2="22.25" fill="rgb(0, 0, 0)" stroke="rgb(60, 60, 60)" stroke-width="1px" opacity="0.25"></line><line x1="0" y1="0" x2="280" y2="0" fill="rgb(0, 0, 0)" stroke="rgb(60, 60, 60)" stroke-width="1px" opacity="0.25"></line></g></g></g><g><g><line x1="0" y1="155.75" x2="280" y2="155.75" fill="rgb(0, 0, 0)" stroke="rgb(153, 153, 153)" stroke-width="1.5px"></line></g></g><g><g><line x1="23.333333333333332" y1="0" x2="23.333333333333332" y2="178" fill="rgb(0, 0, 0)" stroke="rgb(153, 153, 153)" stroke-width="1.5px"></line></g></g><g><g><g><g><g><path stroke="rgb(0, 119, 187)" stroke-width="2px" d="M23.333333333333332,107.09666532278061L24.5,106.7258323431015L25.666666666666664,106.28083475679159L26.833333333333336,106.20666683465242L28,106.20666683465242L29.166666666666668,106.13249891251326L30.333333333333336,105.90999846160412L31.5,105.83583385497332L32.666666666666664,105.39083295315504L33.833333333333336,104.94583205133677L35,104.57499907165766L36.16666666666667,104.35249862074852L37.333333333333336,103.98166564106941L38.5,103.38833221048117L39.666666666666664,103.2399996817112L40.833333333333336,102.79499877989292L42,102.49833372235298L43.16666666666667,101.6824998408556L44.33333333333333,100.49583297967911L45.5,99.67999909818172L46.666666666666664,98.78999729454517L47.833333333333336,98.49333223700523L49,98.1966671794653L50.166666666666664,97.60333043336868L51.33333333333333,97.0100003182888L52.5,96.56499941647053L53.66666666666667,96.11999851465225L54.833333333333336,95.89750137925148L56,94.93333165347576L57.166666666666664,93.96916855871677L58.333333333333336,93.15333467721939L59.5,92.18916495144367L60.66666666666667,91.67000275850296L61.83333333333333,91.37333106994629L63,90.70583303272724L64.16666666666666,89.96416707336903L65.33333333333333,89.44499824941158L66.5,88.77750021219254L67.66666666666667,88.11000217497349L68.83333333333333,87.44249750673771L70,86.62666362524033L71.16666666666666,85.95916558802128L72.33333333333334,85.21749962866306L73.5,84.62416951358318L74.66666666666667,83.88249692320824L75.83333333333333,83.28916680812836L77,82.2508357912302L78.16666666666667,81.73166696727276L79.33333333333333,80.91583308577538L80.5,80.3225029706955L81.66666666666667,79.50666908919811L82.83333333333333,78.7650031298399L84,78.02333053946495L85.16666666666666,77.2075032889843L86.33333333333334,76.61416654288769L87.5,75.94666850566864L88.66666666666666,75.13083462417126L89.83333333333334,74.53749787807465L91,73.64750270545483L92.16666666666667,73.20250180363655L93.33333333333333,72.83166882395744L94.5,72.60916505753994L95.66666666666667,72.01583494246006L96.83333333333333,71.34833027422428L98,70.68083223700523L99.16666666666667,69.86499835550785L100.33333333333333,69.49416537582874L101.5,68.8266673386097L102.66666666666666,68.67833149433136L103.83333333333334,68.30749851465225L105,67.6400004774332L106.16666666666666,67.2691674977541L107.33333333333334,66.52750153839588L108.5,65.78583557903767L109.66666666666667,64.97000169754028L110.83333333333333,64.3024970293045L112,63.9316640496254L113.16666666666667,63.18999809026718L114.33333333333333,62.819165110588074L115.5,62.00333122909069L116.66666666666667,61.48416903614998L117.83333333333333,61.11333605647087L119,60.89083229005337L120.16666666666666,60.29750217497349L121.33333333333334,60.00083048641682L122.5,59.110835313797L123.66666666666666,58.74000233411789L124.83333333333334,58.295001432299614L126,57.998336374759674L127.16666666666667,57.330831706523895L128.33333333333331,56.66333366930485L129.5,56.29250068962574L130.66666666666666,55.9958356320858L131.83333333333334,55.40249888598919L133,55.03166590631008L134.16666666666669,54.51249708235264L135.33333333333334,54.289999946951866L136.5,53.993334889411926L137.66666666666666,53.54833398759365L138.83333333333334,53.25166893005371L140,52.36166712641716L141.16666666666666,51.99083414673805L142.33333333333331,51.17500026524067L143.5,50.87833520770073L144.66666666666669,50.729999363422394L145.83333333333334,49.98833340406418L147,49.765836268663406L148.16666666666666,49.32083536684513L149.33333333333334,48.875834465026855L150.5,48.43083356320858L151.66666666666666,48.20833642780781L152.83333333333331,47.689167603850365L154,47.24416670203209L155.16666666666669,46.87333372235298L156.33333333333334,46.502500742673874L157.5,46.131667762994766L158.66666666666666,45.90916399657726L159.83333333333331,45.16749803721905L161,44.72249713540077L162.16666666666669,44.055005729198456L163.33333333333334,43.31333976984024L164.5,43.165003925561905L165.66666666666666,42.868332237005234L166.83333333333334,42.57166054844856L168,42.12666627764702L169.16666666666666,41.45916160941124L170.33333333333331,41.23666447401047L171.5,41.014167338609695L172.66666666666669,40.717495650053024L173.83333333333334,40.05000424385071L175,39.456660866737366L176.16666666666666,39.16000244021416L177.33333333333331,38.78916946053505L178.5,38.71499490737915L179.66666666666669,38.34416192770004L180.83333333333334,37.8991676568985L182,37.676670521497726L183.16666666666666,37.379998832941055L184.33333333333334,36.86083000898361L185.5,36.5641715824604L186.66666666666666,36.5641715824604L187.83333333333331,36.26749989390373L189,36.1191640496254L190.16666666666669,35.896666914224625L191.33333333333334,35.67416977882385L192.5,35.52583393454552L193.66666666666666,35.229162245988846L194.83333333333331,34.7841679751873L196,34.7841679751873L197.16666666666669,34.413334995508194L198.33333333333334,34.413334995508194L199.5,33.89416617155075L200.66666666666666,33.44917190074921L201.83333333333334,32.93000307679176L203,32.70750594139099L204.16666666666666,32.63333138823509L205.33333333333331,32.41083425283432L206.5,31.81750413775444L207.66666666666669,31.298335313796997L208.83333333333334,31.001663625240326L210,30.85332778096199L211.16666666666666,30.85332778096199L212.33333333333331,30.408333510160446L213.5,30.111661821603775L214.66666666666669,29.889164686203003L215.83333333333334,29.592506259679794L217,29.221673280000687L218.16666666666666,28.999162882566452L219.33333333333334,29.07333743572235L220.5,28.925001591444016L221.66666666666666,28.628329902887344L222.83333333333331,28.331671476364136L224,28.257496923208237L225.16666666666669,28.1833356320858L226.33333333333334,27.960838496685028L227.5,27.219172537326813L228.66666666666666,27.219172537326813L229.83333333333331,27.070836693048477L231,26.774165004491806L232.16666666666669,26.329170733690262L233.33333333333334,26.180834889411926L234.5,26.106660336256027L235.66666666666666,26.03249904513359L236.83333333333334,25.884163200855255L238,25.587504774332047L239.16666666666666,25.364994376897812L240.33333333333331,25.21667179465294L241.5,24.771664261817932L242.66666666666669,24.771664261817932L243.83333333333334,24.25249543786049L245,23.88166245818138L246.16666666666666,23.733339875936508L247.33333333333331,23.510829478502274L248.5,23.436668187379837L249.66666666666669,23.214171051979065L250.83333333333334,23.214171051979065L252,22.99166065454483L253.16666666666666,22.99166065454483L254.33333333333334,22.843338072299957L255.5,22.76916351914406" style="fill: none;" fill="none"></path></g><g><path stroke="rgb(255, 112, 67)" stroke-width="2px" d="M23.333333333333332,105.89508530497551L24.5,105.42899113893509L25.666666666666664,105.34267519414425L26.833333333333336,104.65216421335936L28,105.63614410161972L29.166666666666668,104.6003759726882L30.333333333333336,103.46103136241436L31.5,103.4092431217432L32.666666666666664,103.34019434452057L33.833333333333336,103.32293049246073L35,102.59789512306452L36.16666666666667,103.39198258519173L37.333333333333336,102.40800269693136L38.5,101.14782106876373L39.666666666666664,102.30442621558905L40.833333333333336,101.66570347547531L42,100.9406681060791L43.16666666666667,101.70022786408663L44.33333333333333,99.6804831624031L45.5,99.54237897694111L46.666666666666664,99.21438899636269L47.833333333333336,99.36975371837616L49,98.16135701537132L50.166666666666664,98.07504770159721L51.33333333333333,97.59168636798859L52.5,96.55592155456543L53.66666666666667,96.29698035120964L54.833333333333336,96.12434846162796L56,95.62372659146786L57.166666666666664,93.88018694519997L58.333333333333336,94.32902057468891L59.5,93.93197518587112L60.66666666666667,93.75934992730618L61.83333333333333,91.67055313289165L63,92.1021195948124L64.16666666666666,90.89372952282429L65.33333333333333,90.32405224442482L66.5,90.41036818921566L67.66666666666667,89.90974631905556L68.83333333333333,87.18223010003567L70,87.66558480262756L71.16666666666666,87.35485535860062L72.33333333333334,86.2673023045063L73.5,85.87025691568851L74.66666666666667,85.23153749108315L75.83333333333333,84.67912738025188L77,84.4201861768961L78.16666666666667,82.97010880708694L79.33333333333333,81.70992386341095L80.5,82.69390706717968L81.66666666666667,82.1760246604681L82.83333333333333,80.39795731008053L84,80.12174893915653L85.16666666666666,80.1908043473959L86.33333333333334,79.10324466228485L87.5,78.5681017190218L88.66666666666666,78.58536225557327L89.83333333333334,75.97868305444717L91,75.65069307386875L92.16666666666667,77.98116390407085L93.33333333333333,76.04773183166981L94.5,75.77153009176254L95.66666666666667,74.7012375742197L96.83333333333333,74.16608799993992L98,73.95893503725529L99.16666666666667,73.87262572348118L100.33333333333333,72.37076011300087L101.5,71.74930122494698L102.66666666666666,71.76656176149845L103.83333333333334,71.92192648351192L105,70.23017507791519L106.16666666666666,70.5926927626133L107.33333333333334,70.86890113353729L108.5,69.17714972794056L109.66666666666667,68.52116313576698L110.83333333333333,68.10685721039772L112,67.96875302493572L113.16666666666667,66.98477645218372L114.33333333333333,65.89721676707268L115.5,66.5014151185751L116.66666666666667,65.50017137825489L117.83333333333333,64.7578754723072L119,64.32630237936974L120.16666666666666,64.01557293534279L121.33333333333334,63.221488788723946L122.5,63.96378469467163L123.66666666666666,64.08462834358215L124.83333333333334,63.35958634316921L126,60.97732727229595L127.16666666666667,61.63331386446953L128.33333333333331,61.046376049518585L129.5,61.63331386446953L130.66666666666666,59.90703475475311L131.83333333333334,59.941555827856064L133,59.09568344056606L134.16666666666669,58.836742237210274L135.33333333333334,59.1819993853569L136.5,57.78371025621891L137.66666666666666,58.784953996539116L138.83333333333334,57.62834553420544L140,57.14499083161354L141.16666666666666,56.85152192413807L142.33333333333331,57.28308838605881L143.5,55.64312522113323L144.66666666666669,55.60859751701355L145.83333333333334,54.55557216703892L147,56.0746983140707L148.16666666666666,55.38418401777744L149.33333333333334,53.51980072259903L150.5,54.50378392636776L151.66666666666666,53.00191831588745L152.83333333333331,52.36319889128208L154,53.070973724126816L155.16666666666669,51.94889296591282L156.33333333333334,53.43349140882492L157.5,51.48279216885567L158.66666666666666,51.2065904289484L159.83333333333331,50.96490976214409L161,50.06724913418293L162.16666666666669,50.343450874090195L163.33333333333334,47.94392463564873L164.5,50.15355844795704L165.66666666666666,49.825568467378616L166.83333333333334,50.11903737485409L168,49.0832659304142L169.16666666666666,48.91064067184925L170.33333333333331,47.20162872970104L171.5,47.71951113641262L172.66666666666669,47.37425398826599L173.83333333333334,47.49509100615978L175,47.14983385801315L176.16666666666666,47.47783046960831L177.33333333333331,46.66647915542126L178.5,44.78483532369137L179.66666666666669,45.647974878549576L180.83333333333334,45.906916081905365L182,45.50987069308758L183.16666666666666,45.02651599049568L184.33333333333334,45.50987069308758L185.5,44.750307619571686L186.66666666666666,43.92169576883316L187.83333333333331,44.61221006512642L189,43.11035108566284L190.16666666666669,43.386546194553375L191.33333333333334,43.559178084135056L192.5,42.368048548698425L193.66666666666666,42.402569621801376L194.83333333333331,42.885930955410004L196,42.8686637878418L197.16666666666669,41.004287123680115L198.33333333333334,41.79837790131569L199.5,40.76261308789253L200.66666666666666,41.729322493076324L201.83333333333334,40.745345920324326L203,40.40009540319443L204.16666666666666,40.58998119831085L205.33333333333331,39.208952605724335L206.5,39.640525698661804L207.66666666666669,39.813157588243484L208.83333333333334,39.51968204975128L210,38.43212899565697L211.16666666666666,38.622028052806854L212.33333333333331,39.32979625463486L213.5,38.017823070287704L214.66666666666669,37.292787700891495L215.83333333333334,38.50118440389633L217,37.89697942137718L218.16666666666666,36.58501949906349L219.33333333333334,38.276764273643494L220.5,38.08687847852707L221.66666666666666,37.327308773994446L222.83333333333331,35.77366155385971L224,36.774905294179916L225.16666666666669,35.89450520277023L226.33333333333334,36.70584988594055L227.5,35.635563999414444L228.66666666666666,36.18796747922897L229.83333333333331,36.34333220124245L231,34.23728150129318L232.16666666666669,35.27304631471634L233.33333333333334,35.80818262696266L234.5,34.25453540682793L235.66666666666666,34.858740389347076L236.83333333333334,34.15095892548561L238,34.220014333724976L239.16666666666666,34.012861371040344L240.33333333333331,34.686108499765396L241.5,33.80570840835571L242.66666666666669,33.46044462919235L243.83333333333334,32.0794292986393L245,33.30507990717888L246.16666666666666,33.063405871391296L247.33333333333331,32.28658226132393L248.5,31.906797409057617L249.66666666666669,32.821731835603714L250.83333333333334,32.217526853084564L252,32.37289157509804L253.16666666666666,31.958585649728775L254.33333333333334,31.492491483688354L255.5,31.906797409057617" style="fill: none;" fill="none"></path></g></g></g></g></g></g><g transform="translate(50, 178)" clip-path="url(#clip_1)"><clipPath id="clip_1"><rect width="280" height="22"></rect></clipPath><g><g><line x1="0" y1="0" x2="0" y2="5" style="visibility: inherit;" fill="rgb(0, 0, 0)" stroke="rgb(204, 204, 204)" stroke-width="1px"></line><line x1="23.333333333333332" y1="0" x2="23.333333333333332" y2="5" style="visibility: inherit;" fill="rgb(0, 0, 0)" stroke="rgb(204, 204, 204)" stroke-width="1px"></line><line x1="46.666666666666664" y1="0" x2="46.666666666666664" y2="5" style="visibility: inherit;" fill="rgb(0, 0, 0)" stroke="rgb(204, 204, 204)" stroke-width="1px"></line><line x1="70" y1="0" x2="70" y2="5" style="visibility: inherit;" fill="rgb(0, 0, 0)" stroke="rgb(204, 204, 204)" stroke-width="1px"></line><line x1="93.33333333333333" y1="0" x2="93.33333333333333" y2="5" style="visibility: inherit;" fill="rgb(0, 0, 0)" stroke="rgb(204, 204, 204)" stroke-width="1px"></line><line x1="116.66666666666667" y1="0" x2="116.66666666666667" y2="5" style="visibility: inherit;" fill="rgb(0, 0, 0)" stroke="rgb(204, 204, 204)" stroke-width="1px"></line><line x1="140" y1="0" x2="140" y2="5" style="visibility: inherit;" fill="rgb(0, 0, 0)" stroke="rgb(204, 204, 204)" stroke-width="1px"></line><line x1="163.33333333333334" y1="0" x2="163.33333333333334" y2="5" style="visibility: inherit;" fill="rgb(0, 0, 0)" stroke="rgb(204, 204, 204)" stroke-width="1px"></line><line x1="186.66666666666666" y1="0" x2="186.66666666666666" y2="5" style="visibility: inherit;" fill="rgb(0, 0, 0)" stroke="rgb(204, 204, 204)" stroke-width="1px"></line><line x1="210" y1="0" x2="210" y2="5" style="visibility: inherit;" fill="rgb(0, 0, 0)" stroke="rgb(204, 204, 204)" stroke-width="1px"></line><line x1="233.33333333333334" y1="0" x2="233.33333333333334" y2="5" style="visibility: inherit;" fill="rgb(0, 0, 0)" stroke="rgb(204, 204, 204)" stroke-width="1px"></line><line x1="256.66666666666663" y1="0" x2="256.66666666666663" y2="5" style="visibility: inherit;" fill="rgb(0, 0, 0)" stroke="rgb(204, 204, 204)" stroke-width="1px"></line><line x1="280" y1="0" x2="280" y2="5" style="visibility: inherit;" fill="rgb(0, 0, 0)" stroke="rgb(204, 204, 204)" stroke-width="1px"></line></g><g transform="translate(0, 8)"><text x="0" y="0" dx="0em" dy="0.95em" style="text-anchor: middle; visibility: hidden; font-family: &quot;Helvetica Neue&quot;, sans-serif; font-size: 12px; font-weight: 200;" fill="rgb(50, 49, 63)" stroke="none" stroke-width="1px">-20</text><text x="23.333333333333332" y="0" dx="0em" dy="0.95em" style="text-anchor: middle; visibility: inherit; font-family: &quot;Helvetica Neue&quot;, sans-serif; font-size: 12px; font-weight: 200;" fill="rgb(50, 49, 63)" stroke="none" stroke-width="1px">0</text><text x="46.666666666666664" y="0" dx="0em" dy="0.95em" style="text-anchor: middle; visibility: hidden; font-family: &quot;Helvetica Neue&quot;, sans-serif; font-size: 12px; font-weight: 200;" fill="rgb(50, 49, 63)" stroke="none" stroke-width="1px">20</text><text x="70" y="0" dx="0em" dy="0.95em" style="text-anchor: middle; visibility: inherit; font-family: &quot;Helvetica Neue&quot;, sans-serif; font-size: 12px; font-weight: 200;" fill="rgb(50, 49, 63)" stroke="none" stroke-width="1px">40</text><text x="93.33333333333333" y="0" dx="0em" dy="0.95em" style="text-anchor: middle; visibility: hidden; font-family: &quot;Helvetica Neue&quot;, sans-serif; font-size: 12px; font-weight: 200;" fill="rgb(50, 49, 63)" stroke="none" stroke-width="1px">60</text><text x="116.66666666666667" y="0" dx="0em" dy="0.95em" style="text-anchor: middle; visibility: inherit; font-family: &quot;Helvetica Neue&quot;, sans-serif; font-size: 12px; font-weight: 200;" fill="rgb(50, 49, 63)" stroke="none" stroke-width="1px">80</text><text x="140" y="0" dx="0em" dy="0.95em" style="text-anchor: middle; visibility: hidden; font-family: &quot;Helvetica Neue&quot;, sans-serif; font-size: 12px; font-weight: 200;" fill="rgb(50, 49, 63)" stroke="none" stroke-width="1px">100</text><text x="163.33333333333334" y="0" dx="0em" dy="0.95em" style="text-anchor: middle; visibility: inherit; font-family: &quot;Helvetica Neue&quot;, sans-serif; font-size: 12px; font-weight: 200;" fill="rgb(50, 49, 63)" stroke="none" stroke-width="1px">120</text><text x="186.66666666666666" y="0" dx="0em" dy="0.95em" style="text-anchor: middle; visibility: hidden; font-family: &quot;Helvetica Neue&quot;, sans-serif; font-size: 12px; font-weight: 200;" fill="rgb(50, 49, 63)" stroke="none" stroke-width="1px">140</text><text x="210" y="0" dx="0em" dy="0.95em" style="text-anchor: middle; visibility: inherit; font-family: &quot;Helvetica Neue&quot;, sans-serif; font-size: 12px; font-weight: 200;" fill="rgb(50, 49, 63)" stroke="none" stroke-width="1px">160</text><text x="233.33333333333334" y="0" dx="0em" dy="0.95em" style="text-anchor: middle; visibility: hidden; font-family: &quot;Helvetica Neue&quot;, sans-serif; font-size: 12px; font-weight: 200;" fill="rgb(50, 49, 63)" stroke="none" stroke-width="1px">180</text><text x="256.66666666666663" y="0" dx="0em" dy="0.95em" style="text-anchor: middle; visibility: inherit; font-family: &quot;Helvetica Neue&quot;, sans-serif; font-size: 12px; font-weight: 200;" fill="rgb(50, 49, 63)" stroke="none" stroke-width="1px">200</text><text x="280" y="0" dx="0em" dy="0.95em" style="text-anchor: middle; visibility: hidden; font-family: &quot;Helvetica Neue&quot;, sans-serif; font-size: 12px; font-weight: 200;" fill="rgb(50, 49, 63)" stroke="none" stroke-width="1px">220</text></g><line x1="0" y1="0" x2="280" y2="0" fill="rgb(0, 0, 0)" stroke="rgb(204, 204, 204)" stroke-width="1px"></line></g></g></g></g></svg>