<svg viewBox="0 0 330 200" xmlns="http://www.w3.org/2000/svg"><g><g><g><g><g><line x1="50" y1="178" x2="45" y2="178" style="visibility: inherit;" fill="rgb(0, 0, 0)" stroke="rgb(204, 204, 204)" stroke-width="1px"></line><line x1="50" y1="165.28571428571428" x2="45" y2="165.28571428571428" style="visibility: inherit;" fill="rgb(0, 0, 0)" stroke="rgb(204, 204, 204)" stroke-width="1px"></line><line x1="50" y1="152.57142857142858" x2="45" y2="152.57142857142858" style="visibility: inherit;" fill="rgb(0, 0, 0)" stroke="rgb(204, 204, 204)" stroke-width="1px"></line><line x1="50" y1="139.85714285714286" x2="45" y2="139.85714285714286" style="visibility: inherit;" fill="rgb(0, 0, 0)" stroke="rgb(204, 204, 204)" stroke-width="1px"></line><line x1="50" y1="127.14285714285714" x2="45" y2="127.14285714285714" style="visibility: inherit;" fill="rgb(0, 0, 0)" stroke="rgb(204, 204, 204)" stroke-width="1px"></line><line x1="50" y1="114.42857142857144" x2="45" y2="114.42857142857144" style="visibility: inherit;" fill="rgb(0, 0, 0)" stroke="rgb(204, 204, 204)" stroke-width="1px"></line><line x1="50" y1="101.71428571428572" x2="45" y2="101.71428571428572" style="visibility: inherit;" fill="rgb(0, 0, 0)" stroke="rgb(204, 204, 204)" stroke-width="1px"></line><line x1="50" y1="89" x2="45" y2="89" style="visibility: inherit;" fill="rgb(0, 0, 0)" stroke="rgb(204, 204, 204)" stroke-width="1px"></line><line x1="50" y1="76.2857142857143" x2="45" y2="76.2857142857143" style="visibility: inherit;" fill="rgb(0, 0, 0)" stroke="rgb(204, 204, 204)" stroke-width="1px"></line><line x1="50" y1="63.571428571428584" x2="45" y2="63.571428571428584" style="visibility: inherit;" fill="rgb(0, 0, 0)" stroke="rgb(204, 204, 204)" stroke-width="1px"></line><line x1="50" y1="50.85714285714286" x2="45" y2="50.85714285714286" style="visibility: inherit;" fill="rgb(0, 0, 0)" stroke="rgb(204, 204, 204)" stroke-width="1px"></line><line x1="50" y1="38.14285714285717" x2="45" y2="38.14285714285717" style="visibility: inherit;" fill="rgb(0, 0, 0)" stroke="rgb(204, 204, 204)" stroke-width="1px"></line><line x1="50" y1="25.428571428571445" x2="45" y2="25.428571428571445" style="visibility: inherit;" fill="rgb(0, 0, 0)" stroke="rgb(204, 204, 204)" stroke-width="1px"></line><line x1="50" y1="12.714285714285722" x2="45" y2="12.714285714285722" style="visibility: inherit;" fill="rgb(0, 0, 0)" stroke="rgb(204, 204, 204)" stroke-width="1px"></line><line x1="50" y1="0" x2="45" y2="0" style="visibility: inherit;" fill="rgb(0, 0, 0)" stroke="rgb(204, 204, 204)" stroke-width="1px"></line></g><g transform="translate(40, 0)"><text x="0" y="178" dx="0em" dy="0.3em" style="text-anchor: end; visibility: hidden; font-family: &quot;Helvetica Neue&quot;, sans-serif; font-size: 12px; font-weight: 200;" fill="rgb(50, 49, 63)" stroke="none" stroke-width="1px">0.13</text><text x="0" y="165.28571428571428" dx="0em" dy="0.3em" style="text-anchor: end; visibility: inherit; font-family: &quot;Helvetica Neue&quot;, sans-serif; font-size: 12px; font-weight: 200;" fill="rgb(50, 49, 63)" stroke="none" stroke-width="1px">0.14</text><text x="0" y="152.57142857142858" dx="0em" dy="0.3em" style="text-anchor: end; visibility: hidden; font-family: &quot;Helvetica Neue&quot;, sans-serif; font-size: 12px; font-weight: 200;" fill="rgb(50, 49, 63)" stroke="none" stroke-width="1px">0.15</text><text x="0" y="139.85714285714286" dx="0em" dy="0.3em" style="text-anchor: end; visibility: inherit; font-family: &quot;Helvetica Neue&quot;, sans-serif; font-size: 12px; font-weight: 200;" fill="rgb(50, 49, 63)" stroke="none" stroke-width="1px">0.16</text><text x="0" y="127.14285714285714" dx="0em" dy="0.3em" style="text-anchor: end; visibility: hidden; font-family: &quot;Helvetica Neue&quot;, sans-serif; font-size: 12px; font-weight: 200;" fill="rgb(50, 49, 63)" stroke="none" stroke-width="1px">0.17</text><text x="0" y="114.42857142857144" dx="0em" dy="0.3em" style="text-anchor: end; visibility: inherit; font-family: &quot;Helvetica Neue&quot;, sans-serif; font-size: 12px; font-weight: 200;" fill="rgb(50, 49, 63)" stroke="none" stroke-width="1px">0.18</text><text x="0" y="101.71428571428572" dx="0em" dy="0.3em" style="text-anchor: end; visibility: hidden; font-family: &quot;Helvetica Neue&quot;, sans-serif; font-size: 12px; font-weight: 200;" fill="rgb(50, 49, 63)" stroke="none" stroke-width="1px">0.19</text><text x="0" y="89" dx="0em" dy="0.3em" style="text-anchor: end; visibility: inherit; font-family: &quot;Helvetica Neue&quot;, sans-serif; font-size: 12px; font-weight: 200;" fill="rgb(50, 49, 63)" stroke="none" stroke-width="1px">0.2</text><text x="0" y="76.2857142857143" dx="0em" dy="0.3em" style="text-anchor: end; visibility: hidden; font-family: &quot;Helvetica Neue&quot;, sans-serif; font-size: 12px; font-weight: 200;" fill="rgb(50, 49, 63)" stroke="none" stroke-width="1px">0.21</text><text x="0" y="63.571428571428584" dx="0em" dy="0.3em" style="text-anchor: end; visibility: inherit; font-family: &quot;Helvetica Neue&quot;, sans-serif; font-size: 12px; font-weight: 200;" fill="rgb(50, 49, 63)" stroke="none" stroke-width="1px">0.22</text><text x="0" y="50.85714285714286" dx="0em" dy="0.3em" style="text-anchor: end; visibility: hidden; font-family: &quot;Helvetica Neue&quot;, sans-serif; font-size: 12px; font-weight: 200;" fill="rgb(50, 49, 63)" stroke="none" stroke-width="1px">0.23</text><text x="0" y="38.14285714285717" dx="0em" dy="0.3em" style="text-anchor: end; visibility: inherit; font-family: &quot;Helvetica Neue&quot;, sans-serif; font-size: 12px; font-weight: 200;" fill="rgb(50, 49, 63)" stroke="none" stroke-width="1px">0.24</text><text x="0" y="25.428571428571445" dx="0em" dy="0.3em" style="text-anchor: end; visibility: hidden; font-family: &quot;Helvetica Neue&quot;, sans-serif; font-size: 12px; font-weight: 200;" fill="rgb(50, 49, 63)" stroke="none" stroke-width="1px">0.25</text><text x="0" y="12.714285714285722" dx="0em" dy="0.3em" style="text-anchor: end; visibility: inherit; font-family: &quot;Helvetica Neue&quot;, sans-serif; font-size: 12px; font-weight: 200;" fill="rgb(50, 49, 63)" stroke="none" stroke-width="1px">0.26</text><text x="0" y="0" dx="0em" dy="0.3em" style="text-anchor: end; visibility: hidden; font-family: &quot;Helvetica Neue&quot;, sans-serif; font-size: 12px; font-weight: 200;" fill="rgb(50, 49, 63)" stroke="none" stroke-width="1px">0.27</text></g><line x1="50" y1="0" x2="50" y2="178" fill="rgb(0, 0, 0)" stroke="rgb(204, 204, 204)" stroke-width="1px"></line></g></g><g transform="translate(50, 0)" clip-path="url(#clip_0)"><clipPath id="clip_0"><rect width="280" height="178"></rect></clipPath><g><g><g><line x1="0" y1="0" x2="0" y2="178" fill="rgb(0, 0, 0)" stroke="rgb(60, 60, 60)" stroke-width="1px" opacity="0.25"></line><line x1="23.333333333333332" y1="0" x2="23.333333333333332" y2="178" fill="rgb(0, 0, 0)" stroke="rgb(60, 60, 60)" stroke-width="1px" opacity="0.25"></line><line x1="46.666666666666664" y1="0" x2="46.666666666666664" y2="178" fill="rgb(0, 0, 0)" stroke="rgb(60, 60, 60)" stroke-width="1px" opacity="0.25"></line><line x1="70" y1="0" x2="70" y2="178" fill="rgb(0, 0, 0)" stroke="rgb(60, 60, 60)" stroke-width="1px" opacity="0.25"></line><line x1="93.33333333333333" y1="0" x2="93.33333333333333" y2="178" fill="rgb(0, 0, 0)" stroke="rgb(60, 60, 60)" stroke-width="1px" opacity="0.25"></line><line x1="116.66666666666667" y1="0" x2="116.66666666666667" y2="178" fill="rgb(0, 0, 0)" stroke="rgb(60, 60, 60)" stroke-width="1px" opacity="0.25"></line><line x1="140" y1="0" x2="140" y2="178" fill="rgb(0, 0, 0)" stroke="rgb(60, 60, 60)" stroke-width="1px" opacity="0.25"></line><line x1="163.33333333333334" y1="0" x2="163.33333333333334" y2="178" fill="rgb(0, 0, 0)" stroke="rgb(60, 60, 60)" stroke-width="1px" opacity="0.25"></line><line x1="186.66666666666666" y1="0" x2="186.66666666666666" y2="178" fill="rgb(0, 0, 0)" stroke="rgb(60, 60, 60)" stroke-width="1px" opacity="0.25"></line><line x1="210" y1="0" x2="210" y2="178" fill="rgb(0, 0, 0)" stroke="rgb(60, 60, 60)" stroke-width="1px" opacity="0.25"></line><line x1="233.33333333333334" y1="0" x2="233.33333333333334" y2="178" fill="rgb(0, 0, 0)" stroke="rgb(60, 60, 60)" stroke-width="1px" opacity="0.25"></line><line x1="256.66666666666663" y1="0" x2="256.66666666666663" y2="178" fill="rgb(0, 0, 0)" stroke="rgb(60, 60, 60)" stroke-width="1px" opacity="0.25"></line><line x1="280" y1="0" x2="280" y2="178" fill="rgb(0, 0, 0)" stroke="rgb(60, 60, 60)" stroke-width="1px" opacity="0.25"></line></g><g><line x1="0" y1="178" x2="280" y2="178" fill="rgb(0, 0, 0)" stroke="rgb(60, 60, 60)" stroke-width="1px" opacity="0.25"></line><line x1="0" y1="165.28571428571428" x2="280" y2="165.28571428571428" fill="rgb(0, 0, 0)" stroke="rgb(60, 60, 60)" stroke-width="1px" opacity="0.25"></line><line x1="0" y1="152.57142857142858" x2="280" y2="152.57142857142858" fill="rgb(0, 0, 0)" stroke="rgb(60, 60, 60)" stroke-width="1px" opacity="0.25"></line><line x1="0" y1="139.85714285714286" x2="280" y2="139.85714285714286" fill="rgb(0, 0, 0)" stroke="rgb(60, 60, 60)" stroke-width="1px" opacity="0.25"></line><line x1="0" y1="127.14285714285714" x2="280" y2="127.14285714285714" fill="rgb(0, 0, 0)" stroke="rgb(60, 60, 60)" stroke-width="1px" opacity="0.25"></line><line x1="0" y1="114.42857142857144" x2="280" y2="114.42857142857144" fill="rgb(0, 0, 0)" stroke="rgb(60, 60, 60)" stroke-width="1px" opacity="0.25"></line><line x1="0" y1="101.71428571428572" x2="280" y2="101.71428571428572" fill="rgb(0, 0, 0)" stroke="rgb(60, 60, 60)" stroke-width="1px" opacity="0.25"></line><line x1="0" y1="89" x2="280" y2="89" fill="rgb(0, 0, 0)" stroke="rgb(60, 60, 60)" stroke-width="1px" opacity="0.25"></line><line x1="0" y1="76.2857142857143" x2="280" y2="76.2857142857143" fill="rgb(0, 0, 0)" stroke="rgb(60, 60, 60)" stroke-width="1px" opacity="0.25"></line><line x1="0" y1="63.571428571428584" x2="280" y2="63.571428571428584" fill="rgb(0, 0, 0)" stroke="rgb(60, 60, 60)" stroke-width="1px" opacity="0.25"></line><line x1="0" y1="50.85714285714286" x2="280" y2="50.85714285714286" fill="rgb(0, 0, 0)" stroke="rgb(60, 60, 60)" stroke-width="1px" opacity="0.25"></line><line x1="0" y1="38.14285714285717" x2="280" y2="38.14285714285717" fill="rgb(0, 0, 0)" stroke="rgb(60, 60, 60)" stroke-width="1px" opacity="0.25"></line><line x1="0" y1="25.428571428571445" x2="280" y2="25.428571428571445" fill="rgb(0, 0, 0)" stroke="rgb(60, 60, 60)" stroke-width="1px" opacity="0.25"></line><line x1="0" y1="12.714285714285722" x2="280" y2="12.714285714285722" fill="rgb(0, 0, 0)" stroke="rgb(60, 60, 60)" stroke-width="1px" opacity="0.25"></line><line x1="0" y1="0" x2="280" y2="0" fill="rgb(0, 0, 0)" stroke="rgb(60, 60, 60)" stroke-width="1px" opacity="0.25"></line></g></g></g><g><g><line x1="0" y1="343.2857142857143" x2="280" y2="343.2857142857143" fill="rgb(0, 0, 0)" stroke="rgb(153, 153, 153)" stroke-width="1.5px"></line></g></g><g><g><line x1="23.333333333333332" y1="0" x2="23.333333333333332" y2="178" fill="rgb(0, 0, 0)" stroke="rgb(153, 153, 153)" stroke-width="1.5px"></line></g></g><g><g><g><g><g><path stroke="rgb(0, 119, 187)" stroke-width="2px" d="M23.333333333333332,142.39999075446812L24.5,142.39999075446812L25.666666666666664,142.39999075446812L26.833333333333336,142.39999075446812L28,142.39999075446812L29.166666666666668,142.39999075446812L30.333333333333336,142.39999075446812L31.5,142.39999075446812L32.666666666666664,142.39999075446812L33.833333333333336,142.39999075446812L35,142.39999075446812L36.16666666666667,142.39999075446812L37.333333333333336,142.39999075446812L38.5,142.39999075446812L39.666666666666664,142.39999075446812L40.833333333333336,142.39999075446812L42,142.39999075446812L43.16666666666667,142.39999075446812L44.33333333333333,142.39999075446812L45.5,142.39999075446812L46.666666666666664,142.39999075446812L47.833333333333336,120.78571807486671L49,120.78571807486671L50.166666666666664,120.78571807486671L51.33333333333333,120.78571807486671L52.5,120.78571807486671L53.66666666666667,120.78571807486671L54.833333333333336,120.78571807486671L56,120.78571807486671L57.166666666666664,120.36190137692861L58.333333333333336,117.39524132864817L59.5,115.27619573048185L60.66666666666667,114.00476458242963L61.83333333333333,111.46190228632518L63,113.15715013231551L64.16666666666666,109.76667338609697L65.33333333333333,108.07142554010665L66.5,101.29047204766957L67.66666666666667,93.66190410511835L68.83333333333333,88.57619845867158L70,79.67619936806817L71.16666666666666,76.70952037402563L72.33333333333334,70.35238357952663L73.5,68.23333798136031L74.66666666666667,68.23333798136031L75.83333333333333,60.60477003880911L77,61.87618224109923L78.16666666666667,67.8095212834222L79.33333333333333,74.5904747758593L80.5,74.1666580779212L81.66666666666667,74.1666580779212L82.83333333333333,75.86190592391152L84,78.82856597219195L85.16666666666666,80.52381381818228L86.33333333333334,81.37142826829638L87.5,83.91429056440082L88.66666666666666,85.60951946462905L89.83333333333334,85.60951946462905L91,83.49047386646272L92.16666666666667,83.91429056440082L93.33333333333333,82.2190427184105L94.5,81.79524496623449L95.66666666666667,84.33808831657683L96.83333333333333,85.60951946462905L98,83.91429056440082L99.16666666666667,80.94761157035829L100.33333333333333,83.49047386646272L101.5,83.91429056440082L102.66666666666666,81.37142826829638L103.83333333333334,82.2190427184105L105,81.37142826829638L106.16666666666666,78.82856597219195L107.33333333333334,77.55713482413974L108.5,80.52381381818228L109.66666666666667,82.6428594163486L110.83333333333333,82.2190427184105L112,82.2190427184105L113.16666666666667,82.2190427184105L114.33333333333333,86.45713391474315L115.5,85.60951946462905L116.66666666666667,84.76190501451494L117.83333333333333,85.60951946462905L119,84.76190501451494L120.16666666666666,85.60951946462905L121.33333333333334,85.60951946462905L122.5,84.33808831657683L123.66666666666666,84.33808831657683L124.83333333333334,84.33808831657683L126,83.91429056440082L127.16666666666667,81.37142826829638L128.33333333333331,83.06667611428671L129.5,84.33808831657683L130.66666666666666,86.03333616256715L131.83333333333334,85.60951946462905L133,85.18572171245303L134.16666666666669,84.76190501451494L135.33333333333334,82.6428594163486L136.5,83.49047386646272L137.66666666666666,80.52381381818228L138.83333333333334,85.60951946462905L140,86.45713391474315L141.16666666666666,88.15238176073348L142.33333333333331,87.72856506279537L143.5,90.27142735889981L144.66666666666669,89.8476106609617L145.83333333333334,91.11904180901392L147,89.42381290878569L148.16666666666666,90.69524405683791L149.33333333333334,87.72856506279537L150.5,87.30476731061937L151.66666666666666,87.30476731061937L152.83333333333331,89.42381290878569L154,88.99999621084758L155.16666666666669,90.27142735889981L156.33333333333334,89.42381290878569L157.5,89.42381290878569L158.66666666666666,89.8476106609617L159.83333333333331,89.8476106609617L161,89.8476106609617L162.16666666666669,91.96667520489012L163.33333333333334,88.57619845867158L164.5,88.15238176073348L165.66666666666666,88.99999621084758L166.83333333333334,88.15238176073348L168,90.27142735889981L169.16666666666666,91.11904180901392L170.33333333333331,88.99999621084758L171.5,86.03333616256715L172.66666666666669,87.30476731061937L173.83333333333334,86.88095061268126L175,86.45713391474315L176.16666666666666,87.72856506279537L177.33333333333331,86.45713391474315L178.5,86.45713391474315L179.66666666666669,84.33808831657683L180.83333333333334,81.37142826829638L182,83.49047386646272L183.16666666666666,82.2190427184105L184.33333333333334,83.49047386646272L185.5,83.49047386646272L186.66666666666666,86.03333616256715L187.83333333333331,84.76190501451494L189,85.18572171245303L190.16666666666669,85.18572171245303L191.33333333333334,84.76190501451494L192.5,87.30476731061937L193.66666666666666,84.76190501451494L194.83333333333331,87.30476731061937L196,86.88095061268126L197.16666666666669,86.45713391474315L198.33333333333334,85.60951946462905L199.5,87.30476731061937L200.66666666666666,89.8476106609617L201.83333333333334,87.72856506279537L203,90.27142735889981L204.16666666666666,88.57619845867158L205.33333333333331,87.72856506279537L206.5,88.99999621084758L207.66666666666669,91.54285850695203L208.83333333333334,88.57619845867158L210,89.8476106609617L211.16666666666666,88.57619845867158L212.33333333333331,86.03333616256715L213.5,83.91429056440082L214.66666666666669,83.49047386646272L215.83333333333334,84.33808831657683L217,83.49047386646272L218.16666666666666,84.76190501451494L219.33333333333334,84.76190501451494L220.5,83.06667611428671L221.66666666666666,83.06667611428671L222.83333333333331,82.6428594163486L224,83.06667611428671L225.16666666666669,83.06667611428671L226.33333333333334,82.2190427184105L227.5,86.45713391474315L228.66666666666666,82.2190427184105L229.83333333333331,83.91429056440082L231,86.45713391474315L232.16666666666669,86.45713391474315L233.33333333333334,86.03333616256715L234.5,85.18572171245303L235.66666666666666,84.76190501451494L236.83333333333334,86.45713391474315L238,87.30476731061937L239.16666666666666,88.15238176073348L240.33333333333331,87.72856506279537L241.5,89.8476106609617L242.66666666666669,90.69524405683791L243.83333333333334,87.30476731061937L245,87.72856506279537L246.16666666666666,87.30476731061937L247.33333333333331,86.45713391474315L248.5,84.76190501451494L249.66666666666669,86.45713391474315L250.83333333333334,85.60951946462905L252,86.03333616256715L253.16666666666666,86.03333616256715L254.33333333333334,83.91429056440082L255.5,83.49047386646272" style="fill: none;" fill="none"></path></g><g><path stroke="rgb(255, 112, 67)" stroke-width="2px" d="M23.333333333333332,93.41926573004042L24.5,91.34773610319411L25.666666666666664,94.01113133771081L26.833333333333336,92.63011790173395L28,92.03825229406358L29.166666666666668,92.43283568109786L30.333333333333336,93.12333292620524L31.5,91.24908551999502L32.666666666666664,90.95315271615983L33.833333333333336,92.53146731853487L35,92.72876848493306L36.16666666666667,91.15045388255803L37.333333333333336,91.64366890702931L38.5,91.44638668639321L39.666666666666664,89.86807208401818L40.833333333333336,91.15045388255803L42,91.9396017108645L43.16666666666667,91.05180329935892L44.33333333333333,90.75587049552374L45.5,89.572139280183L46.666666666666664,89.2762064763478L47.833333333333336,88.09247526100704L49,88.88162308931352L50.166666666666664,88.09247526100704L51.33333333333333,86.90874404566631L52.5,85.13312827689309L53.66666666666667,84.4426310317857L54.833333333333336,84.24532986538753L56,83.94939706155233L57.166666666666664,82.96296701260977L58.333333333333336,81.28600182703563L59.5,80.29955283233099L60.66666666666667,81.28600182703563L61.83333333333333,81.48328404767175L63,80.69413621936526L64.16666666666666,79.01717103379116L65.33333333333333,78.72123822995596L66.5,77.34022479397912L67.66666666666667,77.04429199014392L68.83333333333333,75.95919241224017L70,75.07139400073461L71.16666666666666,75.36732680456981L72.33333333333334,74.18359558922906L73.5,74.87411178009853L74.66666666666667,74.38089675562725L75.83333333333333,72.9998643738883L77,73.1971465945244L78.16666666666667,72.30934818301884L79.33333333333333,71.71748257534847L80.5,70.82968416384288L81.66666666666667,71.32291813407628L82.83333333333333,70.7310525264059L84,69.84323516913824L85.16666666666666,69.35002014466696L86.33333333333334,69.35002014466696L87.5,68.56087231636049L88.66666666666666,66.98255771398546L89.83333333333334,65.40424311161043L91,66.29204152311598L92.16666666666667,66.4893237437521L93.33333333333333,65.89745813608171L94.5,65.50289369480953L95.66666666666667,66.0947593024799L96.83333333333333,66.68662491015026L98,65.40424311161043L99.16666666666667,64.71372692074095L100.33333333333333,63.234062901565025L101.5,64.22051189626967L102.66666666666666,63.234062901565025L103.83333333333334,63.5299957054002L105,62.247613906860366L106.16666666666666,62.247613906860366L107.33333333333334,61.06388269151961L108.5,60.76794988768444L109.66666666666667,61.35981549535481L110.83333333333333,60.570667667048326L112,59.288285868508495L113.16666666666667,59.0910036478724L114.33333333333333,58.30183687380382L115.5,57.414038462298265L116.66666666666667,58.400487457002924L117.83333333333333,57.31538787909918L119,57.31538787909918L120.16666666666666,56.72352227142879L121.33333333333334,56.822172854627894L122.5,55.53979105608806L123.66666666666666,55.835723859923235L124.83333333333334,54.94792544841768L126,56.23030724695751L127.16666666666667,58.00590406996865L128.33333333333331,57.51268904549737L129.5,57.01945507526399L130.66666666666666,55.93437444312234L131.83333333333334,56.32895783015661L133,55.737092222486226L134.16666666666669,56.23030724695751L135.33333333333334,55.53979105608806L136.5,54.75064322778158L137.66666666666666,55.53979105608806L138.83333333333334,54.65199264458248L140,53.56691201244084L141.16666666666666,53.862844816276024L142.33333333333331,53.56691201244084L143.5,52.38318079710008L144.66666666666669,52.18587963070189L145.83333333333334,52.08724799326488L147,51.002148415361134L148.16666666666666,49.917067783219494L149.33333333333334,48.43738481828146L150.5,45.97129075016295L151.66666666666666,46.06992238759997L152.83333333333331,44.49160778522494L154,46.85908916166852L155.16666666666669,45.478056779929574L156.33333333333334,45.57670736312869L157.5,44.19567498138974L158.66666666666666,44.39297614778792L159.83333333333331,43.70245995691846L161,43.70245995691846L162.16666666666669,43.60380937371937L163.33333333333334,44.68890895162312L164.5,45.28077455929349L165.66666666666666,44.09704334395275L166.83333333333334,44.39297614778792L168,45.28077455929349L169.16666666666666,44.8861911722592L170.33333333333331,44.8861911722592L171.5,43.60380937371937L172.66666666666669,43.20924493244718L173.83333333333334,43.80111054011755L175,43.99839276075366L176.16666666666666,43.80111054011755L177.33333333333331,43.11059434924809L178.5,42.7160109622138L179.66666666666669,41.82821255070823L180.83333333333334,41.13769635983877L182,41.23634694303786L183.16666666666666,40.348548531532316L184.33333333333334,40.5458307521684L185.5,41.43362916367397L186.66666666666666,40.052615727697116L187.83333333333331,39.756682923861916L189,39.26344895362857L190.16666666666669,39.06616673299246L191.33333333333334,38.375650542123L192.5,37.6851532970156L193.66666666666666,36.69870430231097L194.83333333333331,35.12038969993594L196,34.62717467546466L197.16666666666669,33.73937626395909L198.33333333333334,32.85155890669142L199.5,31.865128857748857L200.66666666666666,32.06241107838497L201.83333333333334,31.96376049518588L203,32.55562610285625L204.16666666666666,32.25969329902105L205.33333333333331,31.865128857748857L206.5,30.78002927984511L207.66666666666669,30.484096476009938L208.83333333333334,31.07596208368031L210,30.582747059209026L211.16666666666666,31.569196053913686L212.33333333333331,32.06241107838497L213.5,31.273263250078486L214.66666666666669,31.96376049518588L215.83333333333334,31.273263250078486L217,30.582747059209026L218.16666666666666,29.990881451538655L219.33333333333334,28.905781873634908L220.5,29.300365260669167L221.66666666666666,28.215284628527513L222.83333333333331,27.32748621702197L224,26.834252246788594L225.16666666666669,26.04510441848211L226.33333333333334,25.35456928185056L227.5,26.538319442953394L228.66666666666666,25.650521031447823L229.83333333333331,25.847803252083935L231,26.538319442953394L232.16666666666669,26.143736055919106L233.33333333333334,25.15730600697654L234.5,25.15730600697654L235.66666666666666,23.874905262674616L236.83333333333334,24.170838066509816L238,23.18440801756725L239.16666666666666,23.283039655004245L240.33333333333331,22.88847521373205L241.5,21.803375635828303L242.66666666666669,21.310179557119113L243.83333333333334,21.704743998391308L245,20.718313949448742L246.16666666666666,20.422381145613542L247.33333333333331,20.225079979215366L248.5,19.337281567709795L249.66666666666669,19.83051553794317L250.83333333333334,18.84404759747642L252,18.449483156204252L253.16666666666666,19.139980401311618L254.33333333333334,18.05488082340787L255.5,19.238612038748613" style="fill: none;" fill="none"></path></g></g></g></g></g></g><g transform="translate(50, 178)" clip-path="url(#clip_1)"><clipPath id="clip_1"><rect width="280" height="22"></rect></clipPath><g><g><line x1="0" y1="0" x2="0" y2="5" style="visibility: inherit;" fill="rgb(0, 0, 0)" stroke="rgb(204, 204, 204)" stroke-width="1px"></line><line x1="23.333333333333332" y1="0" x2="23.333333333333332" y2="5" style="visibility: inherit;" fill="rgb(0, 0, 0)" stroke="rgb(204, 204, 204)" stroke-width="1px"></line><line x1="46.666666666666664" y1="0" x2="46.666666666666664" y2="5" style="visibility: inherit;" fill="rgb(0, 0, 0)" stroke="rgb(204, 204, 204)" stroke-width="1px"></line><line x1="70" y1="0" x2="70" y2="5" style="visibility: inherit;" fill="rgb(0, 0, 0)" stroke="rgb(204, 204, 204)" stroke-width="1px"></line><line x1="93.33333333333333" y1="0" x2="93.33333333333333" y2="5" style="visibility: inherit;" fill="rgb(0, 0, 0)" stroke="rgb(204, 204, 204)" stroke-width="1px"></line><line x1="116.66666666666667" y1="0" x2="116.66666666666667" y2="5" style="visibility: inherit;" fill="rgb(0, 0, 0)" stroke="rgb(204, 204, 204)" stroke-width="1px"></line><line x1="140" y1="0" x2="140" y2="5" style="visibility: inherit;" fill="rgb(0, 0, 0)" stroke="rgb(204, 204, 204)" stroke-width="1px"></line><line x1="163.33333333333334" y1="0" x2="163.33333333333334" y2="5" style="visibility: inherit;" fill="rgb(0, 0, 0)" stroke="rgb(204, 204, 204)" stroke-width="1px"></line><line x1="186.66666666666666" y1="0" x2="186.66666666666666" y2="5" style="visibility: inherit;" fill="rgb(0, 0, 0)" stroke="rgb(204, 204, 204)" stroke-width="1px"></line><line x1="210" y1="0" x2="210" y2="5" style="visibility: inherit;" fill="rgb(0, 0, 0)" stroke="rgb(204, 204, 204)" stroke-width="1px"></line><line x1="233.33333333333334" y1="0" x2="233.33333333333334" y2="5" style="visibility: inherit;" fill="rgb(0, 0, 0)" stroke="rgb(204, 204, 204)" stroke-width="1px"></line><line x1="256.66666666666663" y1="0" x2="256.66666666666663" y2="5" style="visibility: inherit;" fill="rgb(0, 0, 0)" stroke="rgb(204, 204, 204)" stroke-width="1px"></line><line x1="280" y1="0" x2="280" y2="5" style="visibility: inherit;" fill="rgb(0, 0, 0)" stroke="rgb(204, 204, 204)" stroke-width="1px"></line></g><g transform="translate(0, 8)"><text x="0" y="0" dx="0em" dy="0.95em" style="text-anchor: middle; visibility: hidden; font-family: &quot;Helvetica Neue&quot;, sans-serif; font-size: 12px; font-weight: 200;" fill="rgb(50, 49, 63)" stroke="none" stroke-width="1px">-20</text><text x="23.333333333333332" y="0" dx="0em" dy="0.95em" style="text-anchor: middle; visibility: inherit; font-family: &quot;Helvetica Neue&quot;, sans-serif; font-size: 12px; font-weight: 200;" fill="rgb(50, 49, 63)" stroke="none" stroke-width="1px">0</text><text x="46.666666666666664" y="0" dx="0em" dy="0.95em" style="text-anchor: middle; visibility: hidden; font-family: &quot;Helvetica Neue&quot;, sans-serif; font-size: 12px; font-weight: 200;" fill="rgb(50, 49, 63)" stroke="none" stroke-width="1px">20</text><text x="70" y="0" dx="0em" dy="0.95em" style="text-anchor: middle; visibility: inherit; font-family: &quot;Helvetica Neue&quot;, sans-serif; font-size: 12px; font-weight: 200;" fill="rgb(50, 49, 63)" stroke="none" stroke-width="1px">40</text><text x="93.33333333333333" y="0" dx="0em" dy="0.95em" style="text-anchor: middle; visibility: hidden; font-family: &quot;Helvetica Neue&quot;, sans-serif; font-size: 12px; font-weight: 200;" fill="rgb(50, 49, 63)" stroke="none" stroke-width="1px">60</text><text x="116.66666666666667" y="0" dx="0em" dy="0.95em" style="text-anchor: middle; visibility: inherit; font-family: &quot;Helvetica Neue&quot;, sans-serif; font-size: 12px; font-weight: 200;" fill="rgb(50, 49, 63)" stroke="none" stroke-width="1px">80</text><text x="140" y="0" dx="0em" dy="0.95em" style="text-anchor: middle; visibility: hidden; font-family: &quot;Helvetica Neue&quot;, sans-serif; font-size: 12px; font-weight: 200;" fill="rgb(50, 49, 63)" stroke="none" stroke-width="1px">100</text><text x="163.33333333333334" y="0" dx="0em" dy="0.95em" style="text-anchor: middle; visibility: inherit; font-family: &quot;Helvetica Neue&quot;, sans-serif; font-size: 12px; font-weight: 200;" fill="rgb(50, 49, 63)" stroke="none" stroke-width="1px">120</text><text x="186.66666666666666" y="0" dx="0em" dy="0.95em" style="text-anchor: middle; visibility: hidden; font-family: &quot;Helvetica Neue&quot;, sans-serif; font-size: 12px; font-weight: 200;" fill="rgb(50, 49, 63)" stroke="none" stroke-width="1px">140</text><text x="210" y="0" dx="0em" dy="0.95em" style="text-anchor: middle; visibility: inherit; font-family: &quot;Helvetica Neue&quot;, sans-serif; font-size: 12px; font-weight: 200;" fill="rgb(50, 49, 63)" stroke="none" stroke-width="1px">160</text><text x="233.33333333333334" y="0" dx="0em" dy="0.95em" style="text-anchor: middle; visibility: hidden; font-family: &quot;Helvetica Neue&quot;, sans-serif; font-size: 12px; font-weight: 200;" fill="rgb(50, 49, 63)" stroke="none" stroke-width="1px">180</text><text x="256.66666666666663" y="0" dx="0em" dy="0.95em" style="text-anchor: middle; visibility: inherit; font-family: &quot;Helvetica Neue&quot;, sans-serif; font-size: 12px; font-weight: 200;" fill="rgb(50, 49, 63)" stroke="none" stroke-width="1px">200</text><text x="280" y="0" dx="0em" dy="0.95em" style="text-anchor: middle; visibility: hidden; font-family: &quot;Helvetica Neue&quot;, sans-serif; font-size: 12px; font-weight: 200;" fill="rgb(50, 49, 63)" stroke="none" stroke-width="1px">220</text></g><line x1="0" y1="0" x2="280" y2="0" fill="rgb(0, 0, 0)" stroke="rgb(204, 204, 204)" stroke-width="1px"></line></g></g></g></g></svg>