<svg viewBox="0 0 330 200" xmlns="http://www.w3.org/2000/svg"><g><g><g><g><g><line x1="50" y1="178" x2="45" y2="178" style="visibility: inherit;" fill="rgb(0, 0, 0)" stroke="rgb(204, 204, 204)" stroke-width="1px"></line><line x1="50" y1="160.2" x2="45" y2="160.2" style="visibility: inherit;" fill="rgb(0, 0, 0)" stroke="rgb(204, 204, 204)" stroke-width="1px"></line><line x1="50" y1="142.4" x2="45" y2="142.4" style="visibility: inherit;" fill="rgb(0, 0, 0)" stroke="rgb(204, 204, 204)" stroke-width="1px"></line><line x1="50" y1="124.6" x2="45" y2="124.6" style="visibility: inherit;" fill="rgb(0, 0, 0)" stroke="rgb(204, 204, 204)" stroke-width="1px"></line><line x1="50" y1="106.8" x2="45" y2="106.8" style="visibility: inherit;" fill="rgb(0, 0, 0)" stroke="rgb(204, 204, 204)" stroke-width="1px"></line><line x1="50" y1="89" x2="45" y2="89" style="visibility: inherit;" fill="rgb(0, 0, 0)" stroke="rgb(204, 204, 204)" stroke-width="1px"></line><line x1="50" y1="71.2" x2="45" y2="71.2" style="visibility: inherit;" fill="rgb(0, 0, 0)" stroke="rgb(204, 204, 204)" stroke-width="1px"></line><line x1="50" y1="53.400000000000006" x2="45" y2="53.400000000000006" style="visibility: inherit;" fill="rgb(0, 0, 0)" stroke="rgb(204, 204, 204)" stroke-width="1px"></line><line x1="50" y1="35.60000000000002" x2="45" y2="35.60000000000002" style="visibility: inherit;" fill="rgb(0, 0, 0)" stroke="rgb(204, 204, 204)" stroke-width="1px"></line><line x1="50" y1="17.799999999999983" x2="45" y2="17.799999999999983" style="visibility: inherit;" fill="rgb(0, 0, 0)" stroke="rgb(204, 204, 204)" stroke-width="1px"></line><line x1="50" y1="0" x2="45" y2="0" style="visibility: inherit;" fill="rgb(0, 0, 0)" stroke="rgb(204, 204, 204)" stroke-width="1px"></line></g><g transform="translate(40, 0)"><text x="0" y="178" dx="0em" dy="0.3em" style="text-anchor: end; visibility: hidden; font-family: &quot;Helvetica Neue&quot;, sans-serif; font-size: 12px; font-weight: 200;" fill="rgb(50, 49, 63)" stroke="none" stroke-width="1px">-0.1</text><text x="0" y="160.2" dx="0em" dy="0.3em" style="text-anchor: end; visibility: inherit; font-family: &quot;Helvetica Neue&quot;, sans-serif; font-size: 12px; font-weight: 200;" fill="rgb(50, 49, 63)" stroke="none" stroke-width="1px">0</text><text x="0" y="142.4" dx="0em" dy="0.3em" style="text-anchor: end; visibility: hidden; font-family: &quot;Helvetica Neue&quot;, sans-serif; font-size: 12px; font-weight: 200;" fill="rgb(50, 49, 63)" stroke="none" stroke-width="1px">0.1</text><text x="0" y="124.6" dx="0em" dy="0.3em" style="text-anchor: end; visibility: inherit; font-family: &quot;Helvetica Neue&quot;, sans-serif; font-size: 12px; font-weight: 200;" fill="rgb(50, 49, 63)" stroke="none" stroke-width="1px">0.2</text><text x="0" y="106.8" dx="0em" dy="0.3em" style="text-anchor: end; visibility: hidden; font-family: &quot;Helvetica Neue&quot;, sans-serif; font-size: 12px; font-weight: 200;" fill="rgb(50, 49, 63)" stroke="none" stroke-width="1px">0.3</text><text x="0" y="89" dx="0em" dy="0.3em" style="text-anchor: end; visibility: inherit; font-family: &quot;Helvetica Neue&quot;, sans-serif; font-size: 12px; font-weight: 200;" fill="rgb(50, 49, 63)" stroke="none" stroke-width="1px">0.4</text><text x="0" y="71.2" dx="0em" dy="0.3em" style="text-anchor: end; visibility: hidden; font-family: &quot;Helvetica Neue&quot;, sans-serif; font-size: 12px; font-weight: 200;" fill="rgb(50, 49, 63)" stroke="none" stroke-width="1px">0.5</text><text x="0" y="53.400000000000006" dx="0em" dy="0.3em" style="text-anchor: end; visibility: inherit; font-family: &quot;Helvetica Neue&quot;, sans-serif; font-size: 12px; font-weight: 200;" fill="rgb(50, 49, 63)" stroke="none" stroke-width="1px">0.6</text><text x="0" y="35.60000000000002" dx="0em" dy="0.3em" style="text-anchor: end; visibility: hidden; font-family: &quot;Helvetica Neue&quot;, sans-serif; font-size: 12px; font-weight: 200;" fill="rgb(50, 49, 63)" stroke="none" stroke-width="1px">0.7</text><text x="0" y="17.799999999999983" dx="0em" dy="0.3em" style="text-anchor: end; visibility: inherit; font-family: &quot;Helvetica Neue&quot;, sans-serif; font-size: 12px; font-weight: 200;" fill="rgb(50, 49, 63)" stroke="none" stroke-width="1px">0.8</text><text x="0" y="0" dx="0em" dy="0.3em" style="text-anchor: end; visibility: hidden; font-family: &quot;Helvetica Neue&quot;, sans-serif; font-size: 12px; font-weight: 200;" fill="rgb(50, 49, 63)" stroke="none" stroke-width="1px">0.9</text></g><line x1="50" y1="0" x2="50" y2="178" fill="rgb(0, 0, 0)" stroke="rgb(204, 204, 204)" stroke-width="1px"></line></g></g><g transform="translate(50, 0)" clip-path="url(#clip_0)"><clipPath id="clip_0"><rect width="280" height="178"></rect></clipPath><g><g><g><line x1="0" y1="0" x2="0" y2="178" fill="rgb(0, 0, 0)" stroke="rgb(60, 60, 60)" stroke-width="1px" opacity="0.25"></line><line x1="31.11111111111111" y1="0" x2="31.11111111111111" y2="178" fill="rgb(0, 0, 0)" stroke="rgb(60, 60, 60)" stroke-width="1px" opacity="0.25"></line><line x1="62.22222222222222" y1="0" x2="62.22222222222222" y2="178" fill="rgb(0, 0, 0)" stroke="rgb(60, 60, 60)" stroke-width="1px" opacity="0.25"></line><line x1="93.33333333333333" y1="0" x2="93.33333333333333" y2="178" fill="rgb(0, 0, 0)" stroke="rgb(60, 60, 60)" stroke-width="1px" opacity="0.25"></line><line x1="124.44444444444444" y1="0" x2="124.44444444444444" y2="178" fill="rgb(0, 0, 0)" stroke="rgb(60, 60, 60)" stroke-width="1px" opacity="0.25"></line><line x1="155.55555555555557" y1="0" x2="155.55555555555557" y2="178" fill="rgb(0, 0, 0)" stroke="rgb(60, 60, 60)" stroke-width="1px" opacity="0.25"></line><line x1="186.66666666666666" y1="0" x2="186.66666666666666" y2="178" fill="rgb(0, 0, 0)" stroke="rgb(60, 60, 60)" stroke-width="1px" opacity="0.25"></line><line x1="217.77777777777777" y1="0" x2="217.77777777777777" y2="178" fill="rgb(0, 0, 0)" stroke="rgb(60, 60, 60)" stroke-width="1px" opacity="0.25"></line><line x1="248.88888888888889" y1="0" x2="248.88888888888889" y2="178" fill="rgb(0, 0, 0)" stroke="rgb(60, 60, 60)" stroke-width="1px" opacity="0.25"></line><line x1="280" y1="0" x2="280" y2="178" fill="rgb(0, 0, 0)" stroke="rgb(60, 60, 60)" stroke-width="1px" opacity="0.25"></line></g><g><line x1="0" y1="178" x2="280" y2="178" fill="rgb(0, 0, 0)" stroke="rgb(60, 60, 60)" stroke-width="1px" opacity="0.25"></line><line x1="0" y1="160.2" x2="280" y2="160.2" fill="rgb(0, 0, 0)" stroke="rgb(60, 60, 60)" stroke-width="1px" opacity="0.25"></line><line x1="0" y1="142.4" x2="280" y2="142.4" fill="rgb(0, 0, 0)" stroke="rgb(60, 60, 60)" stroke-width="1px" opacity="0.25"></line><line x1="0" y1="124.6" x2="280" y2="124.6" fill="rgb(0, 0, 0)" stroke="rgb(60, 60, 60)" stroke-width="1px" opacity="0.25"></line><line x1="0" y1="106.8" x2="280" y2="106.8" fill="rgb(0, 0, 0)" stroke="rgb(60, 60, 60)" stroke-width="1px" opacity="0.25"></line><line x1="0" y1="89" x2="280" y2="89" fill="rgb(0, 0, 0)" stroke="rgb(60, 60, 60)" stroke-width="1px" opacity="0.25"></line><line x1="0" y1="71.2" x2="280" y2="71.2" fill="rgb(0, 0, 0)" stroke="rgb(60, 60, 60)" stroke-width="1px" opacity="0.25"></line><line x1="0" y1="53.400000000000006" x2="280" y2="53.400000000000006" fill="rgb(0, 0, 0)" stroke="rgb(60, 60, 60)" stroke-width="1px" opacity="0.25"></line><line x1="0" y1="35.60000000000002" x2="280" y2="35.60000000000002" fill="rgb(0, 0, 0)" stroke="rgb(60, 60, 60)" stroke-width="1px" opacity="0.25"></line><line x1="0" y1="17.799999999999983" x2="280" y2="17.799999999999983" fill="rgb(0, 0, 0)" stroke="rgb(60, 60, 60)" stroke-width="1px" opacity="0.25"></line><line x1="0" y1="0" x2="280" y2="0" fill="rgb(0, 0, 0)" stroke="rgb(60, 60, 60)" stroke-width="1px" opacity="0.25"></line></g></g></g><g><g><line x1="0" y1="160.2" x2="280" y2="160.2" fill="rgb(0, 0, 0)" stroke="rgb(153, 153, 153)" stroke-width="1.5px"></line></g></g><g><g><line x1="31.11111111111111" y1="0" x2="31.11111111111111" y2="178" fill="rgb(0, 0, 0)" stroke="rgb(153, 153, 153)" stroke-width="1.5px"></line></g></g><g><g><g><g><g><path stroke="rgb(0, 119, 187)" stroke-width="2px" d="M31.11111111111111,135.8733326613903L32.666666666666664,128.10066704154013L34.22222222222222,122.404666107893L35.77777777777777,116.41199879050255L37.333333333333336,110.77533484697342L38.88888888888889,105.6133323431015L40.44444444444444,99.8580023765564L42,93.62799770832062L43.55555555555556,88.28799749612809L45.111111111111114,83.95666511058808L46.666666666666664,79.80333573818207L48.22222222222222,76.0060017824173L49.77777777777778,71.85266710519791L51.33333333333333,69.00466663837433L52.888888888888886,65.68199677467346L54.44444444444444,62.83400161266327L56,60.81666595935822L57.55555555555555,58.680661630630496L59.111111111111114,56.60399694442749L60.66666666666667,54.28999490737915L62.22222222222222,53.04400033950806L63.77777777777778,51.61999745368958L65.33333333333333,49.958667826652544L66.88888888888889,48.83133132457735L68.44444444444444,47.34799940586092L70,46.33933157920839L71.55555555555554,46.042665195465105L73.11111111111111,45.330663752555864L74.66666666666667,44.440664601326006L76.22222222222221,43.847331833839434L77.77777777777779,43.55066545009615L79.33333333333333,42.66066629886629L80.88888888888889,42.00800449848177L82.44444444444444,40.99933667182924L84,40.584001612663286L85.55555555555556,39.75333149433138L87.11111111111111,39.219338369369524L88.66666666666666,38.74466366767885L90.22222222222223,38.6853346347809L91.77777777777777,38.6853346347809L93.33333333333333,38.50733692646028L94.8888888888889,37.91400415897371L96.44444444444444,37.498669099807756L98,37.26133174896242L99.55555555555556,36.845996689796465L101.11111111111111,36.786667656898516L102.66666666666666,36.54933030605318L104.22222222222223,36.37133259773256L105.77777777777777,36.31200356483461L107.33333333333334,36.37133259773256L108.88888888888889,36.074666213989275L110.44444444444444,35.83732886314394L112,35.65933115482332L113.55555555555556,35.06599838733675L115.1111111111111,35.0066693544388L116.66666666666667,34.88800067901613L118.22222222222223,34.41333658695223L119.77777777777777,34.35399694442751L121.33333333333334,34.17599923610689L122.88888888888889,34.17599923610689L124.44444444444444,33.99800152778627L126,33.93866188526155L127.55555555555556,33.701335144042986L129.11111111111111,33.701335144042986L130.66666666666666,33.52333743572237L132.22222222222223,33.52333743572237L133.77777777777777,33.4046687602997L135.33333333333334,33.22667105197908L136.88888888888889,33.048662734031694L138.44444444444446,32.989333701133745L140,32.930004668235796L141.55555555555554,32.81133599281313L143.1111111111111,32.81133599281313L144.66666666666669,32.69266731739046L146.22222222222223,32.75199635028841L147.77777777777777,32.39600093364717L149.33333333333334,32.39600093364717L150.88888888888889,32.277332258224504L152.44444444444443,32.336671900749224L154,32.218003225326555L155.55555555555557,32.218003225326555L157.11111111111111,32.218003225326555L158.66666666666666,32.09933454990389L160.2222222222222,32.03999490737917L161.77777777777777,31.92133684158327L163.33333333333334,31.92133684158327L164.88888888888889,31.86199719905855L166.44444444444446,31.683999490737932L168,31.683999490737932L169.55555555555554,31.565330815315264L171.11111111111111,31.683999490737932L172.66666666666669,31.683999490737932L174.22222222222223,31.446662139892595L175.77777777777777,31.446662139892595L177.33333333333331,31.506001782417314L178.88888888888889,31.387333106994646L180.44444444444446,31.14999575614931L182,31.09066672325136L183.55555555555554,31.09066672325136L185.11111111111111,31.03133769035341L186.66666666666666,31.14999575614931L188.22222222222223,31.14999575614931L189.7777777777778,30.97199804782869L191.33333333333334,30.97199804782869L192.88888888888889,30.853329372406023L194.44444444444443,30.794000339508074L196,30.912669014930742L197.55555555555557,30.794000339508074L199.11111111111111,30.853329372406023L200.66666666666666,30.734671306610124L202.22222222222223,30.912669014930742L203.77777777777777,30.734671306610124L205.33333333333331,30.734671306610124L206.8888888888889,30.616002631187456L208.44444444444446,30.675331664085405L210,30.616002631187456L211.55555555555554,30.497333955764788L213.1111111111111,30.616002631187456L214.66666666666669,30.556662988662737L216.22222222222223,30.616002631187456L217.77777777777777,30.556662988662737L219.33333333333334,30.616002631187456L220.88888888888889,30.734671306610124L222.44444444444443,30.853329372406023L224,30.794000339508074L225.55555555555557,30.734671306610124L227.11111111111111,30.734671306610124L228.66666666666666,30.734671306610124L230.2222222222222,30.734671306610124L231.77777777777777,30.616002631187456L233.33333333333334,30.675331664085405L234.88888888888889,30.556662988662737L236.44444444444446,30.497333955764788L238,30.43800492286684L239.55555555555554,30.556662988662737L241.11111111111111,30.556662988662737L242.66666666666669,30.43800492286684L244.22222222222223,30.43800492286684L245.77777777777777,30.43800492286684L247.33333333333331,30.37866528034212L248.88888888888889,30.37866528034212L250.44444444444446,30.37866528034212L252,30.37866528034212L253.55555555555554,30.37866528034212L255.11111111111111,30.37866528034212L256.66666666666663,30.37866528034212L258.22222222222223,30.497333955764788L259.77777777777777,30.497333955764788L261.3333333333333,30.497333955764788L262.8888888888889,30.37866528034212" style="fill: none;" fill="none"></path></g><g><path stroke="rgb(255, 112, 67)" stroke-width="2px" d="M31.11111111111111,139.12559571564196L32.666666666666664,132.42763621807097L34.22222222222222,126.65496216416359L35.77777777777777,121.65566093921662L37.333333333333336,116.8497015953064L38.88888888888889,109.32312626838684L40.44444444444444,106.39536262750626L42,102.9013738155365L43.55555555555556,98.12303663492203L45.111111111111114,93.38613004684449L46.666666666666664,88.55254853963852L48.22222222222222,86.81245834827423L49.77777777777778,81.30217893123627L51.33333333333333,78.11201800107956L52.888888888888886,75.43283261060715L54.44444444444444,72.14600206613541L56,69.89493103027344L57.55555555555555,66.76000912189484L59.111111111111114,65.93139727115631L60.66666666666667,63.65271468162537L62.22222222222222,61.81595487594605L63.77777777777778,59.85490329265595L65.33333333333333,59.17820007801056L66.88888888888889,57.90765483379364L68.44444444444444,55.96041698455811L70,55.642775368690494L71.55555555555554,54.56557996273041L73.11111111111111,52.96360058784485L74.66666666666667,52.35594482421875L76.22222222222221,52.107361268997195L77.77777777777779,51.01635212898255L79.33333333333333,49.883912396430986L80.88888888888889,49.77343435287477L82.44444444444444,48.79291386604311L84,48.59956402778627L85.55555555555556,47.93667454719545L87.11111111111111,47.34283251762392L88.66666666666666,47.03901524543764L90.22222222222223,46.30706770420076L91.77777777777777,45.71322567462923L93.33333333333333,45.878948044776934L94.8888888888889,45.25748915672304L96.44444444444444,44.52555222511293L98,44.53935534954073L99.55555555555556,44.01457138061525L101.11111111111111,43.641696047782915L102.66666666666666,43.75217409133913L104.22222222222223,42.826887321472185L105.77777777777777,43.17214579582216L107.33333333333334,43.034040284156816L108.88888888888889,43.02023715972902L110.44444444444444,42.55068690776827L112,41.9706586122513L113.55555555555556,41.860180568695085L115.1111111111111,41.95684487819673L116.66666666666667,41.99827547073366L118.22222222222223,41.197280478477495L119.77777777777777,41.87398369312288L121.33333333333334,41.05918557643892L122.88888888888889,40.658682775497454L124.44444444444444,40.97632439136507L126,40.61725218296053L127.55555555555556,40.58963532447817L129.11111111111111,41.00394124984743L130.66666666666666,40.34105176925661L132.22222222222223,40.29962117671968L133.77777777777777,39.58148736953737L135.33333333333334,40.202946257591265L136.88888888888889,39.788640332222L138.44444444444446,39.66434855461122L140,39.30528695583345L141.55555555555554,39.111937117576616L143.1111111111111,39.33290381431581L144.66666666666669,38.6147700071335L146.22222222222223,39.263856363296526L147.77777777777777,39.01527280807497L149.33333333333334,37.95188052654268L150.88888888888889,38.67001433372499L152.44444444444443,38.96002848148348L154,38.89098103046419L155.55555555555557,38.69763119220735L157.11111111111111,38.545722556114214L158.66666666666666,38.573339414596575L160.2222222222222,38.80811984539034L161.77777777777777,38.53190882205965L163.33333333333334,38.55953629016878L164.88888888888889,38.50429196357729L166.44444444444446,38.73906178474428L168,38.214277815818804L169.55555555555554,37.482330274581926L171.11111111111111,37.99331111907961L172.66666666666669,38.17284722328188L174.22222222222223,37.20612986087801L175.77777777777777,38.18665034770967L177.33333333333331,37.53757460117342L178.88888888888889,37.55138833522798L180.44444444444446,37.67568011283876L182,37.50995774269106L183.55555555555554,37.123268675804155L185.11111111111111,36.73657960891725L186.66666666666666,37.150885534286516L188.22222222222223,36.80563766956331L189.7777777777778,37.13708240985872L191.33333333333334,37.06802434921266L192.88888888888889,36.98516316413881L194.44444444444443,36.84706826210024L196,36.54324038028719L197.55555555555557,36.6537184238434L199.11111111111111,36.37751801013948L200.66666666666666,36.95754630565645L202.22222222222223,36.916115713119524L203.77777777777777,36.17036504745485L205.33333333333331,36.18416817188265L206.8888888888889,36.01844580173494L208.44444444444446,36.37751801013948L210,36.55704350471498L211.55555555555554,35.93558461666109L213.1111111111111,36.22559876441957L214.66666666666669,35.977015209198015L216.22222222222223,36.05987639427187L217.77777777777777,36.07369012832643L219.33333333333334,36.41894860267641L220.88888888888889,35.93558461666109L222.44444444444443,36.52942664623262L224,35.949398350715654L225.55555555555557,36.50180978775026L227.11111111111111,35.852723431587236L228.66666666666666,35.45223124027254L230.2222222222222,35.72843165397646L231.77777777777777,35.89415402412416L233.33333333333334,35.769862246513384L234.88888888888889,35.977015209198015L236.44444444444446,35.617953610420244L238,35.75605912208559L239.55555555555554,35.42461438179018L241.11111111111111,35.54890615940096L242.66666666666669,35.60413987636568L244.22222222222223,35.4798480987549L245.77777777777777,35.521278691291826L247.33333333333331,35.14840335845949L248.88888888888889,35.20364768505098L250.44444444444446,36.14273757934572L252,34.87220294475557L253.55555555555554,35.14840335845949L255.11111111111111,35.21746141910555L256.66666666666663,34.92744727134706L258.22222222222223,35.35555632114412L259.77777777777777,35.438417506217974L261.3333333333333,35.25889201164247L262.8888888888889,34.92744727134706" style="fill: none;" fill="none"></path></g></g></g></g></g></g><g transform="translate(50, 178)" clip-path="url(#clip_1)"><clipPath id="clip_1"><rect width="280" height="22"></rect></clipPath><g><g><line x1="0" y1="0" x2="0" y2="5" style="visibility: inherit;" fill="rgb(0, 0, 0)" stroke="rgb(204, 204, 204)" stroke-width="1px"></line><line x1="31.11111111111111" y1="0" x2="31.11111111111111" y2="5" style="visibility: inherit;" fill="rgb(0, 0, 0)" stroke="rgb(204, 204, 204)" stroke-width="1px"></line><line x1="62.22222222222222" y1="0" x2="62.22222222222222" y2="5" style="visibility: inherit;" fill="rgb(0, 0, 0)" stroke="rgb(204, 204, 204)" stroke-width="1px"></line><line x1="93.33333333333333" y1="0" x2="93.33333333333333" y2="5" style="visibility: inherit;" fill="rgb(0, 0, 0)" stroke="rgb(204, 204, 204)" stroke-width="1px"></line><line x1="124.44444444444444" y1="0" x2="124.44444444444444" y2="5" style="visibility: inherit;" fill="rgb(0, 0, 0)" stroke="rgb(204, 204, 204)" stroke-width="1px"></line><line x1="155.55555555555557" y1="0" x2="155.55555555555557" y2="5" style="visibility: inherit;" fill="rgb(0, 0, 0)" stroke="rgb(204, 204, 204)" stroke-width="1px"></line><line x1="186.66666666666666" y1="0" x2="186.66666666666666" y2="5" style="visibility: inherit;" fill="rgb(0, 0, 0)" stroke="rgb(204, 204, 204)" stroke-width="1px"></line><line x1="217.77777777777777" y1="0" x2="217.77777777777777" y2="5" style="visibility: inherit;" fill="rgb(0, 0, 0)" stroke="rgb(204, 204, 204)" stroke-width="1px"></line><line x1="248.88888888888889" y1="0" x2="248.88888888888889" y2="5" style="visibility: inherit;" fill="rgb(0, 0, 0)" stroke="rgb(204, 204, 204)" stroke-width="1px"></line><line x1="280" y1="0" x2="280" y2="5" style="visibility: inherit;" fill="rgb(0, 0, 0)" stroke="rgb(204, 204, 204)" stroke-width="1px"></line></g><g transform="translate(0, 8)"><text x="0" y="0" dx="0em" dy="0.95em" style="text-anchor: middle; visibility: hidden; font-family: &quot;Helvetica Neue&quot;, sans-serif; font-size: 12px; font-weight: 200;" fill="rgb(50, 49, 63)" stroke="none" stroke-width="1px">-20</text><text x="31.11111111111111" y="0" dx="0em" dy="0.95em" style="text-anchor: middle; visibility: inherit; font-family: &quot;Helvetica Neue&quot;, sans-serif; font-size: 12px; font-weight: 200;" fill="rgb(50, 49, 63)" stroke="none" stroke-width="1px">0</text><text x="62.22222222222222" y="0" dx="0em" dy="0.95em" style="text-anchor: middle; visibility: inherit; font-family: &quot;Helvetica Neue&quot;, sans-serif; font-size: 12px; font-weight: 200;" fill="rgb(50, 49, 63)" stroke="none" stroke-width="1px">20</text><text x="93.33333333333333" y="0" dx="0em" dy="0.95em" style="text-anchor: middle; visibility: inherit; font-family: &quot;Helvetica Neue&quot;, sans-serif; font-size: 12px; font-weight: 200;" fill="rgb(50, 49, 63)" stroke="none" stroke-width="1px">40</text><text x="124.44444444444444" y="0" dx="0em" dy="0.95em" style="text-anchor: middle; visibility: inherit; font-family: &quot;Helvetica Neue&quot;, sans-serif; font-size: 12px; font-weight: 200;" fill="rgb(50, 49, 63)" stroke="none" stroke-width="1px">60</text><text x="155.55555555555557" y="0" dx="0em" dy="0.95em" style="text-anchor: middle; visibility: inherit; font-family: &quot;Helvetica Neue&quot;, sans-serif; font-size: 12px; font-weight: 200;" fill="rgb(50, 49, 63)" stroke="none" stroke-width="1px">80</text><text x="186.66666666666666" y="0" dx="0em" dy="0.95em" style="text-anchor: middle; visibility: inherit; font-family: &quot;Helvetica Neue&quot;, sans-serif; font-size: 12px; font-weight: 200;" fill="rgb(50, 49, 63)" stroke="none" stroke-width="1px">100</text><text x="217.77777777777777" y="0" dx="0em" dy="0.95em" style="text-anchor: middle; visibility: inherit; font-family: &quot;Helvetica Neue&quot;, sans-serif; font-size: 12px; font-weight: 200;" fill="rgb(50, 49, 63)" stroke="none" stroke-width="1px">120</text><text x="248.88888888888889" y="0" dx="0em" dy="0.95em" style="text-anchor: middle; visibility: inherit; font-family: &quot;Helvetica Neue&quot;, sans-serif; font-size: 12px; font-weight: 200;" fill="rgb(50, 49, 63)" stroke="none" stroke-width="1px">140</text><text x="280" y="0" dx="0em" dy="0.95em" style="text-anchor: middle; visibility: hidden; font-family: &quot;Helvetica Neue&quot;, sans-serif; font-size: 12px; font-weight: 200;" fill="rgb(50, 49, 63)" stroke="none" stroke-width="1px">160</text></g><line x1="0" y1="0" x2="280" y2="0" fill="rgb(0, 0, 0)" stroke="rgb(204, 204, 204)" stroke-width="1px"></line></g></g></g></g></svg>