<svg viewBox="0 0 330 200" xmlns="http://www.w3.org/2000/svg"><g><g><g><g><g><line x1="50" y1="178" x2="45" y2="178" style="visibility: inherit;" fill="rgb(0, 0, 0)" stroke="rgb(204, 204, 204)" stroke-width="1px"></line><line x1="50" y1="161.8181818181818" x2="45" y2="161.8181818181818" style="visibility: inherit;" fill="rgb(0, 0, 0)" stroke="rgb(204, 204, 204)" stroke-width="1px"></line><line x1="50" y1="145.63636363636365" x2="45" y2="145.63636363636365" style="visibility: inherit;" fill="rgb(0, 0, 0)" stroke="rgb(204, 204, 204)" stroke-width="1px"></line><line x1="50" y1="129.45454545454544" x2="45" y2="129.45454545454544" style="visibility: inherit;" fill="rgb(0, 0, 0)" stroke="rgb(204, 204, 204)" stroke-width="1px"></line><line x1="50" y1="113.27272727272725" x2="45" y2="113.27272727272725" style="visibility: inherit;" fill="rgb(0, 0, 0)" stroke="rgb(204, 204, 204)" stroke-width="1px"></line><line x1="50" y1="97.09090909090911" x2="45" y2="97.09090909090911" style="visibility: inherit;" fill="rgb(0, 0, 0)" stroke="rgb(204, 204, 204)" stroke-width="1px"></line><line x1="50" y1="80.90909090909089" x2="45" y2="80.90909090909089" style="visibility: inherit;" fill="rgb(0, 0, 0)" stroke="rgb(204, 204, 204)" stroke-width="1px"></line><line x1="50" y1="64.7272727272727" x2="45" y2="64.7272727272727" style="visibility: inherit;" fill="rgb(0, 0, 0)" stroke="rgb(204, 204, 204)" stroke-width="1px"></line><line x1="50" y1="48.54545454545453" x2="45" y2="48.54545454545453" style="visibility: inherit;" fill="rgb(0, 0, 0)" stroke="rgb(204, 204, 204)" stroke-width="1px"></line><line x1="50" y1="32.363636363636346" x2="45" y2="32.363636363636346" style="visibility: inherit;" fill="rgb(0, 0, 0)" stroke="rgb(204, 204, 204)" stroke-width="1px"></line><line x1="50" y1="16.18181818181816" x2="45" y2="16.18181818181816" style="visibility: inherit;" fill="rgb(0, 0, 0)" stroke="rgb(204, 204, 204)" stroke-width="1px"></line><line x1="50" y1="0" x2="45" y2="0" style="visibility: inherit;" fill="rgb(0, 0, 0)" stroke="rgb(204, 204, 204)" stroke-width="1px"></line></g><g transform="translate(40, 0)"><text x="0" y="178" dx="0em" dy="0.3em" style="text-anchor: end; visibility: hidden; font-family: &quot;Helvetica Neue&quot;, sans-serif; font-size: 12px; font-weight: 200;" fill="rgb(50, 49, 63)" stroke="none" stroke-width="1px">0.13</text><text x="0" y="161.8181818181818" dx="0em" dy="0.3em" style="text-anchor: end; visibility: inherit; font-family: &quot;Helvetica Neue&quot;, sans-serif; font-size: 12px; font-weight: 200;" fill="rgb(50, 49, 63)" stroke="none" stroke-width="1px">0.14</text><text x="0" y="145.63636363636365" dx="0em" dy="0.3em" style="text-anchor: end; visibility: hidden; font-family: &quot;Helvetica Neue&quot;, sans-serif; font-size: 12px; font-weight: 200;" fill="rgb(50, 49, 63)" stroke="none" stroke-width="1px">0.15</text><text x="0" y="129.45454545454544" dx="0em" dy="0.3em" style="text-anchor: end; visibility: inherit; font-family: &quot;Helvetica Neue&quot;, sans-serif; font-size: 12px; font-weight: 200;" fill="rgb(50, 49, 63)" stroke="none" stroke-width="1px">0.16</text><text x="0" y="113.27272727272725" dx="0em" dy="0.3em" style="text-anchor: end; visibility: hidden; font-family: &quot;Helvetica Neue&quot;, sans-serif; font-size: 12px; font-weight: 200;" fill="rgb(50, 49, 63)" stroke="none" stroke-width="1px">0.17</text><text x="0" y="97.09090909090911" dx="0em" dy="0.3em" style="text-anchor: end; visibility: inherit; font-family: &quot;Helvetica Neue&quot;, sans-serif; font-size: 12px; font-weight: 200;" fill="rgb(50, 49, 63)" stroke="none" stroke-width="1px">0.18</text><text x="0" y="80.90909090909089" dx="0em" dy="0.3em" style="text-anchor: end; visibility: hidden; font-family: &quot;Helvetica Neue&quot;, sans-serif; font-size: 12px; font-weight: 200;" fill="rgb(50, 49, 63)" stroke="none" stroke-width="1px">0.19</text><text x="0" y="64.7272727272727" dx="0em" dy="0.3em" style="text-anchor: end; visibility: inherit; font-family: &quot;Helvetica Neue&quot;, sans-serif; font-size: 12px; font-weight: 200;" fill="rgb(50, 49, 63)" stroke="none" stroke-width="1px">0.2</text><text x="0" y="48.54545454545453" dx="0em" dy="0.3em" style="text-anchor: end; visibility: hidden; font-family: &quot;Helvetica Neue&quot;, sans-serif; font-size: 12px; font-weight: 200;" fill="rgb(50, 49, 63)" stroke="none" stroke-width="1px">0.21</text><text x="0" y="32.363636363636346" dx="0em" dy="0.3em" style="text-anchor: end; visibility: inherit; font-family: &quot;Helvetica Neue&quot;, sans-serif; font-size: 12px; font-weight: 200;" fill="rgb(50, 49, 63)" stroke="none" stroke-width="1px">0.22</text><text x="0" y="16.18181818181816" dx="0em" dy="0.3em" style="text-anchor: end; visibility: hidden; font-family: &quot;Helvetica Neue&quot;, sans-serif; font-size: 12px; font-weight: 200;" fill="rgb(50, 49, 63)" stroke="none" stroke-width="1px">0.23</text><text x="0" y="0" dx="0em" dy="0.3em" style="text-anchor: end; visibility: hidden; font-family: &quot;Helvetica Neue&quot;, sans-serif; font-size: 12px; font-weight: 200;" fill="rgb(50, 49, 63)" stroke="none" stroke-width="1px">0.24</text></g><line x1="50" y1="0" x2="50" y2="178" fill="rgb(0, 0, 0)" stroke="rgb(204, 204, 204)" stroke-width="1px"></line></g></g><g transform="translate(50, 0)" clip-path="url(#clip_0)"><clipPath id="clip_0"><rect width="280" height="178"></rect></clipPath><g><g><g><line x1="0" y1="0" x2="0" y2="178" fill="rgb(0, 0, 0)" stroke="rgb(60, 60, 60)" stroke-width="1px" opacity="0.25"></line><line x1="23.333333333333332" y1="0" x2="23.333333333333332" y2="178" fill="rgb(0, 0, 0)" stroke="rgb(60, 60, 60)" stroke-width="1px" opacity="0.25"></line><line x1="46.666666666666664" y1="0" x2="46.666666666666664" y2="178" fill="rgb(0, 0, 0)" stroke="rgb(60, 60, 60)" stroke-width="1px" opacity="0.25"></line><line x1="70" y1="0" x2="70" y2="178" fill="rgb(0, 0, 0)" stroke="rgb(60, 60, 60)" stroke-width="1px" opacity="0.25"></line><line x1="93.33333333333333" y1="0" x2="93.33333333333333" y2="178" fill="rgb(0, 0, 0)" stroke="rgb(60, 60, 60)" stroke-width="1px" opacity="0.25"></line><line x1="116.66666666666667" y1="0" x2="116.66666666666667" y2="178" fill="rgb(0, 0, 0)" stroke="rgb(60, 60, 60)" stroke-width="1px" opacity="0.25"></line><line x1="140" y1="0" x2="140" y2="178" fill="rgb(0, 0, 0)" stroke="rgb(60, 60, 60)" stroke-width="1px" opacity="0.25"></line><line x1="163.33333333333334" y1="0" x2="163.33333333333334" y2="178" fill="rgb(0, 0, 0)" stroke="rgb(60, 60, 60)" stroke-width="1px" opacity="0.25"></line><line x1="186.66666666666666" y1="0" x2="186.66666666666666" y2="178" fill="rgb(0, 0, 0)" stroke="rgb(60, 60, 60)" stroke-width="1px" opacity="0.25"></line><line x1="210" y1="0" x2="210" y2="178" fill="rgb(0, 0, 0)" stroke="rgb(60, 60, 60)" stroke-width="1px" opacity="0.25"></line><line x1="233.33333333333334" y1="0" x2="233.33333333333334" y2="178" fill="rgb(0, 0, 0)" stroke="rgb(60, 60, 60)" stroke-width="1px" opacity="0.25"></line><line x1="256.66666666666663" y1="0" x2="256.66666666666663" y2="178" fill="rgb(0, 0, 0)" stroke="rgb(60, 60, 60)" stroke-width="1px" opacity="0.25"></line><line x1="280" y1="0" x2="280" y2="178" fill="rgb(0, 0, 0)" stroke="rgb(60, 60, 60)" stroke-width="1px" opacity="0.25"></line></g><g><line x1="0" y1="178" x2="280" y2="178" fill="rgb(0, 0, 0)" stroke="rgb(60, 60, 60)" stroke-width="1px" opacity="0.25"></line><line x1="0" y1="161.8181818181818" x2="280" y2="161.8181818181818" fill="rgb(0, 0, 0)" stroke="rgb(60, 60, 60)" stroke-width="1px" opacity="0.25"></line><line x1="0" y1="145.63636363636365" x2="280" y2="145.63636363636365" fill="rgb(0, 0, 0)" stroke="rgb(60, 60, 60)" stroke-width="1px" opacity="0.25"></line><line x1="0" y1="129.45454545454544" x2="280" y2="129.45454545454544" fill="rgb(0, 0, 0)" stroke="rgb(60, 60, 60)" stroke-width="1px" opacity="0.25"></line><line x1="0" y1="113.27272727272725" x2="280" y2="113.27272727272725" fill="rgb(0, 0, 0)" stroke="rgb(60, 60, 60)" stroke-width="1px" opacity="0.25"></line><line x1="0" y1="97.09090909090911" x2="280" y2="97.09090909090911" fill="rgb(0, 0, 0)" stroke="rgb(60, 60, 60)" stroke-width="1px" opacity="0.25"></line><line x1="0" y1="80.90909090909089" x2="280" y2="80.90909090909089" fill="rgb(0, 0, 0)" stroke="rgb(60, 60, 60)" stroke-width="1px" opacity="0.25"></line><line x1="0" y1="64.7272727272727" x2="280" y2="64.7272727272727" fill="rgb(0, 0, 0)" stroke="rgb(60, 60, 60)" stroke-width="1px" opacity="0.25"></line><line x1="0" y1="48.54545454545453" x2="280" y2="48.54545454545453" fill="rgb(0, 0, 0)" stroke="rgb(60, 60, 60)" stroke-width="1px" opacity="0.25"></line><line x1="0" y1="32.363636363636346" x2="280" y2="32.363636363636346" fill="rgb(0, 0, 0)" stroke="rgb(60, 60, 60)" stroke-width="1px" opacity="0.25"></line><line x1="0" y1="16.18181818181816" x2="280" y2="16.18181818181816" fill="rgb(0, 0, 0)" stroke="rgb(60, 60, 60)" stroke-width="1px" opacity="0.25"></line><line x1="0" y1="0" x2="280" y2="0" fill="rgb(0, 0, 0)" stroke="rgb(60, 60, 60)" stroke-width="1px" opacity="0.25"></line></g></g></g><g><g><line x1="0" y1="388.3636363636364" x2="280" y2="388.3636363636364" fill="rgb(0, 0, 0)" stroke="rgb(153, 153, 153)" stroke-width="1.5px"></line></g></g><g><g><line x1="23.333333333333332" y1="0" x2="23.333333333333332" y2="178" fill="rgb(0, 0, 0)" stroke="rgb(153, 153, 153)" stroke-width="1.5px"></line></g></g><g><g><g><g><g><path stroke="rgb(0, 119, 187)" stroke-width="2px" d="M23.333333333333332,152.64847333864734L24.5,152.64847333864734L25.666666666666664,152.64847333864734L26.833333333333336,152.64847333864734L28,152.64847333864736L29.166666666666668,152.64847333864734L30.333333333333336,152.64847333864736L31.5,152.64847333864736L32.666666666666664,152.64847333864736L33.833333333333336,152.64847333864734L35,152.64847333864736L36.16666666666667,152.64847333864734L37.333333333333336,152.64847333864734L38.5,152.64847333864736L39.666666666666664,152.64847333864742L40.833333333333336,152.64847333864736L42,152.64847333864736L43.16666666666667,152.64847333864742L44.33333333333333,152.64847333864736L45.5,152.64847333864736L46.666666666666664,152.64847333864736L47.833333333333336,152.64847333864734L49,152.64847333864734L50.166666666666664,152.64847333864734L51.33333333333333,133.6617592251636L52.5,117.5230873512383L53.66666666666667,113.23385126150987L54.833333333333336,112.17061300567897L56,109.37509597513119L57.166666666666664,107.48202514027923L58.333333333333336,106.13043129566944L59.5,102.94613998676547L60.66666666666667,100.38829129369933L61.83333333333333,98.85358215603073L63,97.50124388318596L64.16666666666666,91.72740979914698L65.33333333333333,85.24251004625901L66.5,85.01944359472469L67.66666666666667,85.31711653626276L68.83333333333333,85.06420748921715L70,86.20701014026123L71.16666666666666,83.87208276184668L72.33333333333334,83.76567441390766L73.5,82.19152974395949L74.66666666666667,84.26764226436465L75.83333333333333,86.59209662651251L77,86.04495677172586L78.16666666666667,87.44273374788969L79.33333333333333,86.77109062748956L80.5,86.15235317232752L81.66666666666667,84.48656262121042L82.83333333333333,83.27132706250353L84,82.75794695532322L85.16666666666666,82.4499188910156L86.33333333333334,83.55965013044889L87.5,84.65700168507573L88.66666666666666,83.37359050082594L89.83333333333334,81.52475694030046L91,81.06273084299383L92.16666666666667,81.00127641265112L93.33333333333333,80.96440375444547L94.5,80.51076734855496L95.66666666666667,79.37555023797094L96.83333333333333,80.20471963256338L98,79.62343441934323L99.16666666666667,80.13769855846071L100.33333333333333,78.93594773587321L101.5,77.78338443135354L102.66666666666666,77.30760767668295L103.83333333333334,79.39547655187296L105,78.05910172095335L106.16666666666666,78.55182490041841L107.33333333333334,77.12139791911348L108.5,72.3795071413954L109.66666666666667,71.04467233570728L110.83333333333333,70.67528426326156L112,70.23789983686817L113.16666666666667,69.32819514202374L114.33333333333333,68.56661109707586L115.5,67.89390908718114L116.66666666666667,69.21634877022828L117.83333333333333,69.14677731300698L119,70.18382128864978L120.16666666666666,71.88483452401108L121.33333333333334,71.82665561525225L122.5,71.36023545902978L123.66666666666666,70.2173577433619L124.83333333333334,72.12071762487957L126,73.26273355379018L127.16666666666667,72.00612099411127L128.33333333333331,72.1151887253536L129.5,71.31759409704937L130.66666666666666,71.70207258711643L131.83333333333334,71.7169984531155L133,70.64716712273933L134.16666666666669,70.00526832451361L135.33333333333334,69.83589027361941L136.5,68.87122817603327L137.66666666666666,67.42940529554726L138.83333333333334,66.5643115672556L140,67.12404218025624L141.16666666666666,66.59684528100692L142.33333333333331,67.14356240850698L143.5,66.82431864599863L144.66666666666669,67.06428519946081L145.83333333333334,65.69796547059538L147,65.95696048325166L148.16666666666666,66.54387030181262L149.33333333333334,65.81722934297359L150.5,66.24428003471976L151.66666666666666,68.01081011071028L152.83333333333331,66.91315445635342L154,67.11758668567371L155.16666666666669,67.02449444033985L156.33333333333334,67.18439067606552L157.5,70.73245019546891L158.66666666666666,73.72432117416055L159.83333333333331,73.79338287239153L161,72.10875900234615L162.16666666666669,71.96101030225333L163.33333333333334,70.57782264929608L164.5,69.96366164044768L165.66666666666666,69.16365222417147L166.83333333333334,68.46788534636453L168,68.26618644772154L169.16666666666666,68.57667991950295L170.33333333333331,67.46842792455499L171.5,69.39257288361983L172.66666666666669,69.46827300908316L173.83333333333334,68.65065781731153L175,70.5334236302409L176.16666666666666,70.58429626802292L177.33333333333331,70.183307039725L178.5,70.80573912468058L179.66666666666669,71.61072083173644L180.83333333333334,71.4464358169615L182,71.77937761906371L183.16666666666666,73.48944236126783L184.33333333333334,73.65245558465594L185.5,73.1029894796804L186.66666666666666,71.69452296671948L187.83333333333331,71.06519464186887L189,70.68759764695852L190.16666666666669,69.38225260003675L191.33333333333334,66.0099590609653L192.5,64.41809574848966L193.66666666666666,64.11025180001262L194.83333333333331,61.76797173097526L196,61.00987772856121L197.16666666666669,61.202285721005936L198.33333333333334,61.53349174451401L199.5,62.811002208594445L200.66666666666666,62.71448286510834L201.83333333333334,62.87232284194265L203,62.75127524511723L204.16666666666666,64.83622038697322L205.33333333333331,64.79263939406997L206.5,65.41376483733646L207.66666666666669,66.8652269532719L208.83333333333334,66.65731737285756L210,65.88529758560058L211.16666666666666,64.34329886327077L212.33333333333331,62.12355155185614L213.5,61.00746439304851L214.66666666666669,60.553573325805175L215.83333333333334,61.79153834640195L217,62.318556130718775L218.16666666666666,60.908705912324905L219.33333333333334,60.71006982029701L220.5,59.727862543145875L221.66666666666666,58.707025365888015L222.83333333333331,57.015726564442474L224,55.137921661640746L225.16666666666669,55.5215383809025L226.33333333333334,53.80989594054961L227.5,53.4301845153463L228.66666666666666,54.06538328215866L229.83333333333331,53.367715692270494L231,54.67517602732157L232.16666666666669,55.89116503931942L233.33333333333334,58.77833214646928L234.5,59.21609397785764L235.66666666666666,59.69450265961666L236.83333333333334,59.118522246737655L238,58.5571727709691L239.16666666666666,57.35733746357353L240.33333333333331,59.442284018095776L241.5,56.809617361873975L242.66666666666669,56.95607825712486L243.83333333333334,60.49606692712814L245,60.89399924014609L246.16666666666666,61.13275862795689L247.33333333333331,60.41298863870897L248.5,59.98112664516027L249.66666666666669,60.1535222599982L250.83333333333334,58.53089873991699L252,57.34157304494228L253.16666666666666,57.70676447793308L254.33333333333334,57.92587933772751L255.5,57.84158702556299" style="fill: none;" fill="none"></path></g><g><path stroke="rgb(255, 112, 67)" stroke-width="2px" d="M23.333333333333332,132.27258867567235L24.5,133.8580195646394L25.666666666666664,133.2844350795799L26.833333333333336,133.2963356577697L28,132.0021286168976L29.166666666666668,131.43830500053932L30.333333333333336,130.2157770357926L31.5,128.61325033008248L32.666666666666664,127.71572859147858L33.833333333333336,125.79097258334232L35,124.04182278882067L36.16666666666667,123.04262668474159L37.333333333333336,122.30596274229285L38.5,121.40299914526003L39.666666666666664,120.58481588792513L40.833333333333336,118.1564902728759L42,116.42314891778014L43.16666666666667,114.13792458488378L44.33333333333333,112.35181640936946L45.5,111.04960767108349L46.666666666666664,110.12994104093362L47.833333333333336,111.00794538772624L49,110.98128022576051L50.166666666666664,110.41181299268011L51.33333333333333,107.9024078556842L52.5,105.15147674075381L53.66666666666667,102.80909554064951L54.833333333333336,99.78940300544213L56,97.65473760955034L57.166666666666664,96.00496491010938L58.333333333333336,94.92285562942313L59.5,94.4580819319727L60.66666666666667,94.77879670992648L61.83333333333333,93.35697080758858L63,92.59611153093554L64.16666666666666,92.83142080677779L65.33333333333333,92.00405353690064L66.5,91.50763317825133L67.66666666666667,90.33346437154653L68.83333333333333,89.76733191269432L70,88.96643267157415L71.16666666666666,88.62426195069133L72.33333333333334,88.32671363603268L73.5,87.59472864418089L74.66666666666667,86.37146694053452L75.83333333333333,85.77586909663302L77,85.60300215473826L78.16666666666667,84.25399151511934L79.33333333333333,83.16785712985582L80.5,81.63985990795729L81.66666666666667,81.92222910818629L82.83333333333333,80.3390270919477L84,80.08093070853593L85.16666666666666,80.11055499778952L86.33333333333334,80.12832957134164L87.5,79.81614337286105L88.66666666666666,78.56803294372979L89.83333333333334,79.52567692663283L91,78.67048107750091L92.16666666666667,79.07980309986836L93.33333333333333,79.09478160776952L94.5,78.68868153280609L95.66666666666667,78.53725772492048L96.83333333333333,76.8321487271306L98,76.08581132996454L99.16666666666667,75.77637771497645L100.33333333333333,75.95969142969918L101.5,75.74681907080588L102.66666666666666,75.84971036098909L103.83333333333334,73.60535595059805L105,72.12037448105187L106.16666666666666,73.90444866754068L107.33333333333334,74.55979635461459L108.5,74.21505719942786L109.66666666666667,73.17802005667701L110.83333333333333,72.87865835875348L112,72.19169863297226L113.16666666666667,71.22605714937258L114.33333333333333,69.81648825468926L115.5,68.41728126974829L116.66666666666667,67.90060802139546L117.83333333333333,67.9595779560993L119,67.07253003019032L120.16666666666666,65.20276491797905L121.33333333333334,65.51067844441062L122.5,65.69542656026955L123.66666666666666,65.39118825008082L124.83333333333334,65.30088150105999L126,65.43118921606293L127.16666666666667,65.41712796285698L128.33333333333331,65.22420909163324L129.5,65.24681694709533L130.66666666666666,64.10733706812206L131.83333333333334,62.039999488083666L133,60.476745997448944L134.16666666666669,59.123697078248696L135.33333333333334,57.89677090190919L136.5,56.46879036977822L137.66666666666666,54.78180840086081L138.83333333333334,53.6773733373027L140,52.69186135655616L141.16666666666666,50.99363251696161L142.33333333333331,50.943257686155206L143.5,51.23588373028305L144.66666666666669,51.180844651240506L145.83333333333334,51.19394414491882L147,50.648347838110126L148.16666666666666,51.058937821456L149.33333333333334,50.982440868851825L150.5,51.02877893438175L151.66666666666666,49.21171235512199L152.83333333333331,48.02922652535847L154,46.674033142276954L155.16666666666669,45.90704005353189L156.33333333333334,46.6460117336392L157.5,45.75185838503771L158.66666666666666,44.80027919617265L159.83333333333331,43.860357799138086L161,42.74293931278643L162.16666666666669,43.45613787362984L163.33333333333334,44.02242583344747L164.5,43.80873296120711L165.66666666666666,42.435236408519984L166.83333333333334,41.28828753429602L168,40.46174938645012L169.16666666666666,40.05807237995023L170.33333333333331,39.30852346902324L171.5,39.13552212397485L172.66666666666669,42.16800415108554L173.83333333333334,42.83444877510155L175,45.1714308502965L176.16666666666666,45.65118056356704L177.33333333333331,46.7231011000643L178.5,47.04340247935096L179.66666666666669,46.08253871467244L180.83333333333334,45.5521433969692L182,45.971853973778366L183.16666666666666,45.716337612836725L184.33333333333334,45.60915073737567L185.5,45.82157625872205L186.66666666666666,45.810662748218334L187.83333333333331,45.29677193488902L189,44.29661262056422L190.16666666666669,44.065490915684876L191.33333333333334,41.98970259197188L192.5,40.88259842105555L193.66666666666666,40.95628368593688L194.83333333333331,39.15562542628791L196,36.922185878248115L197.16666666666669,36.089464856451315L198.33333333333334,35.22085835965768L199.5,34.100105872346745L200.66666666666666,33.104803437348494L201.83333333333334,31.21621820590275L203,29.575724360008223L204.16666666666666,28.822033112875488L205.33333333333331,28.508187187907367L206.5,29.242309519657766L207.66666666666669,29.63666962271941L208.83333333333334,31.625909220926417L210,31.666408387600114L211.16666666666666,30.307058234949864L212.33333333333331,29.906544968179105L213.5,28.78992041737402L214.66666666666669,28.7195246310105L215.83333333333334,26.694058562418377L217,25.478778921263086L218.16666666666666,25.349190080689482L219.33333333333334,24.164515125198676L220.5,24.191657919335313L221.66666666666666,24.669163361740544L222.83333333333331,25.001789568287478L224,24.92462764559255L225.16666666666669,25.662401200510544L226.33333333333334,26.10506533346131L227.5,26.186181693931644L228.66666666666666,25.26628903726356L229.83333333333331,25.590670034005342L231,26.477123458377633L232.16666666666669,27.424092337820355L233.33333333333334,28.176765429901394L234.5,28.62836928515003L235.66666666666666,28.161383830868147L236.83333333333334,28.019551736495316L238,27.15038177133664L239.16666666666666,27.27459132258008L240.33333333333331,27.349117053326154L241.5,27.901165553685644L242.66666666666669,27.67893865088564L243.83333333333334,26.992136861074727L245,25.980476843068573L246.16666666666666,25.096743185641827L247.33333333333331,23.413468044050546L248.5,22.541862137292043L249.66666666666669,22.20339035765241L250.83333333333334,21.585210465049187L252,21.444907589891244L253.16666666666666,21.17624374549635L254.33333333333334,20.78443073334023L255.5,20.180369042330994" style="fill: none;" fill="none"></path></g></g></g></g><g opacity="0.2"><g><g><g><path stroke="rgb(0, 119, 187)" stroke-width="2px" d="M23.333333333333332,152.64847333864734L24.5,152.64847333864734L25.666666666666664,152.64847333864734L26.833333333333336,152.64847333864734L28,152.64847333864734L29.166666666666668,152.64847333864734L30.333333333333336,152.64847333864734L31.5,152.64847333864734L32.666666666666664,152.64847333864734L33.833333333333336,152.64847333864734L35,152.64847333864734L36.16666666666667,152.64847333864734L37.333333333333336,152.64847333864734L38.5,152.64847333864734L39.666666666666664,152.64847333864734L40.833333333333336,152.64847333864734L42,152.64847333864734L43.16666666666667,152.64847333864734L44.33333333333333,152.64847333864734L45.5,152.64847333864734L46.666666666666664,152.64847333864734L47.833333333333336,152.64847333864734L49,152.64847333864734L50.166666666666664,152.64847333864734L51.33333333333333,105.1818230043758L52.5,93.31514836441387L53.66666666666667,106.80000810189681L54.833333333333336,110.57575725425373L56,105.1818230043758L57.166666666666664,104.64241993427277L58.333333333333336,104.10304097695784L59.5,98.16970365697686L60.66666666666667,96.55151855945587L61.83333333333333,96.55151855945587L63,95.4727365320379L64.16666666666666,83.06665882197292L65.33333333333333,75.51516051725908L66.5,84.68484391949393L67.66666666666667,85.76362594691189L68.83333333333333,84.68484391949393L70,87.92121411453593L71.16666666666666,80.36969169703396L72.33333333333334,83.60606189207597L73.5,79.83031273971903L74.66666666666667,87.3818110444329L75.83333333333333,90.07877816937186L77,85.22424698959696L78.16666666666667,89.53939921205694L79.33333333333333,85.76362594691189L80.5,85.22424698959696L81.66666666666667,81.98787679455496L82.83333333333333,81.44847372445192L84,81.98787679455496L85.16666666666666,81.98787679455496L86.33333333333334,85.22424698959696L87.5,86.30302901701494L88.66666666666666,81.44847372445192L89.83333333333334,78.75150659951295L91,80.36969169703396L92.16666666666667,80.909094767137L93.33333333333333,80.909094767137L94.5,79.83031273971903L95.66666666666667,77.67272457209499L96.83333333333333,81.44847372445192L98,78.75150659951295L99.16666666666667,80.909094767137L100.33333333333333,77.13332150199197L101.5,76.05453947457399L102.66666666666666,76.59394254467703L103.83333333333334,82.527279864658L105,76.05453947457399L106.16666666666666,79.290909669616L107.33333333333334,74.97575744715603L108.5,65.26667097481813L109.66666666666667,69.04242012717508L110.83333333333333,70.12120215459304L112,69.5818231972781L113.16666666666667,67.96363809975709L114.33333333333333,67.42423502965407L115.5,66.88485607233913L116.66666666666667,71.2000082947991L117.83333333333333,69.04242012717508L119,71.73938725211404L120.16666666666666,74.43635437705301L121.33333333333334,71.73938725211404L122.5,70.66060522469606L123.66666666666666,68.50304116986014L124.83333333333334,74.97575744715603L126,74.97575744715603L127.16666666666667,70.12120215459304L128.33333333333331,72.27879032221706L129.5,70.12120215459304L130.66666666666666,72.27879032221706L131.83333333333334,71.73938725211404L133,69.04242012717508L134.16666666666669,69.04242012717508L135.33333333333334,69.5818231972781L136.5,67.42423502965407L137.66666666666666,65.26667097481813L138.83333333333334,65.26667097481813L140,67.96363809975709L141.16666666666666,65.80604993213306L142.33333333333331,67.96363809975709L143.5,66.34545300223611L144.66666666666669,67.42423502965407L145.83333333333334,63.64848587729715L147,66.34545300223611L148.16666666666666,67.42423502965407L149.33333333333334,64.7272679047151L150.5,66.88485607233913L151.66666666666666,70.66060522469606L152.83333333333331,65.26667097481813L154,67.42423502965407L155.16666666666669,66.88485607233913L156.33333333333334,67.42423502965407L157.5,76.05453947457399L158.66666666666666,78.21212764219804L159.83333333333331,73.89697541973807L161,69.5818231972781L162.16666666666669,71.73938725211404L163.33333333333334,68.50304116986014L164.5,69.04242012717508L165.66666666666666,67.96363809975709L166.83333333333334,67.42423502965407L168,67.96363809975709L169.16666666666666,69.04242012717508L170.33333333333331,65.80604993213306L171.5,72.27879032221706L172.66666666666669,69.5818231972781L173.83333333333334,67.42423502965407L175,73.35757234963502L176.16666666666666,70.66060522469606L177.33333333333331,69.5818231972781L178.5,71.73938725211404L179.66666666666669,72.81819339232011L180.83333333333334,71.2000082947991L182,72.27879032221706L183.16666666666666,76.05453947457399L184.33333333333334,73.89697541973807L185.5,72.27879032221706L186.66666666666666,69.5818231972781L187.83333333333331,70.12120215459304L189,70.12120215459304L190.16666666666669,67.42423502965407L191.33333333333334,60.95151875235818L192.5,62.03030077977614L193.66666666666666,63.64848587729715L194.83333333333331,58.25455162741922L196,59.8727367249402L197.16666666666669,61.49089770967309L198.33333333333334,62.03030077977614L199.5,64.7272679047151L200.66666666666666,62.56970384987916L201.83333333333334,63.1090828071941L203,62.56970384987916L204.16666666666666,67.96363809975709L205.33333333333331,64.7272679047151L206.5,66.34545300223611L207.66666666666669,69.04242012717508L208.83333333333334,66.34545300223611L210,64.7272679047151L211.16666666666666,62.03030077977614L212.33333333333331,58.79393058473413L213.5,59.333333654837176L214.66666666666669,59.8727367249402L215.83333333333334,63.64848587729715L217,63.1090828071941L218.16666666666666,58.79393058473413L219.33333333333334,60.412115682255134L220.5,58.25455162741922L221.66666666666666,57.17576960000123L222.83333333333331,54.47877836227417L224,52.32121430743824L225.16666666666669,56.09696345979516L226.33333333333334,51.24243228002028L227.5,52.86061737754129L228.66666666666666,55.018181432377204L229.83333333333331,52.32121430743824L231,56.63636652989821L232.16666666666669,57.71514855731617L233.33333333333334,63.1090828071941L234.5,59.8727367249402L235.66666666666666,60.412115682255134L236.83333333333334,58.25455162741922L238,57.71514855731617L239.16666666666666,55.55758450248025L240.33333333333331,62.56970384987916L241.5,52.86061737754129L242.66666666666669,57.17576960000123L243.83333333333334,65.80604993213306L245,61.49089770967309L246.16666666666666,61.49089770967309L247.33333333333331,59.333333654837176L248.5,59.333333654837176L249.66666666666669,60.412115682255134L250.83333333333334,56.09696345979516L252,55.55758450248025L253.16666666666666,58.25455162741922L254.33333333333334,58.25455162741922L255.5,57.71514855731617" style="fill: none;" fill="none"></path></g><g><path stroke="rgb(255, 112, 67)" stroke-width="2px" d="M23.333333333333332,132.27258867567235L24.5,134.8092780980197L25.666666666666664,132.73379397392273L26.833333333333336,133.31033073772085L28,130.31241190433502L29.166666666666668,130.65833396261388L30.333333333333336,128.46754248575732L31.5,126.27675100890073L32.666666666666664,126.39205836166036L33.833333333333336,122.93293423002416L35,121.4339627569372L36.16666666666667,121.54927010969683L37.333333333333336,121.20337216420606L38.5,120.05032274939796L39.666666666666664,119.35850274562836L40.833333333333336,114.51571449366483L42,113.8238703771071L43.16666666666667,110.71066830374978L44.33333333333333,109.67292624170129L45.5,109.09641359069131L46.666666666666664,108.75049153241244L47.833333333333336,112.32492301680826L49,110.94128300926901L50.166666666666664,109.55761888894168L51.33333333333333,104.13831798596816L52.5,101.02509179982272L53.66666666666667,99.29552973400463L54.833333333333336,95.25986883857034L56,94.4527414820411L57.166666666666664,93.53030677275224L58.333333333333336,93.299692067233L59.5,93.76092147827148L60.66666666666667,95.25986883857034L61.83333333333333,91.22423205592415L63,91.45482264865528L64.16666666666666,93.18438471447338L65.33333333333333,90.76300264488567L66.5,90.76300264488567L67.66666666666667,88.57221116802909L68.83333333333333,88.91813322630794L70,87.76508381149985L71.16666666666666,88.11100586977871L72.33333333333334,87.88039116425948L73.5,86.49675115672024L74.66666666666667,84.5365743853829L75.83333333333333,84.88247233087367L77,85.34370174191214L78.16666666666667,82.2304755557667L79.33333333333333,81.53865555199708L80.5,79.34786407514052L81.66666666666667,82.34578290852632L82.83333333333333,77.96422406760128L84,79.69378613341938L85.16666666666666,80.15499143166976L86.33333333333334,80.15499143166976L87.5,79.34786407514052L88.66666666666666,76.69586730003357L89.83333333333334,80.9621429009871L91,77.38768730380319L92.16666666666667,79.69378613341938L93.33333333333333,79.11724936962128L94.5,78.07953142036091L95.66666666666667,78.31012201309204L96.83333333333333,74.27448523044586L98,74.96630523421548L99.16666666666667,75.31222729249434L100.33333333333333,76.23466200178319L101.5,75.42751053246583L102.66666666666666,76.00404729626395L103.83333333333334,70.23882433501156L105,69.8929022767327L106.16666666666666,76.58055994727395L107.33333333333334,75.54281788522546L108.5,73.69794846664774L109.66666666666667,71.6224643425508L110.83333333333333,72.42961581186815L112,71.16125904430042L113.16666666666667,69.77759492397308L114.33333333333333,67.70213491266423L115.5,66.31847079233688L116.66666666666667,67.12559814886613L117.83333333333333,68.048032858155L119,65.7419581413269L120.16666666666666,62.39811724966222L121.33333333333334,65.97254873405802L122.5,65.97254873405802L123.66666666666666,64.93483078479767L124.83333333333334,65.16542137752879L126,65.62665078856729L127.16666666666667,65.39603608304803L128.33333333333331,64.93483078479767L129.5,65.2807287302884L130.66666666666666,62.39811724966222L131.83333333333334,58.93899311802603L133,58.1318657614968L134.16666666666669,57.09412369944833L135.33333333333334,56.05638163739984L136.5,54.32681957158174L137.66666666666666,52.25133544748479L138.83333333333334,52.02072074196555L140,51.21359338543631L141.16666666666666,48.44628925756973L142.33333333333331,50.867695439945564L143.5,51.6748227964748L144.66666666666669,51.0982860326767L145.83333333333334,51.21359338543631L147,49.829953377897084L148.16666666666666,51.6748227964748L149.33333333333334,50.867695439945564L150.5,51.0982860326767L151.66666666666666,46.4861124862324L152.83333333333331,46.25549778071317L154,44.6412430676547L155.16666666666669,44.7565504204143L156.33333333333334,47.754469253800124L157.5,44.41062836213544L158.66666666666666,43.372910412875086L159.83333333333331,42.45047570358622L161,41.0668115832589L162.16666666666669,44.52593571489507L163.33333333333334,44.87185777317393L164.5,43.488193652846604L165.66666666666666,40.37499157948926L166.83333333333334,39.567864222960026L168,39.22194216468117L169.16666666666666,39.452556870200425L170.33333333333331,38.18420010263267L171.5,38.87602010640231L172.66666666666669,46.71672719175163L173.83333333333334,43.83411571112546L175,48.67690396308899L176.16666666666666,46.37080513347277L177.33333333333331,48.3309819048101L178.5,47.523854548280866L179.66666666666669,44.6412430676547L180.83333333333334,44.7565504204143L182,46.60141983899203L183.16666666666666,45.333063071424306L184.33333333333334,45.448370424183935L185.5,46.14021454074165L186.66666666666666,45.794292482462794L187.83333333333331,44.52593571489507L189,42.79637364907697L190.16666666666669,43.718808358365834L191.33333333333334,38.87602010640231L192.5,39.22194216468117L193.66666666666666,41.0668115832589L194.83333333333331,36.4546380368146L196,33.572026556188405L197.16666666666669,34.84038332375613L198.33333333333334,33.917948614467264L199.5,32.41897714138028L200.66666666666666,31.611849784851046L201.83333333333334,28.383340358734102L203,27.114983591166407L204.16666666666666,27.691496242176385L205.33333333333331,28.037418300455244L206.5,30.34349301728335L207.66666666666669,30.228209777311832L208.83333333333334,34.60976861823687L210,31.727157137610703L211.16666666666666,28.2680330059745L212.33333333333331,29.305775068022996L213.5,27.114983591166407L214.66666666666669,28.61393095146525L215.83333333333334,23.655859459530205L217,23.655859459530205L218.16666666666666,25.154806819829076L219.33333333333334,22.38750269196251L220.5,24.23237211054021L221.66666666666666,25.385421525348306L222.83333333333331,25.500728878107935L224,24.808884761550217L225.16666666666669,26.769061532887548L226.33333333333334,26.769061532887548L227.5,26.30785623463717L228.66666666666666,23.886450052261324L229.83333333333331,26.077241529117913L231,27.806803594936014L232.16666666666669,28.84454565698448L233.33333333333334,29.305775068022996L234.5,29.305775068022996L235.66666666666666,27.460905649445266L236.83333333333334,27.806803594936014L238,25.846626823598683L239.16666666666666,27.460905649445266L240.33333333333331,27.460905649445266L241.5,28.72923830422488L242.66666666666669,27.345598296685637L243.83333333333334,25.961934176358312L245,24.46298681605944L246.16666666666666,23.771142699501723L247.33333333333331,20.88855533166364L248.5,21.234453277154387L249.66666666666669,21.695682688192875L250.83333333333334,20.65794062614438L252,21.234453277154387L253.16666666666666,20.77324797890401L254.33333333333334,20.19671121510592L255.5,19.274276505817056" style="fill: none;" fill="none"></path></g></g></g></g></g></g><g transform="translate(50, 178)" clip-path="url(#clip_1)"><clipPath id="clip_1"><rect width="280" height="22"></rect></clipPath><g><g><line x1="0" y1="0" x2="0" y2="5" style="visibility: inherit;" fill="rgb(0, 0, 0)" stroke="rgb(204, 204, 204)" stroke-width="1px"></line><line x1="23.333333333333332" y1="0" x2="23.333333333333332" y2="5" style="visibility: inherit;" fill="rgb(0, 0, 0)" stroke="rgb(204, 204, 204)" stroke-width="1px"></line><line x1="46.666666666666664" y1="0" x2="46.666666666666664" y2="5" style="visibility: inherit;" fill="rgb(0, 0, 0)" stroke="rgb(204, 204, 204)" stroke-width="1px"></line><line x1="70" y1="0" x2="70" y2="5" style="visibility: inherit;" fill="rgb(0, 0, 0)" stroke="rgb(204, 204, 204)" stroke-width="1px"></line><line x1="93.33333333333333" y1="0" x2="93.33333333333333" y2="5" style="visibility: inherit;" fill="rgb(0, 0, 0)" stroke="rgb(204, 204, 204)" stroke-width="1px"></line><line x1="116.66666666666667" y1="0" x2="116.66666666666667" y2="5" style="visibility: inherit;" fill="rgb(0, 0, 0)" stroke="rgb(204, 204, 204)" stroke-width="1px"></line><line x1="140" y1="0" x2="140" y2="5" style="visibility: inherit;" fill="rgb(0, 0, 0)" stroke="rgb(204, 204, 204)" stroke-width="1px"></line><line x1="163.33333333333334" y1="0" x2="163.33333333333334" y2="5" style="visibility: inherit;" fill="rgb(0, 0, 0)" stroke="rgb(204, 204, 204)" stroke-width="1px"></line><line x1="186.66666666666666" y1="0" x2="186.66666666666666" y2="5" style="visibility: inherit;" fill="rgb(0, 0, 0)" stroke="rgb(204, 204, 204)" stroke-width="1px"></line><line x1="210" y1="0" x2="210" y2="5" style="visibility: inherit;" fill="rgb(0, 0, 0)" stroke="rgb(204, 204, 204)" stroke-width="1px"></line><line x1="233.33333333333334" y1="0" x2="233.33333333333334" y2="5" style="visibility: inherit;" fill="rgb(0, 0, 0)" stroke="rgb(204, 204, 204)" stroke-width="1px"></line><line x1="256.66666666666663" y1="0" x2="256.66666666666663" y2="5" style="visibility: inherit;" fill="rgb(0, 0, 0)" stroke="rgb(204, 204, 204)" stroke-width="1px"></line><line x1="280" y1="0" x2="280" y2="5" style="visibility: inherit;" fill="rgb(0, 0, 0)" stroke="rgb(204, 204, 204)" stroke-width="1px"></line></g><g transform="translate(0, 8)"><text x="0" y="0" dx="0em" dy="0.95em" style="text-anchor: middle; visibility: hidden; font-family: &quot;Helvetica Neue&quot;, sans-serif; font-size: 12px; font-weight: 200;" fill="rgb(50, 49, 63)" stroke="none" stroke-width="1px">-20</text><text x="23.333333333333332" y="0" dx="0em" dy="0.95em" style="text-anchor: middle; visibility: inherit; font-family: &quot;Helvetica Neue&quot;, sans-serif; font-size: 12px; font-weight: 200;" fill="rgb(50, 49, 63)" stroke="none" stroke-width="1px">0</text><text x="46.666666666666664" y="0" dx="0em" dy="0.95em" style="text-anchor: middle; visibility: hidden; font-family: &quot;Helvetica Neue&quot;, sans-serif; font-size: 12px; font-weight: 200;" fill="rgb(50, 49, 63)" stroke="none" stroke-width="1px">20</text><text x="70" y="0" dx="0em" dy="0.95em" style="text-anchor: middle; visibility: inherit; font-family: &quot;Helvetica Neue&quot;, sans-serif; font-size: 12px; font-weight: 200;" fill="rgb(50, 49, 63)" stroke="none" stroke-width="1px">40</text><text x="93.33333333333333" y="0" dx="0em" dy="0.95em" style="text-anchor: middle; visibility: hidden; font-family: &quot;Helvetica Neue&quot;, sans-serif; font-size: 12px; font-weight: 200;" fill="rgb(50, 49, 63)" stroke="none" stroke-width="1px">60</text><text x="116.66666666666667" y="0" dx="0em" dy="0.95em" style="text-anchor: middle; visibility: inherit; font-family: &quot;Helvetica Neue&quot;, sans-serif; font-size: 12px; font-weight: 200;" fill="rgb(50, 49, 63)" stroke="none" stroke-width="1px">80</text><text x="140" y="0" dx="0em" dy="0.95em" style="text-anchor: middle; visibility: hidden; font-family: &quot;Helvetica Neue&quot;, sans-serif; font-size: 12px; font-weight: 200;" fill="rgb(50, 49, 63)" stroke="none" stroke-width="1px">100</text><text x="163.33333333333334" y="0" dx="0em" dy="0.95em" style="text-anchor: middle; visibility: inherit; font-family: &quot;Helvetica Neue&quot;, sans-serif; font-size: 12px; font-weight: 200;" fill="rgb(50, 49, 63)" stroke="none" stroke-width="1px">120</text><text x="186.66666666666666" y="0" dx="0em" dy="0.95em" style="text-anchor: middle; visibility: hidden; font-family: &quot;Helvetica Neue&quot;, sans-serif; font-size: 12px; font-weight: 200;" fill="rgb(50, 49, 63)" stroke="none" stroke-width="1px">140</text><text x="210" y="0" dx="0em" dy="0.95em" style="text-anchor: middle; visibility: inherit; font-family: &quot;Helvetica Neue&quot;, sans-serif; font-size: 12px; font-weight: 200;" fill="rgb(50, 49, 63)" stroke="none" stroke-width="1px">160</text><text x="233.33333333333334" y="0" dx="0em" dy="0.95em" style="text-anchor: middle; visibility: hidden; font-family: &quot;Helvetica Neue&quot;, sans-serif; font-size: 12px; font-weight: 200;" fill="rgb(50, 49, 63)" stroke="none" stroke-width="1px">180</text><text x="256.66666666666663" y="0" dx="0em" dy="0.95em" style="text-anchor: middle; visibility: inherit; font-family: &quot;Helvetica Neue&quot;, sans-serif; font-size: 12px; font-weight: 200;" fill="rgb(50, 49, 63)" stroke="none" stroke-width="1px">200</text><text x="280" y="0" dx="0em" dy="0.95em" style="text-anchor: middle; visibility: hidden; font-family: &quot;Helvetica Neue&quot;, sans-serif; font-size: 12px; font-weight: 200;" fill="rgb(50, 49, 63)" stroke="none" stroke-width="1px">220</text></g><line x1="0" y1="0" x2="280" y2="0" fill="rgb(0, 0, 0)" stroke="rgb(204, 204, 204)" stroke-width="1px"></line></g></g></g></g></svg>